  0
SECTION
  2
HEADER
  9
$ACADVER
  1
AC1024
  9
$ACADMAINTVER
 70
     6
  9
$DWGCODEPAGE
  3
ANSI_1252
  9
$INSBASE
 10
0.0
 20
0.0
 30
0.0
  9
$EXTMIN
 10
-105.144654898
 20
-28.3125860259
 30
0.0
  9
$EXTMAX
 10
688.785044442
 20
370.168773896
 30
0.0
  9
$LIMMIN
 10
-105.144654898
 20
-28.3125860259
  9
$LIMMAX
 10
688.785044442
 20
370.168773896
  9
$ORTHOMODE
 70
     0
  9
$REGENMODE
 70
     1
  9
$FILLMODE
 70
     1
  9
$QTEXTMODE
 70
     0
  9
$MIRRTEXT
 70
     1
  9
$LTSCALE
 40
1.0
  9
$ATTMODE
 70
     1
  9
$TEXTSIZE
 40
2.5
  9
$TRACEWID
 40
1.0
  9
$TEXTSTYLE
  7
Standard
  9
$CLAYER
  8
Outline
  9
$CELTYPE
  6
ByLayer
  9
$CECOLOR
 62
   256
  9
$CELTSCALE
 40
1.0
  9
$DISPSILH
 70
     0
  9
$DIMSCALE
 40
1.0
  9
$DIMASZ
 40
2.5
  9
$DIMEXO
 40
0.625
  9
$DIMDLI
 40
3.75
  9
$DIMRND
 40
0.0
  9
$DIMDLE
 40
0.0
  9
$DIMEXE
 40
1.25
  9
$DIMTP
 40
0.0
  9
$DIMTM
 40
0.0
  9
$DIMTXT
 40
2.5
  9
$DIMCEN
 40
2.5
  9
$DIMTSZ
 40
0.0
  9
$DIMTOL
 70
     0
  9
$DIMLIM
 70
     0
  9
$DIMTIH
 70
     0
  9
$DIMTOH
 70
     0
  9
$DIMSE1
 70
     0
  9
$DIMSE2
 70
     0
  9
$DIMTAD
 70
     1
  9
$DIMZIN
 70
     8
  9
$DIMBLK
  1

  9
$DIMASO
 70
     1
  9
$DIMSHO
 70
     1
  9
$DIMPOST
  1

  9
$DIMAPOST
  1

  9
$DIMALT
 70
     0
  9
$DIMALTD
 70
     3
  9
$DIMALTF
 40
0.03937007874016
  9
$DIMLFAC
 40
1.0
  9
$DIMTOFL
 70
     1
  9
$DIMTVP
 40
0.0
  9
$DIMTIX
 70
     0
  9
$DIMSOXD
 70
     0
  9
$DIMSAH
 70
     0
  9
$DIMBLK1
  1

  9
$DIMBLK2
  1

  9
$DIMSTYLE
  2
ISO-25
  9
$DIMCLRD
 70
     0
  9
$DIMCLRE
 70
     0
  9
$DIMCLRT
 70
     0
  9
$DIMTFAC
 40
1.0
  9
$DIMGAP
 40
0.625
  9
$DIMJUST
 70
     0
  9
$DIMSD1
 70
     0
  9
$DIMSD2
 70
     0
  9
$DIMTOLJ
 70
     0
  9
$DIMTZIN
 70
     8
  9
$DIMALTZ
 70
     0
  9
$DIMALTTZ
 70
     0
  9
$DIMUPT
 70
     0
  9
$DIMDEC
 70
     2
  9
$DIMTDEC
 70
     2
  9
$DIMALTU
 70
     2
  9
$DIMALTTD
 70
     3
  9
$DIMTXSTY
  7
Standard
  9
$DIMAUNIT
 70
     0
  9
$DIMADEC
 70
     0
  9
$DIMALTRND
 40
0.0
  9
$DIMAZIN
 70
     0
  9
$DIMDSEP
 70
    44
  9
$DIMATFIT
 70
     3
  9
$DIMFRAC
 70
     0
  9
$DIMLDRBLK
  1

  9
$DIMLUNIT
 70
     2
  9
$DIMLWD
 70
    -2
  9
$DIMLWE
 70
    -2
  9
$DIMTMOVE
 70
     0
  9
$DIMFXL
 40
1.0
  9
$DIMFXLON
 70
     0
  9
$DIMJOGANG
 40
0.7853981633974483
  9
$DIMTFILL
 70
     0
  9
$DIMTFILLCLR
 70
     0
  9
$DIMARCSYM
 70
     0
  9
$DIMLTYPE
  6

  9
$DIMLTEX1
  6

  9
$DIMLTEX2
  6

  9
$DIMTXTDIRECTION
 70
     0
  9
$LUNITS
 70
     2
  9
$LUPREC
 70
     4
  9
$SKETCHINC
 40
1.0
  9
$FILLETRAD
 40
10.0
  9
$AUNITS
 70
     0
  9
$AUPREC
 70
     0
  9
$MENU
  1
.
  9
$ELEVATION
 40
0.0
  9
$PELEVATION
 40
0.0
  9
$THICKNESS
 40
0.0
  9
$LIMCHECK
 70
     0
  9
$CHAMFERA
 40
10.0
  9
$CHAMFERB
 40
10.0
  9
$CHAMFERC
 40
20.0
  9
$CHAMFERD
 40
0.0
  9
$SKPOLY
 70
     0
  9
$TDCREATE
 40
2456231.748506945
  9
$TDUCREATE
 40
2456231.373506945
  9
$TDUPDATE
 40
2456231.748506945
  9
$TDUUPDATE
 40
2456231.373506945
  9
$TDINDWG
 40
0.0000000116
  9
$TDUSRTIMER
 40
0.0000000116
  9
$USRTIMER
 70
     1
  9
$ANGBASE
 50
0.0
  9
$ANGDIR
 70
     0
  9
$PDMODE
 70
     0
  9
$PDSIZE
 40
0.0
  9
$PLINEWID
 40
0.0
  9
$SPLFRAME
 70
     0
  9
$SPLINETYPE
 70
     6
  9
$SPLINESEGS
 70
     8
  9
$HANDSEED
  5
6F
  9
$SURFTAB1
 70
     6
  9
$SURFTAB2
 70
     6
  9
$SURFTYPE
 70
     6
  9
$SURFU
 70
     6
  9
$SURFV
 70
     6
  9
$UCSBASE
  2

  9
$UCSNAME
  2

  9
$UCSORG
 10
0.0
 20
0.0
 30
0.0
  9
$UCSXDIR
 10
1.0
 20
0.0
 30
0.0
  9
$UCSYDIR
 10
0.0
 20
1.0
 30
0.0
  9
$UCSORTHOREF
  2

  9
$UCSORTHOVIEW
 70
     0
  9
$UCSORGTOP
 10
0.0
 20
0.0
 30
0.0
  9
$UCSORGBOTTOM
 10
0.0
 20
0.0
 30
0.0
  9
$UCSORGLEFT
 10
0.0
 20
0.0
 30
0.0
  9
$UCSORGRIGHT
 10
0.0
 20
0.0
 30
0.0
  9
$UCSORGFRONT
 10
0.0
 20
0.0
 30
0.0
  9
$UCSORGBACK
 10
0.0
 20
0.0
 30
0.0
  9
$PUCSBASE
  2

  9
$PUCSNAME
  2

  9
$PUCSORG
 10
0.0
 20
0.0
 30
0.0
  9
$PUCSXDIR
 10
1.0
 20
0.0
 30
0.0
  9
$PUCSYDIR
 10
0.0
 20
1.0
 30
0.0
  9
$PUCSORTHOREF
  2

  9
$PUCSORTHOVIEW
 70
     0
  9
$PUCSORGTOP
 10
0.0
 20
0.0
 30
0.0
  9
$PUCSORGBOTTOM
 10
0.0
 20
0.0
 30
0.0
  9
$PUCSORGLEFT
 10
0.0
 20
0.0
 30
0.0
  9
$PUCSORGRIGHT
 10
0.0
 20
0.0
 30
0.0
  9
$PUCSORGFRONT
 10
0.0
 20
0.0
 30
0.0
  9
$PUCSORGBACK
 10
0.0
 20
0.0
 30
0.0
  9
$USERI1
 70
     0
  9
$USERI2
 70
     0
  9
$USERI3
 70
     0
  9
$USERI4
 70
     0
  9
$USERI5
 70
     0
  9
$USERR1
 40
0.0
  9
$USERR2
 40
0.0
  9
$USERR3
 40
0.0
  9
$USERR4
 40
0.0
  9
$USERR5
 40
0.0
  9
$WORLDVIEW
 70
     1
  9
$SHADEDGE
 70
     3
  9
$SHADEDIF
 70
    70
  9
$TILEMODE
 70
     1
  9
$MAXACTVP
 70
    64
  9
$PINSBASE
 10
0.0
 20
0.0
 30
0.0
  9
$PLIMCHECK
 70
     0
  9
$PEXTMIN
 10
1.000000000000000E+20
 20
1.000000000000000E+20
 30
1.000000000000000E+20
  9
$PEXTMAX
 10
-1.000000000000000E+20
 20
-1.000000000000000E+20
 30
-1.000000000000000E+20
  9
$PLIMMIN
 10
0.0
 20
0.0
  9
$PLIMMAX
 10
420.0
 20
297.0
  9
$UNITMODE
 70
     0
  9
$VISRETAIN
 70
     1
  9
$PLINEGEN
 70
     0
  9
$PSLTSCALE
 70
     1
  9
$TREEDEPTH
 70
  3020
  9
$CMLSTYLE
  2
Standard
  9
$CMLJUST
 70
     0
  9
$CMLSCALE
 40
20.0
  9
$PROXYGRAPHICS
 70
     1
  9
$MEASUREMENT
 70
     1
  9
$CELWEIGHT
370
    -1
  9
$ENDCAPS
280
     0
  9
$JOINSTYLE
280
     0
  9
$LWDISPLAY
290
     0
  9
$INSUNITS
 70
     4
  9
$HYPERLINKBASE
  1

  9
$STYLESHEET
  1

  9
$XEDIT
290
     1
  9
$CEPSNTYPE
380
     0
  9
$PSTYLEMODE
290
     1
  9
$FINGERPRINTGUID
  2
{92905EEA-4798-D3AF-0738-BBE039DCC74E}
  9
$VERSIONGUID
  2
{FAEB1C32-E019-11D5-929B-00C0DF256EC4}
  9
$EXTNAMES
290
     1
  9
$PSVPSCALE
 40
0.0
  9
$OLESTARTUP
290
     0
  9
$SORTENTS
280
   127
  9
$INDEXCTL
280
     0
  9
$HIDETEXT
280
     1
  9
$XCLIPFRAME
280
     2
  9
$HALOGAP
280
     0
  9
$OBSCOLOR
 70
   257
  9
$OBSLTYPE
280
     0
  9
$INTERSECTIONDISPLAY
280
     0
  9
$INTERSECTIONCOLOR
 70
   257
  9
$DIMASSOC
280
     2
  9
$PROJECTNAME
  1

  9
$CAMERADISPLAY
290
     0
  9
$LENSLENGTH
 40
50.0
  9
$CAMERAHEIGHT
 40
0.0
  9
$STEPSPERSEC
 40
2.0
  9
$STEPSIZE
 40
6.0
  9
$3DDWFPREC
 40
2.0
  9
$PSOLWIDTH
 40
5.0
  9
$PSOLHEIGHT
 40
80.0
  9
$LOFTANG1
 40
1.570796326794897
  9
$LOFTANG2
 40
1.570796326794897
  9
$LOFTMAG1
 40
0.0
  9
$LOFTMAG2
 40
0.0
  9
$LOFTPARAM
 70
     7
  9
$LOFTNORMALS
280
     1
  9
$LATITUDE
 40
37.795
  9
$LONGITUDE
 40
-122.394
  9
$NORTHDIRECTION
 40
0.0
  9
$TIMEZONE
 70
 -8000
  9
$LIGHTGLYPHDISPLAY
280
     1
  9
$TILEMODELIGHTSYNCH
280
     1
  9
$CMATERIAL
347
3C
  9
$SOLIDHIST
280
     1
  9
$SHOWHIST
280
     1
  9
$DWFFRAME
280
     2
  9
$DGNFRAME
280
     2
  9
$REALWORLDSCALE
290
     1
  9
$INTERFERECOLOR
 62
   256
  9
$CSHADOW
280
     0
  9
$SHADOWPLANELOCATION
 40
0.0
  0
ENDSEC
  0
SECTION
  2
CLASSES
  0
CLASS
  1
ACDBDICTIONARYWDFLT
  2
AcDbDictionaryWithDefault
  3
ObjectDBX Classes
 90
        0
 91
        4
280
     0
281
     0
  0
CLASS
  1
VISUALSTYLE
  2
AcDbVisualStyle
  3
ObjectDBX Classes
 90
     4095
 91
        4
280
     0
281
     0
  0
CLASS
  1
MATERIAL
  2
AcDbMaterial
  3
ObjectDBX Classes
 90
     1153
 91
        4
280
     0
281
     0
  0
CLASS
  1
SUN
  2
AcDbSun
  3
SCENEOE
 90
     1024
 91
        4
280
     0
281
     0
  0
ENDSEC
  0
SECTION
  2
TABLES
  0
TABLE
  2
VPORT
  5
8
330
0
100
AcDbSymbolTable
 70
     1
  0
VPORT
  5
29
330
8
100
AcDbSymbolTableRecord
100
AcDbViewportTableRecord
  2
*Active
 70
     0
 10
0.0
 20
0.0
 11
1.0
 21
1.0
 12
360.5069142256372
 22
77.37740091485402
 13
0.0
 23
0.0
 14
10.0
 24
10.0
 15
10.0
 25
10.0
 16
0.0
 26
0.0
 36
1.0
 17
0.0
 27
0.0
 37
0.0
 40
643.00113180099
 41
2.116173120728929
 42
50.0
 43
0.0
 44
0.0
 50
0.0
 51
0.0
 71
     0
 72
   100
 73
     1
 74
     3
 75
     0
 76
     0
 77
     0
 78
     0
281
     0
 65
     1
110
0.0
120
0.0
130
0.0
111
1.0
121
0.0
131
0.0
112
0.0
122
1.0
132
0.0
 79
     0
146
0.0
 60
     3
 61
     5
292
     1
282
     1
141
0.0
142
0.0
 63
   250
361
3F
  0
ENDTAB
  0
TABLE
  2
LTYPE
  5
5
330
0
100
AcDbSymbolTable
 70
     7
  0
LTYPE
  5
14
330
5
100
AcDbSymbolTableRecord
100
AcDbLinetypeTableRecord
  2
ByBlock
 70
     0
  3

 72
    65
 73
     0
 40
0.0
  0
LTYPE
  5
15
330
5
100
AcDbSymbolTableRecord
100
AcDbLinetypeTableRecord
  2
ByLayer
 70
     0
  3

 72
    65
 73
     0
 40
0.0
  0
LTYPE
  5
16
330
5
100
AcDbSymbolTableRecord
100
AcDbLinetypeTableRecord
  2
Continuous
 70
     0
  3
Solid line
 72
    65
 73
     0
 40
0.0
  0
LTYPE
  5
40
330
5
100
AcDbSymbolTableRecord
100
AcDbLinetypeTableRecord
  2
DOT
 70
     0
  3
Dot . . . . . . . . . . . . . . . . . . . . . . . .
 72
    65
 73
     2
 40
2.032
 49
1.016
 74
     0
 49
-1.016
 74
     0
  0
LTYPE
  5
41
330
5
100
AcDbSymbolTableRecord
100
AcDbLinetypeTableRecord
  2
CENTER
 70
     0
  3
Center ____ _ ____ _ ____ _ ____ _ ____ _ ____
 72
    65
 73
     4
 40
13.208
 49
8.128
 74
     0
 49
-1.524
 74
     0
 49
2.032
 74
     0
 49
-1.524
 74
     0
  0
LTYPE
  5
42
330
5
100
AcDbSymbolTableRecord
100
AcDbLinetypeTableRecord
  2
HIDDEN2
 70
     0
  3
Hidden (.5x) _ _ _ _ _ _ _ _ _ _ _ _ _ _ _ _ _
 72
    65
 73
     2
 40
4.762499999999999
 49
3.175
 74
     0
 49
-1.5875
 74
     0
  0
LTYPE
  5
43
330
5
100
AcDbSymbolTableRecord
100
AcDbLinetypeTableRecord
  2
DASHED
 70
     0
  3
Dashed __ __ __ __ __ __ __ __ __ __ __ __ __ _
 72
    65
 73
     2
 40
9.652
 49
8.128
 74
     0
 49
-1.524
 74
     0
  0
LTYPE
  5
44
330
5
100
AcDbSymbolTableRecord
100
AcDbLinetypeTableRecord
  2
PHANTOM2
 70
     0
  3
Phantom (.5x) ___ _ _ ___ _ _ ___ _ _ ___ _ _
 72
    65
 73
     6
 40
14.732
 49
8.128
 74
     0
 49
-1.524
 74
     0
 49
1.016
 74
     0
 49
-1.524
 74
     0
 49
1.016
 74
     0
 49
-1.524
 74
     0
  0
LTYPE
  5
45
330
5
100
AcDbSymbolTableRecord
100
AcDbLinetypeTableRecord
  2
DASHDOT
 70
     0
  3
Dash dot __ . __ . __ . __ . __ . __ . __ . __
 72
    65
 73
     4
 40
11.176
 49
8.128
 74
     0
 49
-1.524
 74
     0
 49
0.0
 74
     0
 49
-1.524
 74
     0
  0
ENDTAB
  0
TABLE
  2
LAYER
  5
2
330
0
100
AcDbSymbolTable
 70
     7
  0
LAYER
  5
10
330
2
100
AcDbSymbolTableRecord
100
AcDbLayerTableRecord
  2
0
 70
     0
 62
     5
  6
Continuous
370
    -3
390
F
347
3E
  0
LAYER
  5
46
330
2
100
AcDbSymbolTableRecord
100
AcDbLayerTableRecord
  2
Default
 70
     0
 62
     255
  6
Continuous
370
    -3
390
F
347
3E
  0
LAYER
  5
78
330
2
100
AcDbSymbolTableRecord
100
AcDbLayerTableRecord
  2
source_beam
 70
0
 62
255
  6
Continuous
370
    -3
390
F
347
3E
  0
LAYER
  5
7a
330
2
100
AcDbSymbolTableRecord
100
AcDbLayerTableRecord
  2
source_beam_width
 70
0
 62
255
  6
Continuous
370
    -3
390
F
347
3E
  0
LAYER
  5
7d
330
2
100
AcDbSymbolTableRecord
100
AcDbLayerTableRecord
  2
Mirrors
 70
0
 62
255
  6
Continuous
370
    -3
390
F
347
3E
  0
LAYER
  5
8d
330
2
100
AcDbSymbolTableRecord
100
AcDbLayerTableRecord
  2
text
 70
0
 62
255
  6
Continuous
370
    -3
390
F
347
3E
  0
LAYER
  5
d0
330
2
100
AcDbSymbolTableRecord
100
AcDbLayerTableRecord
  2
main_beam
 70
0
 62
255
  6
Continuous
370
    -3
390
F
347
3E
  0
LAYER
  5
10f
330
2
100
AcDbSymbolTableRecord
100
AcDbLayerTableRecord
  2
main_beam_width
 70
0
 62
255
  6
Continuous
370
    -3
390
F
347
3E
  0
ENDTAB
  0
TABLE
  2
STYLE
  5
3
330
0
100
AcDbSymbolTable
 70
    33
  0
STYLE
  5
11
330
3
100
AcDbSymbolTableRecord
100
AcDbTextStyleTableRecord
  2
Standard
 70
     0
 40
0.0
 41
1.0
 50
0.0
 71
     0
 42
2.5
  3
txt
  4

  0
ENDTAB
  0
TABLE
  2
VIEW
  5
6
330
0
100
AcDbSymbolTable
 70
     0
  0
ENDTAB
  0
TABLE
  2
UCS
  5
7
330
0
100
AcDbSymbolTable
 70
     0
  0
ENDTAB
  0
TABLE
  2
APPID
  5
9
330
0
100
AcDbSymbolTable
 70
     1
  0
APPID
  5
12
330
9
100
AcDbSymbolTableRecord
100
AcDbRegAppTableRecord
  2
ACAD
 70
     0
  0
ENDTAB
  0
TABLE
  2
DIMSTYLE
  5
A
330
0
100
AcDbSymbolTable
 70
     1
100
AcDbDimStyleTable
  0
DIMSTYLE
105
27
330
A
100
AcDbSymbolTableRecord
100
AcDbDimStyleTableRecord
  2
ISO-25
 70
     0
 41
2.5
 42
0.625
 43
3.75
 44
1.25
 73
     0
 74
     0
 77
     1
 78
     8
140
2.5
141
2.5
143
0.03937007874016
147
0.625
171
     3
172
     1
178
     0
271
     2
272
     2
274
     3
278
    44
283
     0
284
     8
340
11
  0
ENDTAB
  0
TABLE
  2
BLOCK_RECORD
  5
1
330
0
100
AcDbSymbolTable
 70
     1
  0
BLOCK_RECORD
  5
1F
330
1
100
AcDbSymbolTableRecord
100
AcDbBlockTableRecord
  2
*Model_Space
340
22
 70
     0
280
     1
281
     0
  0
BLOCK_RECORD
  5
1B
330
1
100
AcDbSymbolTableRecord
100
AcDbBlockTableRecord
  2
*Paper_Space
340
1E
 70
     0
280
     1
281
     0
  0
BLOCK_RECORD
  5
23
330
1
100
AcDbSymbolTableRecord
100
AcDbBlockTableRecord
  2
*Paper_Space0
340
26
 70
     0
280
     1
281
     0
  0
ENDTAB
    0
ENDSEC
  0
SECTION
  2
BLOCKS
  0
BLOCK
  5
20
330
1F
100
AcDbEntity
  8
0
100
AcDbBlockBegin
  2
*Model_Space
 70
     0
 10
0.0
 20
0.0
 30
0.0
  3
*Model_Space
  1

  0
ENDBLK
  5
21
330
1F
100
AcDbEntity
  8
0
100
AcDbBlockEnd
  0
BLOCK
  5
1C
330
1B
100
AcDbEntity
 67
     1
  8
0
100
AcDbBlockBegin
  2
*Paper_Space
 70
     0
 10
0.0
 20
0.0
 30
0.0
  3
*Paper_Space
  1

  0
ENDBLK
  5
1D
330
1B
100
AcDbEntity
 67
     1
  8
0
100
AcDbBlockEnd
  0
BLOCK
  5
24
330
23
100
AcDbEntity
  8
0
100
AcDbBlockBegin
  2
*Paper_Space0
 70
     0
 10
0.0
 20
0.0
 30
0.0
  3
*Paper_Space0
  1

  0
ENDBLK
  5
25
330
23
100
AcDbEntity
  8
0
100
AcDbBlockEnd
  0
ENDSEC
  0
SECTION
  2
ENTITIES
  0
LINE
  5
79
330
1F
100
AcDbEntity
  8
source_beam
100
AcDbLine
 10
0.0
 20
0.0
 30
0.0
  11
295.442325904
 21
52.0944533001
 31
0.0
  0
LWPOLYLINE
  5
7b
330
1F
100
AcDbEntity
  8
source_beam_width
100
AcDbPolyline
 90
11
 70
0
43
0.0
 10
-0.1562833599
 20
0.886326977711
 10
29.3869564653
 20
6.10140255885
 10
58.928247665
 20
11.327529344
 10
88.4676944165
 20
16.5641165153
 10
118.005451081
 20
21.8102886455
 10
147.541700527
 20
27.0650086395
 10
177.076633887
 20
32.3271925223
 10
206.6104354
 20
37.5957954315
 10
236.143273191
 20
42.8698638826
 10
265.675295076
 20
48.1485595643
 10
295.206627829
 20
53.4311635072
  0
LWPOLYLINE
  5
7c
330
1F
100
AcDbEntity
  8
source_beam_width
100
AcDbPolyline
 90
11
 70
0
43
0.0
 10
0.1562833599
 20
-0.886326977711
 10
29.7015087154
 20
4.31748810117
 10
59.2486826964
 20
9.51025197601
 10
88.7977011257
 20
14.6925554648
 10
118.348409642
 20
19.8652739946
 10
147.900625377
 20
25.0294446606
 10
177.454157197
 20
30.1861514378
 10
207.008820865
 20
35.3364391886
 10
236.564448255
 20
40.4812613975
 10
266.120891551
 20
45.6214563758
 10
295.678023979
 20
50.7577430929
  0
LINE
  5
7e
330
1F
100
AcDbEntity
  8
Mirrors
100
AcDbLine
 10
493.471826228
 20
225.0
 30
0.0
  11
592.926407375
 21
225.0
 31
0.0
  0
LINE
  5
7f
330
1F
100
AcDbEntity
  8
Mirrors
100
AcDbLine
 10
594.017245081
 20
-25.0
 30
0.0
  11
493.471826228
 21
-25.0
 31
0.0
  0
LINE
  5
80
330
1F
100
AcDbEntity
  8
Mirrors
100
AcDbLine
 10
503.471826228
 20
-25.0
 30
0.0
  11
503.471826228
 21
225.0
 31
0.0
  0
LWPOLYLINE
  5
81
330
1F
100
AcDbEntity
  8
Mirrors
100
AcDbPolyline
 90
60
 70
0
43
0.0
 10
493.471826228
 20
-25.0
 10
493.915410376
 20
-20.6896551724
 10
494.343273989
 20
-16.3793103448
 10
494.755433956
 20
-12.0689655172
 10
495.151906524
 20
-7.75862068966
 10
495.532707299
 20
-3.44827586207
 10
495.897851252
 20
0.862068965517
 10
496.247352722
 20
5.1724137931
 10
496.581225414
 20
9.48275862069
 10
496.899482407
 20
13.7931034483
 10
497.202136156
 20
18.1034482759
 10
497.48919849
 20
22.4137931034
 10
497.760680619
 20
26.724137931
 10
498.016593137
 20
31.0344827586
 10
498.256946018
 20
35.3448275862
 10
498.481748623
 20
39.6551724138
 10
498.691009703
 20
43.9655172414
 10
498.884737394
 20
48.275862069
 10
499.062939225
 20
52.5862068966
 10
499.225622119
 20
56.8965517241
 10
499.37279239
 20
61.2068965517
 10
499.504455747
 20
65.5172413793
 10
499.620617298
 20
69.8275862069
 10
499.721281544
 20
74.1379310345
 10
499.806452386
 20
78.4482758621
 10
499.876133124
 20
82.7586206897
 10
499.930326455
 20
87.0689655172
 10
499.96903448
 20
91.3793103448
 10
499.992258695
 20
95.6896551724
 10
500.0
 20
100.0
 10
500.0
 20
100.0
 10
499.992258695
 20
104.310344828
 10
499.96903448
 20
108.620689655
 10
499.930326455
 20
112.931034483
 10
499.876133124
 20
117.24137931
 10
499.806452386
 20
121.551724138
 10
499.721281544
 20
125.862068966
 10
499.620617298
 20
130.172413793
 10
499.504455747
 20
134.482758621
 10
499.37279239
 20
138.793103448
 10
499.225622119
 20
143.103448276
 10
499.062939225
 20
147.413793103
 10
498.884737394
 20
151.724137931
 10
498.691009703
 20
156.034482759
 10
498.481748623
 20
160.344827586
 10
498.256946018
 20
164.655172414
 10
498.016593137
 20
168.965517241
 10
497.760680619
 20
173.275862069
 10
497.48919849
 20
177.586206897
 10
497.202136156
 20
181.896551724
 10
496.899482407
 20
186.206896552
 10
496.581225414
 20
190.517241379
 10
496.247352722
 20
194.827586207
 10
495.897851252
 20
199.137931034
 10
495.532707299
 20
203.448275862
 10
495.151906524
 20
207.75862069
 10
494.755433956
 20
212.068965517
 10
494.343273989
 20
216.379310345
 10
493.915410376
 20
220.689655172
 10
493.471826228
 20
225.0
  0
LINE
  5
82
330
1F
100
AcDbEntity
  8
Mirrors
100
AcDbLine
 10
592.926407375
 20
225.0
 30
0.0
  11
594.017245081
 21
-25.0
 31
0.0
  0
LINE
  5
83
330
1F
100
AcDbEntity
  8
Mirrors
100
AcDbLine
 10
5.7360751926
 20
105.215353737
 30
0.0
  11
-43.7476536905
 21
100.88608843
 31
0.0
  0
LINE
  5
84
330
1F
100
AcDbEntity
  8
Mirrors
100
AcDbLine
 10
-57.4730271457
 20
250.258249482
 30
0.0
  11
-7.33728621955
 21
254.64455845
 31
0.0
  0
LINE
  5
85
330
1F
100
AcDbEntity
  8
Mirrors
100
AcDbLine
 10
-12.31825971
 20
254.208779737
 30
0.0
  11
0.755101702137
 21
104.779575023
 31
0.0
  0
LWPOLYLINE
  5
86
330
1F
100
AcDbEntity
  8
Mirrors
100
AcDbPolyline
 90
60
 70
0
43
0.0
 10
-7.33728621955
 20
254.64455845
 10
-7.05761542294
 20
252.072940688
 10
-6.77984956803
 20
249.501156265
 10
-6.50398856899
 20
246.929205188
 10
-6.23003234308
 20
244.357087465
 10
-5.95798081074
 20
241.784803104
 10
-5.6878338955
 20
239.212352109
 10
-5.41959152402
 20
236.639734489
 10
-5.1532536261
 20
234.066950249
 10
-4.88882013464
 20
231.493999395
 10
-4.6262909857
 20
228.920881933
 10
-4.36566611842
 20
226.347597867
 10
-4.1069454751
 20
223.774147204
 10
-3.85012900114
 20
221.200529947
 10
-3.59521664507
 20
218.626746102
 10
-3.34220835855
 20
216.052795672
 10
-3.09110409634
 20
213.478678662
 10
-2.84190381634
 20
210.904395074
 10
-2.59460747955
 20
208.329944913
 10
-2.34921505012
 20
205.755328182
 10
-2.1057264953
 20
203.180544884
 10
-1.86414178546
 20
200.605595021
 10
-1.62446089409
 20
198.030478595
 10
-1.3866837978
 20
195.455195608
 10
-1.15081047633
 20
192.879746063
 10
-0.916840912514
 20
190.304129961
 10
-0.68477509233
 20
187.728347303
 10
-0.45461300486
 20
185.152398089
 10
-0.226354642309
 20
182.576282322
 10
0.0
 20
180.0
 10
0.0
 20
180.0
 10
0.224450923627
 20
177.423551125
 10
0.446998127012
 20
174.846935695
 10
0.667641605479
 20
172.270153712
 10
0.88638135123
 20
169.693205173
 10
1.10321735335
 20
167.116090078
 10
1.31814959781
 20
164.538808426
 10
1.53117806746
 20
161.961360215
 10
1.74230274203
 20
159.383745444
 10
1.95152359812
 20
156.805964111
 10
2.15884060924
 20
154.228016212
 10
2.36425374574
 20
151.649901746
 10
2.5677629749
 20
149.07162071
 10
2.76936826083
 20
146.4931731
 10
2.96906956456
 20
143.914558914
 10
3.16686684397
 20
141.335778146
 10
3.36276005384
 20
138.756830795
 10
3.55674914582
 20
136.177716855
 10
3.74883406843
 20
133.598436321
 10
3.93901476709
 20
131.018989189
 10
4.12729118408
 20
128.439375455
 10
4.31366325856
 20
125.859595112
 10
4.49813092658
 20
123.279648155
 10
4.68069412103
 20
120.699534578
 10
4.86135277173
 20
118.119254375
 10
5.04010680532
 20
115.53880754
 10
5.21695614536
 20
112.958194065
 10
5.39190071224
 20
110.377413945
 10
5.56494042327
 20
107.796467171
 10
5.7360751926
 20
105.215353737
  0
LINE
  5
87
330
1F
100
AcDbEntity
  8
Mirrors
100
AcDbLine
 10
-43.7476536905
 20
100.88608843
 30
0.0
  11
-57.4730271457
 21
250.258249482
 31
0.0
  0
LINE
  5
88
330
1F
100
AcDbEntity
  8
Mirrors
100
AcDbLine
 10
327.992608701
 20
230.415089758
 30
0.0
  11
282.627752137
 21
212.72807127
 31
0.0
  0
LINE
  5
89
330
1F
100
AcDbEntity
  8
Mirrors
100
AcDbLine
 10
225.700657936
 20
351.530669336
 30
0.0
  11
273.50492413
 21
370.168773896
 31
0.0
  0
LINE
  5
8a
330
1F
100
AcDbEntity
  8
Mirrors
100
AcDbLine
 10
268.846467993
 20
368.352517743
 30
0.0
  11
323.334152563
 21
228.598833605
 31
0.0
  0
LWPOLYLINE
  5
8b
330
1F
100
AcDbEntity
  8
Mirrors
100
AcDbPolyline
 90
60
 70
0
43
0.0
 10
273.50492413
 20
370.168773896
 10
274.393612801
 20
367.739439394
 10
275.284083068
 20
365.310799509
 10
276.176334852
 20
362.882854208
 10
277.070368075
 20
360.455603461
 10
277.966182663
 20
358.029047239
 10
278.863778545
 20
355.603185514
 10
279.763155651
 20
353.17801826
 10
280.664313917
 20
350.753545451
 10
281.567253279
 20
348.329767063
 10
282.471973678
 20
345.906683071
 10
283.378475056
 20
343.484293455
 10
284.28675736
 20
341.062598192
 10
285.196820538
 20
338.641597264
 10
286.108664544
 20
336.22129065
 10
287.02228933
 20
333.801678335
 10
287.937694855
 20
331.3827603
 10
288.854881081
 20
328.964536531
 10
289.773847969
 20
326.547007014
 10
290.694595487
 20
324.130171735
 10
291.617123603
 20
321.714030683
 10
292.541432292
 20
319.298583847
 10
293.467521526
 20
316.883831216
 10
294.395391285
 20
314.469772783
 10
295.32504155
 20
312.056408541
 10
296.256472305
 20
309.643738482
 10
297.189683536
 20
307.231762602
 10
298.124675233
 20
304.820480896
 10
299.061447389
 20
302.409893363
 10
300.0
 20
300.0
 10
300.0
 20
300.0
 10
300.940333064
 20
297.590800807
 10
301.882446583
 20
295.182295783
 10
302.82634056
 20
292.774484932
 10
303.772015004
 20
290.367368256
 10
304.719469925
 20
287.960945758
 10
305.668705335
 20
285.555217444
 10
306.61972125
 20
283.150183321
 10
307.57251769
 20
280.745843395
 10
308.527094677
 20
278.342197675
 10
309.483452235
 20
275.939246171
 10
310.441590392
 20
273.536988893
 10
311.401509179
 20
271.135425854
 10
312.363208629
 20
268.734557066
 10
313.326688778
 20
266.334382544
 10
314.291949666
 20
263.934902303
 10
315.258991336
 20
261.53611636
 10
316.227813832
 20
259.138024732
 10
317.198417203
 20
256.740627438
 10
318.1708015
 20
254.343924498
 10
319.144966776
 20
251.947915933
 10
320.120913089
 20
249.552601765
 10
321.098640498
 20
247.157982018
 10
322.078149067
 20
244.764056715
 10
323.05943886
 20
242.370825884
 10
324.042509947
 20
239.978289549
 10
325.027362398
 20
237.586447739
 10
326.013996289
 20
235.195300484
 10
327.002411697
 20
232.804847813
 10
327.992608701
 20
230.415089758
  0
LINE
  5
8c
330
1F
100
AcDbEntity
  8
Mirrors
100
AcDbLine
 10
282.627752137
 20
212.72807127
 30
0.0
  11
225.700657936
 21
351.530669336
 31
0.0
  0
TEXT
  5
8e
330
1F
100
AcDbEntity
  8
text
100
AcDbText
 10
492.910826018
 20
118.497055111
 30
0.0
  40
10.0
  1

 50
0.0
 7
Standard
100
AcDbText
  0
TEXT
  5
8f
330
1F
100
AcDbEntity
  8
text
100
AcDbText
 10
598.299367922
 20
88.5568423737
 30
0.0
  40
10.0
  1

 50
0.0
 7
Standard
100
AcDbText
  0
TEXT
  5
90
330
1F
100
AcDbEntity
  8
text
100
AcDbText
 10
492.991784627
 20
97.4056146566
 30
0.0
  40
10.0
  1

 50
0.0
 7
Standard
100
AcDbText
  0
TEXT
  5
91
330
1F
100
AcDbEntity
  8
text
100
AcDbText
 10
399.724263509
 20
80.6364386193
 30
0.0
  40
10.0
  1

 50
0.0
 7
Standard
100
AcDbText
  0
TEXT
  5
92
330
1F
100
AcDbEntity
  8
text
100
AcDbText
 10
44.5908848959
 20
192.104487829
 30
0.0
  40
10.0
  1

 50
0.0
 7
Standard
100
AcDbText
  0
TEXT
  5
93
330
1F
100
AcDbEntity
  8
text
100
AcDbText
 10
-101.166006235
 20
187.957442672
 30
0.0
  40
10.0
  1

 50
0.0
 7
Standard
100
AcDbText
  0
TEXT
  5
94
330
1F
100
AcDbEntity
  8
text
100
AcDbText
 10
46.27704213
 20
171.646603042
 30
0.0
  40
10.0
  1

 50
0.0
 7
Standard
100
AcDbText
  0
TEXT
  5
95
330
1F
100
AcDbEntity
  8
text
100
AcDbText
 10
95.6011205574
 20
157.519338213
 30
0.0
  40
10.0
  1

 50
0.0
 7
Standard
100
AcDbText
  0
TEXT
  5
96
330
1F
100
AcDbEntity
  8
text
100
AcDbText
 10
202.048953556
 20
275.02423205
 30
0.0
  40
10.0
  1

 50
0.0
 7
Standard
100
AcDbText
  0
TEXT
  5
97
330
1F
100
AcDbEntity
  8
text
100
AcDbText
 10
349.475754651
 20
312.503027126
 30
0.0
  40
10.0
  1

 50
0.0
 7
Standard
100
AcDbText
  0
TEXT
  5
98
330
1F
100
AcDbEntity
  8
text
100
AcDbText
 10
201.875304153
 20
276.231345157
 30
0.0
  40
10.0
  1

 50
0.0
 7
Standard
100
AcDbText
  0
TEXT
  5
99
330
1F
100
AcDbEntity
  8
text
100
AcDbText
 10
155.942222012
 20
258.557710737
 30
0.0
  40
10.0
  1

 50
0.0
 7
Standard
100
AcDbText
  0
TEXT
  5
9a
330
1F
100
AcDbEntity
  8
text
100
AcDbText
 10
348.725012473
 20
312.854202983
 30
0.0
  40
10.0
  1

 50
0.0
 7
Standard
100
AcDbText
  0
TEXT
  5
9b
330
1F
100
AcDbEntity
  8
text
100
AcDbText
 10
96.0722728424
 20
207.462391699
 30
0.0
  40
10.0
  1

 50
0.0
 7
Standard
100
AcDbText
  0
TEXT
  5
9c
330
1F
100
AcDbEntity
  8
text
100
AcDbText
 10
49.0687063508
 20
182.046376447
 30
0.0
  40
10.0
  1

 50
0.0
 7
Standard
100
AcDbText
  0
TEXT
  5
9d
330
1F
100
AcDbEntity
  8
text
100
AcDbText
 10
404.300167296
 20
91.6149642568
 30
0.0
  40
10.0
  1

 50
0.0
 7
Standard
100
AcDbText
  0
TEXT
  5
9e
330
1F
100
AcDbEntity
  8
text
100
AcDbText
 10
496.877211713
 20
69.3705130427
 30
0.0
  40
10.0
  1

 50
0.0
 7
Standard
100
AcDbText
  0
TEXT
  5
9f
330
1F
100
AcDbEntity
  8
text
100
AcDbText
 10
93.5896819341
 20
-18.5585781994
 30
0.0
  40
10.0
  1

 50
0.0
 7
Standard
100
AcDbText
  0
TEXT
  5
a0
330
1F
100
AcDbEntity
  8
text
100
AcDbText
 10
592.162203878
 20
53.2436922394
 30
0.0
  40
10.0
  1

 50
0.0
 7
Standard
100
AcDbText
  0
TEXT
  5
a1
330
1F
100
AcDbEntity
  8
text
100
AcDbText
 10
-1.21879075304
 20
171.237662124
 30
0.0
  40
10.0
  1

 50
0.0
 7
Standard
100
AcDbText
  0
TEXT
  5
a2
330
1F
100
AcDbEntity
  8
text
100
AcDbText
 10
49.8905838211
 20
177.700396392
 30
0.0
  40
10.0
  1

 50
0.0
 7
Standard
100
AcDbText
  0
TEXT
  5
a3
330
1F
100
AcDbEntity
  8
text
100
AcDbText
 10
-98.3264252251
 20
193.587717014
 30
0.0
  40
10.0
  1

 50
0.0
 7
Standard
100
AcDbText
  0
TEXT
  5
a4
330
1F
100
AcDbEntity
  8
text
100
AcDbText
 10
48.0821162702
 20
196.456234383
 30
0.0
  40
10.0
  1

 50
0.0
 7
Standard
100
AcDbText
  0
TEXT
  5
a5
330
1F
100
AcDbEntity
  8
text
100
AcDbText
 10
96.140885712
 20
218.278420836
 30
0.0
  40
10.0
  1

 50
0.0
 7
Standard
100
AcDbText
  0
TEXT
  5
a6
330
1F
100
AcDbEntity
  8
text
100
AcDbText
 10
496.181004522
 20
95.6223966069
 30
0.0
  40
10.0
  1

 50
0.0
 7
Standard
100
AcDbText
  0
TEXT
  5
a7
330
1F
100
AcDbEntity
  8
text
100
AcDbText
 10
600.375857287
 20
87.3492782583
 30
0.0
  40
10.0
  1

 50
0.0
 7
Standard
100
AcDbText
  0
TEXT
  5
a8
330
1F
100
AcDbEntity
  8
text
100
AcDbText
 10
495.290152854
 20
117.958209491
 30
0.0
  40
10.0
  1

 50
0.0
 7
Standard
100
AcDbText
  0
TEXT
  5
a9
330
1F
100
AcDbEntity
  8
text
100
AcDbText
 10
403.102016355
 20
134.093747662
 30
0.0
  40
10.0
  1

 50
0.0
 7
Standard
100
AcDbText
  0
TEXT
  5
aa
330
1F
100
AcDbEntity
  8
text
100
AcDbText
 10
100.067691965
 20
23.6174428631
 30
0.0
  40
10.0
  1

 50
0.0
 7
Standard
100
AcDbText
  0
TEXT
  5
ab
330
1F
100
AcDbEntity
  8
text
100
AcDbText
 10
507.352027114
 20
76.1757470004
 30
0.0
  40
10.0
  1

 50
0.0
 7
Standard
100
AcDbText
  0
TEXT
  5
ac
330
1F
100
AcDbEntity
  8
text
100
AcDbText
 10
590.627202067
 20
81.831091004
 30
0.0
  40
10.0
  1

 50
0.0
 7
Standard
100
AcDbText
  0
TEXT
  5
ad
330
1F
100
AcDbEntity
  8
text
100
AcDbText
 10
589.379562586
 20
107.415290785
 30
0.0
  40
10.0
  1

 50
0.0
 7
Standard
100
AcDbText
  0
TEXT
  5
ae
330
1F
100
AcDbEntity
  8
text
100
AcDbText
 10
402.983801945
 20
117.889884157
 30
0.0
  40
10.0
  1

 50
0.0
 7
Standard
100
AcDbText
  0
TEXT
  5
af
330
1F
100
AcDbEntity
  8
text
100
AcDbText
 10
99.6745266672
 20
20.3612329755
 30
0.0
  40
10.0
  1

 50
0.0
 7
Standard
100
AcDbText
  0
TEXT
  5
b0
330
1F
100
AcDbEntity
  8
text
100
AcDbText
 10
-0.243338859516
 20
168.3112747
 30
0.0
  40
10.0
  1

 50
0.0
 7
Standard
100
AcDbText
  0
TEXT
  5
b1
330
1F
100
AcDbEntity
  8
text
100
AcDbText
 10
-2.13244195054
 20
186.69978188
 30
0.0
  40
10.0
  1

 50
0.0
 7
Standard
100
AcDbText
  0
TEXT
  5
b2
330
1F
100
AcDbEntity
  8
text
100
AcDbText
 10
95.5179786966
 20
232.702697175
 30
0.0
  40
10.0
  1

 50
0.0
 7
Standard
100
AcDbText
  0
TEXT
  5
b3
330
1F
100
AcDbEntity
  8
text
100
AcDbText
 10
46.6294765461
 20
214.672566604
 30
0.0
  40
10.0
  1

 50
0.0
 7
Standard
100
AcDbText
  0
TEXT
  5
b4
330
1F
100
AcDbEntity
  8
text
100
AcDbText
 10
399.947079829
 20
181.922792727
 30
0.0
  40
10.0
  1

 50
0.0
 7
Standard
100
AcDbText
  0
TEXT
  5
b5
330
1F
100
AcDbEntity
  8
text
100
AcDbText
 10
493.91276709
 20
172.046532472
 30
0.0
  40
10.0
  1

 50
0.0
 7
Standard
100
AcDbText
  0
TEXT
  5
b6
330
1F
100
AcDbEntity
  8
text
100
AcDbText
 10
104.823026215
 20
69.7107957261
 30
0.0
  40
10.0
  1

 50
0.0
 7
Standard
100
AcDbText
  0
TEXT
  5
b7
330
1F
100
AcDbEntity
  8
text
100
AcDbText
 10
589.001504576
 20
167.020405388
 30
0.0
  40
10.0
  1

 50
0.0
 7
Standard
100
AcDbText
  0
TEXT
  5
b8
330
1F
100
AcDbEntity
  8
text
100
AcDbText
 10
-3.48683028938
 20
206.008897244
 30
0.0
  40
10.0
  1

 50
0.0
 7
Standard
100
AcDbText
  0
TEXT
  5
b9
330
1F
100
AcDbEntity
  8
text
100
AcDbText
 10
247.429004033
 20
293.890235144
 30
0.0
  40
10.0
  1

 50
0.0
 7
Standard
100
AcDbText
  0
TEXT
  5
ba
330
1F
100
AcDbEntity
  8
text
100
AcDbText
 10
247.698321751
 20
294.238606059
 30
0.0
  40
10.0
  1

 50
0.0
 7
Standard
100
AcDbText
  0
TEXT
  5
bb
330
1F
100
AcDbEntity
  8
text
100
AcDbText
 10
148.229893726
 20
277.226628584
 30
0.0
  40
10.0
  1

 50
0.0
 7
Standard
100
AcDbText
  0
TEXT
  5
bc
330
1F
100
AcDbEntity
  8
text
100
AcDbText
 10
194.485141949
 20
295.344390791
 30
0.0
  40
10.0
  1

 50
0.0
 7
Standard
100
AcDbText
  0
TEXT
  5
bd
330
1F
100
AcDbEntity
  8
text
100
AcDbText
 10
341.678139297
 20
330.989116494
 30
0.0
  40
10.0
  1

 50
0.0
 7
Standard
100
AcDbText
  0
TEXT
  5
be
330
1F
100
AcDbEntity
  8
text
100
AcDbText
 10
93.9889165325
 20
244.19715398
 30
0.0
  40
10.0
  1

 50
0.0
 7
Standard
100
AcDbText
  0
TEXT
  5
bf
330
1F
100
AcDbEntity
  8
text
100
AcDbText
 10
400.938757209
 20
177.666489141
 30
0.0
  40
10.0
  1

 50
0.0
 7
Standard
100
AcDbText
  0
TEXT
  5
c0
330
1F
100
AcDbEntity
  8
text
100
AcDbText
 10
104.022808231
 20
54.896115682
 30
0.0
  40
10.0
  1

 50
0.0
 7
Standard
100
AcDbText
  0
TEXT
  5
c1
330
1F
100
AcDbEntity
  8
text
100
AcDbText
 10
-8.36731204651
 20
193.134478184
 30
0.0
  40
10.0
  1

 50
0.0
 7
Standard
100
AcDbText
  0
TEXT
  5
c2
330
1F
100
AcDbEntity
  8
text
100
AcDbText
 10
-6.8090977898
 20
172.897952663
 30
0.0
  40
10.0
  1

 50
0.0
 7
Standard
100
AcDbText
  0
TEXT
  5
c3
330
1F
100
AcDbEntity
  8
text
100
AcDbText
 10
96.1709254041
 20
164.658493484
 30
0.0
  40
10.0
  1

 50
0.0
 7
Standard
100
AcDbText
  0
TEXT
  5
c4
330
1F
100
AcDbEntity
  8
text
100
AcDbText
 10
156.929290807
 20
257.239193434
 30
0.0
  40
10.0
  1

 50
0.0
 7
Standard
100
AcDbText
  0
TEXT
  5
c5
330
1F
100
AcDbEntity
  8
text
100
AcDbText
 10
203.396288685
 20
272.945972166
 30
0.0
  40
10.0
  1

 50
0.0
 7
Standard
100
AcDbText
  0
TEXT
  5
c6
330
1F
100
AcDbEntity
  8
text
100
AcDbText
 10
351.447468355
 20
308.437631203
 30
0.0
  40
10.0
  1

 50
0.0
 7
Standard
100
AcDbText
  0
TEXT
  5
c7
330
1F
100
AcDbEntity
  8
text
100
AcDbText
 10
96.722391517
 20
204.3384293
 30
0.0
  40
10.0
  1

 50
0.0
 7
Standard
100
AcDbText
  0
TEXT
  5
c8
330
1F
100
AcDbEntity
  8
text
100
AcDbText
 10
403.987223163
 20
97.5854041897
 30
0.0
  40
10.0
  1

 50
0.0
 7
Standard
100
AcDbText
  0
TEXT
  5
c9
330
1F
100
AcDbEntity
  8
text
100
AcDbText
 10
95.3469419267
 20
-8.81916106048
 30
0.0
  40
10.0
  1

 50
0.0
 7
Standard
100
AcDbText
  0
TEXT
  5
ca
330
1F
100
AcDbEntity
  8
text
100
AcDbText
 10
585.839763419
 20
129.715959007
 30
0.0
  40
10.0
  1

 50
0.0
 7
Standard
100
AcDbText
  0
TEXT
  5
cb
330
1F
100
AcDbEntity
  8
text
100
AcDbText
 10
586.062886868
 20
108.025479814
 30
0.0
  40
10.0
  1

 50
0.0
 7
Standard
100
AcDbText
  0
TEXT
  5
cc
330
1F
100
AcDbEntity
  8
text
100
AcDbText
 10
195.225068826
 20
44.5777130635
 30
0.0
  40
10.0
  1

 50
0.0
 7
Standard
100
AcDbText
  0
TEXT
  5
cd
330
1F
100
AcDbEntity
  8
text
100
AcDbText
 10
518.471826228
 20
87.5
 30
0.0
  40
25.0
  1
M1
 50
0.0
 7
Standard
100
AcDbText
  0
TEXT
  5
ce
330
1F
100
AcDbEntity
  8
text
100
AcDbText
 10
-38.2054729658
 20
171.501062525
 30
0.0
  40
12.5
  1
M2
 50
0.0
 7
Standard
100
AcDbText
  0
TEXT
  5
cf
330
1F
100
AcDbEntity
  8
text
100
AcDbText
 10
264.956485726
 20
284.960651065
 30
0.0
  40
12.5
  1
M3
 50
0.0
 7
Standard
100
AcDbText
  0
LINE
  5
d1
330
1F
100
AcDbEntity
  8
main_beam
100
AcDbLine
 10
499.9639855
 20
109.296962041
 30
0.0
  11
593.380583579
 21
120.911142003
 31
0.0
  0
LINE
  5
d2
330
1F
100
AcDbEntity
  8
main_beam
100
AcDbLine
 10
593.475580336
 20
99.1396273666
 30
0.0
  11
499.9639855
 21
109.296962041
 31
0.0
  0
LINE
  5
d3
330
1F
100
AcDbEntity
  8
main_beam
100
AcDbLine
 10
499.941520587
 20
88.1531788559
 30
0.0
  11
593.475580336
 21
99.1396273666
 31
0.0
  0
LINE
  5
d4
330
1F
100
AcDbEntity
  8
main_beam
100
AcDbLine
 10
0.0
 20
0.0
 30
0.0
  11
499.941520587
 21
88.1531788559
 31
0.0
  0
LINE
  5
d5
330
1F
100
AcDbEntity
  8
main_beam
100
AcDbLine
 10
-2.44765819199
 20
206.79059853
 30
0.0
  11
-53.9454469159
 21
211.867870967
 31
0.0
  0
LINE
  5
d6
330
1F
100
AcDbEntity
  8
main_beam
100
AcDbLine
 10
-52.1257657455
 20
192.064423744
 30
0.0
  11
-2.44765819199
 21
206.79059853
 31
0.0
  0
LINE
  5
d7
330
1F
100
AcDbEntity
  8
main_beam
100
AcDbLine
 10
-0.587030607417
 20
186.63702314
 30
0.0
  11
-52.1257657455
 21
192.064423744
 31
0.0
  0
LINE
  5
d8
330
1F
100
AcDbEntity
  8
main_beam
100
AcDbLine
 10
499.941520587
 20
88.1531788559
 30
0.0
  11
-0.587030607417
 21
186.63702314
 31
0.0
  0
LINE
  5
d9
330
1F
100
AcDbEntity
  8
main_beam
100
AcDbLine
 10
252.451845121
 20
286.304535196
 30
0.0
  11
297.591961357
 21
306.193666765
 31
0.0
  0
LINE
  5
da
330
1F
100
AcDbEntity
  8
main_beam
100
AcDbLine
 10
298.512815258
 20
303.821043368
 30
0.0
  11
252.451845121
 21
286.304535196
 31
0.0
  0
LINE
  5
db
330
1F
100
AcDbEntity
  8
main_beam
100
AcDbLine
 10
252.720509329
 20
285.649464167
 30
0.0
  11
298.512815258
 21
303.821043368
 31
0.0
  0
LINE
  5
dc
330
1F
100
AcDbEntity
  8
main_beam
100
AcDbLine
 10
-0.587030607417
 20
186.63702314
 30
0.0
  11
252.720509329
 21
285.649464167
 31
0.0
  0
LINE
  5
dd
330
1F
100
AcDbEntity
  8
main_beam
100
AcDbLine
 10
297.591961357
 20
306.193666765
 30
0.0
  11
250.760033573
 21
290.429597991
 31
0.0
  0
LINE
  5
de
330
1F
100
AcDbEntity
  8
main_beam
100
AcDbLine
 10
252.720509329
 20
285.649464167
 30
0.0
  11
0.246001933793
 21
177.175004824
 31
0.0
  0
LINE
  5
df
330
1F
100
AcDbEntity
  8
main_beam
100
AcDbLine
 10
0.246001933793
 20
177.175004824
 30
0.0
  11
-49.3251366804
 21
161.585397644
 31
0.0
  0
LINE
  5
e0
330
1F
100
AcDbEntity
  8
main_beam
100
AcDbLine
 10
0.246001933793
 20
177.175004824
 30
0.0
  11
499.292739767
 21
58.8062584718
 31
0.0
  0
LINE
  5
e1
330
1F
100
AcDbEntity
  8
main_beam
100
AcDbLine
 10
499.292739767
 20
58.8062584718
 30
0.0
  11
593.7226328
 21
42.5197325232
 31
0.0
  0
LINE
  5
e2
330
1F
100
AcDbEntity
  8
main_beam
100
AcDbLine
 10
499.292739767
 20
58.8062584718
 30
0.0
  11
-6.69978786699
 21
-25.0410350651
 31
0.0
  0
LINE
  5
e3
330
1F
100
AcDbEntity
  8
main_beam
100
AcDbLine
 10
593.7226328
 20
42.5197325232
 30
0.0
  11
686.542023821
 21
18.7118288742
 31
0.0
  0
LINE
  5
e4
330
1F
100
AcDbEntity
  8
main_beam
100
AcDbLine
 10
-49.3251366804
 20
161.585397644
 30
0.0
  11
-97.1215254455
 21
141.193270326
 31
0.0
  0
LINE
  5
e5
330
1F
100
AcDbEntity
  8
main_beam
100
AcDbLine
 10
0.435273847572
 20
174.983233783
 30
0.0
  11
-49.3482189906
 21
161.836600613
 31
0.0
  0
LINE
  5
e6
330
1F
100
AcDbEntity
  8
main_beam
100
AcDbLine
 10
-50.9659234853
 20
179.441951542
 30
0.0
  11
0.435273847572
 21
174.983233783
 31
0.0
  0
LINE
  5
e7
330
1F
100
AcDbEntity
  8
main_beam
100
AcDbLine
 10
-1.1808518874
 20
193.208929604
 30
0.0
  11
-50.9659234853
 21
179.441951542
 31
0.0
  0
LINE
  5
e8
330
1F
100
AcDbEntity
  8
main_beam
100
AcDbLine
 10
252.451845121
 20
286.304535196
 30
0.0
  11
-1.1808518874
 21
193.208929604
 31
0.0
  0
LINE
  5
e9
330
1F
100
AcDbEntity
  8
main_beam
100
AcDbLine
 10
499.905663222
 20
84.9534267249
 30
0.0
  11
593.598676152
 21
70.9283233489
 31
0.0
  0
LINE
  5
ea
330
1F
100
AcDbEntity
  8
main_beam
100
AcDbLine
 10
593.486788967
 20
96.5708146934
 30
0.0
  11
499.905663222
 21
84.9534267249
 31
0.0
  0
LINE
  5
eb
330
1F
100
AcDbEntity
  8
main_beam
100
AcDbLine
 10
499.977480833
 20
107.351564091
 30
0.0
  11
593.486788967
 21
96.5708146934
 31
0.0
  0
LINE
  5
ec
330
1F
100
AcDbEntity
  8
main_beam
100
AcDbLine
 10
-1.1808518874
 20
193.208929604
 30
0.0
  11
499.977480833
 21
107.351564091
 31
0.0
  0
LINE
  5
ed
330
1F
100
AcDbEntity
  8
main_beam
100
AcDbLine
 10
499.977480833
 20
107.351564091
 30
0.0
  11
-0.0912765450908
 21
15.3602625331
 31
0.0
  0
LINE
  5
ee
330
1F
100
AcDbEntity
  8
main_beam
100
AcDbLine
 10
499.905663222
 20
84.9534267249
 30
0.0
  11
407.222501439
 21
67.5688841466
 31
0.0
  0
LINE
  5
ef
330
1F
100
AcDbEntity
  8
main_beam
100
AcDbLine
 10
593.598676152
 20
70.9283233489
 30
0.0
  11
686.085338354
 21
50.402692754
 31
0.0
  0
LINE
  5
f0
330
1F
100
AcDbEntity
  8
main_beam
100
AcDbLine
 10
593.486788967
 20
96.5708146934
 30
0.0
  11
686.276765972
 21
80.7519831107
 31
0.0
  0
LINE
  5
f1
330
1F
100
AcDbEntity
  8
main_beam
100
AcDbLine
 10
0.435273847572
 20
174.983233783
 30
0.0
  11
499.970270589
 21
91.5531246734
 31
0.0
  0
LINE
  5
f2
330
1F
100
AcDbEntity
  8
main_beam
100
AcDbLine
 10
499.970270589
 20
91.5531246734
 30
0.0
  11
-0.689734279633
 21
15.1636253922
 31
0.0
  0
LINE
  5
f3
330
1F
100
AcDbEntity
  8
main_beam
100
AcDbLine
 10
-49.3482189906
 20
161.836600613
 30
0.0
  11
-97.9862566579
 21
144.937742227
 31
0.0
  0
LINE
  5
f4
330
1F
100
AcDbEntity
  8
main_beam
100
AcDbLine
 10
-50.9659234853
 20
179.441951542
 30
0.0
  11
-99.4610393623
 21
161.656936079
 31
0.0
  0
LINE
  5
f5
330
1F
100
AcDbEntity
  8
main_beam
100
AcDbLine
 10
250.760033573
 20
290.429597991
 30
0.0
  11
-3.05803376166
 21
213.138194426
 31
0.0
  0
LINE
  5
f6
330
1F
100
AcDbEntity
  8
main_beam
100
AcDbLine
 10
-3.05803376166
 20
213.138194426
 30
0.0
  11
-52.9717592029
 21
201.271304079
 31
0.0
  0
LINE
  5
f7
330
1F
100
AcDbEntity
  8
main_beam
100
AcDbLine
 10
-3.05803376166
 20
213.138194426
 30
0.0
  11
498.408207629
 21
161.788088552
 31
0.0
  0
LINE
  5
f8
330
1F
100
AcDbEntity
  8
main_beam
100
AcDbLine
 10
498.408207629
 20
161.788088552
 30
0.0
  11
593.224655938
 21
156.646898272
 31
0.0
  0
LINE
  5
f9
330
1F
100
AcDbEntity
  8
main_beam
100
AcDbLine
 10
498.408207629
 20
161.788088552
 30
0.0
  11
4.88199554521
 21
59.1376983241
 31
0.0
  0
LINE
  5
fa
330
1F
100
AcDbEntity
  8
main_beam
100
AcDbLine
 10
593.224655938
 20
156.646898272
 30
0.0
  11
687.87240353
 21
149.005263424
 31
0.0
  0
LINE
  5
fb
330
1F
100
AcDbEntity
  8
main_beam
100
AcDbLine
 10
-52.9717592029
 20
201.271304079
 30
0.0
  11
-102.015656854
 21
186.208131202
 31
0.0
  0
LINE
  5
fc
330
1F
100
AcDbEntity
  8
main_beam
100
AcDbLine
 10
297.591961357
 20
306.193666765
 30
0.0
  11
342.318083245
 21
326.997071997
 31
0.0
  0
LINE
  5
fd
330
1F
100
AcDbEntity
  8
main_beam
100
AcDbLine
 10
298.512815258
 20
303.821043368
 30
0.0
  11
344.246138571
 21
322.140560601
 31
0.0
  0
LINE
  5
fe
330
1F
100
AcDbEntity
  8
main_beam
100
AcDbLine
 10
-2.44765819199
 20
206.79059853
 30
0.0
  11
244.885197733
 21
304.753927895
 31
0.0
  0
LINE
  5
ff
330
1F
100
AcDbEntity
  8
main_beam
100
AcDbLine
 10
244.885197733
 20
304.753927895
 30
0.0
  11
291.036505769
 21
323.234068889
 31
0.0
  0
LINE
  5
100
330
1F
100
AcDbEntity
  8
main_beam
100
AcDbLine
 10
291.036505769
 20
323.234068889
 30
0.0
  11
244.272356562
 21
306.248189068
 31
0.0
  0
LINE
  5
101
330
1F
100
AcDbEntity
  8
main_beam
100
AcDbLine
 10
244.272356562
 20
306.248189068
 30
0.0
  11
-3.85509690773
 21
221.250497711
 31
0.0
  0
LINE
  5
102
330
1F
100
AcDbEntity
  8
main_beam
100
AcDbLine
 10
-3.85509690773
 20
221.250497711
 30
0.0
  11
498.756782731
 21
154.609301914
 31
0.0
  0
LINE
  5
103
330
1F
100
AcDbEntity
  8
main_beam
100
AcDbLine
 10
498.756782731
 20
154.609301914
 30
0.0
  11
4.28577486591
 21
42.5460478461
 31
0.0
  0
LINE
  5
104
330
1F
100
AcDbEntity
  8
main_beam
100
AcDbLine
 10
-53.9454469159
 20
211.867870967
 30
0.0
  11
-104.80402686
 21
221.418042952
 31
0.0
  0
LINE
  5
105
330
1F
100
AcDbEntity
  8
main_beam
100
AcDbLine
 10
-52.1257657455
 20
192.064423744
 30
0.0
  11
-102.962636904
 21
202.129731874
 31
0.0
  0
LINE
  5
106
330
1F
100
AcDbEntity
  8
main_beam
100
AcDbLine
 10
499.9639855
 20
109.296962041
 30
0.0
  11
-0.938145540354
 21
190.539535587
 31
0.0
  0
LINE
  5
107
330
1F
100
AcDbEntity
  8
main_beam
100
AcDbLine
 10
-0.938145540354
 20
190.539535587
 30
0.0
  11
254.506725218
 21
281.294219805
 31
0.0
  0
LINE
  5
108
330
1F
100
AcDbEntity
  8
main_beam
100
AcDbLine
 10
254.506725218
 20
281.294219805
 30
0.0
  11
300.605696561
 21
298.447560752
 31
0.0
  0
LINE
  5
109
330
1F
100
AcDbEntity
  8
main_beam
100
AcDbLine
 10
300.605696561
 20
298.447560752
 30
0.0
  11
255.104145675
 21
279.837558216
 31
0.0
  0
LINE
  5
10a
330
1F
100
AcDbEntity
  8
main_beam
100
AcDbLine
 10
255.104145675
 20
279.837558216
 30
0.0
  11
0.366593244994
 21
175.780415725
 31
0.0
  0
LINE
  5
10b
330
1F
100
AcDbEntity
  8
main_beam
100
AcDbLine
 10
0.366593244994
 20
175.780415725
 30
0.0
  11
499.529929071
 21
66.4150441067
 31
0.0
  0
LINE
  5
10c
330
1F
100
AcDbEntity
  8
main_beam
100
AcDbLine
 10
499.529929071
 20
66.4150441067
 30
0.0
  11
-4.97073997283
 21
-14.8493101725
 31
0.0
  0
LINE
  5
10d
330
1F
100
AcDbEntity
  8
main_beam
100
AcDbLine
 10
593.380583579
 20
120.911142003
 30
0.0
  11
686.031547159
 21
137.564937989
 31
0.0
  0
LINE
  5
10e
330
1F
100
AcDbEntity
  8
main_beam
100
AcDbLine
 10
593.475580336
 20
99.1396273666
 30
0.0
  11
686.327385433
 21
114.883345928
 31
0.0
  0
LWPOLYLINE
  5
110
330
1F
100
AcDbEntity
  8
main_beam_width
100
AcDbPolyline
 90
20
 70
0
43
0.0
 10
499.942318421
 20
111.76573256
 10
504.85941335
 20
112.410861282
 10
509.776507407
 20
113.055997024
 10
514.693600625
 20
113.70113951
 10
519.610693038
 20
114.346288475
 10
524.527784676
 20
114.991443673
 10
529.444875568
 20
115.636604865
 10
534.361965744
 20
116.281771828
 10
539.279055228
 20
116.926944347
 10
544.196144047
 20
117.57212222
 10
549.113232224
 20
118.217305253
 10
554.030319782
 20
118.862493262
 10
558.947406744
 20
119.507686071
 10
563.86449313
 20
120.152883512
 10
568.78157896
 20
120.798085425
 10
573.698664253
 20
121.443291659
 10
578.615749026
 20
122.088502067
 10
583.532833298
 20
122.733716511
 10
588.449917085
 20
123.378934856
 10
593.367000403
 20
124.024156975
  0
LWPOLYLINE
  5
111
330
1F
100
AcDbEntity
  8
main_beam_width
100
AcDbPolyline
 90
20
 70
0
43
0.0
 10
499.980554558
 20
106.831448145
 10
504.897052889
 20
107.408959638
 10
509.813552095
 20
107.986464104
 10
514.730052139
 20
108.563961819
 10
519.64655299
 20
109.141453046
 10
524.563054617
 20
109.718938034
 10
529.479556991
 20
110.29641702
 10
534.396060082
 20
110.873890229
 10
539.312563865
 20
111.451357875
 10
544.229068315
 20
112.028820161
 10
549.145573406
 20
112.60627728
 10
554.062079117
 20
113.183729418
 10
558.978585426
 20
113.761176751
 10
563.895092311
 20
114.338619445
 10
568.811599753
 20
114.91605766
 10
573.728107733
 20
115.493491551
 10
578.644616232
 20
116.070921262
 10
583.561125234
 20
116.648346932
 10
588.477634721
 20
117.225768696
 10
593.394144679
 20
117.803186681
  0
LWPOLYLINE
  5
112
330
1F
100
AcDbEntity
  8
main_beam_width
100
AcDbPolyline
 90
10
 70
0
43
0.0
 10
593.485250024
 20
96.9235119882
 10
583.095857133
 20
98.0244850444
 10
572.70645954
 20
99.1254148232
 10
562.317057415
 20
100.226302883
 10
551.927650921
 20
101.32715071
 10
541.53824021
 20
102.427959722
 10
531.148825431
 20
103.528731276
 10
520.759406723
 20
104.629466665
 10
510.369984222
 20
105.730167126
 10
499.980558055
 20
106.83083384
  0
LWPOLYLINE
  5
113
330
1F
100
AcDbEntity
  8
main_beam_width
100
AcDbPolyline
 90
10
 70
0
43
0.0
 10
593.465904922
 20
101.357054809
 10
583.074378606
 20
102.513352063
 10
572.68285699
 20
103.669692584
 10
562.291339904
 20
104.826074815
 10
551.899827188
 20
105.982497267
 10
541.508318686
 20
107.138958524
 10
531.116814252
 20
108.295457229
 10
520.725313745
 20
109.45199209
 10
510.333817032
 20
110.608561868
 10
499.942323982
 20
111.765165382
  0
LWPOLYLINE
  5
114
330
1F
100
AcDbEntity
  8
main_beam_width
100
AcDbPolyline
 90
10
 70
0
43
0.0
 10
499.959389598
 20
90.127648952
 10
510.349028767
 20
91.375136336
 10
520.738660727
 20
92.6226850978
 10
531.128285763
 20
93.8702927999
 10
541.517904149
 20
95.1179571272
 10
551.907516141
 20
96.3656758798
 10
562.297121987
 20
97.6134469663
 10
572.686721919
 20
98.8612683971
 10
583.07631616
 20
100.109138279
 10
593.465904922
 20
101.357054809
  0
LWPOLYLINE
  5
115
330
1F
100
AcDbEntity
  8
main_beam_width
100
AcDbPolyline
 90
10
 70
0
43
0.0
 10
499.92041283
 20
86.1796210563
 10
510.316479445
 20
87.3736115254
 10
520.712553285
 20
88.5675404956
 10
531.10863406
 20
89.7614104105
 10
541.5047215
 20
90.9552235909
 10
551.900815345
 20
92.1489822422
 10
562.296915348
 20
93.3426884609
 10
572.693021276
 20
94.5363442414
 10
583.089132906
 20
95.7299514815
 10
593.485250024
 20
96.9235119882
  0
LWPOLYLINE
  5
116
330
1F
100
AcDbEntity
  8
main_beam_width
100
AcDbPolyline
 90
19
 70
0
43
0.0
 10
-0.1562833599
 20
0.886326977711
 10
27.6370915548
 20
5.79218867073
 10
55.4287375612
 20
10.7078554903
 10
83.2187371035
 20
15.6328598713
 10
111.007213892
 20
20.5665002194
 10
138.794317007
 20
25.5079310575
 10
166.580205395
 20
30.45625095
 10
194.365035537
 20
35.4105724572
 10
222.148953266
 20
40.3700685145
 10
249.932089409
 20
45.3339971722
 10
277.71455828
 20
50.30171011
 10
305.496458021
 20
55.2726507459
 10
333.277871934
 20
60.2463466526
 10
361.058870249
 20
65.2223995315
 10
388.839511975
 20
70.2004747222
 10
416.619846646
 20
75.1802913135
 10
444.399915868
 20
80.16161334
 10
472.179754659
 20
85.1442422077
 10
499.959392571
 20
90.1280103126
  0
LWPOLYLINE
  5
117
330
1F
100
AcDbEntity
  8
main_beam_width
100
AcDbPolyline
 90
19
 70
0
43
0.0
 10
0.1562833599
 20
-0.886326977711
 10
27.9118052146
 20
4.00259517614
 10
55.6690511478
 20
8.88173959563
 10
83.4279391653
 20
13.7515712914
 10
111.188346199
 20
18.6127882197
 10
138.950123885
 20
23.4662317923
 10
166.713113969
 20
28.3127995105
 10
194.477160582
 20
33.1533753615
 10
222.242118386
 20
37.9887835871
 10
250.007856942
 20
42.8197639465
 10
277.774262223
 20
47.646963125
 10
305.541236296
 20
52.4709365207
 10
333.308696008
 20
57.2921557237
 10
361.076571229
 20
62.1110184532
 10
388.84480302
 20
66.9278589774
 10
416.613341894
 20
71.7429579482
 10
444.382146272
 20
76.5565511652
 10
472.151181157
 20
81.3688371214
 10
499.920417003
 20
86.1799833645
  0
LWPOLYLINE
  5
118
330
1F
100
AcDbEntity
  8
main_beam_width
100
AcDbPolyline
 90
10
 70
0
43
0.0
 10
-2.25341315065
 20
204.744685796
 10
-7.97664073312
 20
205.315033774
 10
-13.6998700794
 20
205.885363862
 10
-19.4231012056
 20
206.455675898
 10
-25.1463341277
 20
207.025969718
 10
-30.869568862
 20
207.596245156
 10
-36.5928054249
 20
208.166502048
 10
-42.316043833
 20
208.736740224
 10
-48.039284103
 20
209.306959515
 10
-53.7625262518
 20
209.87715975
  0
LWPOLYLINE
  5
119
330
1F
100
AcDbEntity
  8
main_beam_width
100
AcDbPolyline
 90
10
 70
0
43
0.0
 10
-2.64304618249
 20
208.835788222
 10
-8.36363664834
 20
209.393716223
 10
-14.0842253505
 20
209.951662112
 10
-19.8048122731
 20
210.509626052
 10
-25.5253973999
 20
211.067608206
 10
-31.2459807148
 20
211.625608739
 10
-36.9665622012
 20
212.183627816
 10
-42.6871418427
 20
212.741665607
 10
-48.4077196226
 20
213.299722279
 10
-54.128295524
 20
213.857798005
  0
LWPOLYLINE
  5
11a
330
1F
100
AcDbEntity
  8
main_beam_width
100
AcDbPolyline
 90
10
 70
0
43
0.0
 10
-52.3133970899
 20
194.106400925
 10
-46.7944513107
 20
195.742956834
 10
-41.2755106439
 20
197.37952999
 10
-35.7565750854
 20
199.016120379
 10
-30.2376446307
 20
200.652727985
 10
-24.7187192752
 20
202.289352793
 10
-19.1997990145
 20
203.925994788
 10
-13.6808838436
 20
205.562653954
 10
-8.16197375761
 20
207.199330273
 10
-2.64306875156
 20
208.836023729
  0
LWPOLYLINE
  5
11b
330
1F
100
AcDbEntity
  8
main_beam_width
100
AcDbPolyline
 90
10
 70
0
43
0.0
 10
-51.9381412926
 20
190.022521562
 10
-46.4176388291
 20
191.658412524
 10
-40.8971312503
 20
193.294286231
 10
-35.3766185603
 20
194.930142695
 10
-29.8561007636
 20
196.565981931
 10
-24.3355778647
 20
198.201803956
 10
-18.8150498681
 20
199.837608784
 10
-13.2945167787
 20
201.473396431
 10
-7.77397860135
 20
203.109166915
 10
-2.25343534111
 20
204.744920251
  0
LWPOLYLINE
  5
11c
330
1F
100
AcDbEntity
  8
main_beam_width
100
AcDbPolyline
 90
10
 70
0
43
0.0
 10
-0.405489906218
 20
184.59982064
 10
-6.13133248492
 20
185.202414901
 10
-11.8571769602
 20
185.80499115
 10
-17.5830233311
 20
186.4075494
 10
-23.3088715962
 20
187.010089662
 10
-29.0347217545
 20
187.612611946
 10
-34.7605738046
 20
188.215116266
 10
-40.4864277452
 20
188.817602633
 10
-46.212283575
 20
189.42007106
 10
-51.9381412926
 20
190.022521562
  0
LWPOLYLINE
  5
11d
330
1F
100
AcDbEntity
  8
main_beam_width
100
AcDbPolyline
 90
10
 70
0
43
0.0
 10
-0.76978741855
 20
188.674404467
 10
-6.49686273795
 20
189.277887667
 10
-12.22393616
 20
189.881388884
 10
-17.9510076859
 20
190.484908107
 10
-23.6780773167
 20
191.088445326
 10
-29.4051450537
 20
191.692000528
 10
-35.1322108982
 20
192.295573702
 10
-40.8592748515
 20
192.899164835
 10
-46.5863369149
 20
193.502773913
 10
-52.3133970899
 20
194.106400925
  0
LWPOLYLINE
  5
11e
330
1F
100
AcDbEntity
  8
main_beam_width
100
AcDbPolyline
 90
10
 70
0
43
0.0
 10
499.920409977
 20
86.1793734039
 10
444.331906471
 20
97.1316040025
 10
388.742597903
 20
108.079743
 10
333.152471366
 20
119.023724801
 10
277.561519182
 20
129.963510383
 10
221.969739155
 20
140.899088587
 10
166.377134645
 20
151.830476481
 10
110.783714452
 20
162.757718797
 10
55.1894925329
 20
173.680886468
 10
-0.4055124427
 20
184.600074377
  0
LWPOLYLINE
  5
11f
330
1F
100
AcDbEntity
  8
main_beam_width
100
AcDbPolyline
 90
10
 70
0
43
0.0
 10
499.959387623
 20
90.1274088298
 10
444.319538921
 20
101.060478192
 10
388.680496817
 20
111.99764696
 10
333.042274179
 20
122.938980532
 10
277.404878622
 20
133.884517617
 10
221.768312262
 20
144.834268962
 10
166.132571641
 20
155.788216991
 10
110.497647842
 20
166.746316391
 10
54.8635267844
 20
177.708495599
 10
-0.76981033149
 20
188.674659065
  0
LWPOLYLINE
  5
120
330
1F
100
AcDbEntity
  8
main_beam_width
100
AcDbPolyline
 90
10
 70
0
43
0.0
 10
251.459373741
 20
288.724430466
 10
256.474877086
 20
290.950394596
 10
261.490377479
 20
293.176365424
 10
266.50587497
 20
295.40234284
 10
271.521369606
 20
297.628326733
 10
276.536861435
 20
299.854316999
 10
281.552350503
 20
302.080313532
 10
286.567836854
 20
304.30631623
 10
291.583320533
 20
306.532324993
 10
296.598801582
 20
308.758339723
  0
LWPOLYLINE
  5
121
330
1F
100
AcDbEntity
  8
main_beam_width
100
AcDbPolyline
 90
10
 70
0
43
0.0
 10
253.444179058
 20
283.884975044
 10
258.460020984
 20
286.078946843
 10
263.475865849
 20
288.27291197
 10
268.491713604
 20
290.466870538
 10
273.507564202
 20
292.660822653
 10
278.523417597
 20
294.854768423
 10
283.539273741
 20
297.04870795
 10
288.555132591
 20
299.242641337
 10
293.570994104
 20
301.436568682
 10
298.586858235
 20
303.630490082
  0
LWPOLYLINE
  5
122
330
1F
100
AcDbEntity
  8
main_beam_width
100
AcDbPolyline
 90
10
 70
0
43
0.0
 10
299.412733832
 20
301.507288949
 10
294.305105034
 20
299.549284576
 10
289.197479255
 20
297.591272266
 10
284.089856441
 20
295.633252157
 10
278.982236542
 20
293.675224383
 10
273.874619508
 20
291.717189075
 10
268.76700529
 20
289.759146363
 10
263.65939384
 20
287.801096372
 10
258.551785112
 20
285.843039226
 10
253.444179058
 20
283.884975044
  0
LWPOLYLINE
  5
123
330
1F
100
AcDbEntity
  8
main_beam_width
100
AcDbPolyline
 90
10
 70
0
43
0.0
 10
297.614508244
 20
306.13551251
 10
292.486171611
 20
304.200917216
 10
287.357831948
 20
302.266329891
 10
282.229489308
 20
300.331750395
 10
277.101143741
 20
298.397178594
 10
271.972795299
 20
296.462614354
 10
266.84444403
 20
294.528057546
 10
261.716089983
 20
292.593508044
 10
256.587733205
 20
290.658965725
 10
251.459373741
 20
288.724430466
  0
LWPOLYLINE
  5
124
330
1F
100
AcDbEntity
  8
main_beam_width
100
AcDbPolyline
 90
10
 70
0
43
0.0
 10
251.801675841
 20
287.889811706
 10
256.892004333
 20
289.917077046
 10
261.982329407
 20
291.944350999
 10
267.072651092
 20
293.971633495
 10
272.162969414
 20
295.998924463
 10
277.253284403
 20
298.026223832
 10
282.343596085
 20
300.053531532
 10
287.433904489
 20
302.080847494
 10
292.524209642
 20
304.108171651
 10
297.61451157
 20
306.135503933
  0
LWPOLYLINE
  5
125
330
1F
100
AcDbEntity
  8
main_beam_width
100
AcDbPolyline
 90
10
 70
0
43
0.0
 10
253.639368805
 20
283.409053264
 10
258.72528554
 20
285.420000345
 10
263.811205681
 20
287.430938843
 10
268.897129198
 20
289.44186883
 10
273.983056065
 20
291.452790378
 10
279.068986254
 20
293.463703555
 10
284.154919736
 20
295.474608433
 10
289.240856485
 20
297.485505078
 10
294.326796473
 20
299.496393559
 10
299.412739674
 20
301.507273944
  0
LWPOLYLINE
  5
126
330
1F
100
AcDbEntity
  8
main_beam_width
100
AcDbPolyline
 90
10
 70
0
43
0.0
 10
-0.769841447393
 20
188.675004811
 10
27.2949560899
 20
199.695557807
 10
55.3593758397
 20
210.717077312
 10
83.4234436981
 20
221.739497075
 10
111.4871837
 20
232.762755608
 10
139.550618122
 20
243.786795916
 10
167.613767596
 20
254.811565221
 10
195.676651211
 20
265.837014682
 10
223.739286625
 20
276.863099123
 10
251.801690169
 20
287.88977677
  0
LWPOLYLINE
  5
127
330
1F
100
AcDbEntity
  8
main_beam_width
100
AcDbPolyline
 90
10
 70
0
43
0.0
 10
-0.405543340452
 20
184.600422253
 10
27.8203627543
 20
195.582501352
 10
56.0466509623
 20
206.563602875
 10
84.2732949746
 20
217.54379413
 10
112.500270381
 20
228.523137565
 10
140.727554562
 20
239.50169105
 10
168.955126579
 20
250.479508153
 10
197.182967062
 20
261.456638429
 10
225.411058099
 20
272.433127701
 10
253.639383135
 20
283.409018324
  0
LWPOLYLINE
  5
128
330
1F
100
AcDbEntity
  8
main_beam_width
100
AcDbPolyline
 90
10
 70
0
43
0.0
 10
298.586820154
 20
303.630588078
 10
293.397668193
 20
301.859191343
 10
288.208518226
 20
300.087788684
 10
283.019370204
 20
298.316380246
 10
277.830224079
 20
296.544966174
 10
272.641079804
 20
294.773546606
 10
267.451937334
 20
293.002121674
 10
262.262796626
 20
291.230691509
 10
257.073657637
 20
289.459256236
 10
251.884520327
 20
287.687815977
  0
LWPOLYLINE
  5
129
330
1F
100
AcDbEntity
  8
main_beam_width
100
AcDbPolyline
 90
10
 70
0
43
0.0
 10
296.598769068
 20
308.758423784
 10
291.380571804
 20
307.026675852
 10
286.162372537
 20
305.29493387
 10
280.944171318
 20
303.56319769
 10
275.725968194
 20
301.831467167
 10
270.507763212
 20
300.099742164
 10
265.289556418
 20
298.368022544
 10
260.071347855
 20
296.636308179
 10
254.853137566
 20
294.904598941
 10
249.634925592
 20
293.17289471
  0
LWPOLYLINE
  5
12a
330
1F
100
AcDbEntity
  8
main_beam_width
100
AcDbPolyline
 90
10
 70
0
43
0.0
 10
253.639383135
 20
283.409018324
 10
225.513300038
 20
271.264694768
 10
197.387443702
 20
259.119843423
 10
169.261799468
 20
246.974498409
 10
141.136353791
 20
234.828691258
 10
113.011094145
 20
222.682451116
 10
84.8860089469
 20
210.535804946
 10
56.7610874774
 20
198.388777698
 10
28.6363198085
 20
186.241392479
 10
0.511696740496
 20
174.093670701
  0
LWPOLYLINE
  5
12b
330
1F
100
AcDbEntity
  8
main_beam_width
100
AcDbPolyline
 90
10
 70
0
43
0.0
 10
251.801690169
 20
287.88977677
 10
223.822056141
 20
275.92813929
 10
195.84219826
 20
263.967022826
 10
167.862130906
 20
252.006393912
 10
139.881867374
 20
240.046221603
 10
111.901419961
 20
228.086477278
 10
83.9208000455
 20
216.127134452
 10
55.9400181652
 20
204.168168599
 10
27.9590840826
 20
192.209556998
 10
-0.0219931512143
 20
180.251278581
  0
LWPOLYLINE
  5
12c
330
1F
100
AcDbEntity
  8
main_beam_width
100
AcDbPolyline
 90
10
 70
0
43
0.0
 10
0.511574087511
 20
174.095100518
 10
-4.99391002611
 20
172.357612899
 10
-10.4993925411
 20
170.620120196
 10
-16.0048734666
 20
168.88262244
 10
-21.5103528116
 20
167.145119658
 10
-27.0158305853
 20
165.407611879
 10
-32.5213067967
 20
163.670099133
 10
-38.0267814545
 20
161.932581447
 10
-43.5322545677
 20
160.195058849
 10
-49.0377261451
 20
158.457531368
  0
LWPOLYLINE
  5
12d
330
1F
100
AcDbEntity
  8
main_beam_width
100
AcDbPolyline
 90
10
 70
0
43
0.0
 10
-0.022117762762
 20
180.252701713
 10
-5.53214519748
 20
178.525925474
 10
-11.0421742336
 20
176.799154327
 10
-16.5522048619
 20
175.072388243
 10
-22.0622370734
 20
173.345627192
 10
-27.5722708589
 20
171.618871147
 10
-33.0823062095
 20
169.892120078
 10
-38.5923431162
 20
168.165373958
 10
-44.1023815702
 20
166.438632757
 10
-49.6124215626
 20
164.711896448
  0
LWPOLYLINE
  5
12e
330
1F
100
AcDbEntity
  8
main_beam_width
100
AcDbPolyline
 90
24
 70
0
43
0.0
 10
-0.0219138565168
 20
180.250372989
 10
21.694093696
 20
175.18430236
 10
43.4101402591
 20
170.118396202
 10
65.1262227906
 20
165.052641687
 10
86.8423385515
 20
159.987027269
 10
108.55848507
 20
154.921542526
 10
130.27466011
 20
149.856178031
 10
151.990861645
 20
144.790925238
 10
173.707087832
 20
139.725776381
 10
195.423336995
 20
134.660724387
 10
217.139607602
 20
129.595762807
 10
238.855898256
 20
124.530885744
 10
260.572207675
 20
119.466087796
 10
282.288534685
 20
114.401364009
 10
304.004878205
 20
109.33670983
 10
325.72123724
 20
104.272121067
 10
347.437610876
 20
99.2075938556
 10
369.153998264
 20
94.1431246275
 10
390.870398623
 20
89.0787100823
 10
412.586811226
 20
84.0143471636
 10
434.303235403
 20
78.9500330368
 10
456.019670528
 20
73.8857650698
 10
477.736116022
 20
68.8215408148
 10
499.452571343
 20
63.7573579932
  0
LWPOLYLINE
  5
12f
330
1F
100
AcDbEntity
  8
main_beam_width
100
AcDbPolyline
 90
24
 70
0
43
0.0
 10
0.511773268065
 20
174.092778584
 10
22.1903314275
 20
168.86608707
 10
43.8688508521
 20
163.639232248
 10
65.5473345562
 20
158.412226828
 10
87.2257852544
 20
153.185082253
 10
108.904205397
 20
147.957808855
 10
130.582597201
 20
142.730415981
 10
152.260962677
 20
137.502912105
 10
173.939303651
 20
132.275304931
 10
195.617621788
 20
127.047601474
 10
217.295918606
 20
121.819808135
 10
238.974195493
 20
116.591930765
 10
260.652453719
 20
111.363974724
 10
282.330694453
 20
106.135944932
 10
304.008918766
 20
100.907845908
 10
325.687127644
 20
95.6796818142
 10
347.365322
 20
90.4514564888
 10
369.043502672
 20
85.2231734761
 10
390.721670439
 20
79.9948360542
 10
412.399826021
 20
74.7664472595
 10
434.077970086
 20
69.5380099085
 10
455.756103254
 20
64.3095266167
 10
477.434226103
 20
59.0809998165
 10
499.112339169
 20
53.8524317727
  0
LWPOLYLINE
  5
130
330
1F
100
AcDbEntity
  8
main_beam_width
100
AcDbPolyline
 90
10
 70
0
43
0.0
 10
499.452585523
 20
63.7578272934
 10
509.924433437
 20
61.9936988852
 10
520.39628205
 20
60.2295745311
 10
530.868131346
 20
58.4654541311
 10
541.339981306
 20
56.7013375883
 10
551.811831916
 20
54.9372248091
 10
562.283683159
 20
53.173115703
 10
572.75553502
 20
51.4090101821
 10
583.227387486
 20
49.6449081615
 10
593.69924054
 20
47.8808095588
  0
LWPOLYLINE
  5
131
330
1F
100
AcDbEntity
  8
main_beam_width
100
AcDbPolyline
 90
10
 70
0
43
0.0
 10
499.112357307
 20
53.852903077
 10
509.627215531
 20
51.9971797069
 10
520.14207305
 20
50.141452252
 10
530.656929882
 20
48.2857208135
 10
541.171786044
 20
46.4299854893
 10
551.686641553
 20
44.574246374
 10
562.201496423
 20
42.7185035594
 10
572.716350671
 20
40.8627571342
 10
583.23120431
 20
39.0070071844
 10
593.746057356
 20
37.1512537931
  0
LWPOLYLINE
  5
132
330
1F
100
AcDbEntity
  8
main_beam_width
100
AcDbPolyline
 90
34
 70
0
43
0.0
 10
499.112497755
 20
53.8565527187
 10
483.797555079
 20
51.3890620073
 10
468.482615742
 20
48.9215511503
 10
453.167679892
 20
46.4540192452
 10
437.852747689
 20
43.9864653354
 10
422.5378193
 20
41.5188884055
 10
407.222894905
 20
39.0512873772
 10
391.907974693
 20
36.5836611042
 10
376.593058866
 20
34.1160083667
 10
361.27814764
 20
31.6483278655
 10
345.963241244
 20
29.1806182157
 10
330.648339923
 20
26.7128779393
 10
315.333443939
 20
24.2451054574
 10
300.018553571
 20
21.7772990815
 10
284.70366912
 20
19.3094570038
 10
269.388790906
 20
16.841577287
 10
254.073919273
 20
14.3736578517
 10
238.759054592
 20
11.9056964643
 10
223.444197261
 20
9.4376907218
 10
208.129347709
 20
6.96963803598
 10
192.814506399
 20
4.50153561521
 10
177.49967383
 20
2.03338044434
 10
162.184850542
 20
-0.434830737882
 10
146.870037121
 20
-2.90310146413
 10
131.555234203
 20
-5.37143556705
 10
116.240442476
 20
-7.8398372113
 10
100.925662693
 20
-10.3083109299
 10
85.6108956722
 20
-12.7768616652
 10
70.2961423083
 20
-15.2454948157
 10
54.9814035801
 20
-17.7142162887
 10
39.6666805611
 20
-20.1830325611
 10
24.3519744302
 20
-22.6519507484
 10
9.03728648546
 20
-25.1209786837
 10
-6.27738184097
 20
-27.5901250092
  0
LWPOLYLINE
  5
133
330
1F
100
AcDbEntity
  8
main_beam_width
100
AcDbPolyline
 90
34
 70
0
43
0.0
 10
499.452695482
 20
63.7614666136
 10
484.102039497
 20
61.1471340252
 10
468.751380166
 20
58.5328216292
 10
453.400717338
 20
55.9185303318
 10
438.050050855
 20
53.3042610943
 10
422.699380548
 20
50.6900149366
 10
407.348706237
 20
48.0757929425
 10
391.99802773
 20
45.4615962639
 10
376.647344826
 20
42.8474261269
 10
361.296657307
 20
40.2332838374
 10
345.945964942
 20
37.6191707879
 10
330.595267486
 20
35.0050884647
 10
315.244564675
 20
32.3910384558
 10
299.893856228
 20
29.7770224595
 10
284.543141844
 20
27.1630422947
 10
269.192421198
 20
24.5490999109
 10
253.841693946
 20
21.9351974007
 10
238.490959713
 20
19.3213370126
 10
223.1402181
 20
16.707521166
 10
207.789468673
 20
14.0937524674
 10
192.438710968
 20
11.4800337285
 10
177.087944481
 20
8.86636798704
 10
161.737168667
 20
6.25275852936
 10
146.386382936
 20
3.63920891614
 10
131.035586648
 20
1.02572301136
 10
115.684779108
 20
-1.58769498517
 10
100.333959556
 20
-4.201040501
 10
84.983127168
 20
-6.81430854934
 10
69.6322810397
 20
-9.42749368171
 10
54.2814201833
 20
-12.0405899341
 10
38.9305435147
 20
-14.6535907657
 10
23.579649843
 20
-17.2664889882
 10
8.22873785637
 20
-19.8792766855
 10
-7.12219389301
 20
-22.491945121
  0
LWPOLYLINE
  5
134
330
1F
100
AcDbEntity
  8
main_beam_width
100
AcDbPolyline
 90
10
 70
0
43
0.0
 10
593.699259516
 20
47.8764606927
 10
604.17363567
 20
45.2539392314
 10
614.648013689
 20
42.6314250427
 10
625.122393509
 20
40.0089178741
 10
635.596775068
 20
37.3864174848
 10
646.071158307
 20
34.7639236446
 10
656.545543169
 20
32.1414361339
 10
667.019929601
 20
29.5189547425
 10
677.494317551
 20
26.8964792696
 10
687.968706969
 20
24.274009523
  0
LWPOLYLINE
  5
135
330
1F
100
AcDbEntity
  8
main_beam_width
100
AcDbPolyline
 90
10
 70
0
43
0.0
 10
593.746076416
 20
37.146885719
 10
603.898223369
 20
34.480551262
 10
614.050368574
 20
31.8142099869
 10
624.202512088
 20
29.1478621232
 10
634.354653969
 20
26.4815078904
 10
644.50679427
 20
23.8151474983
 10
654.658933043
 20
21.1487811477
 10
664.811070337
 20
18.4824090306
 10
674.963206198
 20
15.8160313311
 10
685.115340673
 20
13.1496482254
  0
LWPOLYLINE
  5
136
330
1F
100
AcDbEntity
  8
main_beam_width
100
AcDbPolyline
 90
10
 70
0
43
0.0
 10
-49.0376496251
 20
158.456698607
 10
-54.2465581195
 20
156.225061182
 10
-59.4554622734
 20
153.993413583
 10
-64.6643621236
 20
151.761755897
 10
-69.8732577068
 20
149.530088209
 10
-75.082149059
 20
147.298410605
 10
-80.2910362161
 20
145.066723168
 10
-85.4999192135
 20
142.835025982
 10
-90.7087980863
 20
140.603319127
 10
-95.9176728692
 20
138.371602687
  0
LWPOLYLINE
  5
137
330
1F
100
AcDbEntity
  8
main_beam_width
100
AcDbPolyline
 90
10
 70
0
43
0.0
 10
-49.6123451748
 20
164.711065126
 10
-55.0248860138
 20
162.411452394
 10
-60.4374315393
 20
160.111850646
 10
-65.84998171
 20
157.812259786
 10
-71.262536485
 20
155.512679717
 10
-76.6750958238
 20
153.213110346
 10
-82.0876596863
 20
150.913551578
 10
-87.5002280329
 20
148.614003319
 10
-92.9128008244
 20
146.314465479
 10
-98.3253780218
 20
144.014937966
  0
LWPOLYLINE
  5
138
330
1F
100
AcDbEntity
  8
main_beam_width
100
AcDbPolyline
 90
10
 70
0
43
0.0
 10
0.780024148053
 20
170.949009983
 10
-4.7486430325
 20
169.488806151
 10
-10.2773096317
 20
168.028600118
 10
-15.8059756496
 20
166.568391884
 10
-21.3346410864
 20
165.108181448
 10
-26.8633059421
 20
163.647968813
 10
-32.3919702168
 20
162.187753977
 10
-37.9206339106
 20
160.727536942
 10
-43.4492970236
 20
159.267317707
 10
-48.977959556
 20
157.807096274
  0
LWPOLYLINE
  5
139
330
1F
100
AcDbEntity
  8
main_beam_width
100
AcDbPolyline
 90
10
 70
0
43
0.0
 10
0.085932077782
 20
179.016193306
 10
-5.44788843432
 20
177.555057593
 10
-10.9817095289
 20
176.093924085
 10
-16.5155312058
 20
174.632792782
 10
-22.0493534649
 20
173.171663684
 10
-27.5831763062
 20
171.710536791
 10
-33.1169997296
 20
170.249412101
 10
-38.6508237349
 20
168.788289616
 10
-44.1846483221
 20
167.327169334
 10
-49.7184734911
 20
165.866051255
  0
LWPOLYLINE
  5
13a
330
1F
100
AcDbEntity
  8
main_beam_width
100
AcDbPolyline
 90
10
 70
0
43
0.0
 10
-51.3253349219
 20
183.353397972
 10
-45.6129648403
 20
182.871385826
 10
-39.9005945437
 20
182.389376159
 10
-34.1882240344
 20
181.907368945
 10
-28.4758533144
 20
181.425364159
 10
-22.7634823861
 20
180.943361775
 10
-17.0511112514
 20
180.46136177
 10
-11.3387399126
 20
179.979364118
 10
-5.62636837165
 20
179.497368797
 10
0.0860033693649
 20
179.015375782
  0
LWPOLYLINE
  5
13b
330
1F
100
AcDbEntity
  8
main_beam_width
100
AcDbPolyline
 90
10
 70
0
43
0.0
 10
-50.6062083021
 20
175.527199463
 10
-44.896618472
 20
175.018431742
 10
-39.1870288563
 20
174.50966155
 10
-33.4774394528
 20
174.000888911
 10
-27.7678502593
 20
173.492113851
 10
-22.0582612737
 20
172.983336394
 10
-16.3486724939
 20
172.474556566
 10
-10.6390839177
 20
171.96577439
 10
-4.92949554303
 20
171.45698989
 10
0.780092632046
 20
170.94820309
  0
LWPOLYLINE
  5
13c
330
1F
100
AcDbEntity
  8
main_beam_width
100
AcDbPolyline
 90
10
 70
0
43
0.0
 10
-0.836568009229
 20
189.415558116
 10
-6.36653088891
 20
187.872417451
 10
-11.896493039
 20
186.329274147
 10
-17.4264544674
 20
184.786128233
 10
-22.9564151817
 20
183.242979737
 10
-28.4863751894
 20
181.699828686
 10
-34.016334498
 20
180.156675106
 10
-39.5462931148
 20
178.613519025
 10
-45.0762510471
 20
177.070360469
 10
-50.6062083021
 20
175.527199463
  0
LWPOLYLINE
  5
13d
330
1F
100
AcDbEntity
  8
main_beam_width
100
AcDbPolyline
 90
10
 70
0
43
0.0
 10
-1.52889859401
 20
196.997972009
 10
-7.06183311373
 20
195.481897921
 10
-12.5947683637
 20
193.965826473
 10
-18.1277043362
 20
192.449757638
 10
-23.6606410236
 20
190.933691389
 10
-29.1935784182
 20
189.417627697
 10
-34.7265165127
 20
187.901566535
 10
-40.2594552996
 20
186.385507878
 10
-45.7923947717
 20
184.869451699
 10
-51.3253349219
 20
183.353397972
  0
LWPOLYLINE
  5
13e
330
1F
100
AcDbEntity
  8
main_beam_width
100
AcDbPolyline
 90
14
 70
0
43
0.0
 10
253.444103204
 20
283.885159995
 10
233.883746516
 20
276.618947517
 10
214.323461151
 20
269.352540725
 10
194.763241006
 20
262.085956246
 10
175.203080642
 20
254.819208895
 10
155.642975201
 20
247.552311913
 10
136.082920327
 20
240.285277163
 10
116.522912108
 20
233.018115305
 10
96.9629470183
 20
225.750835944
 10
77.4030218755
 20
218.48344775
 10
57.8431337982
 20
211.215958574
 10
38.2832801725
 20
203.948375537
 10
18.7234586218
 20
196.680705114
 10
-0.836333019024
 20
189.412953203
  0
LWPOLYLINE
  5
13f
330
1F
100
AcDbEntity
  8
main_beam_width
100
AcDbPolyline
 90
14
 70
0
43
0.0
 10
251.459297853
 20
288.7246155
 10
231.999004323
 20
281.667652871
 10
212.53864061
 20
274.610881448
 10
193.078212675
 20
267.554284994
 10
173.617725834
 20
260.497849027
 10
154.15718484
 20
253.441560596
 10
134.696593956
 20
246.385408083
 10
115.235957018
 20
239.329381045
 10
95.7752774816
 20
232.273470063
 10
76.3145584697
 20
225.217666629
 10
56.8538028117
 20
218.161963035
 10
37.393013076
 20
211.106352283
 10
17.9321915989
 20
204.050828009
 10
-1.52865948956
 20
196.995384408
  0
LWPOLYLINE
  5
140
330
1F
100
AcDbEntity
  8
main_beam_width
100
AcDbPolyline
 90
100
 70
0
43
0.0
 10
499.979740312
 20
93.0269919347
 10
500.924947281
 20
92.9043378292
 10
501.870154252
 20
92.7816837314
 10
502.815361224
 20
92.6590296413
 10
503.760568197
 20
92.5363755587
 10
504.705775172
 20
92.4137214838
 10
505.650982147
 20
92.2910674163
 10
506.596189123
 20
92.1684133562
 10
507.541396101
 20
92.0457593036
 10
508.48660308
 20
91.9231052583
 10
509.43181006
 20
91.8004512203
 10
510.37701704
 20
91.6777971895
 10
511.322224022
 20
91.555143166
 10
512.267431005
 20
91.4324891496
 10
513.212637989
 20
91.3098351403
 10
514.157844975
 20
91.187181138
 10
515.103051961
 20
91.0645271428
 10
516.048258948
 20
90.9418731545
 10
516.993465936
 20
90.8192191731
 10
517.938672926
 20
90.6965651986
 10
518.883879916
 20
90.5739112309
 10
519.829086907
 20
90.4512572699
 10
520.7742939
 20
90.3286033157
 10
521.719500893
 20
90.2059493682
 10
522.664707887
 20
90.0832954273
 10
523.609914883
 20
89.9606414931
 10
524.555121879
 20
89.8379875653
 10
525.500328876
 20
89.7153336441
 10
526.445535874
 20
89.5926797293
 10
527.390742874
 20
89.470025821
 10
528.335949874
 20
89.3473719191
 10
529.281156875
 20
89.2247180234
 10
530.226363877
 20
89.1020641341
 10
531.17157088
 20
88.9794102511
 10
532.116777884
 20
88.8567563742
 10
533.061984889
 20
88.7341025036
 10
534.007191894
 20
88.6114486391
 10
534.952398901
 20
88.4887947806
 10
535.897605909
 20
88.3661409283
 10
536.842812917
 20
88.2434870819
 10
537.788019927
 20
88.1208332415
 10
538.733226937
 20
87.9981794071
 10
539.678433948
 20
87.8755255786
 10
540.62364096
 20
87.752871756
 10
541.568847973
 20
87.6302179391
 10
542.514054987
 20
87.5075641281
 10
543.459262001
 20
87.3849103228
 10
544.404469017
 20
87.2622565233
 10
545.349676033
 20
87.1396027294
 10
546.29488305
 20
87.0169489412
 10
547.240090068
 20
86.8942951586
 10
548.185297087
 20
86.7716413816
 10
549.130504107
 20
86.6489876101
 10
550.075711127
 20
86.5263338442
 10
551.020918149
 20
86.4036800837
 10
551.966125171
 20
86.2810263286
 10
552.911332194
 20
86.158372579
 10
553.856539218
 20
86.0357188347
 10
554.801746242
 20
85.9130650958
 10
555.746953267
 20
85.7904113622
 10
556.692160294
 20
85.6677576338
 10
557.637367321
 20
85.5451039107
 10
558.582574348
 20
85.4224501929
 10
559.527781377
 20
85.2997964802
 10
560.472988406
 20
85.1771427726
 10
561.418195436
 20
85.0544890702
 10
562.363402467
 20
84.9318353728
 10
563.308609498
 20
84.8091816805
 10
564.253816531
 20
84.6865279932
 10
565.199023564
 20
84.563874311
 10
566.144230597
 20
84.4412206336
 10
567.089437632
 20
84.3185669613
 10
568.034644667
 20
84.1959132938
 10
568.979851703
 20
84.0732596312
 10
569.92505874
 20
83.9506059734
 10
570.870265777
 20
83.8279523205
 10
571.815472816
 20
83.7052986724
 10
572.760679854
 20
83.582645029
 10
573.705886894
 20
83.4599913903
 10
574.651093934
 20
83.3373377564
 10
575.596300975
 20
83.2146841271
 10
576.541508017
 20
83.0920305025
 10
577.486715059
 20
82.9693768825
 10
578.431922102
 20
82.8467232671
 10
579.377129146
 20
82.7240696563
 10
580.32233619
 20
82.60141605
 10
581.267543236
 20
82.4787624482
 10
582.212750281
 20
82.3561088509
 10
583.157957328
 20
82.2334552581
 10
584.103164375
 20
82.1108016697
 10
585.048371423
 20
81.9881480857
 10
585.993578471
 20
81.8654945062
 10
586.93878552
 20
81.7428409309
 10
587.88399257
 20
81.62018736
 10
588.82919962
 20
81.4975337935
 10
589.774406671
 20
81.3748802312
 10
590.719613723
 20
81.2522266731
 10
591.664820775
 20
81.1295731194
 10
592.610027828
 20
81.0069195698
 10
593.555234882
 20
80.8842660244
  0
LWPOLYLINE
  5
141
330
1F
100
AcDbEntity
  8
main_beam_width
100
AcDbPolyline
 90
100
 70
0
43
0.0
 10
499.776576191
 20
76.8447150249
 10
500.72471567
 20
76.6837807758
 10
501.672855148
 20
76.522846519
 10
502.620994625
 20
76.3619122546
 10
503.569134101
 20
76.2009779825
 10
504.517273575
 20
76.0400437029
 10
505.465413048
 20
75.8791094158
 10
506.413552521
 20
75.7181751212
 10
507.361691992
 20
75.5572408191
 10
508.309831462
 20
75.3963065098
 10
509.257970931
 20
75.2353721931
 10
510.206110399
 20
75.0744378692
 10
511.154249865
 20
74.913503538
 10
512.102389331
 20
74.7525691997
 10
513.050528796
 20
74.5916348543
 10
513.998668259
 20
74.4307005018
 10
514.946807722
 20
74.2697661423
 10
515.894947183
 20
74.1088317759
 10
516.843086643
 20
73.9478974025
 10
517.791226103
 20
73.7869630222
 10
518.739365561
 20
73.6260286351
 10
519.687505019
 20
73.4650942413
 10
520.635644475
 20
73.3041598407
 10
521.58378393
 20
73.1432254334
 10
522.531923385
 20
72.9822910195
 10
523.480062838
 20
72.8213565989
 10
524.42820229
 20
72.6604221718
 10
525.376341742
 20
72.4994877382
 10
526.324481192
 20
72.3385532981
 10
527.272620642
 20
72.1776188516
 10
528.22076009
 20
72.0166843987
 10
529.168899538
 20
71.8557499394
 10
530.117038984
 20
71.6948154738
 10
531.06517843
 20
71.533881002
 10
532.013317875
 20
71.3729465239
 10
532.961457319
 20
71.2120120397
 10
533.909596761
 20
71.0510775493
 10
534.857736203
 20
70.8901430528
 10
535.805875645
 20
70.7292085503
 10
536.754015085
 20
70.5682740417
 10
537.702154524
 20
70.4073395271
 10
538.650293962
 20
70.2464050066
 10
539.5984334
 20
70.0854704802
 10
540.546572837
 20
69.9245359479
 10
541.494712272
 20
69.7636014098
 10
542.442851707
 20
69.6026668658
 10
543.390991141
 20
69.4417323162
 10
544.339130574
 20
69.2807977607
 10
545.287270007
 20
69.1198631996
 10
546.235409438
 20
68.9589286329
 10
547.183548869
 20
68.7979940605
 10
548.131688299
 20
68.6370594825
 10
549.079827728
 20
68.476124899
 10
550.027967156
 20
68.31519031
 10
550.976106583
 20
68.1542557155
 10
551.92424601
 20
67.9933211155
 10
552.872385435
 20
67.8323865102
 10
553.82052486
 20
67.6714518994
 10
554.768664284
 20
67.5105172834
 10
555.716803708
 20
67.349582662
 10
556.66494313
 20
67.1886480353
 10
557.613082552
 20
67.0277134034
 10
558.561221973
 20
66.8667787662
 10
559.509361393
 20
66.7058441239
 10
560.457500812
 20
66.5449094765
 10
561.405640231
 20
66.3839748239
 10
562.353779649
 20
66.2230401662
 10
563.301919066
 20
66.0621055035
 10
564.250058482
 20
65.9011708357
 10
565.198197898
 20
65.740236163
 10
566.146337313
 20
65.5793014852
 10
567.094476727
 20
65.4183668026
 10
568.04261614
 20
65.257432115
 10
568.990755553
 20
65.0964974226
 10
569.938894965
 20
64.9355627253
 10
570.887034376
 20
64.7746280232
 10
571.835173786
 20
64.6136933163
 10
572.783313196
 20
64.4527586046
 10
573.731452605
 20
64.2918238882
 10
574.679592014
 20
64.1308891671
 10
575.627731421
 20
63.9699544414
 10
576.575870828
 20
63.8090197109
 10
577.524010235
 20
63.6480849759
 10
578.47214964
 20
63.4871502362
 10
579.420289045
 20
63.326215492
 10
580.368428449
 20
63.1652807432
 10
581.316567853
 20
63.00434599
 10
582.264707256
 20
62.8434112322
 10
583.212846658
 20
62.68247647
 10
584.160986059
 20
62.5215417033
 10
585.10912546
 20
62.3606069322
 10
586.057264861
 20
62.1996721568
 10
587.00540426
 20
62.038737377
 10
587.953543659
 20
61.8778025928
 10
588.901683057
 20
61.7168678043
 10
589.849822455
 20
61.5559330116
 10
590.797961852
 20
61.3949982145
 10
591.746101248
 20
61.2340634133
 10
592.694240644
 20
61.0731286078
 10
593.642380039
 20
60.9121937982
  0
LWPOLYLINE
  5
142
330
1F
100
AcDbEntity
  8
main_beam_width
100
AcDbPolyline
 90
16
 70
0
43
0.0
 10
593.519533887
 20
89.0662793095
 10
587.270011758
 20
88.2519630573
 10
581.02048968
 20
87.4376463905
 10
574.770967653
 20
86.6233293154
 10
568.521445676
 20
85.8090118381
 10
562.271923748
 20
84.9946939647
 10
556.022401868
 20
84.180375701
 10
549.772880036
 20
83.3660570529
 10
543.523358251
 20
82.551738026
 10
537.273836513
 20
81.7374186259
 10
531.02431482
 20
80.9230988581
 10
524.774793172
 20
80.1087787279
 10
518.525271568
 20
79.2944582406
 10
512.275750009
 20
78.4801374012
 10
506.026228492
 20
77.665816215
 10
499.776707018
 20
76.8514946867
  0
LWPOLYLINE
  5
143
330
1F
100
AcDbEntity
  8
main_beam_width
100
AcDbPolyline
 90
16
 70
0
43
0.0
 10
593.454091523
 20
104.064469247
 10
587.222471602
 20
103.329178185
 10
580.990851629
 20
102.593887536
 10
574.759231606
 20
101.858597293
 10
568.527611533
 20
101.123307451
 10
562.295991412
 20
100.388018004
 10
556.064371242
 20
99.6527289445
 10
549.832751024
 20
98.9174402683
 10
543.60113076
 20
98.1821519693
 10
537.36951045
 20
97.446864042
 10
531.137890094
 20
96.711576481
 10
524.906269693
 20
95.976289281
 10
518.674649248
 20
95.2410024366
 10
512.44302876
 20
94.5057159429
 10
506.211408229
 20
93.7704297948
 10
499.979787655
 20
93.0351439874
  0
LWPOLYLINE
  5
144
330
1F
100
AcDbEntity
  8
main_beam_width
100
AcDbPolyline
 90
16
 70
0
43
0.0
 10
499.915093958
 20
114.27470808
 10
506.151026735
 20
113.594022067
 10
512.386959571
 20
112.913336578
 10
518.622892467
 20
112.232651605
 10
524.858825422
 20
111.551967138
 10
531.094758434
 20
110.87128317
 10
537.330691502
 20
110.190599694
 10
543.566624627
 20
109.5099167
 10
549.802557806
 20
108.829234181
 10
556.038491039
 20
108.14855213
 10
562.274424325
 20
107.46787054
 10
568.510357663
 20
106.787189403
 10
574.746291053
 20
106.106508712
 10
580.982224493
 20
105.42582846
 10
587.218157983
 20
104.745148641
 10
593.454091523
 20
104.064469247
  0
LWPOLYLINE
  5
145
330
1F
100
AcDbEntity
  8
main_beam_width
100
AcDbPolyline
 90
16
 70
0
43
0.0
 10
499.999925504
 20
100.422835016
 10
506.234566457
 20
99.6657347195
 10
512.46920735
 20
98.9086338999
 10
518.703848183
 20
98.151532566
 10
524.938488958
 20
97.394430726
 10
531.173129675
 20
96.6373283883
 10
537.407770336
 20
95.8802255608
 10
543.642410942
 20
95.1231222512
 10
549.877051493
 20
94.3660184673
 10
556.11169199
 20
93.6089142166
 10
562.346332433
 20
92.8518095065
 10
568.580972825
 20
92.094704344
 10
574.815613166
 20
91.3375987362
 10
581.050253456
 20
90.58049269
 10
587.284893696
 20
89.8233862123
 10
593.519533887
 20
89.0662793095
  0
LWPOLYLINE
  5
146
330
1F
100
AcDbEntity
  8
main_beam_width
100
AcDbPolyline
 90
64
 70
0
43
0.0
 10
-1.52855605291
 20
196.994265005
 10
6.43083320201
 20
195.68103535
 10
14.3902244374
 20
194.367817255
 10
22.3496175762
 20
193.054610271
 10
30.3090125451
 20
191.741413969
 10
38.2684092745
 20
190.428227943
 10
46.2278076983
 20
189.115051807
 10
54.1872077537
 20
187.801885196
 10
62.146609381
 20
186.48872776
 10
70.1060125233
 20
185.175579166
 10
78.0654171262
 20
183.8624391
 10
86.0248231383
 20
182.549307258
 10
93.9842305102
 20
181.236183353
 10
101.943639195
 20
179.923067112
 10
109.903049148
 20
178.609958273
 10
117.862460326
 20
177.296856584
 10
125.821872688
 20
175.983761809
 10
133.781286195
 20
174.670673717
 10
141.74070081
 20
173.35759209
 10
149.700116497
 20
172.04451672
 10
157.659533221
 20
170.731447406
 10
165.61895095
 20
169.418383956
 10
173.578369652
 20
168.105326186
 10
181.537789296
 20
166.79227392
 10
189.497209855
 20
165.47922699
 10
197.4566313
 20
164.166185232
 10
205.416053605
 20
162.853148492
 10
213.375476744
 20
161.540116619
 10
221.334900692
 20
160.22708947
 10
229.294325425
 20
158.914066908
 10
237.253750922
 20
157.601048798
 10
245.213177159
 20
156.288035014
 10
253.172604116
 20
154.975025432
 10
261.132031774
 20
153.662019935
 10
269.091460111
 20
152.349018408
 10
277.05088911
 20
151.036020741
 10
285.010318752
 20
149.72302683
 10
292.96974902
 20
148.410036572
 10
300.929179896
 20
147.097049869
 10
308.888611366
 20
145.784066625
 10
316.848043413
 20
144.471086751
 10
324.807476022
 20
143.158110157
 10
332.766909178
 20
141.845136758
 10
340.726342867
 20
140.532166472
 10
348.685777077
 20
139.21919922
 10
356.645211792
 20
137.906234925
 10
364.604647002
 20
136.593273512
 10
372.564082693
 20
135.280314909
 10
380.523518854
 20
133.967359049
 10
388.482955473
 20
132.654405862
 10
396.442392539
 20
131.341455284
 10
404.401830041
 20
130.028507253
 10
412.361267969
 20
128.715561707
 10
420.320706312
 20
127.402618588
 10
428.280145062
 20
126.089677838
 10
436.239584208
 20
124.776739401
 10
444.199023741
 20
123.463803226
 10
452.158463652
 20
122.150869258
 10
460.117903934
 20
120.837937449
 10
468.077344576
 20
119.525007748
 10
476.036785572
 20
118.21208011
 10
483.996226913
 20
116.899154487
 10
491.955668591
 20
115.586230834
 10
499.9151106
 20
114.27330911
  0
LWPOLYLINE
  5
147
330
1F
100
AcDbEntity
  8
main_beam_width
100
AcDbPolyline
 90
64
 70
0
43
0.0
 10
-0.836235517872
 20
189.411872377
 10
7.11357861379
 20
187.99952308
 10
15.0633907806
 20
186.587162315
 10
23.013201059
 20
185.174790527
 10
30.9630095214
 20
183.762408139
 10
38.9128162368
 20
182.350015553
 10
46.8626212706
 20
180.937613152
 10
54.812424685
 20
179.525201298
 10
62.7622265392
 20
178.112780337
 10
70.7120268896
 20
176.700350598
 10
78.6618257898
 20
175.287912394
 10
86.611623291
 20
173.875466024
 10
94.5614194421
 20
172.463011773
 10
102.51121429
 20
171.050549913
 10
110.461007878
 20
169.638080703
 10
118.410800249
 20
168.225604391
 10
126.360591445
 20
166.813121214
 10
134.310381503
 20
165.400631398
 10
142.260170461
 20
163.98813516
 10
150.209958354
 20
162.575632708
 10
158.159745217
 20
161.163124239
 10
166.109531081
 20
159.750609945
 10
174.059315979
 20
158.338090006
 10
182.00909994
 20
156.925564599
 10
189.958882992
 20
155.513033891
 10
197.908665164
 20
154.100498043
 10
205.858446482
 20
152.687957208
 10
213.808226971
 20
151.275411537
 10
221.758006656
 20
149.86286117
 10
229.707785559
 20
148.450306245
 10
237.657563705
 20
147.037746894
 10
245.607341114
 20
145.625183244
 10
253.557117807
 20
144.212615415
 10
261.506893805
 20
142.800043527
 10
269.456669126
 20
141.387467692
 10
277.40644379
 20
139.974888018
 10
285.356217814
 20
138.562304611
 10
293.305991216
 20
137.149717572
 10
301.255764013
 20
135.737126997
 10
309.20553622
 20
134.324532983
 10
317.155307853
 20
132.911935618
 10
325.105078927
 20
131.499334992
 10
333.054849457
 20
130.086731187
 10
341.004619457
 20
128.674124287
 10
348.954388939
 20
127.261514369
 10
356.904157918
 20
125.848901511
 10
364.853926406
 20
124.436285786
 10
372.803694414
 20
123.023667265
 10
380.753461956
 20
121.611046017
 10
388.703229042
 20
120.198422109
 10
396.652995683
 20
118.785795606
 10
404.60276189
 20
117.373166569
 10
412.552527673
 20
115.96053506
 10
420.502293043
 20
114.547901137
 10
428.452058009
 20
113.135264856
 10
436.401822581
 20
111.722626273
 10
444.351586768
 20
110.309985441
 10
452.301350577
 20
108.897342412
 10
460.25111402
 20
107.484697236
 10
468.200877102
 20
106.07204996
 10
476.150639833
 20
104.659400634
 10
484.100402221
 20
103.246749301
 10
492.050164272
 20
101.834096007
 10
499.999925995
 20
100.421440795
  0
LWPOLYLINE
  5
148
330
1F
100
AcDbEntity
  8
main_beam_width
100
AcDbPolyline
 90
48
 70
0
43
0.0
 10
499.999923486
 20
100.428525454
 10
489.375460841
 20
98.5328052661
 10
478.750998832
 20
96.6370816247
 10
468.126537474
 20
94.7413544402
 10
457.502076785
 20
92.8456236194
 10
446.877616783
 20
90.9498890657
 10
436.253157486
 20
89.0541506791
 10
425.628698913
 20
87.158408356
 10
415.004241084
 20
85.2626619891
 10
404.37978402
 20
83.366911467
 10
393.755327741
 20
81.4711566744
 10
383.130872269
 20
79.5753974915
 10
372.506417629
 20
77.6796337941
 10
361.881963842
 20
75.7838654533
 10
351.257510934
 20
73.8880923352
 10
340.633058931
 20
71.9923143007
 10
330.008607858
 20
70.0965312054
 10
319.384157744
 20
68.200742899
 10
308.759708618
 20
66.3049492254
 10
298.135260508
 20
64.409150022
 10
287.510813447
 20
62.5133451197
 10
276.886367467
 20
60.6175343425
 10
266.261922601
 20
58.7217175071
 10
255.637478885
 20
56.8258944223
 10
245.013036355
 20
54.9300648892
 10
234.38859505
 20
53.0342286999
 10
223.764155009
 20
51.1383856379
 10
213.139716273
 20
49.242535477
 10
202.515278887
 20
47.3466779811
 10
191.890842896
 20
45.4508129035
 10
181.266408347
 20
43.5549399864
 10
170.64197529
 20
41.6590589602
 10
160.017543776
 20
39.7631695426
 10
149.39311386
 20
37.8672714386
 10
138.768685599
 20
35.9713643388
 10
128.144259053
 20
34.0754479191
 10
117.519834283
 20
32.1795218398
 10
106.895411356
 20
30.2835857445
 10
96.2709903404
 20
28.3876392591
 10
85.6465713084
 20
26.4916819907
 10
75.0221543358
 20
24.5957135265
 10
64.3977395027
 20
22.6997334323
 10
53.7733268931
 20
20.8037412513
 10
43.1489165953
 20
18.9077365026
 10
32.5245087027
 20
17.0117186797
 10
21.9001033134
 20
15.1156872484
 10
11.2757005312
 20
13.2196416451
 10
0.651300465407
 20
11.3235812751
  0
LWPOLYLINE
  5
149
330
1F
100
AcDbEntity
  8
main_beam_width
100
AcDbPolyline
 90
48
 70
0
43
0.0
 10
499.915025925
 20
114.280425765
 10
489.260818441
 20
112.26149784
 10
478.60661032
 20
110.242573381
 10
467.952401544
 20
108.22365248
 10
457.298192097
 20
106.204735229
 10
446.64398196
 20
104.185821727
 10
435.989771115
 20
102.166912074
 10
425.335559543
 20
100.148006374
 10
414.681347224
 20
98.1291047365
 10
404.027134137
 20
96.1102072722
 10
393.372920261
 20
94.0913140978
 10
382.718705573
 20
92.0724253341
 10
372.064490051
 20
90.0535411062
 10
361.410273671
 20
88.0346615441
 10
350.756056407
 20
86.0157867827
 10
340.101838235
 20
83.9969169623
 10
329.447619127
 20
81.9780522285
 10
318.793399055
 20
79.9591927329
 10
308.139177991
 20
77.9403386329
 10
297.484955904
 20
75.9214900926
 10
286.830732763
 20
73.9026472825
 10
276.176508535
 20
71.8838103802
 10
265.522283186
 20
69.8649795708
 10
254.868056681
 20
67.8461550471
 10
244.213828983
 20
65.82733701
 10
233.559600052
 20
63.8085256694
 10
222.90536985
 20
61.7897212439
 10
212.251138334
 20
59.7709239619
 10
201.596905459
 20
57.7521340619
 10
190.942671181
 20
55.7333517932
 10
180.288435451
 20
53.7145774162
 10
169.63419822
 20
51.6958112035
 10
158.979959434
 20
49.6770534402
 10
148.325719038
 20
47.6583044247
 10
137.671476976
 20
45.6395644699
 10
127.017233187
 20
43.6208339034
 10
116.362987608
 20
41.6021130689
 10
105.708740172
 20
39.583402327
 10
95.0544908092
 20
37.5647020563
 10
84.4002394476
 20
35.5460126543
 10
73.7459860096
 20
33.5273345391
 10
63.0917304145
 20
31.5086681502
 10
52.4374725772
 20
29.4900139504
 10
41.783212408
 20
27.4713724266
 10
31.1289498125
 20
25.4527440923
 10
20.4746846911
 20
23.4341294888
 10
9.82041693869
 20
21.4155291874
 10
-0.833853555589
 20
19.3969437912
  0
LWPOLYLINE
  5
14a
330
1F
100
AcDbEntity
  8
main_beam_width
100
AcDbPolyline
 90
44
 70
0
43
0.0
 10
499.776421972
 20
76.8367256416
 10
497.662880561
 20
76.4139361906
 10
495.549339166
 20
75.9911466561
 10
493.435797786
 20
75.568357039
 10
491.322256421
 20
75.1455673399
 10
489.208715072
 20
74.7227775598
 10
487.095173737
 20
74.2999876994
 10
484.981632418
 20
73.8771977594
 10
482.868091113
 20
73.4544077406
 10
480.754549823
 20
73.0316176438
 10
478.641008548
 20
72.6088274696
 10
476.527467287
 20
72.1860372189
 10
474.41392604
 20
71.7632468923
 10
472.300384807
 20
71.3404564906
 10
470.186843588
 20
70.9176660145
 10
468.073302383
 20
70.4948754646
 10
465.959761192
 20
70.0720848416
 10
463.846220014
 20
69.6492941462
 10
461.73267885
 20
69.2265033792
 10
459.619137699
 20
68.803712541
 10
457.505596561
 20
68.3809216325
 10
455.392055436
 20
67.9581306542
 10
453.278514325
 20
67.5353396067
 10
451.164973226
 20
67.1125484908
 10
449.05143214
 20
66.689757307
 10
446.937891066
 20
66.2669660559
 10
444.824350005
 20
65.8441747381
 10
442.710808957
 20
65.4213833543
 10
440.59726792
 20
64.998591905
 10
438.483726896
 20
64.5758003909
 10
436.370185884
 20
64.1530088124
 10
434.256644884
 20
63.7302171702
 10
432.143103896
 20
63.3074254648
 10
430.029562919
 20
62.8846336968
 10
427.916021954
 20
62.4618418667
 10
425.802481001
 20
62.0390499752
 10
423.688940059
 20
61.6162580226
 10
421.575399128
 20
61.1934660096
 10
419.461858209
 20
60.7706739366
 10
417.348317301
 20
60.3478818043
 10
415.234776404
 20
59.925089613
 10
413.121235517
 20
59.5022973634
 10
411.007694642
 20
59.0795050559
 10
408.894153777
 20
58.656712691
  0
LWPOLYLINE
  5
14b
330
1F
100
AcDbEntity
  8
main_beam_width
100
AcDbPolyline
 90
44
 70
0
43
0.0
 10
499.9797046
 20
93.0208490214
 10
497.783685018
 20
92.6362009909
 10
495.587665419
 20
92.2515530511
 10
493.391645804
 20
91.8669052009
 10
491.195626172
 20
91.4822574395
 10
488.999606523
 20
91.097609766
 10
486.803586858
 20
90.7129621795
 10
484.607567177
 20
90.3283146792
 10
482.41154748
 20
89.9436672641
 10
480.215527767
 20
89.5590199335
 10
478.019508038
 20
89.1743726866
 10
475.823488294
 20
88.7897255224
 10
473.627468534
 20
88.4050784403
 10
471.431448759
 20
88.0204314394
 10
469.235428969
 20
87.6357845189
 10
467.039409164
 20
87.251137678
 10
464.843389345
 20
86.866490916
 10
462.64736951
 20
86.4818442321
 10
460.451349662
 20
86.0971976256
 10
458.255329798
 20
85.7125510958
 10
456.059309921
 20
85.3279046418
 10
453.863290029
 20
84.943258263
 10
451.667270124
 20
84.5586119587
 10
449.471250204
 20
84.1739657282
 10
447.275230271
 20
83.7893195707
 10
445.079210325
 20
83.4046734856
 10
442.883190365
 20
83.0200274723
 10
440.687170391
 20
82.63538153
 10
438.491150405
 20
82.2507356581
 10
436.295130405
 20
81.8660898559
 10
434.099110392
 20
81.4814441229
 10
431.903090367
 20
81.0967984583
 10
429.707070329
 20
80.7121528615
 10
427.511050278
 20
80.3275073319
 10
425.315030214
 20
79.942861869
 10
423.119010139
 20
79.558216472
 10
420.922990051
 20
79.1735711405
 10
418.726969951
 20
78.7889258738
 10
416.530949838
 20
78.4042806713
 10
414.334929714
 20
78.0196355324
 10
412.138909578
 20
77.6349904566
 10
409.942889431
 20
77.2503454434
 10
407.746869271
 20
76.8657004921
 10
405.5508491
 20
76.4810556022
  0
LWPOLYLINE
  5
14c
330
1F
100
AcDbEntity
  8
main_beam_width
100
AcDbPolyline
 90
100
 70
0
43
0.0
 10
593.555385637
 20
80.8497156351
 10
594.517301302
 20
80.6650446867
 10
595.479216969
 20
80.4803737478
 10
596.441132637
 20
80.2957028183
 10
597.403048308
 20
80.1110318982
 10
598.364963981
 20
79.9263609873
 10
599.326879657
 20
79.7416900856
 10
600.288795334
 20
79.5570191931
 10
601.250711013
 20
79.3723483095
 10
602.212626694
 20
79.187677435
 10
603.174542377
 20
79.0030065693
 10
604.136458062
 20
78.8183357124
 10
605.098373749
 20
78.6336648642
 10
606.060289438
 20
78.4489940247
 10
607.022205129
 20
78.2643231938
 10
607.984120821
 20
78.0796523714
 10
608.946036516
 20
77.8949815575
 10
609.907952212
 20
77.7103107519
 10
610.86986791
 20
77.5256399546
 10
611.83178361
 20
77.3409691656
 10
612.793699312
 20
77.1562983847
 10
613.755615016
 20
76.9716276119
 10
614.717530722
 20
76.7869568472
 10
615.679446429
 20
76.6022860904
 10
616.641362138
 20
76.4176153416
 10
617.603277848
 20
76.2329446006
 10
618.565193561
 20
76.0482738673
 10
619.527109275
 20
75.8636031418
 10
620.489024991
 20
75.6789324239
 10
621.450940709
 20
75.4942617136
 10
622.412856428
 20
75.3095910108
 10
623.374772149
 20
75.1249203155
 10
624.336687871
 20
74.9402496277
 10
625.298603595
 20
74.7555789471
 10
626.260519321
 20
74.5709082739
 10
627.222435048
 20
74.3862376078
 10
628.184350777
 20
74.201566949
 10
629.146266508
 20
74.0168962973
 10
630.10818224
 20
73.8322256526
 10
631.070097974
 20
73.647555015
 10
632.032013709
 20
73.4628843843
 10
632.993929446
 20
73.2782137605
 10
633.955845184
 20
73.0935431436
 10
634.917760924
 20
72.9088725334
 10
635.879676665
 20
72.72420193
 10
636.841592408
 20
72.5395313333
 10
637.803508152
 20
72.3548607432
 10
638.765423898
 20
72.1701901597
 10
639.727339645
 20
71.9855195827
 10
640.689255393
 20
71.8008490122
 10
641.651171143
 20
71.6161784482
 10
642.613086895
 20
71.4315078906
 10
643.575002648
 20
71.2468373392
 10
644.536918402
 20
71.0621667942
 10
645.498834158
 20
70.8774962554
 10
646.460749915
 20
70.6928257229
 10
647.422665673
 20
70.5081551964
 10
648.384581433
 20
70.3234846761
 10
649.346497194
 20
70.1388141618
 10
650.308412956
 20
69.9541436536
 10
651.27032872
 20
69.7694731513
 10
652.232244485
 20
69.5848026549
 10
653.194160251
 20
69.4001321645
 10
654.156076019
 20
69.2154616798
 10
655.117991788
 20
69.030791201
 10
656.079907558
 20
68.8461207279
 10
657.041823329
 20
68.6614502605
 10
658.003739102
 20
68.4767797988
 10
658.965654876
 20
68.2921093427
 10
659.927570651
 20
68.1074388922
 10
660.889486428
 20
67.9227684473
 10
661.851402205
 20
67.7380980078
 10
662.813317984
 20
67.5534275738
 10
663.775233764
 20
67.3687571453
 10
664.737149546
 20
67.1840867221
 10
665.699065328
 20
66.9994163043
 10
666.660981112
 20
66.8147458918
 10
667.622896897
 20
66.6300754846
 10
668.584812683
 20
66.4454050826
 10
669.54672847
 20
66.2607346858
 10
670.508644258
 20
66.0760642942
 10
671.470560047
 20
65.8913939077
 10
672.432475838
 20
65.7067235262
 10
673.39439163
 20
65.5220531499
 10
674.356307422
 20
65.3373827785
 10
675.318223216
 20
65.1527124122
 10
676.280139011
 20
64.9680420508
 10
677.242054807
 20
64.7833716943
 10
678.203970604
 20
64.5987013426
 10
679.165886403
 20
64.4140309959
 10
680.127802202
 20
64.2293606539
 10
681.089718002
 20
64.0446903167
 10
682.051633804
 20
63.8600199843
 10
683.013549606
 20
63.6753496566
 10
683.97546541
 20
63.4906793335
 10
684.937381214
 20
63.3060090152
 10
685.89929702
 20
63.1213387014
 10
686.861212826
 20
62.9366683922
 10
687.823128634
 20
62.7519980876
 10
688.785044442
 20
62.5673277875
  0
LWPOLYLINE
  5
14d
330
1F
100
AcDbEntity
  8
main_beam_width
100
AcDbPolyline
 90
100
 70
0
43
0.0
 10
593.642533693
 20
60.8769792191
 10
594.54902971
 20
60.6483035676
 10
595.455525725
 20
60.4196279078
 10
596.362021738
 20
60.1909522397
 10
597.268517749
 20
59.9622765634
 10
598.175013759
 20
59.733600879
 10
599.081509767
 20
59.5049251864
 10
599.988005773
 20
59.2762494859
 10
600.894501777
 20
59.0475737775
 10
601.80099778
 20
58.8188980611
 10
602.707493781
 20
58.590222337
 10
603.61398978
 20
58.3615466051
 10
604.520485777
 20
58.1328708655
 10
605.426981773
 20
57.9041951182
 10
606.333477767
 20
57.6755193634
 10
607.239973759
 20
57.4468436011
 10
608.14646975
 20
57.2181678314
 10
609.052965739
 20
56.9894920542
 10
609.959461726
 20
56.7608162697
 10
610.865957712
 20
56.5321404779
 10
611.772453696
 20
56.3034646789
 10
612.678949679
 20
56.0747888728
 10
613.58544566
 20
55.8461130595
 10
614.491941639
 20
55.6174372392
 10
615.398437617
 20
55.3887614119
 10
616.304933593
 20
55.1600855776
 10
617.211429568
 20
54.9314097364
 10
618.117925542
 20
54.7027338884
 10
619.024421513
 20
54.4740580336
 10
619.930917484
 20
54.2453821721
 10
620.837413452
 20
54.0167063039
 10
621.74390942
 20
53.788030429
 10
622.650405386
 20
53.5593545476
 10
623.55690135
 20
53.3306786596
 10
624.463397313
 20
53.1020027652
 10
625.369893275
 20
52.8733268643
 10
626.276389235
 20
52.644650957
 10
627.182885194
 20
52.4159750434
 10
628.089381151
 20
52.1872991234
 10
628.995877107
 20
51.9586231973
 10
629.902373062
 20
51.7299472649
 10
630.808869015
 20
51.5012713264
 10
631.715364967
 20
51.2725953817
 10
632.621860917
 20
51.043919431
 10
633.528356866
 20
50.8152434743
 10
634.434852814
 20
50.5865675116
 10
635.341348761
 20
50.357891543
 10
636.247844706
 20
50.1292155685
 10
637.15434065
 20
49.9005395881
 10
638.060836593
 20
49.6718636019
 10
638.967332534
 20
49.44318761
 10
639.873828474
 20
49.2145116123
 10
640.780324413
 20
48.985835609
 10
641.68682035
 20
48.7571596
 10
642.593316287
 20
48.5284835854
 10
643.499812222
 20
48.2998075652
 10
644.406308156
 20
48.0711315396
 10
645.312804088
 20
47.8424555084
 10
646.21930002
 20
47.6137794719
 10
647.12579595
 20
47.3851034299
 10
648.032291879
 20
47.1564273825
 10
648.938787807
 20
46.9277513298
 10
649.845283734
 20
46.6990752719
 10
650.751779659
 20
46.4703992086
 10
651.658275584
 20
46.2417231402
 10
652.564771507
 20
46.0130470666
 10
653.471267429
 20
45.7843709878
 10
654.37776335
 20
45.5556949039
 10
655.28425927
 20
45.327018815
 10
656.190755189
 20
45.098342721
 10
657.097251106
 20
44.869666622
 10
658.003747023
 20
44.6409905181
 10
658.910242938
 20
44.4123144092
 10
659.816738852
 20
44.1836382954
 10
660.723234766
 20
43.9549621767
 10
661.629730678
 20
43.7262860533
 10
662.536226589
 20
43.497609925
 10
663.442722499
 20
43.2689337919
 10
664.349218408
 20
43.0402576541
 10
665.255714316
 20
42.8115815116
 10
666.162210223
 20
42.5829053644
 10
667.068706129
 20
42.3542292126
 10
667.975202034
 20
42.1255530562
 10
668.881697937
 20
41.8968768952
 10
669.78819384
 20
41.6682007296
 10
670.694689742
 20
41.4395245596
 10
671.601185643
 20
41.210848385
 10
672.507681543
 20
40.982172206
 10
673.414177442
 20
40.7534960225
 10
674.32067334
 20
40.5248198347
 10
675.227169237
 20
40.2961436425
 10
676.133665132
 20
40.0674674459
 10
677.040161027
 20
39.8387912451
 10
677.946656922
 20
39.6101150399
 10
678.853152815
 20
39.3814388305
 10
679.759648707
 20
39.1527626168
 10
680.666144598
 20
38.924086399
 10
681.572640488
 20
38.695410177
 10
682.479136378
 20
38.4667339508
 10
683.385632266
 20
38.2380577205
  0
LWPOLYLINE
  5
14e
330
1F
100
AcDbEntity
  8
main_beam_width
100
AcDbPolyline
 90
24
 70
0
43
0.0
 10
593.454118434
 20
104.058301613
 10
597.549952121
 20
103.397320443
 10
601.645785873
 20
102.736339659
 10
605.74161969
 20
102.075359257
 10
609.837453571
 20
101.414379231
 10
613.933287516
 20
100.753399575
 10
618.029121523
 20
100.092420284
 10
622.124955591
 20
99.4314413524
 10
626.220789719
 20
98.7704627756
 10
630.316623907
 20
98.1094845482
 10
634.412458154
 20
97.4485066654
 10
638.508292458
 20
96.7875291221
 10
642.60412682
 20
96.1265519135
 10
646.699961238
 20
95.4655750351
 10
650.795795711
 20
94.8045984822
 10
654.89163024
 20
94.1436222502
 10
658.987464822
 20
93.4826463348
 10
663.083299457
 20
92.8216707314
 10
667.179134145
 20
92.160695436
 10
671.274968885
 20
91.4997204442
 10
675.370803675
 20
90.838745752
 10
679.466638516
 20
90.1777713552
 10
683.562473407
 20
89.5167972499
 10
687.658308347
 20
88.8558234322
  0
LWPOLYLINE
  5
14f
330
1F
100
AcDbEntity
  8
main_beam_width
100
AcDbPolyline
 90
24
 70
0
43
0.0
 10
593.519560922
 20
89.0600835148
 10
597.492416439
 20
88.3465245047
 10
601.465271895
 20
87.6329651314
 10
605.43812729
 20
86.9194054001
 10
609.410982625
 20
86.2058453159
 10
613.3838379
 20
85.4922848838
 10
617.356693117
 20
84.7787241087
 10
621.329548276
 20
84.0651629954
 10
625.302403379
 20
83.3516015486
 10
629.275258425
 20
82.638039773
 10
633.248113416
 20
81.9244776731
 10
637.220968352
 20
81.2109152534
 10
641.193823235
 20
80.4973525182
 10
645.166678065
 20
79.7837894719
 10
649.139532842
 20
79.0702261186
 10
653.112387568
 20
78.3566624626
 10
657.085242243
 20
77.643098508
 10
661.058096867
 20
76.9295342586
 10
665.030951442
 20
76.2159697184
 10
669.003805968
 20
75.5024048914
 10
672.976660446
 20
74.7888397812
 10
676.949514876
 20
74.0752743917
 10
680.92236926
 20
73.3617087265
 10
684.895223596
 20
72.6481427891
  0
LWPOLYLINE
  5
150
330
1F
100
AcDbEntity
  8
main_beam_width
100
AcDbPolyline
 90
15
 70
0
43
0.0
 10
0.0861060415338
 20
179.014198402
 10
35.793826519
 20
173.157518929
 10
71.5015777736
 20
167.301023733
 10
107.209357499
 20
161.444699007
 10
142.917163612
 20
155.588532271
 10
178.624994222
 20
149.732512217
 10
214.332847616
 20
143.876628577
 10
250.040722233
 20
138.020872008
 10
285.74861665
 20
132.165233992
 10
321.456529567
 20
126.309706746
 10
357.164459796
 20
120.454283149
 10
392.872406244
 20
114.598956669
 10
428.58036791
 20
108.743721306
 10
464.288343873
 20
102.888571543
 10
499.996333282
 20
97.0335022915
  0
LWPOLYLINE
  5
151
330
1F
100
AcDbEntity
  8
main_beam_width
100
AcDbPolyline
 90
15
 70
0
43
0.0
 10
0.780192508383
 20
170.947026322
 10
36.4331284124
 20
164.885416084
 10
72.0860337069
 20
158.823622573
 10
107.738910681
 20
152.761659495
 10
143.391761405
 20
146.699539244
 10
179.044587754
 20
140.637273047
 10
214.697391431
 20
134.574871105
 10
250.350173986
 20
128.512342699
 10
286.002936834
 20
122.449696292
 10
321.655681265
 20
116.386939618
 10
357.308408462
 20
110.324079756
 10
392.96111951
 20
104.261123197
 10
428.613815404
 20
98.1980759065
 10
464.26649706
 20
92.1349433714
 10
499.919165324
 20
86.0717306499
  0
LWPOLYLINE
  5
152
330
1F
100
AcDbEntity
  8
main_beam_width
100
AcDbPolyline
 90
63
 70
0
43
0.0
 10
499.919212201
 20
86.0757696897
 10
491.850439351
 20
84.89555221
 10
483.781667106
 20
83.7153307564
 10
475.712895486
 20
82.5351052147
 10
467.644124507
 20
81.3548754666
 10
459.575354188
 20
80.1746413888
 10
451.50658455
 20
78.9944028534
 10
443.437815613
 20
77.8141597273
 10
435.369047396
 20
76.6339118722
 10
427.300279924
 20
75.453659144
 10
419.231513217
 20
74.2734013929
 10
411.162747301
 20
73.0931384629
 10
403.0939822
 20
71.9128701912
 10
395.02521794
 20
70.7325964084
 10
386.956454548
 20
69.552316938
 10
378.887692051
 20
68.3720315955
 10
370.81893048
 20
67.1917401887
 10
362.750169865
 20
66.0114425169
 10
354.681410238
 20
64.8311383701
 10
346.612651632
 20
63.6508275295
 10
338.543894082
 20
62.4705097657
 10
330.475137625
 20
61.2901848392
 10
322.4063823
 20
60.1098524991
 10
314.337628145
 20
58.9295124828
 10
306.268875204
 20
57.7491645151
 10
298.20012352
 20
56.5688083077
 10
290.131373139
 20
55.3884435581
 10
282.06262411
 20
54.208069949
 10
273.993876484
 20
53.0276871469
 10
265.925130314
 20
51.8472948019
 10
257.856385656
 20
50.6668925459
 10
249.787642569
 20
49.4864799917
 10
241.718901115
 20
48.3060567319
 10
233.650161361
 20
47.1256223372
 10
225.581423375
 20
45.9451763554
 10
217.512687229
 20
44.7647183094
 10
209.443953001
 20
43.5842476957
 10
201.375220771
 20
42.4037639826
 10
193.306490626
 20
41.2232666082
 10
185.237762656
 20
40.0427549778
 10
177.169036957
 20
38.8622284623
 10
169.100313631
 20
37.681686395
 10
161.031592786
 20
36.501128069
 10
152.962874536
 20
35.3205527344
 10
144.894159002
 20
34.1399595943
 10
136.825446315
 20
32.9593478021
 10
128.756736611
 20
31.7787164565
 10
120.688030036
 20
30.5980645979
 10
112.619326748
 20
29.4173912031
 10
104.550626912
 20
28.2366951804
 10
96.4819307069
 20
27.0559753635
 10
88.4132383223
 20
25.8752305051
 10
80.3445499622
 20
24.69445927
 10
72.275865845
 20
23.513660227
 10
64.2071862049
 20
22.3328318405
 10
56.1385112937
 20
21.1519724607
 10
48.0698413821
 20
19.9710803128
 10
40.0011767619
 20
18.7901534855
 10
31.9325177476
 20
17.6091899171
 10
23.8638646788
 20
16.4281873811
 10
15.7952179231
 20
15.2471434691
 10
7.72657787835
 20
14.0660555729
 10
-0.342055023563
 20
12.8849208624
  0
LWPOLYLINE
  5
153
330
1F
100
AcDbEntity
  8
main_beam_width
100
AcDbPolyline
 90
63
 70
0
43
0.0
 10
499.996343068
 20
97.0374633864
 10
491.915196304
 20
95.7533900125
 10
483.834048934
 20
94.4693206163
 10
475.752900939
 20
93.1852553122
 10
467.671752301
 20
91.901194219
 10
459.590603002
 20
90.6171374601
 10
451.509453022
 20
89.3330851638
 10
443.428302341
 20
88.0490374637
 10
435.347150938
 20
86.7649944983
 10
427.26599879
 20
85.4809564122
 10
419.184845875
 20
84.1969233556
 10
411.103692168
 20
82.9128954851
 10
403.022537645
 20
81.6288729638
 10
394.94138228
 20
80.3448559615
 10
386.860226046
 20
79.0608446557
 10
378.779068915
 20
77.7768392311
 10
370.697910857
 20
76.4928398807
 10
362.616751841
 20
75.2088468059
 10
354.535591836
 20
73.9248602173
 10
346.454430808
 20
72.6408803346
 10
338.373268721
 20
71.3569073879
 10
330.292105539
 20
70.0729416177
 10
322.210941224
 20
68.7889832758
 10
314.129775735
 20
67.5050326258
 10
306.048609031
 20
66.2210899439
 10
297.967441066
 20
64.9371555197
 10
289.886271796
 20
63.653229657
 10
281.80510117
 20
62.3693126743
 10
273.723929138
 20
61.0854049064
 10
265.642755647
 20
59.8015067051
 10
257.56158064
 20
58.5176184399
 10
249.480404057
 20
57.2337404998
 10
241.399225837
 20
55.9498732942
 10
233.318045913
 20
54.6660172544
 10
225.236864216
 20
53.3821728349
 10
217.155680672
 20
52.0983405152
 10
209.074495206
 20
50.8145208013
 10
200.993307734
 20
49.5307142278
 10
192.912118172
 20
48.2469213597
 10
184.830926427
 20
46.9631427948
 10
176.749732403
 20
45.6793791659
 10
168.668535997
 20
44.3956311435
 10
160.587337103
 20
43.1118994386
 10
152.506135603
 20
41.828184806
 10
144.424931376
 20
40.5444880471
 10
136.343724292
 20
39.2608100143
 10
128.262514213
 20
37.9771516145
 10
120.18130099
 20
36.693513814
 10
112.100084467
 20
35.4098976426
 10
104.018864477
 20
34.1263042001
 10
95.9376408391
 20
32.842734661
 10
87.8564133625
 20
31.5591902818
 10
79.7751818419
 20
30.2756724079
 10
71.6939460571
 20
28.9921824815
 10
63.6127057719
 20
27.7087220506
 10
55.5314607326
 20
26.4252927783
 10
47.4502106662
 20
25.1418964544
 10
39.3689552784
 20
23.8585350068
 10
31.2876942519
 20
22.5752105153
 10
23.2064272439
 20
21.2919252268
 10
15.1251538836
 20
20.008681572
 10
7.04387376905
 20
18.7254821844
 10
-1.0374135357
 20
17.4423299219
  0
LWPOLYLINE
  5
154
330
1F
100
AcDbEntity
  8
main_beam_width
100
AcDbPolyline
 90
10
 70
0
43
0.0
 10
-48.9779566638
 20
157.807064798
 10
-54.2799804836
 20
155.964572864
 10
-59.5820027185
 20
154.122076368
 10
-64.8840233687
 20
152.279575312
 10
-70.1860424348
 20
150.437069696
 10
-75.4880599172
 20
148.594559521
 10
-80.7900758163
 20
146.75204479
 10
-86.0920901324
 20
144.909525503
 10
-91.3941028662
 20
143.067001661
 10
-96.6961140179
 20
141.224473266
  0
LWPOLYLINE
  5
155
330
1F
100
AcDbEntity
  8
main_beam_width
100
AcDbPolyline
 90
10
 70
0
43
0.0
 10
-49.7184706099
 20
165.866019899
 10
-55.224900297
 20
163.953221484
 10
-60.7313316936
 20
162.04042799
 10
-66.2377647993
 20
160.127639415
 10
-71.7441996136
 20
158.214855757
 10
-77.2506361361
 20
156.302077016
 10
-82.7570743663
 20
154.38930319
 10
-88.2635143036
 20
152.476534278
 10
-93.7699559477
 20
150.563770277
 10
-99.276399298
 20
148.651011188
  0
LWPOLYLINE
  5
156
330
1F
100
AcDbEntity
  8
main_beam_width
100
AcDbPolyline
 90
10
 70
0
43
0.0
 10
-50.6060287766
 20
175.5252457
 10
-55.8822308238
 20
173.569496715
 10
-61.1584310547
 20
171.613742777
 10
-66.4346294969
 20
169.657983961
 10
-71.7108261774
 20
167.702220342
 10
-76.9870211225
 20
165.74645199
 10
-82.2632143583
 20
163.790678978
 10
-87.53940591
 20
161.834901374
 10
-92.8155958028
 20
159.879119246
 10
-98.091784061
 20
157.923332662
  0
LWPOLYLINE
  5
157
330
1F
100
AcDbEntity
  8
main_beam_width
100
AcDbPolyline
 90
10
 70
0
43
0.0
 10
-51.325155891
 20
183.351449592
 10
-56.825719253
 20
181.355772157
 10
-62.3262845887
 20
179.360100103
 10
-67.8268518669
 20
177.364433346
 10
-73.3274210571
 20
175.368771803
 10
-78.8279921294
 20
173.373115392
 10
-84.3285650546
 20
171.377464033
 10
-89.829139804
 20
169.381817648
 10
-95.3297163496
 20
167.38617616
 10
-100.830294664
 20
165.390539496
  0
LWPOLYLINE
  5
158
330
1F
100
AcDbEntity
  8
main_beam_width
100
AcDbPolyline
 90
34
 70
0
43
0.0
 10
251.884175158
 20
287.688657585
 10
244.172270863
 20
285.287803443
 10
236.460373111
 20
282.886927815
 10
228.748481583
 20
280.486031744
 10
221.036595984
 20
278.085116209
 10
213.324716032
 20
275.684182125
 10
205.612841466
 20
273.283230354
 10
197.900972041
 20
270.882261703
 10
190.189107524
 20
268.481276933
 10
182.477247697
 20
266.08027676
 10
174.765392356
 20
263.679261856
 10
167.053541308
 20
261.278232858
 10
159.341694368
 20
258.877190365
 10
151.629851366
 20
256.476134942
 10
143.918012138
 20
254.075067125
 10
136.20617653
 20
251.673987421
 10
128.494344396
 20
249.272896307
 10
120.782515599
 20
246.871794237
 10
113.070690007
 20
244.470681642
 10
105.358867495
 20
242.06955893
 10
97.6470479467
 20
239.668426487
 10
89.9352312494
 20
237.267284681
 10
82.2234172967
 20
234.866133863
 10
74.5116059875
 20
232.464974363
 10
66.7997972253
 20
230.063806499
 10
59.0879909186
 20
227.662630572
 10
51.3761869799
 20
225.261446868
 10
43.664385326
 20
222.860255662
 10
35.9525858773
 20
220.459057213
 10
28.2407885581
 20
218.057851771
 10
20.5289932961
 20
215.656639574
 10
12.817200022
 20
213.255420849
 10
5.10540866973
 20
210.854195813
 10
-2.60638082386
 20
208.452964673
  0
LWPOLYLINE
  5
159
330
1F
100
AcDbEntity
  8
main_beam_width
100
AcDbPolyline
 90
34
 70
0
43
0.0
 10
249.634579822
 20
293.173737786
 10
241.96345755
 20
290.889756871
 10
234.292328872
 20
288.605796993
 10
226.621194097
 20
286.321857139
 10
218.950053512
 20
284.037936362
 10
211.27890739
 20
281.754033769
 10
203.607755985
 20
279.470148527
 10
195.936599535
 20
277.186279849
 10
188.265438267
 20
274.902426996
 10
180.594272392
 20
272.618589271
 10
172.923102109
 20
270.33476602
 10
165.251927608
 20
268.050956623
 10
157.580749066
 20
265.767160495
 10
149.909566651
 20
263.483377085
 10
142.238380522
 20
261.199605871
 10
134.567190829
 20
258.91584636
 10
126.895997716
 20
256.632098082
 10
119.224801317
 20
254.348360596
 10
111.553601759
 20
252.064633481
 10
103.882399165
 20
249.780916338
 10
96.2111936494
 20
247.497208789
 10
88.5399853221
 20
245.213510473
 10
80.8687742871
 20
242.929821048
 10
73.1975606437
 20
240.64614019
 10
65.5263444861
 20
238.362467588
 10
57.8551259043
 20
236.078802947
 10
50.1839049838
 20
233.795145986
 10
42.5126818064
 20
231.511496437
 10
34.8414564499
 20
229.227854043
 10
27.1702289888
 20
226.94421856
 10
19.4989994942
 20
224.660589756
 10
11.8277680339
 20
222.376967407
 10
4.15653467285
 20
220.093351299
 10
-3.51470052685
 20
217.80974123
  0
LWPOLYLINE
  5
15a
330
1F
100
AcDbEntity
  8
main_beam_width
100
AcDbPolyline
 90
10
 70
0
43
0.0
 10
-2.60672978659
 20
208.456610288
 10
-8.15296797342
 20
207.115435852
 10
-13.6992058358
 20
205.774260052
 10
-19.2454433782
 20
204.433082906
 10
-24.7916806051
 20
203.091904432
 10
-30.3379175208
 20
201.75072465
 10
-35.8841541297
 20
200.409543578
 10
-41.4303904358
 20
199.068361232
 10
-46.9766264435
 20
197.72717763
 10
-52.5228621566
 20
196.38599279
  0
LWPOLYLINE
  5
15b
330
1F
100
AcDbEntity
  8
main_beam_width
100
AcDbPolyline
 90
10
 70
0
43
0.0
 10
-3.51505621679
 20
217.813354773
 10
-9.06006684501
 20
216.517559989
 10
-14.6050777974
 20
215.221766568
 10
-20.1500890695
 20
213.925974492
 10
-25.6951006568
 20
212.630183742
 10
-31.240112555
 20
211.3343943
 10
-36.7851247598
 20
210.038606147
 10
-42.330137267
 20
208.742819266
 10
-47.8751500725
 20
207.44703364
 10
-53.4201631722
 20
206.151249251
  0
LWPOLYLINE
  5
15c
330
1F
100
AcDbEntity
  8
main_beam_width
100
AcDbPolyline
 90
100
 70
0
43
0.0
 10
-3.5145714509
 20
217.808429906
 10
1.55019327288
 20
217.335556458
 10
6.61495824104
 20
216.862685397
 10
11.6797234465
 20
216.389816653
 10
16.7444888826
 20
215.916950161
 10
21.8092545426
 20
215.444085857
 10
26.8740204204
 20
214.971223679
 10
31.9387865099
 20
214.498363568
 10
37.0035528053
 20
214.025505468
 10
42.0683193009
 20
213.552649323
 10
47.1330859914
 20
213.079795082
 10
52.1978528715
 20
212.606942692
 10
57.2626199361
 20
212.134092105
 10
62.3273871806
 20
211.661243272
 10
67.3921546
 20
211.18839615
 10
72.45692219
 20
210.715550692
 10
77.5216899461
 20
210.242706857
 10
82.5864578642
 20
209.769864604
 10
87.65122594
 20
209.297023891
 10
92.7159941698
 20
208.824184682
 10
97.7807625496
 20
208.351346937
 10
102.845531076
 20
207.878510623
 10
107.910299745
 20
207.405675703
 10
112.975068553
 20
206.932842144
 10
118.039837498
 20
206.460009913
 10
123.104606575
 20
205.987178978
 10
128.169375781
 20
205.51434931
 10
133.234145115
 20
205.041520877
 10
138.298914572
 20
204.568693653
 10
143.36368415
 20
204.095867607
 10
148.428453845
 20
203.623042714
 10
153.493223657
 20
203.150218948
 10
158.55799358
 20
202.677396282
 10
163.622763614
 20
202.204574693
 10
168.687533756
 20
201.731754156
 10
173.752304003
 20
201.258934648
 10
178.817074354
 20
200.786116147
 10
183.881844805
 20
200.31329863
 10
188.946615355
 20
199.840482076
 10
194.011386001
 20
199.367666466
 10
199.076156742
 20
198.894851778
 10
204.140927575
 20
198.422037993
 10
209.205698499
 20
197.949225092
 10
214.270469511
 20
197.476413057
 10
219.33524061
 20
197.003601869
 10
224.400011795
 20
196.530791513
 10
229.464783062
 20
196.057981969
 10
234.529554411
 20
195.585173222
 10
239.59432584
 20
195.112365257
 10
244.659097348
 20
194.639558056
 10
249.723868932
 20
194.166751606
 10
254.788640592
 20
193.69394589
 10
259.853412325
 20
193.221140896
 10
264.918184131
 20
192.748336608
 10
269.982956008
 20
192.275533013
 10
275.047727954
 20
191.802730098
 10
280.112499968
 20
191.329927849
 10
285.17727205
 20
190.857126255
 10
290.242044197
 20
190.384325302
 10
295.306816409
 20
189.911524978
 10
300.371588684
 20
189.438725273
 10
305.436361021
 20
188.965926174
 10
310.501133419
 20
188.49312767
 10
315.565905877
 20
188.020329751
 10
320.630678394
 20
187.547532405
 10
325.695450968
 20
187.074735623
 10
330.760223599
 20
186.601939393
 10
335.824996285
 20
186.129143707
 10
340.889769027
 20
185.656348555
 10
345.954541821
 20
185.183553927
 10
351.019314669
 20
184.710759814
 10
356.084087569
 20
184.237966207
 10
361.148860519
 20
183.765173097
 10
366.213633519
 20
183.292380476
 10
371.278406569
 20
182.819588335
 10
376.343179667
 20
182.346796667
 10
381.407952812
 20
181.874005462
 10
386.472726005
 20
181.401214713
 10
391.537499243
 20
180.928424414
 10
396.602272526
 20
180.455634555
 10
401.667045854
 20
179.98284513
 10
406.731819225
 20
179.510056131
 10
411.796592639
 20
179.037267553
 10
416.861366096
 20
178.564479387
 10
421.926139594
 20
178.091691627
 10
426.990913133
 20
177.618904266
 10
432.055686713
 20
177.146117299
 10
437.120460332
 20
176.673330718
 10
442.18523399
 20
176.200544519
 10
447.250007686
 20
175.727758693
 10
452.31478142
 20
175.254973237
 10
457.379555191
 20
174.782188144
 10
462.444328999
 20
174.309403408
 10
467.509102843
 20
173.836619023
 10
472.573876722
 20
173.363834985
 10
477.638650637
 20
172.891051289
 10
482.703424585
 20
172.418267928
 10
487.768198568
 20
171.945484898
 10
492.832972584
 20
171.472702193
 10
497.897746632
 20
170.99991981
  0
LWPOLYLINE
  5
15d
330
1F
100
AcDbEntity
  8
main_beam_width
100
AcDbPolyline
 90
100
 70
0
43
0.0
 10
-2.60626404871
 20
208.451744713
 10
2.45894143042
 20
207.887221141
 10
7.52414666687
 20
207.322695199
 10
12.5893516676
 20
206.758166955
 10
17.6545564394
 20
206.193636476
 10
22.7197609886
 20
205.629103823
 10
27.7849653216
 20
205.064569058
 10
32.8501694443
 20
204.50003224
 10
37.9153733625
 20
203.935493424
 10
42.9805770818
 20
203.370952666
 10
48.0457806075
 20
202.806410017
 10
53.1109839448
 20
202.241865529
 10
58.1761870987
 20
201.677319249
 10
63.241390074
 20
201.112771226
 10
68.3065928754
 20
200.548221504
 10
73.3717955073
 20
199.983670128
 10
78.4369979742
 20
199.419117139
 10
83.5022002802
 20
198.854562579
 10
88.5674024293
 20
198.290006488
 10
93.6326044255
 20
197.725448903
 10
98.6978062725
 20
197.160889861
 10
103.763007974
 20
196.596329399
 10
108.828209534
 20
196.03176755
 10
113.893410955
 20
195.467204349
 10
118.958612241
 20
194.902639828
 10
124.023813395
 20
194.338074018
 10
129.08901442
 20
193.77350695
 10
134.154215319
 20
193.208938652
 10
139.219416095
 20
192.644369155
 10
144.284616752
 20
192.079798485
 10
149.349817291
 20
191.515226669
 10
154.415017715
 20
190.950653733
 10
159.480218027
 20
190.386079703
 10
164.54541823
 20
189.821504603
 10
169.610618325
 20
189.256928456
 10
174.675818316
 20
188.692351286
 10
179.741018204
 20
188.127773116
 10
184.806217992
 20
187.563193966
 10
189.871417682
 20
186.998613858
 10
194.936617276
 20
186.434032813
 10
200.001816776
 20
185.869450851
 10
205.067016184
 20
185.30486799
 10
210.132215502
 20
184.74028425
 10
215.197414732
 20
184.175699649
 10
220.262613875
 20
183.611114205
 10
225.327812934
 20
183.046527935
 10
230.39301191
 20
182.481940856
 10
235.458210805
 20
181.917352984
 10
240.52340962
 20
181.352764336
 10
245.588608358
 20
180.788174927
 10
250.653807019
 20
180.223584772
 10
255.719005605
 20
179.658993885
 10
260.784204117
 20
179.094402281
 10
265.849402558
 20
178.529809975
 10
270.914600928
 20
177.965216979
 10
275.979799229
 20
177.400623307
 10
281.044997462
 20
176.836028971
 10
286.110195628
 20
176.271433986
 10
291.175393729
 20
175.706838361
 10
296.240591766
 20
175.142242111
 10
301.30578974
 20
174.577645245
 10
306.370987652
 20
174.013047777
 10
311.436185504
 20
173.448449716
 10
316.501383296
 20
172.883851074
 10
321.566581029
 20
172.319251861
 10
326.631778705
 20
171.754652087
 10
331.696976325
 20
171.190051763
 10
336.762173889
 20
170.625450898
 10
341.827371399
 20
170.060849503
 10
346.892568856
 20
169.496247586
 10
351.95776626
 20
168.931645156
 10
357.022963613
 20
168.367042223
 10
362.088160914
 20
167.802438795
 10
367.153358167
 20
167.23783488
 10
372.21855537
 20
166.673230488
 10
377.283752525
 20
166.108625626
 10
382.348949633
 20
165.544020302
 10
387.414146694
 20
164.979414524
 10
392.479343709
 20
164.4148083
 10
397.54454068
 20
163.850201637
 10
402.609737606
 20
163.285594542
 10
407.674934489
 20
162.720987022
 10
412.740131329
 20
162.156379085
 10
417.805328127
 20
161.591770737
 10
422.870524884
 20
161.027161984
 10
427.9357216
 20
160.462552834
 10
433.000918276
 20
159.897943293
 10
438.066114912
 20
159.333333367
 10
443.13131151
 20
158.768723062
 10
448.196508069
 20
158.204112384
 10
453.261704591
 20
157.639501339
 10
458.326901076
 20
157.074889932
 10
463.392097525
 20
156.51027817
 10
468.457293937
 20
155.945666058
 10
473.522490315
 20
155.381053601
 10
478.587686657
 20
154.816440804
 10
483.652882965
 20
154.251827673
 10
488.71807924
 20
153.687214213
 10
493.783275481
 20
153.122600428
 10
498.84847169
 20
152.557986324
  0
LWPOLYLINE
  5
15e
330
1F
100
AcDbEntity
  8
main_beam_width
100
AcDbPolyline
 90
33
 70
0
43
0.0
 10
497.897586448
 20
171.002622357
 10
500.875192758
 20
170.866740357
 10
503.85279907
 20
170.730858407
 10
506.830405385
 20
170.594976507
 10
509.808011703
 20
170.459094657
 10
512.785618023
 20
170.323212856
 10
515.763224346
 20
170.187331104
 10
518.740830671
 20
170.0514494
 10
521.718437
 20
169.915567744
 10
524.69604333
 20
169.779686135
 10
527.673649664
 20
169.643804574
 10
530.651256
 20
169.507923059
 10
533.628862338
 20
169.372041591
 10
536.606468679
 20
169.236160168
 10
539.584075022
 20
169.100278792
 10
542.561681368
 20
168.964397461
 10
545.539287716
 20
168.828516174
 10
548.516894067
 20
168.692634932
 10
551.49450042
 20
168.556753735
 10
554.472106775
 20
168.420872581
 10
557.449713133
 20
168.284991471
 10
560.427319493
 20
168.149110404
 10
563.404925855
 20
168.013229379
 10
566.38253222
 20
167.877348398
 10
569.360138587
 20
167.741467458
 10
572.337744957
 20
167.60558656
 10
575.315351328
 20
167.469705704
 10
578.292957702
 20
167.333824889
 10
581.270564078
 20
167.197944115
 10
584.248170456
 20
167.062063381
 10
587.225776836
 20
166.926182687
 10
590.203383219
 20
166.790302034
 10
593.180989604
 20
166.65442142
  0
LWPOLYLINE
  5
15f
330
1F
100
AcDbEntity
  8
main_beam_width
100
AcDbPolyline
 90
33
 70
0
43
0.0
 10
498.848354268
 20
152.560664644
 10
501.798979678
 20
152.375310886
 10
504.749605084
 20
152.189957079
 10
507.700230488
 20
152.004603224
 10
510.650855889
 20
151.819249319
 10
513.601481288
 20
151.633895367
 10
516.552106684
 20
151.448541367
 10
519.502732078
 20
151.26318732
 10
522.453357468
 20
151.077833225
 10
525.403982857
 20
150.892479085
 10
528.354608243
 20
150.707124898
 10
531.305233626
 20
150.521770665
 10
534.255859007
 20
150.336416387
 10
537.206484386
 20
150.151062063
 10
540.157109762
 20
149.965707695
 10
543.107735136
 20
149.780353283
 10
546.058360507
 20
149.594998827
 10
549.008985876
 20
149.409644327
 10
551.959611243
 20
149.224289784
 10
554.910236607
 20
149.038935197
 10
557.860861969
 20
148.853580568
 10
560.811487328
 20
148.668225897
 10
563.762112686
 20
148.482871184
 10
566.712738041
 20
148.297516429
 10
569.663363394
 20
148.112161633
 10
572.613988745
 20
147.926806796
 10
575.564614093
 20
147.741451918
 10
578.515239439
 20
147.556097
 10
581.465864783
 20
147.370742042
 10
584.416490125
 20
147.185387044
 10
587.367115465
 20
147.000032006
 10
590.317740803
 20
146.81467693
 10
593.268366138
 20
146.629321814
  0
LWPOLYLINE
  5
160
330
1F
100
AcDbEntity
  8
main_beam_width
100
AcDbPolyline
 90
68
 70
0
43
0.0
 10
498.847993899
 20
152.568883624
 10
491.493261427
 20
151.088355131
 10
484.138529099
 20
149.607825951
 10
476.783796916
 20
148.127296073
 10
469.42906488
 20
146.646765486
 10
462.074332994
 20
145.166234178
 10
454.71960126
 20
143.685702138
 10
447.364869682
 20
142.205169353
 10
440.01013826
 20
140.724635811
 10
432.655406999
 20
139.2441015
 10
425.300675901
 20
137.763566407
 10
417.945944968
 20
136.283030518
 10
410.591214203
 20
134.80249382
 10
403.236483609
 20
133.3219563
 10
395.88175319
 20
131.841417942
 10
388.527022947
 20
130.360878733
 10
381.172292885
 20
128.880338659
 10
373.817563006
 20
127.399797703
 10
366.462833313
 20
125.919255851
 10
359.10810381
 20
124.438713086
 10
351.7533745
 20
122.958169394
 10
344.398645387
 20
121.477624756
 10
337.043916474
 20
119.997079156
 10
329.689187764
 20
118.516532576
 10
322.334459262
 20
117.035985
 10
314.979730971
 20
115.555436409
 10
307.625002895
 20
114.074886783
 10
300.270275038
 20
112.594336104
 10
292.915547405
 20
111.113784353
 10
285.560819998
 20
109.633231509
 10
278.206092823
 20
108.152677552
 10
270.851365884
 20
106.67212246
 10
263.496639186
 20
105.191566212
 10
256.141912732
 20
103.711008786
 10
248.787186529
 20
102.230450159
 10
241.43246058
 20
100.749890307
 10
234.07773489
 20
99.2693292076
 10
226.723009466
 20
97.7887668349
 10
219.368284311
 20
96.3082031641
 10
212.013559432
 20
94.8276381693
 10
204.658834834
 20
93.3470718239
 10
197.304110522
 20
91.8665041005
 10
189.949386503
 20
90.3859349711
 10
182.594662782
 20
88.9053644069
 10
175.239939366
 20
87.4247923782
 10
167.885216261
 20
85.9442188547
 10
160.530493473
 20
84.463643805
 10
153.175771009
 20
82.983067197
 10
145.821048877
 20
81.5024889975
 10
138.466327082
 20
80.0219091727
 10
131.111605633
 20
78.5413276875
 10
123.756884536
 20
77.0607445059
 10
116.4021638
 20
75.5801595909
 10
109.047443433
 20
74.0995729044
 10
101.692723442
 20
72.618984407
 10
94.3380038363
 20
71.1383940584
 10
86.9832846243
 20
69.657801817
 10
79.6285658148
 20
68.1772076398
 10
72.2738474172
 20
66.6966114827
 10
64.9191294409
 20
65.2160133001
 10
57.5644118956
 20
63.7354130451
 10
50.2096947914
 20
62.2548106693
 10
42.8549781388
 20
60.7742061228
 10
35.5002619483
 20
59.293599354
 10
28.1455462312
 20
57.8129903098
 10
20.7908309986
 20
56.3323789354
 10
13.4361162626
 20
54.8517651741
 10
6.08140203513
 20
53.3711489676
  0
LWPOLYLINE
  5
161
330
1F
100
AcDbEntity
  8
main_beam_width
100
AcDbPolyline
 90
68
 70
0
43
0.0
 10
497.897090765
 20
171.010984628
 10
490.52076219
 20
169.427267024
 10
483.144433472
 20
167.84355011
 10
475.768104609
 20
166.259833898
 10
468.391775596
 20
164.676118399
 10
461.015446434
 20
163.092403624
 10
453.639117118
 20
161.508689586
 10
446.262787646
 20
159.924976297
 10
438.886458016
 20
158.341263769
 10
431.510128225
 20
156.757552015
 10
424.13379827
 20
155.173841047
 10
416.757468149
 20
153.59013088
 10
409.381137858
 20
152.006421527
 10
402.004807396
 20
150.422713001
 10
394.628476758
 20
148.839005317
 10
387.252145942
 20
147.25529849
 10
379.875814945
 20
145.671592534
 10
372.499483764
 20
144.087887464
 10
365.123152395
 20
142.504183297
 10
357.746820835
 20
140.920480048
 10
350.370489081
 20
139.336777733
 10
342.994157128
 20
137.75307637
 10
335.617824975
 20
136.169375974
 10
328.241492616
 20
134.585676565
 10
320.865160048
 20
133.00197816
 10
313.488827268
 20
131.418280777
 10
306.112494272
 20
129.834584435
 10
298.736161054
 20
128.250889153
 10
291.359827612
 20
126.667194952
 10
283.983493942
 20
125.083501851
 10
276.607160038
 20
123.499809871
 10
269.230825896
 20
121.916119035
 10
261.854491512
 20
120.332429363
 10
254.478156881
 20
118.748740878
 10
247.101821998
 20
117.165053603
 10
239.725486859
 20
115.581367562
 10
232.349151458
 20
113.997682778
 10
224.972815791
 20
112.413999278
 10
217.596479851
 20
110.830317086
 10
210.220143633
 20
109.246636229
 10
202.843807133
 20
107.662956733
 10
195.467470343
 20
106.079278627
 10
188.091133259
 20
104.495601938
 10
180.714795873
 20
102.911926696
 10
173.338458181
 20
101.328252931
 10
165.962120175
 20
99.7445806733
 10
158.585781848
 20
98.1609099553
 10
151.209443195
 20
96.5772408093
 10
143.833104208
 20
94.9935732688
 10
136.45676488
 20
93.4099073684
 10
129.080425203
 20
91.8262431434
 10
121.70408517
 20
90.2425806303
 10
114.327744773
 20
88.6589198669
 10
106.951404004
 20
87.0752608916
 10
99.5750628554
 20
85.4916037444
 10
92.1987213177
 20
83.9079484663
 10
84.8223793824
 20
82.3242950995
 10
77.4460370406
 20
80.7406436875
 10
70.0696942828
 20
79.1569942752
 10
62.6933510995
 20
77.5733469088
 10
55.3170074807
 20
75.9897016361
 10
47.9406634163
 20
74.4060585061
 10
40.5643188956
 20
72.8224175696
 10
33.1879739078
 20
71.2387788789
 10
25.8116284416
 20
69.655142488
 10
18.4352824856
 20
68.0715084526
 10
11.0589360276
 20
66.4878768304
 10
3.68258905529
 20
64.9042476807
  0
LWPOLYLINE
  5
162
330
1F
100
AcDbEntity
  8
main_beam_width
100
AcDbPolyline
 90
48
 70
0
43
0.0
 10
593.181013922
 20
166.648848079
 10
595.214830273
 20
166.510094896
 10
597.248646626
 20
166.371341752
 10
599.282462983
 20
166.232588645
 10
601.316279342
 20
166.093835577
 10
603.350095705
 20
165.955082547
 10
605.383912071
 20
165.816329554
 10
607.41772844
 20
165.677576598
 10
609.451544812
 20
165.538823679
 10
611.485361186
 20
165.400070796
 10
613.519177564
 20
165.26131795
 10
615.552993945
 20
165.12256514
 10
617.586810328
 20
164.983812366
 10
619.620626714
 20
164.845059627
 10
621.654443104
 20
164.706306923
 10
623.688259496
 20
164.567554255
 10
625.72207589
 20
164.428801621
 10
627.755892288
 20
164.290049022
 10
629.789708688
 20
164.151296457
 10
631.823525092
 20
164.012543925
 10
633.857341497
 20
163.873791428
 10
635.891157906
 20
163.735038964
 10
637.924974317
 20
163.596286534
 10
639.958790731
 20
163.457534136
 10
641.992607148
 20
163.318781771
 10
644.026423567
 20
163.180029439
 10
646.060239988
 20
163.041277139
 10
648.094056413
 20
162.902524871
 10
650.12787284
 20
162.763772635
 10
652.161689269
 20
162.625020431
 10
654.195505701
 20
162.486268258
 10
656.229322136
 20
162.347516116
 10
658.263138573
 20
162.208764005
 10
660.296955012
 20
162.070011925
 10
662.330771454
 20
161.931259875
 10
664.364587899
 20
161.792507856
 10
666.398404346
 20
161.653755866
 10
668.432220795
 20
161.515003907
 10
670.466037246
 20
161.376251977
 10
672.499853701
 20
161.237500077
 10
674.533670157
 20
161.098748206
 10
676.567486616
 20
160.959996364
 10
678.601303077
 20
160.821244551
 10
680.63511954
 20
160.682492767
 10
682.668936006
 20
160.543741011
 10
684.702752474
 20
160.404989283
 10
686.736568944
 20
160.266237584
 10
688.770385417
 20
160.127485912
  0
LWPOLYLINE
  5
163
330
1F
100
AcDbEntity
  8
main_beam_width
100
AcDbPolyline
 90
48
 70
0
43
0.0
 10
593.268390533
 20
146.623731034
 10
595.262135937
 20
146.43775967
 10
597.255881339
 20
146.251788269
 10
599.249626738
 20
146.065816831
 10
601.243372133
 20
145.879845356
 10
603.237117526
 20
145.693873845
 10
605.230862916
 20
145.507902299
 10
607.224608303
 20
145.321930716
 10
609.218353687
 20
145.135959098
 10
611.212099068
 20
144.949987446
 10
613.205844447
 20
144.764015758
 10
615.199589822
 20
144.578044036
 10
617.193335195
 20
144.392072279
 10
619.187080565
 20
144.206100488
 10
621.180825933
 20
144.020128664
 10
623.174571298
 20
143.834156805
 10
625.16831666
 20
143.648184914
 10
627.162062019
 20
143.462212989
 10
629.155807376
 20
143.276241031
 10
631.14955273
 20
143.090269041
 10
633.143298081
 20
142.904297018
 10
635.13704343
 20
142.718324963
 10
637.130788776
 20
142.532352876
 10
639.12453412
 20
142.346380757
 10
641.118279461
 20
142.160408607
 10
643.112024799
 20
141.974436425
 10
645.105770135
 20
141.788464213
 10
647.099515469
 20
141.602491969
 10
649.0932608
 20
141.416519695
 10
651.087006129
 20
141.23054739
 10
653.080751455
 20
141.044575056
 10
655.074496779
 20
140.858602691
 10
657.0682421
 20
140.672630296
 10
659.061987419
 20
140.486657872
 10
661.055732736
 20
140.300685418
 10
663.04947805
 20
140.114712935
 10
665.043223362
 20
139.928740424
 10
667.036968672
 20
139.742767883
 10
669.030713979
 20
139.556795314
 10
671.024459284
 20
139.370822716
 10
673.018204587
 20
139.18485009
 10
675.011949887
 20
138.998877437
 10
677.005695185
 20
138.812904755
 10
678.999440481
 20
138.626932046
 10
680.993185775
 20
138.440959309
 10
682.986931066
 20
138.254986545
 10
684.980676356
 20
138.069013754
 10
686.974421643
 20
137.883040936
  0
LWPOLYLINE
  5
164
330
1F
100
AcDbEntity
  8
main_beam_width
100
AcDbPolyline
 90
10
 70
0
43
0.0
 10
-52.5225779414
 20
196.382899697
 10
-57.8557994634
 20
194.711862799
 10
-63.1890202322
 20
193.040823448
 10
-68.5222402624
 20
191.369781693
 10
-73.8554595681
 20
189.698737578
 10
-79.1886781631
 20
188.02769115
 10
-84.521896061
 20
186.356642452
 10
-89.8551132748
 20
184.685591526
 10
-95.1883298174
 20
183.014538416
 10
-100.521545701
 20
181.34348316
  0
LWPOLYLINE
  5
165
330
1F
100
AcDbEntity
  8
main_beam_width
100
AcDbPolyline
 90
10
 70
0
43
0.0
 10
-53.4198799457
 20
206.148166919
 10
-58.9854199327
 20
204.47311365
 10
-64.5509607394
 20
202.79806305
 10
-70.1165023494
 20
201.123015066
 10
-75.6820447465
 20
199.447969644
 10
-81.2475879151
 20
197.772926734
 10
-86.81313184
 20
196.097886287
 10
-92.3786765064
 20
194.422848254
 10
-97.9442218998
 20
192.747812588
 10
-103.509768006
 20
191.072779243
  0
LWPOLYLINE
  5
166
330
1F
100
AcDbEntity
  8
main_beam_width
100
AcDbPolyline
 90
10
 70
0
43
0.0
 10
296.598636125
 20
308.758767488
 10
301.54012988
 20
311.082894136
 10
306.481618124
 20
313.40703263
 10
311.423100997
 20
315.731182674
 10
316.364578629
 20
318.055343985
 10
321.306051148
 20
320.379516286
 10
326.24751868
 20
322.703699311
 10
331.188981345
 20
325.027892801
 10
336.130439257
 20
327.352096506
 10
341.071892532
 20
329.676310184
  0
LWPOLYLINE
  5
167
330
1F
100
AcDbEntity
  8
main_beam_width
100
AcDbPolyline
 90
10
 70
0
43
0.0
 10
298.586693498
 20
303.630914005
 10
303.584181289
 20
305.929506119
 10
308.581674679
 20
308.228086196
 10
313.579173528
 20
310.526654536
 10
318.5766777
 20
312.825211432
 10
323.574187063
 20
315.123757166
 10
328.571701492
 20
317.42229201
 10
333.569220863
 20
319.72081623
 10
338.566745056
 20
322.019330081
 10
343.564273958
 20
324.31783381
  0
LWPOLYLINE
  5
168
330
1F
100
AcDbEntity
  8
main_beam_width
100
AcDbPolyline
 90
10
 70
0
43
0.0
 10
297.614498384
 20
306.135537941
 10
302.68887829
 20
308.180775329
 10
307.763251531
 20
310.226029353
 10
312.837618201
 20
312.271299783
 10
317.911978391
 20
314.316586391
 10
322.98633219
 20
316.361888952
 10
328.060679687
 20
318.407207246
 10
333.135020968
 20
320.452541057
 10
338.209356119
 20
322.497890172
 10
343.283685224
 20
324.543254382
  0
LWPOLYLINE
  5
169
330
1F
100
AcDbEntity
  8
main_beam_width
100
AcDbPolyline
 90
10
 70
0
43
0.0
 10
299.412727005
 20
301.507306484
 10
304.501130571
 20
303.532988879
 10
309.589540816
 20
305.5586546
 10
314.677957647
 20
307.58430388
 10
319.766380973
 20
309.609936946
 10
324.854810703
 20
311.635554025
 10
329.943246749
 20
313.661155336
 10
335.031689023
 20
315.686741097
 10
340.120137442
 20
317.712311522
 10
345.208591919
 20
319.73786682
  0
LWPOLYLINE
  5
16a
330
1F
100
AcDbEntity
  8
main_beam_width
100
AcDbPolyline
 90
10
 70
0
43
0.0
 10
-2.64305280747
 20
208.835857353
 10
24.7777894325
 20
219.693946442
 10
52.1982430388
 20
230.553016733
 10
79.6183071345
 20
241.413070442
 10
107.037981468
 20
252.274108201
 10
134.457266417
 20
263.136129061
 10
161.876162981
 20
273.999130493
 10
189.29467278
 20
284.863108412
 10
216.712798035
 20
295.728057207
 10
244.130541555
 20
306.593969787
  0
LWPOLYLINE
  5
16b
330
1F
100
AcDbEntity
  8
main_beam_width
100
AcDbPolyline
 90
10
 70
0
43
0.0
 10
-2.25341952831
 20
204.744753179
 10
25.2887100107
 20
215.656392212
 10
52.8312316407
 20
226.567041312
 10
80.374146271
 20
237.476698185
 10
107.917454174
 20
248.385362144
 10
135.461154982
 20
259.293034115
 10
163.005247692
 20
270.199716631
 10
190.549730674
 20
281.105413811
 10
218.094601679
 20
292.010131327
 10
245.639857866
 20
302.913876357
  0
LWPOLYLINE
  5
16c
330
1F
100
AcDbEntity
  8
main_beam_width
100
AcDbPolyline
 90
10
 70
0
43
0.0
 10
244.130540517
 20
306.593972316
 10
249.263265701
 20
308.650143938
 10
254.395984506
 20
310.706331487
 10
259.528696943
 20
312.762534941
 10
264.66140302
 20
314.81875428
 10
269.794102744
 20
316.874989483
 10
274.926796125
 20
318.931240527
 10
280.05948317
 20
320.987507392
 10
285.192163891
 20
323.043790054
 10
290.324838294
 20
325.100088491
  0
LWPOLYLINE
  5
16d
330
1F
100
AcDbEntity
  8
main_beam_width
100
AcDbPolyline
 90
10
 70
0
43
0.0
 10
245.639856829
 20
302.913878886
 10
250.763094871
 20
304.964453789
 10
255.886339265
 20
307.015012829
 10
261.009590003
 20
309.065556026
 10
266.132847077
 20
311.116083401
 10
271.256110477
 20
313.166594974
 10
276.379380197
 20
315.217090768
 10
281.502656226
 20
317.267570804
 10
286.625938556
 20
319.318035104
 10
291.749227178
 20
321.368483691
  0
LWPOLYLINE
  5
16e
330
1F
100
AcDbEntity
  8
main_beam_width
100
AcDbPolyline
 90
10
 70
0
43
0.0
 10
291.749220267
 20
321.368501766
 10
286.56104295
 20
319.476273558
 10
281.372871349
 20
317.584029612
 10
276.184705403
 20
315.6917701
 10
270.996545049
 20
313.799495189
 10
265.808390228
 20
311.907205047
 10
260.620240879
 20
310.014899839
 10
255.432096944
 20
308.122579726
 10
250.243958364
 20
306.23024487
 10
245.055825081
 20
304.33789543
  0
LWPOLYLINE
  5
16f
330
1F
100
AcDbEntity
  8
main_beam_width
100
AcDbPolyline
 90
10
 70
0
43
0.0
 10
290.32483201
 20
325.100104982
 10
285.120851062
 20
323.217664185
 10
279.916864375
 20
321.335239189
 10
274.712872011
 20
319.452829823
 10
269.508874032
 20
317.570435915
 10
264.304870498
 20
315.688057299
 10
259.100861471
 20
313.805693809
 10
253.896847009
 20
311.923345281
 10
248.692827171
 20
310.041011554
 10
243.488802014
 20
308.158692468
  0
LWPOLYLINE
  5
170
330
1F
100
AcDbEntity
  8
main_beam_width
100
AcDbPolyline
 90
10
 70
0
43
0.0
 10
245.055777502
 20
304.338011441
 10
217.427396075
 20
294.8129737
 10
189.799285305
 20
285.287145852
 10
162.171424016
 20
275.760589715
 10
134.543792945
 20
266.233361517
 10
106.916374566
 20
256.705512422
 10
79.2891529233
 20
247.177089012
 10
51.6621134783
 20
237.648133725
 10
24.0352429767
 20
228.118685254
 10
-3.59147067781
 20
218.58877891
  0
LWPOLYLINE
  5
171
330
1F
100
AcDbEntity
  8
main_beam_width
100
AcDbPolyline
 90
10
 70
0
43
0.0
 10
243.488754414
 20
308.15880853
 10
215.977521596
 20
298.795074763
 10
188.466021197
 20
289.432122123
 10
160.95427404
 20
280.069889826
 10
133.442299076
 20
270.708322549
 10
105.930113558
 20
261.347369927
 10
78.4177332015
 20
251.986986083
 10
50.9051723306
 20
242.627129201
 10
23.3924440129
 20
233.267761134
 10
-4.12043982037
 20
223.908847052
  0
LWPOLYLINE
  5
172
330
1F
100
AcDbEntity
  8
main_beam_width
100
AcDbPolyline
 90
24
 70
0
43
0.0
 10
-4.12039140214
 20
223.908363838
 10
17.734190967
 20
221.092539624
 10
39.588804131
 20
218.276947665
 10
61.4434454457
 20
215.461568022
 10
83.2981125557
 20
212.646382928
 10
105.152803356
 20
209.831376511
 10
127.007515962
 20
207.016534549
 10
148.862248679
 20
204.201844266
 10
170.716999981
 20
201.387294154
 10
192.571768492
 20
198.572873827
 10
214.426552963
 20
195.758573883
 10
236.281352266
 20
192.944385796
 10
258.136165373
 20
190.130301817
 10
279.990991347
 20
187.316314886
 10
301.845829335
 20
184.502418563
 10
323.700678555
 20
181.688606957
 10
345.555538293
 20
178.874874671
 10
367.410407891
 20
176.061216755
 10
389.265286746
 20
173.247628657
 10
411.120174303
 20
170.434106185
 10
432.975070049
 20
167.620645474
 10
454.82997351
 20
164.807242954
 10
476.684884248
 20
161.993895322
 10
498.539801859
 20
159.18059952
  0
LWPOLYLINE
  5
173
330
1F
100
AcDbEntity
  8
main_beam_width
100
AcDbPolyline
 90
24
 70
0
43
0.0
 10
-3.59142410144
 20
218.58830681
 10
18.2586917762
 20
215.609257875
 10
40.1087769689
 20
212.629977512
 10
61.9588341092
 20
209.650485578
 10
83.8088655428
 20
206.670799761
 10
105.658873366
 20
203.690935869
 10
127.508859455
 20
200.710908067
 10
149.3588255
 20
197.73072908
 10
171.208773018
 20
194.750410368
 10
193.058703382
 20
191.769962279
 10
214.908617834
 20
188.789394179
 10
236.7585175
 20
185.808714563
 10
258.608403403
 20
182.82793115
 10
280.458276477
 20
179.847050974
 10
302.308137572
 20
176.866080454
 10
324.157987467
 20
173.88502546
 10
346.007826874
 20
170.903891368
 10
367.857656448
 20
167.922683113
 10
389.70747679
 20
164.941405233
 10
411.557288454
 20
161.960061903
 10
433.407091952
 20
158.978656977
 10
455.256887754
 20
155.997194013
 10
477.106676297
 20
153.015676304
 10
498.956457986
 20
150.034106899
  0
LWPOLYLINE
  5
174
330
1F
100
AcDbEntity
  8
main_beam_width
100
AcDbPolyline
 90
25
 70
0
43
0.0
 10
498.956327457
 20
150.037234638
 10
478.368677047
 20
145.45420211
 10
457.781037203
 20
140.871122959
 10
437.193408526
 20
136.287994537
 10
416.605791661
 20
131.704813992
 10
396.018187306
 20
127.121578249
 10
375.430596212
 20
122.538283991
 10
354.843019193
 20
117.954927631
 10
334.255457128
 20
113.371505285
 10
313.667910971
 20
108.788012744
 10
293.08038176
 20
104.204445436
 10
272.49287062
 20
99.6207983889
 10
251.905378779
 20
95.0370661847
 10
231.317907577
 20
90.4532429109
 10
210.73045848
 20
85.8693221021
 10
190.143033093
 20
81.2852966756
 10
169.555633178
 20
76.7011588566
 10
148.968260673
 20
72.1169000938
 10
128.380917713
 20
67.5325109609
 10
107.79360666
 20
62.9479810447
 10
87.2063301259
 20
58.3632988147
 10
66.6190910116
 20
53.7784514728
 10
46.0318925446
 20
49.1934247782
 10
25.4447383254
 20
44.6082028431
 10
4.85763238195
 20
40.0227678944
  0
LWPOLYLINE
  5
175
330
1F
100
AcDbEntity
  8
main_beam_width
100
AcDbPolyline
 90
25
 70
0
43
0.0
 10
498.539647494
 20
159.183725671
 10
477.922114274
 20
154.42805218
 10
457.304570463
 20
149.672425421
 10
436.687015459
 20
144.916848054
 10
416.06944861
 20
140.161322945
 10
395.451869219
 20
135.405853181
 10
374.834276529
 20
130.650442098
 10
354.216669724
 20
125.895093298
 10
333.599047918
 20
121.139810686
 10
312.981410152
 20
116.384598493
 10
292.363755386
 20
111.629461317
 10
271.746082486
 20
106.874404156
 10
251.128390216
 20
102.119432462
 10
230.510677228
 20
97.3645521817
 10
209.892942049
 20
92.6097698218
 10
189.275183062
 20
87.855092511
 10
168.657398494
 20
83.1005280762
 10
148.039586392
 20
78.3460851287
 10
127.421744606
 20
73.5917731628
 10
106.803870758
 20
68.83760267
 10
86.1859622138
 20
64.0835852705
 10
65.5680160496
 20
59.3297338659
 10
44.950029011
 20
54.5760628167
 10
24.3319974659
 20
49.8225881493
 10
3.71391734988
 20
45.0693277978
  0
LWPOLYLINE
  5
176
330
1F
100
AcDbEntity
  8
main_beam_width
100
AcDbPolyline
 90
10
 70
0
43
0.0
 10
-53.7624832724
 20
209.876692009
 10
-59.4715793604
 20
210.957692125
 10
-65.1806836997
 20
212.0386483
 10
-70.8897964046
 20
213.119559925
 10
-76.5989175908
 20
214.200426384
 10
-82.3080473754
 20
215.281247052
 10
-88.0171858774
 20
216.362021296
 10
-93.726333217
 20
217.442748477
 10
-99.4354895161
 20
218.523427945
 10
-105.144654898
 20
219.604059043
  0
LWPOLYLINE
  5
177
330
1F
100
AcDbEntity
  8
main_beam_width
100
AcDbPolyline
 90
10
 70
0
43
0.0
 10
-54.1282526281
 20
213.857331172
 10
-59.7210793833
 20
214.898789706
 10
-65.3138982107
 20
215.940290459
 10
-70.9067090027
 20
216.981834004
 10
-76.4995116506
 20
218.023420919
 10
-82.0923060442
 20
219.065051792
 10
-87.6850920718
 20
220.106727217
 10
-93.2778696205
 20
221.148447796
 10
-98.8706385758
 20
222.190214138
 10
-104.463398822
 20
223.232026861
  0
LWPOLYLINE
  5
178
330
1F
100
AcDbEntity
  8
main_beam_width
100
AcDbPolyline
 90
10
 70
0
43
0.0
 10
-51.9381454068
 20
190.022566337
 10
-57.6501295049
 20
191.152666475
 10
-63.3621216378
 20
192.282726032
 10
-69.0741217949
 20
193.412745061
 10
-74.7861299653
 20
194.542723618
 10
-80.4981461376
 20
195.672661759
 10
-86.2101702999
 20
196.802559545
 10
-91.9222024398
 20
197.932417038
 10
-97.6342425445
 20
199.062234304
 10
-103.346290601
 20
200.19201141
  0
LWPOLYLINE
  5
179
330
1F
100
AcDbEntity
  8
main_beam_width
100
AcDbPolyline
 90
10
 70
0
43
0.0
 10
-52.3134012358
 20
194.106446044
 10
-57.8984965245
 20
195.213069843
 10
-63.4835841323
 20
196.319732435
 10
-69.0686640692
 20
197.426433771
 10
-74.6537363454
 20
198.533173798
 10
-80.2388009717
 20
199.639952464
 10
-85.8238579592
 20
200.74676971
 10
-91.4089073195
 20
201.853625479
 10
-96.9939490647
 20
202.960519709
 10
-102.578983207
 20
204.067452338
  0
LWPOLYLINE
  5
17a
330
1F
100
AcDbEntity
  8
main_beam_width
100
AcDbPolyline
 90
41
 70
0
43
0.0
 10
499.980550139
 20
106.832224308
 10
487.469081306
 20
108.799584828
 10
474.957597034
 20
110.766850163
 10
462.446098409
 20
112.734026998
 10
449.934586416
 20
114.701121417
 10
437.423061956
 20
116.668138965
 10
424.911525849
 20
118.635084705
 10
412.399978847
 20
120.601963274
 10
399.888421639
 20
122.568778919
 10
387.376854859
 20
124.535535542
 10
374.865279087
 20
126.502236733
 10
362.353694862
 20
128.468885797
 10
349.842102676
 20
130.435485786
 10
337.330502989
 20
132.40203952
 10
324.818896222
 20
134.368549609
 10
312.307282769
 20
136.335018471
 10
299.795662993
 20
138.301448352
 10
287.284037233
 20
140.267841336
 10
274.772405804
 20
142.234199366
 10
262.260768998
 20
144.200524248
 10
249.74912709
 20
146.16681767
 10
237.237480334
 20
148.133081206
 10
224.72582897
 20
150.099316328
 10
212.214173221
 20
152.065524414
 10
199.702513296
 20
154.031706753
 10
187.190849391
 20
155.997864557
 10
174.679181691
 20
157.96399896
 10
162.167510369
 20
159.930111031
 10
149.655835587
 20
161.896201772
 10
137.1441575
 20
163.862272129
 10
124.63247625
 20
165.828322992
 10
112.120791975
 20
167.794355199
 10
99.6091048018
 20
169.760369542
 10
87.0974148531
 20
171.726366771
 10
74.5857222431
 20
173.692347591
 10
62.0740270802
 20
175.658312671
 10
49.5623294671
 20
177.624262644
 10
37.0506295011
 20
179.590198111
 10
24.5389272744
 20
181.556119639
 10
12.0272228744
 20
183.522027768
 10
-0.484483615776
 20
185.487923009
  0
LWPOLYLINE
  5
17b
330
1F
100
AcDbEntity
  8
main_beam_width
100
AcDbPolyline
 90
41
 70
0
43
0.0
 10
499.942310195
 20
111.766571487
 10
487.408583288
 20
113.861568182
 10
474.874871845
 20
115.956660218
 10
462.341174778
 20
118.051840887
 10
449.807491096
 20
120.147104087
 10
437.273819898
 20
122.242444255
 10
424.740160361
 20
124.337856313
 10
412.206511729
 20
126.433335614
 10
399.672873313
 20
128.528877899
 10
387.139244478
 20
130.624479256
 10
374.605624641
 20
132.720136088
 10
362.072013264
 20
134.815845081
 10
349.538409851
 20
136.911603178
 10
337.004813944
 20
139.007407554
 10
324.471225119
 20
141.103255594
 10
311.937642983
 20
143.199144875
 10
299.404067172
 20
145.295073149
 10
286.870497346
 20
147.391038326
 10
274.33693319
 20
149.487038464
 10
261.803374411
 20
151.583071751
 10
249.269820735
 20
153.679136499
 10
236.736271906
 20
155.775231132
 10
224.202727684
 20
157.871354176
 10
211.669187848
 20
159.967504253
 10
199.135652186
 20
162.063680069
 10
186.602120502
 20
164.159880416
 10
174.068592613
 20
166.256104154
 10
161.535068345
 20
168.352350218
 10
149.001547534
 20
170.448617602
 10
136.468030029
 20
172.544905361
 10
123.934515683
 20
174.641212605
 10
111.401004362
 20
176.737538493
 10
98.8674959362
 20
178.833882235
 10
86.3339902847
 20
180.930243081
 10
73.8004872928
 20
183.026620325
 10
61.2669868519
 20
185.123013297
 10
48.7334888594
 20
187.219421365
 10
36.1999932179
 20
189.315843928
 10
23.6664998354
 20
191.412280418
 10
11.1330086242
 20
193.508730296
 10
-1.40048049865
 20
195.60519305
  0
LWPOLYLINE
  5
17c
330
1F
100
AcDbEntity
  8
main_beam_width
100
AcDbPolyline
 90
55
 70
0
43
0.0
 10
-1.40064965689
 20
195.607031696
 10
3.28881826679
 20
197.314660759
 10
7.97828555905
 20
199.022291599
 10
12.6677522346
 20
200.729924175
 10
17.3572183076
 20
202.437558447
 10
22.0466837919
 20
204.145194376
 10
26.736148701
 20
205.852831925
 10
31.4256130477
 20
207.560471056
 10
36.1150768448
 20
209.268111734
 10
40.8045401043
 20
210.975753925
 10
45.4940028383
 20
212.683397595
 10
50.1834650582
 20
214.391042713
 10
54.8729267751
 20
216.098689246
 10
59.562388
 20
217.806337164
 10
64.2518487435
 20
219.513986437
 10
68.9413090157
 20
221.221637036
 10
73.6307688267
 20
222.929288934
 10
78.3202281861
 20
224.636942103
 10
83.0096871033
 20
226.344596516
 10
87.6991455875
 20
228.052252148
 10
92.3886036477
 20
229.759908974
 10
97.0780612925
 20
231.467566969
 10
101.76751853
 20
233.175226109
 10
106.456975369
 20
234.882886372
 10
111.146431817
 20
236.590547735
 10
115.835887883
 20
238.298210176
 10
120.525343572
 20
240.005873673
 10
125.214798894
 20
241.713538207
 10
129.904253855
 20
243.421203757
 10
134.593708461
 20
245.128870302
 10
139.283162721
 20
246.836537825
 10
143.972616641
 20
248.544206306
 10
148.662070226
 20
250.251875726
 10
153.351523484
 20
251.959546069
 10
158.04097642
 20
253.667217317
 10
162.73042904
 20
255.374889454
 10
167.419881351
 20
257.082562461
 10
172.109333359
 20
258.790236324
 10
176.798785067
 20
260.497911027
 10
181.488236483
 20
262.205586555
 10
186.177687611
 20
263.913262892
 10
190.867138457
 20
265.620940024
 10
195.556589025
 20
267.328617937
 10
200.246039321
 20
269.036296617
 10
204.935489349
 20
270.743976051
 10
209.624939114
 20
272.451656224
 10
214.314388621
 20
274.159337125
 10
219.003837873
 20
275.86701874
 10
223.693286877
 20
277.574701058
 10
228.382735635
 20
279.282384066
 10
233.072184152
 20
280.990067752
 10
237.761632432
 20
282.697752105
 10
242.45108048
 20
284.405437113
 10
247.140528298
 20
286.113122767
 10
251.829975891
 20
287.820809054
  0
LWPOLYLINE
  5
17d
330
1F
100
AcDbEntity
  8
main_beam_width
100
AcDbPolyline
 90
55
 70
0
43
0.0
 10
-0.484655249905
 20
185.489849853
 10
4.28700182398
 20
187.14308565
 10
9.05865955199
 20
188.796319606
 10
13.8303179187
 20
190.449551765
 10
18.601976909
 20
192.102782168
 10
23.3736365085
 20
193.756010857
 10
28.1452967031
 20
195.40923787
 10
32.9169574792
 20
197.062463247
 10
37.6886188235
 20
198.715687024
 10
42.4602807232
 20
200.368909239
 10
47.2319431659
 20
202.022129925
 10
52.0036061395
 20
203.675349116
 10
56.7752696322
 20
205.328566846
 10
61.5469336328
 20
206.981783148
 10
66.3185981301
 20
208.63499805
 10
71.0902631134
 20
210.288211585
 10
75.8619285722
 20
211.941423782
 10
80.6335944966
 20
213.594634668
 10
85.4052608765
 20
215.247844272
 10
90.1769277025
 20
216.90105262
 10
94.9485949652
 20
218.554259739
 10
99.7202626557
 20
220.207465654
 10
104.491930765
 20
221.860670391
 10
109.263599285
 20
223.513873972
 10
114.035268206
 20
225.167076421
 10
118.806937522
 20
226.820277762
 10
123.578607224
 20
228.473478017
 10
128.350277303
 20
230.126677206
 10
133.121947754
 20
231.779875352
 10
137.893618569
 20
233.433072474
 10
142.66528974
 20
235.086268593
 10
147.43696126
 20
236.739463728
 10
152.208633123
 20
238.392657898
 10
156.980305323
 20
240.045851122
 10
161.751977852
 20
241.699043416
 10
166.523650706
 20
243.3522348
 10
171.295323876
 20
245.00542529
 10
176.066997359
 20
246.658614903
 10
180.838671147
 20
248.311803655
 10
185.610345235
 20
249.964991561
 10
190.382019619
 20
251.618178639
 10
195.153694291
 20
253.271364901
 10
199.925369248
 20
254.924550364
 10
204.697044484
 20
256.577735042
 10
209.468719994
 20
258.230918948
 10
214.240395773
 20
259.884102096
 10
219.012071816
 20
261.537284501
 10
223.783748119
 20
263.190466174
 10
228.555424678
 20
264.843647129
 10
233.327101487
 20
266.496827378
 10
238.098778542
 20
268.150006933
 10
242.87045584
 20
269.803185806
 10
247.642133376
 20
271.45636401
 10
252.413811146
 20
273.109541554
 10
257.185489146
 20
274.762718451
  0
LWPOLYLINE
  5
17e
330
1F
100
AcDbEntity
  8
main_beam_width
100
AcDbPolyline
 90
10
 70
0
43
0.0
 10
251.829447406
 20
287.822097634
 10
256.954033882
 20
289.760607315
 10
262.078620228
 20
291.699117346
 10
267.203206445
 20
293.637627723
 10
272.327792535
 20
295.576138442
 10
277.4523785
 20
297.514649498
 10
282.576964341
 20
299.453160887
 10
287.701550059
 20
301.391672605
 10
292.826135656
 20
303.330184647
 10
297.950721134
 20
305.268697011
  0
LWPOLYLINE
  5
17f
330
1F
100
AcDbEntity
  8
main_beam_width
100
AcDbPolyline
 90
10
 70
0
43
0.0
 10
257.184960073
 20
274.764008464
 10
262.306129025
 20
276.638073546
 10
267.427298106
 20
278.512138282
 10
272.548467314
 20
280.386202675
 10
277.669636648
 20
282.260266731
 10
282.790806106
 20
284.134330452
 10
287.911975686
 20
286.008393844
 10
293.033145388
 20
287.88245691
 10
298.15431521
 20
289.756519655
 10
303.27548515
 20
291.630582082
  0
LWPOLYLINE
  5
180
330
1F
100
AcDbEntity
  8
main_beam_width
100
AcDbPolyline
 90
21
 70
0
43
0.0
 10
303.275532733
 20
291.630460956
 10
301.014784977
 20
290.680389525
 10
298.754037247
 20
289.730318031
 10
296.493289541
 20
288.780246476
 10
294.232541861
 20
287.830174859
 10
291.971794205
 20
286.880103183
 10
289.711046574
 20
285.930031447
 10
287.450298967
 20
284.979959651
 10
285.189551384
 20
284.029887797
 10
282.928803824
 20
283.079815885
 10
280.668056288
 20
282.129743915
 10
278.407308776
 20
281.179671888
 10
276.146561287
 20
280.229599805
 10
273.88581382
 20
279.279527665
 10
271.625066376
 20
278.329455471
 10
269.364318955
 20
277.379383221
 10
267.103571556
 20
276.429310917
 10
264.842824179
 20
275.479238559
 10
262.582076824
 20
274.529166147
 10
260.32132949
 20
273.579093683
 10
258.060582178
 20
272.629021166
  0
LWPOLYLINE
  5
181
330
1F
100
AcDbEntity
  8
main_beam_width
100
AcDbPolyline
 90
21
 70
0
43
0.0
 10
297.950851355
 20
305.268361411
 10
295.660691723
 20
304.357254253
 10
293.370532066
 20
303.446147158
 10
291.080372383
 20
302.535040125
 10
288.790212675
 20
301.623933153
 10
286.500052942
 20
300.712826243
 10
284.209893184
 20
299.801719393
 10
281.919733402
 20
298.890612603
 10
279.629573595
 20
297.979505872
 10
277.339413765
 20
297.0683992
 10
275.04925391
 20
296.157292585
 10
272.759094032
 20
295.246186029
 10
270.468934131
 20
294.33507953
 10
268.178774207
 20
293.423973087
 10
265.88861426
 20
292.5128667
 10
263.59845429
 20
291.601760369
 10
261.308294297
 20
290.690654093
 10
259.018134282
 20
289.779547871
 10
256.727974246
 20
288.868441703
 10
254.437814187
 20
287.957335589
 10
252.147654106
 20
287.046229528
  0
LWPOLYLINE
  5
182
330
1F
100
AcDbEntity
  8
main_beam_width
100
AcDbPolyline
 90
100
 70
0
43
0.0
 10
258.060551824
 20
272.629095176
 10
255.467985213
 20
271.527712608
 10
252.87541866
 20
270.426329897
 10
250.282852164
 20
269.324947047
 10
247.690285725
 20
268.223564058
 10
245.097719341
 20
267.122180934
 10
242.505153012
 20
266.020797676
 10
239.912586736
 20
264.919414285
 10
237.320020514
 20
263.818030765
 10
234.727454344
 20
262.716647117
 10
232.134888226
 20
261.615263342
 10
229.542322159
 20
260.513879443
 10
226.949756141
 20
259.412495421
 10
224.357190173
 20
258.311111278
 10
221.764624254
 20
257.209727016
 10
219.172058383
 20
256.108342636
 10
216.57949256
 20
255.00695814
 10
213.986926783
 20
253.90557353
 10
211.394361052
 20
252.804188807
 10
208.801795366
 20
251.702803972
 10
206.209229725
 20
250.601419028
 10
203.616664129
 20
249.500033976
 10
201.024098576
 20
248.398648817
 10
198.431533066
 20
247.297263553
 10
195.838967599
 20
246.195878185
 10
193.246402173
 20
245.094492714
 10
190.653836789
 20
243.993107143
 10
188.061271446
 20
242.891721471
 10
185.468706142
 20
241.790335701
 10
182.876140879
 20
240.688949834
 10
180.283575654
 20
239.587563871
 10
177.691010468
 20
238.486177814
 10
175.098445321
 20
237.384791663
 10
172.505880211
 20
236.28340542
 10
169.913315138
 20
235.182019086
 10
167.320750102
 20
234.080632662
 10
164.728185102
 20
232.979246149
 10
162.135620138
 20
231.877859549
 10
159.543055209
 20
230.776472862
 10
156.950490315
 20
229.675086091
 10
154.357925456
 20
228.573699234
 10
151.76536063
 20
227.472312295
 10
149.172795838
 20
226.370925273
 10
146.580231079
 20
225.26953817
 10
143.987666353
 20
224.168150987
 10
141.395101659
 20
223.066763725
 10
138.802536998
 20
221.965376385
 10
136.209972367
 20
220.863988967
 10
133.617407768
 20
219.762601474
 10
131.0248432
 20
218.661213904
 10
128.432278662
 20
217.55982626
 10
125.839714155
 20
216.458438543
 10
123.247149677
 20
215.357050753
 10
120.654585228
 20
214.255662891
 10
118.062020808
 20
213.154274958
 10
115.469456417
 20
212.052886955
 10
112.876892054
 20
210.951498883
 10
110.284327719
 20
209.850110742
 10
107.691763412
 20
208.748722534
 10
105.099199132
 20
207.647334258
 10
102.50663488
 20
206.545945917
 10
99.9140706536
 20
205.44455751
 10
97.3215064539
 20
204.343169038
 10
94.7289422803
 20
203.241780503
 10
92.1363781325
 20
202.140391904
 10
89.5438140102
 20
201.039003243
 10
86.9512499132
 20
199.93761452
 10
84.358685841
 20
198.836225737
 10
81.7661217935
 20
197.734836892
 10
79.1735577704
 20
196.633447989
 10
76.5809937714
 20
195.532059026
 10
73.9884297962
 20
194.430670005
 10
71.3958658446
 20
193.329280926
 10
68.8033019162
 20
192.22789179
 10
66.210738011
 20
191.126502598
 10
63.6181741285
 20
190.02511335
 10
61.0256102686
 20
188.923724046
 10
58.433046431
 20
187.822334688
 10
55.8404826154
 20
186.720945276
 10
53.2479188217
 20
185.619555811
 10
50.6553550496
 20
184.518166293
 10
48.0627912988
 20
183.416776722
 10
45.4702275691
 20
182.3153871
 10
42.8776638604
 20
181.213997427
 10
40.2851001723
 20
180.112607703
 10
37.6925365047
 20
179.011217929
 10
35.0999728574
 20
177.909828105
 10
32.5074092301
 20
176.808438232
 10
29.9148456226
 20
175.707048311
 10
27.3222820347
 20
174.605658341
 10
24.7297184662
 20
173.504268325
 10
22.137154917
 20
172.402878261
 10
19.5445913868
 20
171.30148815
 10
16.9520278754
 20
170.200097994
 10
14.3594643826
 20
169.098707792
 10
11.7669009082
 20
167.997317544
 10
9.17433745215
 20
166.895927253
 10
6.58177401412
 20
165.794536916
 10
3.98921059397
 20
164.693146536
 10
1.39664719153
 20
163.591756113
  0
LWPOLYLINE
  5
183
330
1F
100
AcDbEntity
  8
main_beam_width
100
AcDbPolyline
 90
100
 70
0
43
0.0
 10
252.147623751
 20
287.046303542
 10
249.593655244
 20
286.044287807
 10
247.039686683
 20
285.042272207
 10
244.485718067
 20
284.04025674
 10
241.931749397
 20
283.038241405
 10
239.377780675
 20
282.036226198
 10
236.823811901
 20
281.034211118
 10
234.269843075
 20
280.032196164
 10
231.715874199
 20
279.030181334
 10
229.161905274
 20
278.028166626
 10
226.607936299
 20
277.026152037
 10
224.053967275
 20
276.024137568
 10
221.499998204
 20
275.022123215
 10
218.946029086
 20
274.020108978
 10
216.392059921
 20
273.018094854
 10
213.838090711
 20
272.016080842
 10
211.284121455
 20
271.014066941
 10
208.730152155
 20
270.012053149
 10
206.176182811
 20
269.010039465
 10
203.622213424
 20
268.008025887
 10
201.068243993
 20
267.006012414
 10
198.514274521
 20
266.003999044
 10
195.960305006
 20
265.001985776
 10
193.406335451
 20
263.999972609
 10
190.852365855
 20
262.997959541
 10
188.298396219
 20
261.995946571
 10
185.744426544
 20
260.993933698
 10
183.190456829
 20
259.99192092
 10
180.636487076
 20
258.989908237
 10
178.082517285
 20
257.987895646
 10
175.528547457
 20
256.985883148
 10
172.974577591
 20
255.98387074
 10
170.420607689
 20
254.981858422
 10
167.866637751
 20
253.979846192
 10
165.312667777
 20
252.977834049
 10
162.758697768
 20
251.975821993
 10
160.204727724
 20
250.973810021
 10
157.650757646
 20
249.971798134
 10
155.096787534
 20
248.96978633
 10
152.542817388
 20
247.967774607
 10
149.98884721
 20
246.965762966
 10
147.434876998
 20
245.963751405
 10
144.880906755
 20
244.961739922
 10
142.326936479
 20
243.959728518
 10
139.772966172
 20
242.957717191
 10
137.218995834
 20
241.95570594
 10
134.665025465
 20
240.953694764
 10
132.111055066
 20
239.951683662
 10
129.557084637
 20
238.949672634
 10
127.003114178
 20
237.947661679
 10
124.44914369
 20
236.945650795
 10
121.895173173
 20
235.943639983
 10
119.341202627
 20
234.94162924
 10
116.787232053
 20
233.939618567
 10
114.233261451
 20
232.937607962
 10
111.679290821
 20
231.935597425
 10
109.125320164
 20
230.933586954
 10
106.57134948
 20
229.93157655
 10
104.01737877
 20
228.929566211
 10
101.463408033
 20
227.927555937
 10
98.9094372694
 20
226.925545726
 10
96.3554664805
 20
225.923535579
 10
93.8014956661
 20
224.921525494
 10
91.2475248264
 20
223.919515471
 10
88.6935539618
 20
222.917505509
 10
86.1395830726
 20
221.915495607
 10
83.5856121589
 20
220.913485765
 10
81.0316412212
 20
219.911475982
 10
78.4776702596
 20
218.909466257
 10
75.9236992744
 20
217.90745659
 10
73.3697282659
 20
216.90544698
 10
70.8157572343
 20
215.903437427
 10
68.2617861799
 20
214.901427929
 10
65.707815103
 20
213.899418487
 10
63.1538440037
 20
212.8974091
 10
60.5998728823
 20
211.895399766
 10
58.045901739
 20
210.893390486
 10
55.4919305742
 20
209.891381259
 10
52.9379593879
 20
208.889372085
 10
50.3839881805
 20
207.887362962
 10
47.8300169521
 20
206.88535389
 10
45.276045703
 20
205.883344869
 10
42.7220744335
 20
204.881335899
 10
40.1681031436
 20
203.879326977
 10
37.6141318337
 20
202.877318106
 10
35.0601605038
 20
201.875309282
 10
32.5061891544
 20
200.873300507
 10
29.9522177854
 20
199.87129178
 10
27.3982463972
 20
198.869283099
 10
24.84427499
 20
197.867274466
 10
22.2903035638
 20
196.865265878
 10
19.736332119
 20
195.863257337
 10
17.1823606558
 20
194.86124884
 10
14.6283891742
 20
193.859240388
 10
12.0744176745
 20
192.857231981
 10
9.52044615682
 20
191.855223618
 10
6.96647462142
 20
190.853215298
 10
4.41250306845
 20
189.851207021
 10
1.85853149807
 20
188.849198787
 10
-0.69544008954
 20
187.847190594
  0
LWPOLYLINE
  5
184
330
1F
100
AcDbEntity
  8
main_beam_width
100
AcDbPolyline
 90
100
 70
0
43
0.0
 10
-0.694203835706
 20
187.833416975
 10
4.3628077266
 20
186.835586345
 10
9.41981932227
 20
185.837755867
 10
14.4768309504
 20
184.839925538
 10
19.5338426101
 20
183.842095352
 10
24.5908543006
 20
182.844265307
 10
29.6478660209
 20
181.846435398
 10
34.7048777705
 20
180.848605623
 10
39.7618895484
 20
179.850775977
 10
44.8189013539
 20
178.852946457
 10
49.8759131864
 20
177.85511706
 10
54.9329250452
 20
176.857287783
 10
59.9899369295
 20
175.859458623
 10
65.0469488388
 20
174.861629576
 10
70.1039607725
 20
173.863800641
 10
75.1609727299
 20
172.865971814
 10
80.2179847105
 20
171.868143093
 10
85.2749967136
 20
170.870314475
 10
90.3320087389
 20
169.872485958
 10
95.3890207857
 20
168.874657539
 10
100.446032854
 20
167.876829217
 10
105.503044942
 20
166.879000988
 10
110.56005705
 20
165.88117285
 10
115.617069178
 20
164.883344802
 10
120.674081326
 20
163.885516842
 10
125.731093492
 20
162.887688967
 10
130.788105676
 20
161.889861175
 10
135.845117878
 20
160.892033465
 10
140.902130098
 20
159.894205835
 10
145.959142334
 20
158.896378283
 10
151.016154588
 20
157.898550808
 10
156.073166858
 20
156.900723407
 10
161.130179143
 20
155.90289608
 10
166.187191445
 20
154.905068824
 10
171.244203762
 20
153.907241638
 10
176.301216094
 20
152.90941452
 10
181.358228441
 20
151.91158747
 10
186.415240802
 20
150.913760485
 10
191.472253177
 20
149.915933565
 10
196.529265566
 20
148.918106708
 10
201.586277968
 20
147.920279913
 10
206.643290384
 20
146.922453178
 10
211.700302813
 20
145.924626503
 10
216.757315254
 20
144.926799885
 10
221.814327708
 20
143.928973325
 10
226.871340174
 20
142.93114682
 10
231.928352653
 20
141.933320371
 10
236.985365143
 20
140.935493975
 10
242.042377644
 20
139.937667631
 10
247.099390157
 20
138.939841339
 10
252.156402681
 20
137.942015098
 10
257.213415216
 20
136.944188907
 10
262.270427761
 20
135.946362764
 10
267.327440317
 20
134.94853667
 10
272.384452883
 20
133.950710622
 10
277.44146546
 20
132.95288462
 10
282.498478046
 20
131.955058664
 10
287.555490642
 20
130.957232752
 10
292.612503248
 20
129.959406883
 10
297.669515863
 20
128.961581058
 10
302.726528487
 20
127.963755274
 10
307.78354112
 20
126.965929532
 10
312.840553762
 20
125.96810383
 10
317.897566413
 20
124.970278168
 10
322.954579072
 20
123.972452546
 10
328.01159174
 20
122.974626962
 10
333.068604417
 20
121.976801415
 10
338.125617101
 20
120.978975906
 10
343.182629793
 20
119.981150434
 10
348.239642493
 20
118.983324997
 10
353.296655201
 20
117.985499596
 10
358.353667917
 20
116.987674229
 10
363.41068064
 20
115.989848897
 10
368.46769337
 20
114.992023598
 10
373.524706108
 20
113.994198332
 10
378.581718852
 20
112.996373098
 10
383.638731604
 20
111.998547896
 10
388.695744363
 20
111.000722726
 10
393.752757128
 20
110.002897587
 10
398.8097699
 20
109.005072478
 10
403.866782678
 20
108.007247399
 10
408.923795463
 20
107.00942235
 10
413.980808255
 20
106.011597329
 10
419.037821052
 20
105.013772337
 10
424.094833856
 20
104.015947373
 10
429.151846666
 20
103.018122437
 10
434.208859482
 20
102.020297528
 10
439.265872303
 20
101.022472646
 10
444.322885131
 20
100.02464779
 10
449.379897964
 20
99.0268229598
 10
454.436910803
 20
98.0289981554
 10
459.493923647
 20
97.0311733762
 10
464.550936496
 20
96.0333486218
 10
469.607949351
 20
95.0355238918
 10
474.664962212
 20
94.037699186
 10
479.721975077
 20
93.0398745038
 10
484.778987948
 20
92.042049845
 10
489.836000824
 20
91.0442252092
 10
494.893013704
 20
90.0464005961
 10
499.95002659
 20
89.0485760054
  0
LWPOLYLINE
  5
185
330
1F
100
AcDbEntity
  8
main_beam_width
100
AcDbPolyline
 90
100
 70
0
43
0.0
 10
1.39767787122
 20
163.57930043
 10
6.42071569688
 20
162.36835301
 10
11.4437534903
 20
161.157405442
 10
16.4667912523
 20
159.946457732
 10
21.4898289838
 20
158.735509882
 10
26.5128666855
 20
157.524561897
 10
31.5359043583
 20
156.313613779
 10
36.5589420028
 20
155.102665532
 10
41.5819796199
 20
153.89171716
 10
46.6050172102
 20
152.680768666
 10
51.6280547744
 20
151.469820053
 10
56.6510923132
 20
150.258871324
 10
61.6741298271
 20
149.047922481
 10
66.6971673169
 20
147.836973528
 10
71.720204783
 20
146.626024467
 10
76.7432422261
 20
145.415075301
 10
81.7662796467
 20
144.204126032
 10
86.7893170454
 20
142.993176663
 10
91.8123544227
 20
141.782227197
 10
96.835391779
 20
140.571277635
 10
101.858429115
 20
139.36032798
 10
106.881466431
 20
138.149378234
 10
111.904503727
 20
136.938428398
 10
116.927541005
 20
135.727478476
 10
121.950578264
 20
134.516528469
 10
126.973615504
 20
133.305578379
 10
131.996652727
 20
132.094628207
 10
137.019689932
 20
130.883677956
 10
142.042727121
 20
129.672727628
 10
147.065764293
 20
128.461777223
 10
152.088801448
 20
127.250826744
 10
157.111838588
 20
126.039876193
 10
162.134875712
 20
124.82892557
 10
167.15791282
 20
123.617974878
 10
172.180949914
 20
122.407024117
 10
177.203986993
 20
121.19607329
 10
182.227024058
 20
119.985122397
 10
187.250061109
 20
118.77417144
 10
192.273098146
 20
117.563220421
 10
197.296135169
 20
116.35226934
 10
202.319172179
 20
115.141318198
 10
207.342209177
 20
113.930366998
 10
212.365246162
 20
112.71941574
 10
217.388283134
 20
111.508464425
 10
222.411320094
 20
110.297513055
 10
227.434357042
 20
109.08656163
 10
232.457393979
 20
107.875610152
 10
237.480430904
 20
106.664658622
 10
242.503467818
 20
105.45370704
 10
247.52650472
 20
104.242755408
 10
252.549541612
 20
103.031803726
 10
257.572578494
 20
101.820851995
 10
262.595615364
 20
100.609900218
 10
267.618652225
 20
99.3989483929
 10
272.641689076
 20
98.1879965224
 10
277.664725916
 20
96.9770446069
 10
282.687762747
 20
95.7660926472
 10
287.710799569
 20
94.555140644
 10
292.733836381
 20
93.3441885983
 10
297.756873184
 20
92.1332365107
 10
302.779909978
 20
90.922284382
 10
307.802946763
 20
89.7113322129
 10
312.82598354
 20
88.5003800042
 10
317.849020307
 20
87.2894277565
 10
322.872057067
 20
86.0784754704
 10
327.895093818
 20
84.8675231468
 10
332.918130561
 20
83.6565707861
 10
337.941167297
 20
82.4456183891
 10
342.964204024
 20
81.2346659564
 10
347.987240744
 20
80.0237134885
 10
353.010277456
 20
78.8127609861
 10
358.03331416
 20
77.6018084497
 10
363.056350858
 20
76.3908558799
 10
368.079387548
 20
75.1799032773
 10
373.102424231
 20
73.9689506423
 10
378.125460907
 20
72.7579979756
 10
383.148497576
 20
71.5470452776
 10
388.171534239
 20
70.3360925489
 10
393.194570895
 20
69.1251397899
 10
398.217607544
 20
67.9141870011
 10
403.240644187
 20
66.703234183
 10
408.263680824
 20
65.4922813361
 10
413.286717454
 20
64.2813284608
 10
418.309754078
 20
63.0703755575
 10
423.332790697
 20
61.8594226268
 10
428.355827309
 20
60.6484696689
 10
433.378863915
 20
59.4375166844
 10
438.401900516
 20
58.2265636737
 10
443.424937111
 20
57.0156106371
 10
448.447973701
 20
55.804657575
 10
453.471010285
 20
54.5937044879
 10
458.494046863
 20
53.3827513761
 10
463.517083437
 20
52.1717982399
 10
468.540120005
 20
50.9608450798
 10
473.563156567
 20
49.7498918961
 10
478.586193125
 20
48.5389386891
 10
483.609229678
 20
47.3279854592
 10
488.632266226
 20
46.1170322067
 10
493.655302768
 20
44.9060789319
 10
498.678339307
 20
43.6951256352
  0
LWPOLYLINE
  5
186
330
1F
100
AcDbEntity
  8
main_beam_width
100
AcDbPolyline
 90
100
 70
0
43
0.0
 10
498.68212076
 20
43.7756870157
 10
493.61662338
 20
43.0475243968
 10
488.551126003
 20
42.3193617558
 10
483.485628631
 20
41.5911990923
 10
478.420131261
 20
40.8630364062
 10
473.354633896
 20
40.134873697
 10
468.289136534
 20
39.4067109647
 10
463.223639176
 20
38.6785482088
 10
458.158141822
 20
37.9503854291
 10
453.092644472
 20
37.2222226254
 10
448.027147126
 20
36.4940597972
 10
442.961649783
 20
35.7658969444
 10
437.896152445
 20
35.0377340666
 10
432.830655111
 20
34.3095711635
 10
427.765157781
 20
33.5814082348
 10
422.699660455
 20
32.8532452802
 10
417.634163133
 20
32.1250822993
 10
412.568665816
 20
31.3969192919
 10
407.503168503
 20
30.6687562575
 10
402.437671194
 20
29.9405931959
 10
397.37217389
 20
29.2124301067
 10
392.30667659
 20
28.4842669896
 10
387.241179295
 20
27.7561038442
 10
382.175682004
 20
27.02794067
 10
377.110184718
 20
26.2997774669
 10
372.044687437
 20
25.5716142343
 10
366.979190161
 20
24.843450972
 10
361.913692889
 20
24.1152876794
 10
356.848195623
 20
23.3871243563
 10
351.782698361
 20
22.6589610022
 10
346.717201104
 20
21.9307976166
 10
341.651703853
 20
21.2026341993
 10
336.586206607
 20
20.4744707497
 10
331.520709366
 20
19.7463072675
 10
326.45521213
 20
19.0181437521
 10
321.3897149
 20
18.2899802032
 10
316.324217675
 20
17.5618166202
 10
311.258720456
 20
16.8336530028
 10
306.193223243
 20
16.1054893504
 10
301.127726035
 20
15.3773256625
 10
296.062228833
 20
14.6491619387
 10
290.996731637
 20
13.9209981785
 10
285.931234446
 20
13.1928343814
 10
280.865737262
 20
12.4646705467
 10
275.800240084
 20
11.7365066741
 10
270.734742912
 20
11.0083427629
 10
265.669245747
 20
10.2801788127
 10
260.603748588
 20
9.55201482283
 10
255.538251435
 20
8.82385079273
 10
250.472754289
 20
8.09568672184
 10
245.407257149
 20
7.36752260956
 10
240.341760017
 20
6.63935845529
 10
235.276262891
 20
5.91119425841
 10
230.210765772
 20
5.18303001829
 10
225.14526866
 20
4.45486573429
 10
220.079771556
 20
3.72670140575
 10
215.014274458
 20
2.99853703202
 10
209.948777368
 20
2.27037261241
 10
204.883280286
 20
1.54220814622
 10
199.817783211
 20
0.814043632748
 10
194.752286144
 20
0.0858790712731
 10
189.686789085
 20
-0.642285538943
 10
184.621292033
 20
-1.37045019865
 10
179.55579499
 20
-2.09861490863
 10
174.490297955
 20
-2.82677966965
 10
169.424800929
 20
-3.55494448251
 10
164.35930391
 20
-4.28310934804
 10
159.293806901
 20
-5.01127426706
 10
154.2283099
 20
-5.73943924044
 10
149.162812908
 20
-6.46760426903
 10
144.097315926
 20
-7.19576935374
 10
139.031818952
 20
-7.92393449546
 10
133.966321988
 20
-8.65209969513
 10
128.900825033
 20
-9.38026495368
 10
123.835328088
 20
-10.1084302721
 10
118.769831152
 20
-10.8365956514
 10
113.704334227
 20
-11.5647610925
 10
108.638837312
 20
-12.2929265966
 10
103.573340407
 20
-13.0210921645
 10
98.5078435121
 20
-13.7492577976
 10
93.4423466283
 20
-14.4774234968
 10
88.3768497553
 20
-15.2055892632
 10
83.3113528933
 20
-15.9337550981
 10
78.2458560425
 20
-16.6619210026
 10
73.1803592032
 20
-17.3900869779
 10
68.1148623754
 20
-18.1182530253
 10
63.0493655595
 20
-18.8464191461
 10
57.9838687556
 20
-19.5745853415
 10
52.9183719639
 20
-20.3027516128
 10
47.8528751847
 20
-21.0309179615
 10
42.7873784181
 20
-21.7590843889
 10
37.7218816645
 20
-22.4872508965
 10
32.656384924
 20
-23.2154174857
 10
27.5908881969
 20
-23.943584158
 10
22.5253914835
 20
-24.6717509149
 10
17.4598947839
 20
-25.3999177581
 10
12.3943980985
 20
-26.1280846891
 10
7.32890142748
 20
-26.8562517096
 10
2.26340477117
 20
-27.5844188213
 10
-2.80209187018
 20
-28.3125860259
  0
LWPOLYLINE
  5
187
330
1F
100
AcDbEntity
  8
main_beam_width
100
AcDbPolyline
 90
100
 70
0
43
0.0
 10
499.95077467
 20
89.1308524383
 10
494.828652103
 20
88.2165386595
 10
489.706529531
 20
87.3022249033
 10
484.584406957
 20
86.3879111697
 10
479.462284378
 20
85.4735974592
 10
474.340161796
 20
84.559283772
 10
469.21803921
 20
83.6449701083
 10
464.09591662
 20
82.7306564685
 10
458.973794026
 20
81.8163428529
 10
453.851671429
 20
80.9020292617
 10
448.729548827
 20
79.9877156952
 10
443.607426221
 20
79.0734021539
 10
438.485303612
 20
78.1590886378
 10
433.363180998
 20
77.2447751475
 10
428.24105838
 20
76.3304616831
 10
423.118935757
 20
75.4161482451
 10
417.996813131
 20
74.5018348338
 10
412.874690499
 20
73.5875214494
 10
407.752567864
 20
72.6732080924
 10
402.630445224
 20
71.7588947631
 10
397.50832258
 20
70.8445814619
 10
392.386199931
 20
69.930268189
 10
387.264077277
 20
69.0159549449
 10
382.141954619
 20
68.10164173
 10
377.019831956
 20
67.1873285446
 10
371.897709288
 20
66.2730153891
 10
366.775586615
 20
65.358702264
 10
361.653463938
 20
64.4443891695
 10
356.531341255
 20
63.5300761062
 10
351.409218567
 20
62.6157630744
 10
346.287095874
 20
61.7014500746
 10
341.164973176
 20
60.7871371071
 10
336.042850473
 20
59.8728241725
 10
330.920727764
 20
58.9585112712
 10
325.798605049
 20
58.0441984036
 10
320.67648233
 20
57.1298855702
 10
315.554359604
 20
56.2155727714
 10
310.432236873
 20
55.3012600078
 10
305.310114137
 20
54.3869472799
 10
300.187991394
 20
53.472634588
 10
295.065868646
 20
52.5583219328
 10
289.943745891
 20
51.6440093148
 10
284.821623131
 20
50.7296967344
 10
279.699500364
 20
49.8153841923
 10
274.577377591
 20
48.9010716889
 10
269.455254812
 20
47.9867592248
 10
264.333132026
 20
47.0724468006
 10
259.211009234
 20
46.1581344169
 10
254.088886435
 20
45.2438220742
 10
248.96676363
 20
44.3295097732
 10
243.844640817
 20
43.4151975145
 10
238.722517998
 20
42.5008852986
 10
233.600395172
 20
41.5865731263
 10
228.478272339
 20
40.6722609982
 10
223.356149498
 20
39.7579489149
 10
218.23402665
 20
38.8436368772
 10
213.111903795
 20
37.9293248856
 10
207.989780932
 20
37.015012941
 10
202.867658061
 20
36.100701044
 10
197.745535183
 20
35.1863891954
 10
192.623412297
 20
34.272077396
 10
187.501289402
 20
33.3577656464
 10
182.3791665
 20
32.4434539474
 10
177.257043589
 20
31.5291423
 10
172.13492067
 20
30.6148307048
 10
167.012797742
 20
29.7005191627
 10
161.890674806
 20
28.7862076746
 10
156.76855186
 20
27.8718962413
 10
151.646428906
 20
26.9575848637
 10
146.524305943
 20
26.0432735427
 10
141.40218297
 20
25.1289622792
 10
136.280059988
 20
24.2146510743
 10
131.157936996
 20
23.3003399287
 10
126.035813995
 20
22.3860288437
 10
120.913690984
 20
21.47171782
 10
115.791567962
 20
20.5574068588
 10
110.669444931
 20
19.6430959612
 10
105.547321889
 20
18.7287851282
 10
100.425198836
 20
17.8144743608
 10
95.303075773
 20
16.9001636603
 10
90.1809526987
 20
15.9858530278
 10
85.0588296133
 20
15.0715424645
 10
79.9367065166
 20
14.1572319715
 10
74.8145834083
 20
13.2429215502
 10
69.6924602883
 20
12.3286112017
 10
64.5703371563
 20
11.4143009274
 10
59.4482140122
 20
10.4999907286
 10
54.3260908557
 20
9.5856806067
 10
49.2039676866
 20
8.67137056303
 10
44.0818445046
 20
7.75706059902
 10
38.9597213096
 20
6.84275071616
 10
33.8375981013
 20
5.92844091592
 10
28.7154748794
 20
5.01413119984
 10
23.5933516437
 20
4.0998215695
 10
18.4712283939
 20
3.1855120265
 10
13.3491051298
 20
2.2712025725
 10
8.22698185111
 20
1.35689320918
 10
3.10485855752
 20
0.442583938279
 10
-2.01726475125
 20
-0.47172523842
 10
-7.13938807549
 20
-1.38603431909
  0
LWPOLYLINE
  5
188
330
1F
100
AcDbEntity
  8
main_beam_width
100
AcDbPolyline
 90
30
 70
0
43
0.0
 10
593.366987827
 20
124.027039149
 10
596.537932649
 20
124.629524577
 10
599.708876898
 20
125.232013199
 10
602.879820589
 20
125.834504919
 10
606.050763741
 20
126.436999643
 10
609.221706368
 20
127.039497282
 10
612.392648487
 20
127.64199775
 10
615.563590113
 20
128.244500965
 10
618.734531259
 20
128.847006847
 10
621.905471939
 20
129.44951532
 10
625.076412166
 20
130.05202631
 10
628.247351954
 20
130.654539748
 10
631.418291314
 20
131.257055564
 10
634.589230259
 20
131.859573693
 10
637.760168799
 20
132.462094072
 10
640.931106945
 20
133.064616641
 10
644.102044709
 20
133.667141339
 10
647.2729821
 20
134.269668111
 10
650.443919128
 20
134.872196903
 10
653.614855803
 20
135.47472766
 10
656.785792133
 20
136.077260332
 10
659.956728128
 20
136.679794871
 10
663.127663796
 20
137.282331228
 10
666.298599145
 20
137.884869357
 10
669.469534184
 20
138.487409214
 10
672.64046892
 20
139.089950757
 10
675.811403361
 20
139.692493943
 10
678.982337513
 20
140.295038733
 10
682.153271384
 20
140.897585087
 10
685.324204981
 20
141.500132968
  0
LWPOLYLINE
  5
189
330
1F
100
AcDbEntity
  8
main_beam_width
100
AcDbPolyline
 90
30
 70
0
43
0.0
 10
593.394132167
 20
117.806054114
 10
596.612910408
 20
118.351734661
 10
599.831689242
 20
118.897411907
 10
603.050468651
 20
119.443085954
 10
606.269248617
 20
119.988756899
 10
609.488029125
 20
120.534424836
 10
612.706810157
 20
121.080089855
 10
615.925591697
 20
121.625752042
 10
619.144373732
 20
122.17141148
 10
622.363156247
 20
122.717068248
 10
625.581939228
 20
123.262722424
 10
628.800722662
 20
123.808374081
 10
632.019506535
 20
124.35402329
 10
635.238290837
 20
124.89967012
 10
638.457075554
 20
125.445314636
 10
641.675860675
 20
125.990956902
 10
644.89464619
 20
126.536596979
 10
648.113432088
 20
127.082234926
 10
651.332218359
 20
127.6278708
 10
654.551004992
 20
128.173504656
 10
657.769791979
 20
128.719136546
 10
660.988579309
 20
129.264766522
 10
664.207366975
 20
129.810394634
 10
667.426154967
 20
130.356020928
 10
670.644943278
 20
130.901645452
 10
673.863731899
 20
131.447268248
 10
677.082520823
 20
131.992889362
 10
680.301310042
 20
132.538508833
 10
683.520099549
 20
133.084126703
 10
686.738889336
 20
133.629743011
  0
LWPOLYLINE
  5
18a
330
1F
100
AcDbEntity
  8
main_beam_width
100
AcDbPolyline
 90
10
 70
0
43
0.0
 10
593.465901677
 20
101.357798528
 10
603.736521647
 20
103.139732265
 10
614.007126362
 20
104.92175597
 10
624.277716615
 20
106.703864967
 10
634.548293147
 20
108.486054891
 10
644.818856649
 20
110.268321659
 10
655.089407769
 20
112.050661452
 10
665.359947114
 20
113.833070695
 10
675.630475251
 20
115.615546034
 10
685.900992714
 20
117.398084326
  0
LWPOLYLINE
  5
18b
330
1F
100
AcDbEntity
  8
main_beam_width
100
AcDbPolyline
 90
10
 70
0
43
0.0
 10
593.485246786
 20
96.9242542378
 10
603.848361668
 20
98.640619456
 10
614.211492092
 20
100.356893012
 10
624.574637244
 20
102.073079709
 10
634.937796363
 20
103.789184031
 10
645.300968739
 20
105.505210167
 10
655.664153708
 20
107.221162033
 10
666.027350649
 20
108.937043295
 10
676.390558978
 20
110.652857387
 10
686.753778151
 20
112.368607531
  0
ENDSEC
  0
SECTION
  2
OBJECTS
  0
DICTIONARY
  5
C
330
0
100
AcDbDictionary
281
     1
  3
ACAD_GROUP
350
D
  3
ACAD_LAYOUT
350
1A
  3
ACAD_MATERIAL
350
3B
  3
ACAD_MLEADERSTYLE
350
6E
  3
ACAD_MLINESTYLE
350
17
  3
ACAD_PLOTSETTINGS
350
19
  3
ACAD_PLOTSTYLENAME
350
E
  3
ACAD_TABLESTYLE
350
6D
  3
ACAD_VISUALSTYLE
350
2A
  0
SUN
  5
3F
330
29
100
AcDbSun
 90
        1
290
     0
 63
     7
421
 16777215
 40
1.0
291
     1
 91
  2455826
 92
 54000000
292
     0
 70
     2
 71
   256
280
     1
  0
DICTIONARY
  5
D
102
{ACAD_REACTORS
330
C
102
}
330
C
100
AcDbDictionary
281
     1
  0
DICTIONARY
  5
1A
102
{ACAD_REACTORS
330
C
102
}
330
C
100
AcDbDictionary
281
     1
  3
Layout1
350
1E
  3
Layout2
350
26
  3
Model
350
22
  0
DICTIONARY
  5
3B
102
{ACAD_REACTORS
330
C
102
}
330
C
100
AcDbDictionary
281
     1
  3
ByBlock
350
3D
  3
ByLayer
350
3C
  3
Global
350
3E
  0
DICTIONARY
  5
6E
102
{ACAD_REACTORS
330
C
102
}
330
C
100
AcDbDictionary
281
     1
  0
DICTIONARY
  5
17
102
{ACAD_REACTORS
330
C
102
}
330
C
100
AcDbDictionary
281
     1
  3
Standard
350
18
  0
DICTIONARY
  5
19
102
{ACAD_REACTORS
330
C
102
}
330
C
100
AcDbDictionary
281
     1
  0
ACDBDICTIONARYWDFLT
  5
E
102
{ACAD_REACTORS
330
C
102
}
330
C
100
AcDbDictionary
281
     1
  3
Normal
350
F
100
AcDbDictionaryWithDefault
340
F
  0
DICTIONARY
  5
6D
102
{ACAD_REACTORS
330
C
102
}
330
C
100
AcDbDictionary
281
     1
  0
DICTIONARY
  5
2A
102
{ACAD_REACTORS
330
C
102
}
330
C
100
AcDbDictionary
281
     1
  3
2dWireframe
350
2F
  3
3D Hidden
350
31
  3
3dWireframe
350
30
  3
Basic
350
32
  3
Brighten
350
36
  3
ColorChange
350
3A
  3
Conceptual
350
34
  3
Dim
350
35
  3
Facepattern
350
39
  3
Flat
350
2B
  3
FlatWithEdges
350
2C
  3
Gouraud
350
2D
  3
GouraudWithEdges
350
2E
  3
Linepattern
350
38
  3
Realistic
350
33
  3
Thicken
350
37
  0
LAYOUT
  5
1E
102
{ACAD_REACTORS
330
1A
102
}
330
1A
100
AcDbPlotSettings
  1

  2
none_device
  4

  6

 40
0.0
 41
0.0
 42
0.0
 43
0.0
 44
0.0
 45
0.0
 46
0.0
 47
0.0
 48
0.0
 49
0.0
140
0.0
141
0.0
142
1.0
143
1.0
 70
   688
 72
     0
 73
     0
 74
     5
  7

 75
    16
 76
     0
 77
     2
 78
   300
147
1.0
148
0.0
149
0.0
100
AcDbLayout
  1
Layout1
 70
     1
 71
     1
 10
0.0
 20
0.0
 11
420.0
 21
297.0
 12
0.0
 22
0.0
 32
0.0
 14
1.000000000000000E+20
 24
1.000000000000000E+20
 34
1.000000000000000E+20
 15
-1.000000000000000E+20
 25
-1.000000000000000E+20
 35
-1.000000000000000E+20
146
0.0
 13
0.0
 23
0.0
 33
0.0
 16
1.0
 26
0.0
 36
0.0
 17
0.0
 27
1.0
 37
0.0
 76
     0
330
1B
  0
LAYOUT
  5
26
102
{ACAD_REACTORS
330
1A
102
}
330
1A
100
AcDbPlotSettings
  1

  2
none_device
  4

  6

 40
0.0
 41
0.0
 42
0.0
 43
0.0
 44
0.0
 45
0.0
 46
0.0
 47
0.0
 48
0.0
 49
0.0
140
0.0
141
0.0
142
1.0
143
1.0
 70
   688
 72
     0
 73
     0
 74
     5
  7

 75
    16
 76
     0
 77
     2
 78
   300
147
1.0
148
0.0
149
0.0
100
AcDbLayout
  1
Layout2
 70
     1
 71
     2
 10
0.0
 20
0.0
 11
0.0
 21
0.0
 12
0.0
 22
0.0
 32
0.0
 14
0.0
 24
0.0
 34
0.0
 15
0.0
 25
0.0
 35
0.0
146
0.0
 13
0.0
 23
0.0
 33
0.0
 16
1.0
 26
0.0
 36
0.0
 17
0.0
 27
1.0
 37
0.0
 76
     0
330
23
  0
LAYOUT
  5
22
102
{ACAD_REACTORS
330
1A
102
}
330
1A
100
AcDbPlotSettings
  1

  2
none_device
  4

  6

 40
0.0
 41
0.0
 42
0.0
 43
0.0
 44
0.0
 45
0.0
 46
0.0
 47
0.0
 48
0.0
 49
0.0
140
0.0
141
0.0
142
1.0
143
1.0
 70
  1712
 72
     0
 73
     0
 74
     0
  7

 75
     0
 76
     0
 77
     2
 78
   300
147
1.0
148
0.0
149
0.0
100
AcDbLayout
  1
Model
 70
     1
 71
     0
 10
0.0
 20
0.0
 11
420.0
 21
297.0
 12
0.0
 22
0.0
 32
0.0
 14
1.0
 24
0.0
 34
0.0
 15
73.0
 25
41.0
 35
0.0
146
0.0
 13
0.0
 23
0.0
 33
0.0
 16
1.0
 26
0.0
 36
0.0
 17
0.0
 27
1.0
 37
0.0
 76
     0
330
1F
331
29
  0
MATERIAL
  5
3D
102
{ACAD_REACTORS
330
3B
102
}
330
3B
100
AcDbMaterial
  1
ByBlock
 72
     1
 94
      127
  0
MATERIAL
  5
3C
102
{ACAD_REACTORS
330
3B
102
}
330
3B
100
AcDbMaterial
  1
ByLayer
 72
     1
 94
      127
  0
MATERIAL
  5
3E
102
{ACAD_REACTORS
330
3B
102
}
330
3B
100
AcDbMaterial
  1
Global
 72
     1
 94
      127
  0
MLINESTYLE
  5
18
102
{ACAD_REACTORS
330
17
102
}
330
17
100
AcDbMlineStyle
  2
Standard
 70
     0
  3

 62
   256
 51
90.0
 52
90.0
 71
     2
 49
0.5
 62
   256
  6
BYLAYER
 49
-0.5
 62
   256
  6
BYLAYER
  0
ACDBPLACEHOLDER
  5
F
102
{ACAD_REACTORS
330
E
102
}
330
E
  0
VISUALSTYLE
  5
2F
102
{ACAD_REACTORS
330
2A
102
}
330
2A
100
AcDbVisualStyle
  2
2dWireframe
 70
     4
177
     2
291
     0
 71
     0
176
     1
 72
     2
176
     1
 73
     0
176
     1
 90
        0
176
     1
 40
-0.6
176
     1
 41
-30.0
176
     1
 62
     5
 63
     7
421
 16777215
176
     1
 74
     1
176
     1
 91
        4
176
     1
 64
     7
176
     1
 65
   257
176
     1
 75
     1
176
     1
175
     1
176
     1
 42
1.0
176
     1
 92
        0
176
     1
 66
   257
176
     1
 43
1.0
176
     1
 76
     1
176
     1
 77
     6
176
     1
 78
     2
176
     1
 67
     7
176
     1
 79
     5
176
     1
170
     0
176
     1
171
     0
176
     1
290
     0
176
     1
 93
        1
176
     1
 44
0.0
176
     1
173
     0
176
     1
  0
VISUALSTYLE
  5
31
102
{ACAD_REACTORS
330
2A
102
}
330
2A
100
AcDbVisualStyle
  2
3D Hidden
 70
     6
177
     2
291
     0
 71
     1
176
     1
 72
     2
176
     1
 73
     2
176
     1
 90
        0
176
     1
 40
-0.6
176
     1
 41
-30.0
176
     1
 62
     5
 63
     7
421
 16777215
176
     1
 74
     2
176
     1
 91
        2
176
     1
 64
     7
176
     1
 65
   257
176
     1
 75
     2
176
     1
175
     1
176
     1
 42
40.0
176
     1
 92
        0
176
     1
 66
   257
176
     1
 43
1.0
176
     1
 76
     1
176
     1
 77
     6
176
     1
 78
     2
176
     1
 67
     7
176
     1
 79
     3
176
     1
170
     0
176
     1
171
     0
176
     1
290
     0
176
     1
 93
        1
176
     1
 44
0.0
176
     1
173
     0
176
     1
  0
VISUALSTYLE
  5
30
102
{ACAD_REACTORS
330
2A
102
}
330
2A
100
AcDbVisualStyle
  2
3dWireframe
 70
     5
177
     2
291
     0
 71
     0
176
     1
 72
     2
176
     1
 73
     0
176
     1
 90
        0
176
     1
 40
-0.6
176
     1
 41
-30.0
176
     1
 62
     5
 63
     7
421
 16777215
176
     1
 74
     1
176
     1
 91
        4
176
     1
 64
     7
176
     1
 65
   257
176
     1
 75
     1
176
     1
175
     1
176
     1
 42
1.0
176
     1
 92
        0
176
     1
 66
   257
176
     1
 43
1.0
176
     1
 76
     1
176
     1
 77
     6
176
     1
 78
     2
176
     1
 67
     7
176
     1
 79
     5
176
     1
170
     0
176
     1
171
     0
176
     1
290
     0
176
     1
 93
        1
176
     1
 44
0.0
176
     1
173
     0
176
     1
  0
VISUALSTYLE
  5
32
102
{ACAD_REACTORS
330
2A
102
}
330
2A
100
AcDbVisualStyle
  2
Basic
 70
     7
177
     2
291
     1
 71
     1
176
     1
 72
     0
176
     1
 73
     1
176
     1
 90
        0
176
     1
 40
-0.6
176
     1
 41
-30.0
176
     1
 62
     5
 63
     7
421
 16777215
176
     1
 74
     0
176
     1
 91
        4
176
     1
 64
     7
176
     1
 65
   257
176
     1
 75
     1
176
     1
175
     1
176
     1
 42
1.0
176
     1
 92
        8
176
     1
 66
     7
176
     1
 43
1.0
176
     1
 76
     1
176
     1
 77
     6
176
     1
 78
     2
176
     1
 67
     7
176
     1
 79
     5
176
     1
170
     0
176
     1
171
     0
176
     1
290
     0
176
     1
 93
        1
176
     1
 44
0.0
176
     1
173
     0
176
     1
  0
VISUALSTYLE
  5
36
102
{ACAD_REACTORS
330
2A
102
}
330
2A
100
AcDbVisualStyle
  2
Brighten
 70
    12
177
     2
291
     1
 71
     2
176
     1
 72
     2
176
     1
 73
     0
176
     1
 90
        0
176
     1
 40
-0.6
176
     1
 41
-30.0
176
     1
 62
     5
 63
     7
421
 16777215
176
     1
 74
     1
176
     1
 91
        4
176
     1
 64
     7
176
     1
 65
   257
176
     1
 75
     1
176
     1
175
     1
176
     1
 42
1.0
176
     1
 92
        8
176
     1
 66
     7
176
     1
 43
1.0
176
     1
 76
     1
176
     1
 77
     6
176
     1
 78
     2
176
     1
 67
     7
176
     1
 79
     5
176
     1
170
     0
176
     1
171
     0
176
     1
290
     0
176
     1
 93
        1
176
     1
 44
50.0
176
     1
173
     0
176
     1
  0
VISUALSTYLE
  5
3A
102
{ACAD_REACTORS
330
2A
102
}
330
2A
100
AcDbVisualStyle
  2
ColorChange
 70
    16
177
     2
291
     1
 71
     2
176
     1
 72
     2
176
     1
 73
     3
176
     1
 90
        0
176
     1
 40
-0.6
176
     1
 41
-30.0
176
     1
 62
     5
 63
     8
421
  8421504
176
     1
 74
     1
176
     1
 91
        4
176
     1
 64
     7
176
     1
 65
   257
176
     1
 75
     1
176
     1
175
     1
176
     1
 42
1.0
176
     1
 92
        8
176
     1
 66
     8
424
  8421504
176
     1
 43
1.0
176
     1
 76
     1
176
     1
 77
     6
176
     1
 78
     2
176
     1
 67
     7
176
     1
 79
     5
176
     1
170
     0
176
     1
171
     0
176
     1
290
     0
176
     1
 93
        1
176
     1
 44
0.0
176
     1
173
     0
176
     1
  0
VISUALSTYLE
  5
34
102
{ACAD_REACTORS
330
2A
102
}
330
2A
100
AcDbVisualStyle
  2
Conceptual
 70
     9
177
     2
291
     0
 71
     3
176
     1
 72
     2
176
     1
 73
     0
176
     1
 90
        0
176
     1
 40
-0.6
176
     1
 41
-30.0
176
     1
 62
     5
 63
     7
421
 16777215
176
     1
 74
     2
176
     1
 91
        2
176
     1
 64
     7
176
     1
 65
   257
176
     1
 75
     1
176
     1
175
     1
176
     1
 42
40.0
176
     1
 92
        8
176
     1
 66
     7
176
     1
 43
1.0
176
     1
 76
     1
176
     1
 77
     6
176
     1
 78
     2
176
     1
 67
     7
176
     1
 79
     3
176
     1
170
     0
176
     1
171
     0
176
     1
290
     0
176
     1
 93
        1
176
     1
 44
0.0
176
     1
173
     0
176
     1
  0
VISUALSTYLE
  5
35
102
{ACAD_REACTORS
330
2A
102
}
330
2A
100
AcDbVisualStyle
  2
Dim
 70
    11
177
     2
291
     1
 71
     2
176
     1
 72
     2
176
     1
 73
     0
176
     1
 90
        0
176
     1
 40
-0.6
176
     1
 41
-30.0
176
     1
 62
     5
 63
     7
421
 16777215
176
     1
 74
     1
176
     1
 91
        4
176
     1
 64
     7
176
     1
 65
   257
176
     1
 75
     1
176
     1
175
     1
176
     1
 42
1.0
176
     1
 92
        8
176
     1
 66
     7
176
     1
 43
1.0
176
     1
 76
     1
176
     1
 77
     6
176
     1
 78
     2
176
     1
 67
     7
176
     1
 79
     5
176
     1
170
     0
176
     1
171
     0
176
     1
290
     0
176
     1
 93
        1
176
     1
 44
-50.0
176
     1
173
     0
176
     1
  0
VISUALSTYLE
  5
39
102
{ACAD_REACTORS
330
2A
102
}
330
2A
100
AcDbVisualStyle
  2
Facepattern
 70
    15
177
     2
291
     1
 71
     2
176
     1
 72
     2
176
     1
 73
     0
176
     1
 90
        0
176
     1
 40
-0.6
176
     1
 41
-30.0
176
     1
 62
     5
 63
     7
421
 16777215
176
     1
 74
     1
176
     1
 91
        4
176
     1
 64
     7
176
     1
 65
   257
176
     1
 75
     1
176
     1
175
     1
176
     1
 42
1.0
176
     1
 92
        8
176
     1
 66
     7
176
     1
 43
1.0
176
     1
 76
     1
176
     1
 77
     6
176
     1
 78
     2
176
     1
 67
     7
176
     1
 79
     5
176
     1
170
     0
176
     1
171
     0
176
     1
290
     0
176
     1
 93
        1
176
     1
 44
0.0
176
     1
173
     0
176
     1
  0
VISUALSTYLE
  5
2B
102
{ACAD_REACTORS
330
2A
102
}
330
2A
100
AcDbVisualStyle
  2
Flat
 70
     0
177
     2
291
     1
 71
     2
176
     1
 72
     1
176
     1
 73
     1
176
     1
 90
        2
176
     1
 40
-0.6
176
     1
 41
30.0
176
     1
 62
     5
 63
     7
421
 16777215
176
     1
 74
     0
176
     1
 91
        4
176
     1
 64
     7
176
     1
 65
   257
176
     1
 75
     1
176
     1
175
     1
176
     1
 42
1.0
176
     1
 92
        8
176
     1
 66
     7
176
     1
 43
1.0
176
     1
 76
     1
176
     1
 77
     6
176
     1
 78
     2
176
     1
 67
     7
176
     1
 79
     5
176
     1
170
     0
176
     1
171
     0
176
     1
290
     0
176
     1
 93
       13
176
     1
 44
0.0
176
     1
173
     0
176
     1
  0
VISUALSTYLE
  5
2C
102
{ACAD_REACTORS
330
2A
102
}
330
2A
100
AcDbVisualStyle
  2
FlatWithEdges
 70
     1
177
     2
291
     1
 71
     2
176
     1
 72
     1
176
     1
 73
     1
176
     1
 90
        2
176
     1
 40
-0.6
176
     1
 41
30.0
176
     1
 62
     5
 63
     7
421
 16777215
176
     1
 74
     1
176
     1
 91
        4
176
     1
 64
     7
176
     1
 65
   257
176
     1
 75
     1
176
     1
175
     1
176
     1
 42
1.0
176
     1
 92
        0
176
     1
 66
   257
176
     1
 43
1.0
176
     1
 76
     1
176
     1
 77
     6
176
     1
 78
     2
176
     1
 67
     7
176
     1
 79
     5
176
     1
170
     0
176
     1
171
     0
176
     1
290
     0
176
     1
 93
       13
176
     1
 44
0.0
176
     1
173
     0
176
     1
  0
VISUALSTYLE
  5
2D
102
{ACAD_REACTORS
330
2A
102
}
330
2A
100
AcDbVisualStyle
  2
Gouraud
 70
     2
177
     2
291
     1
 71
     2
176
     1
 72
     2
176
     1
 73
     1
176
     1
 90
        2
176
     1
 40
-0.6
176
     1
 41
30.0
176
     1
 62
     5
 63
     7
421
 16777215
176
     1
 74
     0
176
     1
 91
        4
176
     1
 64
     7
176
     1
 65
   257
176
     1
 75
     1
176
     1
175
     1
176
     1
 42
1.0
176
     1
 92
        0
176
     1
 66
     7
176
     1
 43
1.0
176
     1
 76
     1
176
     1
 77
     6
176
     1
 78
     2
176
     1
 67
     7
176
     1
 79
     5
176
     1
170
     0
176
     1
171
     0
176
     1
290
     0
176
     1
 93
       13
176
     1
 44
0.0
176
     1
173
     0
176
     1
  0
VISUALSTYLE
  5
2E
102
{ACAD_REACTORS
330
2A
102
}
330
2A
100
AcDbVisualStyle
  2
GouraudWithEdges
 70
     3
177
     2
291
     1
 71
     2
176
     1
 72
     2
176
     1
 73
     1
176
     1
 90
        2
176
     1
 40
-0.6
176
     1
 41
30.0
176
     1
 62
     5
 63
     7
421
 16777215
176
     1
 74
     1
176
     1
 91
        4
176
     1
 64
     7
176
     1
 65
   257
176
     1
 75
     1
176
     1
175
     1
176
     1
 42
1.0
176
     1
 92
        0
176
     1
 66
   257
176
     1
 43
1.0
176
     1
 76
     1
176
     1
 77
     6
176
     1
 78
     2
176
     1
 67
     7
176
     1
 79
     5
176
     1
170
     0
176
     1
171
     0
176
     1
290
     0
176
     1
 93
       13
176
     1
 44
0.0
176
     1
173
     0
176
     1
  0
VISUALSTYLE
  5
38
102
{ACAD_REACTORS
330
2A
102
}
330
2A
100
AcDbVisualStyle
  2
Linepattern
 70
    14
177
     2
291
     1
 71
     2
176
     1
 72
     2
176
     1
 73
     0
176
     1
 90
        0
176
     1
 40
-0.6
176
     1
 41
-30.0
176
     1
 62
     5
 63
     7
421
 16777215
176
     1
 74
     1
176
     1
 91
        4
176
     1
 64
     7
176
     1
 65
   257
176
     1
 75
     7
176
     1
175
     7
176
     1
 42
1.0
176
     1
 92
        8
176
     1
 66
     7
176
     1
 43
1.0
176
     1
 76
     1
176
     1
 77
     6
176
     1
 78
     2
176
     1
 67
     7
176
     1
 79
     5
176
     1
170
     0
176
     1
171
     0
176
     1
290
     0
176
     1
 93
        1
176
     1
 44
0.0
176
     1
173
     0
176
     1
  0
VISUALSTYLE
  5
33
102
{ACAD_REACTORS
330
2A
102
}
330
2A
100
AcDbVisualStyle
  2
Realistic
 70
     8
177
     2
291
     0
 71
     2
176
     1
 72
     2
176
     1
 73
     0
176
     1
 90
        0
176
     1
 40
-0.6
176
     1
 41
-30.0
176
     1
 62
     5
 63
     7
421
 16777215
176
     1
 74
     1
176
     1
 91
        0
176
     1
 64
     7
176
     1
 65
   257
176
     1
 75
     1
176
     1
175
     1
176
     1
 42
1.0
176
     1
 92
        8
176
     1
 66
     8
424
  7895160
176
     1
 43
1.0
176
     1
 76
     1
176
     1
 77
     6
176
     1
 78
     2
176
     1
 67
     7
176
     1
 79
     5
176
     1
170
     0
176
     1
171
     0
176
     1
290
     0
176
     1
 93
       13
176
     1
 44
0.0
176
     1
173
     0
176
     1
  0
VISUALSTYLE
  5
37
102
{ACAD_REACTORS
330
2A
102
}
330
2A
100
AcDbVisualStyle
  2
Thicken
 70
    13
177
     2
291
     1
 71
     2
176
     1
 72
     2
176
     1
 73
     0
176
     1
 90
        0
176
     1
 40
-0.6
176
     1
 41
-30.0
176
     1
 62
     5
 63
     7
421
 16777215
176
     1
 74
     1
176
     1
 91
        4
176
     1
 64
     7
176
     1
 65
   257
176
     1
 75
     1
176
     1
175
     1
176
     1
 42
1.0
176
     1
 92
       12
176
     1
 66
     7
176
     1
 43
1.0
176
     1
 76
     1
176
     1
 77
     6
176
     1
 78
     2
176
     1
 67
     7
176
     1
 79
     5
176
     1
170
     0
176
     1
171
     0
176
     1
290
     0
176
     1
 93
        1
176
     1
 44
0.0
176
     1
173
     0
176
     1
  0
ENDSEC
0
EOF
