  0
SECTION
  2
HEADER
  9
$ACADVER
  1
AC1024
  9
$ACADMAINTVER
 70
     6
  9
$DWGCODEPAGE
  3
ANSI_1252
  9
$INSBASE
 10
0.0
 20
0.0
 30
0.0
  9
$EXTMIN
 10
-105.144654898
 20
-25.0
 30
0.0
  9
$EXTMAX
 10
686.753778151
 20
370.168773896
 30
0.0
  9
$LIMMIN
 10
-105.144654898
 20
-25.0
  9
$LIMMAX
 10
686.753778151
 20
370.168773896
  9
$ORTHOMODE
 70
     0
  9
$REGENMODE
 70
     1
  9
$FILLMODE
 70
     1
  9
$QTEXTMODE
 70
     0
  9
$MIRRTEXT
 70
     1
  9
$LTSCALE
 40
1.0
  9
$ATTMODE
 70
     1
  9
$TEXTSIZE
 40
2.5
  9
$TRACEWID
 40
1.0
  9
$TEXTSTYLE
  7
Standard
  9
$CLAYER
  8
Outline
  9
$CELTYPE
  6
ByLayer
  9
$CECOLOR
 62
   256
  9
$CELTSCALE
 40
1.0
  9
$DISPSILH
 70
     0
  9
$DIMSCALE
 40
1.0
  9
$DIMASZ
 40
2.5
  9
$DIMEXO
 40
0.625
  9
$DIMDLI
 40
3.75
  9
$DIMRND
 40
0.0
  9
$DIMDLE
 40
0.0
  9
$DIMEXE
 40
1.25
  9
$DIMTP
 40
0.0
  9
$DIMTM
 40
0.0
  9
$DIMTXT
 40
2.5
  9
$DIMCEN
 40
2.5
  9
$DIMTSZ
 40
0.0
  9
$DIMTOL
 70
     0
  9
$DIMLIM
 70
     0
  9
$DIMTIH
 70
     0
  9
$DIMTOH
 70
     0
  9
$DIMSE1
 70
     0
  9
$DIMSE2
 70
     0
  9
$DIMTAD
 70
     1
  9
$DIMZIN
 70
     8
  9
$DIMBLK
  1

  9
$DIMASO
 70
     1
  9
$DIMSHO
 70
     1
  9
$DIMPOST
  1

  9
$DIMAPOST
  1

  9
$DIMALT
 70
     0
  9
$DIMALTD
 70
     3
  9
$DIMALTF
 40
0.03937007874016
  9
$DIMLFAC
 40
1.0
  9
$DIMTOFL
 70
     1
  9
$DIMTVP
 40
0.0
  9
$DIMTIX
 70
     0
  9
$DIMSOXD
 70
     0
  9
$DIMSAH
 70
     0
  9
$DIMBLK1
  1

  9
$DIMBLK2
  1

  9
$DIMSTYLE
  2
ISO-25
  9
$DIMCLRD
 70
     0
  9
$DIMCLRE
 70
     0
  9
$DIMCLRT
 70
     0
  9
$DIMTFAC
 40
1.0
  9
$DIMGAP
 40
0.625
  9
$DIMJUST
 70
     0
  9
$DIMSD1
 70
     0
  9
$DIMSD2
 70
     0
  9
$DIMTOLJ
 70
     0
  9
$DIMTZIN
 70
     8
  9
$DIMALTZ
 70
     0
  9
$DIMALTTZ
 70
     0
  9
$DIMUPT
 70
     0
  9
$DIMDEC
 70
     2
  9
$DIMTDEC
 70
     2
  9
$DIMALTU
 70
     2
  9
$DIMALTTD
 70
     3
  9
$DIMTXSTY
  7
Standard
  9
$DIMAUNIT
 70
     0
  9
$DIMADEC
 70
     0
  9
$DIMALTRND
 40
0.0
  9
$DIMAZIN
 70
     0
  9
$DIMDSEP
 70
    44
  9
$DIMATFIT
 70
     3
  9
$DIMFRAC
 70
     0
  9
$DIMLDRBLK
  1

  9
$DIMLUNIT
 70
     2
  9
$DIMLWD
 70
    -2
  9
$DIMLWE
 70
    -2
  9
$DIMTMOVE
 70
     0
  9
$DIMFXL
 40
1.0
  9
$DIMFXLON
 70
     0
  9
$DIMJOGANG
 40
0.7853981633974483
  9
$DIMTFILL
 70
     0
  9
$DIMTFILLCLR
 70
     0
  9
$DIMARCSYM
 70
     0
  9
$DIMLTYPE
  6

  9
$DIMLTEX1
  6

  9
$DIMLTEX2
  6

  9
$DIMTXTDIRECTION
 70
     0
  9
$LUNITS
 70
     2
  9
$LUPREC
 70
     4
  9
$SKETCHINC
 40
1.0
  9
$FILLETRAD
 40
10.0
  9
$AUNITS
 70
     0
  9
$AUPREC
 70
     0
  9
$MENU
  1
.
  9
$ELEVATION
 40
0.0
  9
$PELEVATION
 40
0.0
  9
$THICKNESS
 40
0.0
  9
$LIMCHECK
 70
     0
  9
$CHAMFERA
 40
10.0
  9
$CHAMFERB
 40
10.0
  9
$CHAMFERC
 40
20.0
  9
$CHAMFERD
 40
0.0
  9
$SKPOLY
 70
     0
  9
$TDCREATE
 40
2456231.748506945
  9
$TDUCREATE
 40
2456231.373506945
  9
$TDUPDATE
 40
2456231.748506945
  9
$TDUUPDATE
 40
2456231.373506945
  9
$TDINDWG
 40
0.0000000116
  9
$TDUSRTIMER
 40
0.0000000116
  9
$USRTIMER
 70
     1
  9
$ANGBASE
 50
0.0
  9
$ANGDIR
 70
     0
  9
$PDMODE
 70
     0
  9
$PDSIZE
 40
0.0
  9
$PLINEWID
 40
0.0
  9
$SPLFRAME
 70
     0
  9
$SPLINETYPE
 70
     6
  9
$SPLINESEGS
 70
     8
  9
$HANDSEED
  5
6F
  9
$SURFTAB1
 70
     6
  9
$SURFTAB2
 70
     6
  9
$SURFTYPE
 70
     6
  9
$SURFU
 70
     6
  9
$SURFV
 70
     6
  9
$UCSBASE
  2

  9
$UCSNAME
  2

  9
$UCSORG
 10
0.0
 20
0.0
 30
0.0
  9
$UCSXDIR
 10
1.0
 20
0.0
 30
0.0
  9
$UCSYDIR
 10
0.0
 20
1.0
 30
0.0
  9
$UCSORTHOREF
  2

  9
$UCSORTHOVIEW
 70
     0
  9
$UCSORGTOP
 10
0.0
 20
0.0
 30
0.0
  9
$UCSORGBOTTOM
 10
0.0
 20
0.0
 30
0.0
  9
$UCSORGLEFT
 10
0.0
 20
0.0
 30
0.0
  9
$UCSORGRIGHT
 10
0.0
 20
0.0
 30
0.0
  9
$UCSORGFRONT
 10
0.0
 20
0.0
 30
0.0
  9
$UCSORGBACK
 10
0.0
 20
0.0
 30
0.0
  9
$PUCSBASE
  2

  9
$PUCSNAME
  2

  9
$PUCSORG
 10
0.0
 20
0.0
 30
0.0
  9
$PUCSXDIR
 10
1.0
 20
0.0
 30
0.0
  9
$PUCSYDIR
 10
0.0
 20
1.0
 30
0.0
  9
$PUCSORTHOREF
  2

  9
$PUCSORTHOVIEW
 70
     0
  9
$PUCSORGTOP
 10
0.0
 20
0.0
 30
0.0
  9
$PUCSORGBOTTOM
 10
0.0
 20
0.0
 30
0.0
  9
$PUCSORGLEFT
 10
0.0
 20
0.0
 30
0.0
  9
$PUCSORGRIGHT
 10
0.0
 20
0.0
 30
0.0
  9
$PUCSORGFRONT
 10
0.0
 20
0.0
 30
0.0
  9
$PUCSORGBACK
 10
0.0
 20
0.0
 30
0.0
  9
$USERI1
 70
     0
  9
$USERI2
 70
     0
  9
$USERI3
 70
     0
  9
$USERI4
 70
     0
  9
$USERI5
 70
     0
  9
$USERR1
 40
0.0
  9
$USERR2
 40
0.0
  9
$USERR3
 40
0.0
  9
$USERR4
 40
0.0
  9
$USERR5
 40
0.0
  9
$WORLDVIEW
 70
     1
  9
$SHADEDGE
 70
     3
  9
$SHADEDIF
 70
    70
  9
$TILEMODE
 70
     1
  9
$MAXACTVP
 70
    64
  9
$PINSBASE
 10
0.0
 20
0.0
 30
0.0
  9
$PLIMCHECK
 70
     0
  9
$PEXTMIN
 10
1.000000000000000E+20
 20
1.000000000000000E+20
 30
1.000000000000000E+20
  9
$PEXTMAX
 10
-1.000000000000000E+20
 20
-1.000000000000000E+20
 30
-1.000000000000000E+20
  9
$PLIMMIN
 10
0.0
 20
0.0
  9
$PLIMMAX
 10
420.0
 20
297.0
  9
$UNITMODE
 70
     0
  9
$VISRETAIN
 70
     1
  9
$PLINEGEN
 70
     0
  9
$PSLTSCALE
 70
     1
  9
$TREEDEPTH
 70
  3020
  9
$CMLSTYLE
  2
Standard
  9
$CMLJUST
 70
     0
  9
$CMLSCALE
 40
20.0
  9
$PROXYGRAPHICS
 70
     1
  9
$MEASUREMENT
 70
     1
  9
$CELWEIGHT
370
    -1
  9
$ENDCAPS
280
     0
  9
$JOINSTYLE
280
     0
  9
$LWDISPLAY
290
     0
  9
$INSUNITS
 70
     4
  9
$HYPERLINKBASE
  1

  9
$STYLESHEET
  1

  9
$XEDIT
290
     1
  9
$CEPSNTYPE
380
     0
  9
$PSTYLEMODE
290
     1
  9
$FINGERPRINTGUID
  2
{92905EEA-4798-D3AF-0738-BBE039DCC74E}
  9
$VERSIONGUID
  2
{FAEB1C32-E019-11D5-929B-00C0DF256EC4}
  9
$EXTNAMES
290
     1
  9
$PSVPSCALE
 40
0.0
  9
$OLESTARTUP
290
     0
  9
$SORTENTS
280
   127
  9
$INDEXCTL
280
     0
  9
$HIDETEXT
280
     1
  9
$XCLIPFRAME
280
     2
  9
$HALOGAP
280
     0
  9
$OBSCOLOR
 70
   257
  9
$OBSLTYPE
280
     0
  9
$INTERSECTIONDISPLAY
280
     0
  9
$INTERSECTIONCOLOR
 70
   257
  9
$DIMASSOC
280
     2
  9
$PROJECTNAME
  1

  9
$CAMERADISPLAY
290
     0
  9
$LENSLENGTH
 40
50.0
  9
$CAMERAHEIGHT
 40
0.0
  9
$STEPSPERSEC
 40
2.0
  9
$STEPSIZE
 40
6.0
  9
$3DDWFPREC
 40
2.0
  9
$PSOLWIDTH
 40
5.0
  9
$PSOLHEIGHT
 40
80.0
  9
$LOFTANG1
 40
1.570796326794897
  9
$LOFTANG2
 40
1.570796326794897
  9
$LOFTMAG1
 40
0.0
  9
$LOFTMAG2
 40
0.0
  9
$LOFTPARAM
 70
     7
  9
$LOFTNORMALS
280
     1
  9
$LATITUDE
 40
37.795
  9
$LONGITUDE
 40
-122.394
  9
$NORTHDIRECTION
 40
0.0
  9
$TIMEZONE
 70
 -8000
  9
$LIGHTGLYPHDISPLAY
280
     1
  9
$TILEMODELIGHTSYNCH
280
     1
  9
$CMATERIAL
347
3C
  9
$SOLIDHIST
280
     1
  9
$SHOWHIST
280
     1
  9
$DWFFRAME
280
     2
  9
$DGNFRAME
280
     2
  9
$REALWORLDSCALE
290
     1
  9
$INTERFERECOLOR
 62
   256
  9
$CSHADOW
280
     0
  9
$SHADOWPLANELOCATION
 40
0.0
  0
ENDSEC
  0
SECTION
  2
CLASSES
  0
CLASS
  1
ACDBDICTIONARYWDFLT
  2
AcDbDictionaryWithDefault
  3
ObjectDBX Classes
 90
        0
 91
        4
280
     0
281
     0
  0
CLASS
  1
VISUALSTYLE
  2
AcDbVisualStyle
  3
ObjectDBX Classes
 90
     4095
 91
        4
280
     0
281
     0
  0
CLASS
  1
MATERIAL
  2
AcDbMaterial
  3
ObjectDBX Classes
 90
     1153
 91
        4
280
     0
281
     0
  0
CLASS
  1
SUN
  2
AcDbSun
  3
SCENEOE
 90
     1024
 91
        4
280
     0
281
     0
  0
ENDSEC
  0
SECTION
  2
TABLES
  0
TABLE
  2
VPORT
  5
8
330
0
100
AcDbSymbolTable
 70
     1
  0
VPORT
  5
29
330
8
100
AcDbSymbolTableRecord
100
AcDbViewportTableRecord
  2
*Active
 70
     0
 10
0.0
 20
0.0
 11
1.0
 21
1.0
 12
360.5069142256372
 22
77.37740091485402
 13
0.0
 23
0.0
 14
10.0
 24
10.0
 15
10.0
 25
10.0
 16
0.0
 26
0.0
 36
1.0
 17
0.0
 27
0.0
 37
0.0
 40
643.00113180099
 41
2.116173120728929
 42
50.0
 43
0.0
 44
0.0
 50
0.0
 51
0.0
 71
     0
 72
   100
 73
     1
 74
     3
 75
     0
 76
     0
 77
     0
 78
     0
281
     0
 65
     1
110
0.0
120
0.0
130
0.0
111
1.0
121
0.0
131
0.0
112
0.0
122
1.0
132
0.0
 79
     0
146
0.0
 60
     3
 61
     5
292
     1
282
     1
141
0.0
142
0.0
 63
   250
361
3F
  0
ENDTAB
  0
TABLE
  2
LTYPE
  5
5
330
0
100
AcDbSymbolTable
 70
     7
  0
LTYPE
  5
14
330
5
100
AcDbSymbolTableRecord
100
AcDbLinetypeTableRecord
  2
ByBlock
 70
     0
  3

 72
    65
 73
     0
 40
0.0
  0
LTYPE
  5
15
330
5
100
AcDbSymbolTableRecord
100
AcDbLinetypeTableRecord
  2
ByLayer
 70
     0
  3

 72
    65
 73
     0
 40
0.0
  0
LTYPE
  5
16
330
5
100
AcDbSymbolTableRecord
100
AcDbLinetypeTableRecord
  2
Continuous
 70
     0
  3
Solid line
 72
    65
 73
     0
 40
0.0
  0
LTYPE
  5
40
330
5
100
AcDbSymbolTableRecord
100
AcDbLinetypeTableRecord
  2
DOT
 70
     0
  3
Dot . . . . . . . . . . . . . . . . . . . . . . . .
 72
    65
 73
     2
 40
2.032
 49
1.016
 74
     0
 49
-1.016
 74
     0
  0
LTYPE
  5
41
330
5
100
AcDbSymbolTableRecord
100
AcDbLinetypeTableRecord
  2
CENTER
 70
     0
  3
Center ____ _ ____ _ ____ _ ____ _ ____ _ ____
 72
    65
 73
     4
 40
13.208
 49
8.128
 74
     0
 49
-1.524
 74
     0
 49
2.032
 74
     0
 49
-1.524
 74
     0
  0
LTYPE
  5
42
330
5
100
AcDbSymbolTableRecord
100
AcDbLinetypeTableRecord
  2
HIDDEN2
 70
     0
  3
Hidden (.5x) _ _ _ _ _ _ _ _ _ _ _ _ _ _ _ _ _
 72
    65
 73
     2
 40
4.762499999999999
 49
3.175
 74
     0
 49
-1.5875
 74
     0
  0
LTYPE
  5
43
330
5
100
AcDbSymbolTableRecord
100
AcDbLinetypeTableRecord
  2
DASHED
 70
     0
  3
Dashed __ __ __ __ __ __ __ __ __ __ __ __ __ _
 72
    65
 73
     2
 40
9.652
 49
8.128
 74
     0
 49
-1.524
 74
     0
  0
LTYPE
  5
44
330
5
100
AcDbSymbolTableRecord
100
AcDbLinetypeTableRecord
  2
PHANTOM2
 70
     0
  3
Phantom (.5x) ___ _ _ ___ _ _ ___ _ _ ___ _ _
 72
    65
 73
     6
 40
14.732
 49
8.128
 74
     0
 49
-1.524
 74
     0
 49
1.016
 74
     0
 49
-1.524
 74
     0
 49
1.016
 74
     0
 49
-1.524
 74
     0
  0
LTYPE
  5
45
330
5
100
AcDbSymbolTableRecord
100
AcDbLinetypeTableRecord
  2
DASHDOT
 70
     0
  3
Dash dot __ . __ . __ . __ . __ . __ . __ . __
 72
    65
 73
     4
 40
11.176
 49
8.128
 74
     0
 49
-1.524
 74
     0
 49
0.0
 74
     0
 49
-1.524
 74
     0
  0
ENDTAB
  0
TABLE
  2
LAYER
  5
2
330
0
100
AcDbSymbolTable
 70
     7
  0
LAYER
  5
10
330
2
100
AcDbSymbolTableRecord
100
AcDbLayerTableRecord
  2
0
 70
     0
 62
     5
  6
Continuous
370
    -3
390
F
347
3E
  0
LAYER
  5
46
330
2
100
AcDbSymbolTableRecord
100
AcDbLayerTableRecord
  2
Default
 70
     0
 62
     255
  6
Continuous
370
    -3
390
F
347
3E
  0
LAYER
  5
78
330
2
100
AcDbSymbolTableRecord
100
AcDbLayerTableRecord
  2
source_beam
 70
0
 62
255
  6
Continuous
370
    -3
390
F
347
3E
  0
LAYER
  5
7c
330
2
100
AcDbSymbolTableRecord
100
AcDbLayerTableRecord
  2
source_beam_width
 70
0
 62
255
  6
Continuous
370
    -3
390
F
347
3E
  0
LAYER
  5
83
330
2
100
AcDbSymbolTableRecord
100
AcDbLayerTableRecord
  2
main_beam1_width
 70
0
 62
255
  6
Continuous
370
    -3
390
F
347
3E
  0
LAYER
  5
cb
330
2
100
AcDbSymbolTableRecord
100
AcDbLayerTableRecord
  2
Mirrors
 70
0
 62
255
  6
Continuous
370
    -3
390
F
347
3E
  0
LAYER
  5
ab
330
2
100
AcDbSymbolTableRecord
100
AcDbLayerTableRecord
  2
text
 70
0
 62
255
  6
Continuous
370
    -3
390
F
347
3E
  0
LAYER
  5
90
330
2
100
AcDbSymbolTableRecord
100
AcDbLayerTableRecord
  2
main_beam3_width
 70
0
 62
255
  6
Continuous
370
    -3
390
F
347
3E
  0
LAYER
  5
fd
330
2
100
AcDbSymbolTableRecord
100
AcDbLayerTableRecord
  2
main_beam1
 70
0
 62
255
  6
Continuous
370
    -3
390
F
347
3E
  0
LAYER
  5
e8
330
2
100
AcDbSymbolTableRecord
100
AcDbLayerTableRecord
  2
main_beam3
 70
0
 62
255
  6
Continuous
370
    -3
390
F
347
3E
  0
LAYER
  5
f6
330
2
100
AcDbSymbolTableRecord
100
AcDbLayerTableRecord
  2
main_beam2
 70
0
 62
255
  6
Continuous
370
    -3
390
F
347
3E
  0
LAYER
  5
db
330
2
100
AcDbSymbolTableRecord
100
AcDbLayerTableRecord
  2
main_beam2_width
 70
0
 62
255
  6
Continuous
370
    -3
390
F
347
3E
  0
ENDTAB
  0
TABLE
  2
STYLE
  5
3
330
0
100
AcDbSymbolTable
 70
    33
  0
STYLE
  5
11
330
3
100
AcDbSymbolTableRecord
100
AcDbTextStyleTableRecord
  2
Standard
 70
     0
 40
0.0
 41
1.0
 50
0.0
 71
     0
 42
2.5
  3
txt
  4

  0
ENDTAB
  0
TABLE
  2
VIEW
  5
6
330
0
100
AcDbSymbolTable
 70
     0
  0
ENDTAB
  0
TABLE
  2
UCS
  5
7
330
0
100
AcDbSymbolTable
 70
     0
  0
ENDTAB
  0
TABLE
  2
APPID
  5
9
330
0
100
AcDbSymbolTable
 70
     1
  0
APPID
  5
12
330
9
100
AcDbSymbolTableRecord
100
AcDbRegAppTableRecord
  2
ACAD
 70
     0
  0
ENDTAB
  0
TABLE
  2
DIMSTYLE
  5
A
330
0
100
AcDbSymbolTable
 70
     1
100
AcDbDimStyleTable
  0
DIMSTYLE
105
27
330
A
100
AcDbSymbolTableRecord
100
AcDbDimStyleTableRecord
  2
ISO-25
 70
     0
 41
2.5
 42
0.625
 43
3.75
 44
1.25
 73
     0
 74
     0
 77
     1
 78
     8
140
2.5
141
2.5
143
0.03937007874016
147
0.625
171
     3
172
     1
178
     0
271
     2
272
     2
274
     3
278
    44
283
     0
284
     8
340
11
  0
ENDTAB
  0
TABLE
  2
BLOCK_RECORD
  5
1
330
0
100
AcDbSymbolTable
 70
     1
  0
BLOCK_RECORD
  5
1F
330
1
100
AcDbSymbolTableRecord
100
AcDbBlockTableRecord
  2
*Model_Space
340
22
 70
     0
280
     1
281
     0
  0
BLOCK_RECORD
  5
1B
330
1
100
AcDbSymbolTableRecord
100
AcDbBlockTableRecord
  2
*Paper_Space
340
1E
 70
     0
280
     1
281
     0
  0
BLOCK_RECORD
  5
23
330
1
100
AcDbSymbolTableRecord
100
AcDbBlockTableRecord
  2
*Paper_Space0
340
26
 70
     0
280
     1
281
     0
  0
ENDTAB
    0
ENDSEC
  0
SECTION
  2
BLOCKS
  0
BLOCK
  5
20
330
1F
100
AcDbEntity
  8
0
100
AcDbBlockBegin
  2
*Model_Space
 70
     0
 10
0.0
 20
0.0
 30
0.0
  3
*Model_Space
  1

  0
ENDBLK
  5
21
330
1F
100
AcDbEntity
  8
0
100
AcDbBlockEnd
  0
BLOCK
  5
1C
330
1B
100
AcDbEntity
 67
     1
  8
0
100
AcDbBlockBegin
  2
*Paper_Space
 70
     0
 10
0.0
 20
0.0
 30
0.0
  3
*Paper_Space
  1

  0
ENDBLK
  5
1D
330
1B
100
AcDbEntity
 67
     1
  8
0
100
AcDbBlockEnd
  0
BLOCK
  5
24
330
23
100
AcDbEntity
  8
0
100
AcDbBlockBegin
  2
*Paper_Space0
 70
     0
 10
0.0
 20
0.0
 30
0.0
  3
*Paper_Space0
  1

  0
ENDBLK
  5
25
330
23
100
AcDbEntity
  8
0
100
AcDbBlockEnd
  0
ENDSEC
  0
SECTION
  2
ENTITIES
  0
LINE
  5
79
330
1F
100
AcDbEntity
  8
source_beam
100
AcDbLine
 10
0.0
 20
0.0
 30
0.0
  11
295.442325904
 21
52.0944533001
 31
0.0
  0
LINE
  5
7a
330
1F
100
AcDbEntity
  8
source_beam
100
AcDbLine
 10
499.941520587
 20
88.1531788559
 30
0.0
  11
303.704055919
 21
126.764802243
 31
0.0
  0
LINE
  5
7b
330
1F
100
AcDbEntity
  8
source_beam
100
AcDbLine
 10
-0.587030607417
 20
186.63702314
 30
0.0
  11
185.688438649
 21
259.448076925
 31
0.0
  0
LWPOLYLINE
  5
7d
330
1F
100
AcDbEntity
  8
source_beam_width
100
AcDbPolyline
 90
11
 70
0
43
0.0
 10
-0.1562833599
 20
0.886326977711
 10
29.3869564653
 20
6.10140255885
 10
58.928247665
 20
11.327529344
 10
88.4676944165
 20
16.5641165153
 10
118.005451081
 20
21.8102886455
 10
147.541700527
 20
27.0650086395
 10
177.076633887
 20
32.3271925223
 10
206.6104354
 20
37.5957954315
 10
236.143273191
 20
42.8698638826
 10
265.675295076
 20
48.1485595643
 10
295.206627829
 20
53.4311635072
  0
LWPOLYLINE
  5
7e
330
1F
100
AcDbEntity
  8
source_beam_width
100
AcDbPolyline
 90
11
 70
0
43
0.0
 10
0.1562833599
 20
-0.886326977711
 10
29.7015087154
 20
4.31748810117
 10
59.2486826964
 20
9.51025197601
 10
88.7977011257
 20
14.6925554648
 10
118.348409642
 20
19.8652739946
 10
147.900625377
 20
25.0294446606
 10
177.454157197
 20
30.1861514378
 10
207.008820865
 20
35.3364391886
 10
236.564448255
 20
40.4812613975
 10
266.120891551
 20
45.6214563758
 10
295.678023979
 20
50.7577430929
  0
LWPOLYLINE
  5
7f
330
1F
100
AcDbEntity
  8
source_beam_width
100
AcDbPolyline
 90
10
 70
0
43
0.0
 10
499.920409977
 20
86.1793734039
 10
478.078147733
 20
90.4833095394
 10
456.23576272
 20
94.7866217259
 10
434.393253885
 20
99.0893046078
 10
412.550620288
 20
103.391353402
 10
390.707861103
 20
107.692763922
 10
368.86497563
 20
111.993532597
 10
347.02196329
 20
116.293656493
 10
325.178823634
 20
120.593133325
 10
303.335556342
 20
124.891961467
  0
LWPOLYLINE
  5
80
330
1F
100
AcDbEntity
  8
source_beam_width
100
AcDbPolyline
 90
10
 70
0
43
0.0
 10
499.959387623
 20
90.1274088298
 10
478.193688309
 20
94.4038042013
 10
456.42811091
 20
98.6808191827
 10
434.662656465
 20
102.958459057
 10
412.897325902
 20
107.236728541
 10
391.132120033
 20
111.515631766
 10
369.367039551
 20
115.795172252
 10
347.602085027
 20
120.075352895
 10
325.837256903
 20
124.35617595
 10
304.072555496
 20
128.637643018
  0
LWPOLYLINE
  5
81
330
1F
100
AcDbEntity
  8
source_beam_width
100
AcDbPolyline
 90
10
 70
0
43
0.0
 10
-0.769841447393
 20
188.675004811
 10
19.8556938243
 20
196.774178332
 10
40.4810212059
 20
204.873883706
 10
61.1061512794
 20
212.974093861
 10
81.731094068
 20
221.074783155
 10
102.355859058
 20
229.175927319
 10
122.980455221
 20
237.2775034
 10
143.604891037
 20
245.379489702
 10
164.229174519
 20
253.481865726
 10
184.853313237
 20
261.584612108
  0
LWPOLYLINE
  5
82
330
1F
100
AcDbEntity
  8
source_beam_width
100
AcDbPolyline
 90
10
 70
0
43
0.0
 10
-0.405543340452
 20
184.600422253
 10
20.363607342
 20
192.681354643
 10
41.1329688124
 20
200.761747766
 10
61.9025302805
 20
208.841629227
 10
82.6722815288
 20
216.921025165
 10
103.44221289
 20
224.999960313
 10
124.212315224
 20
233.078458054
 10
144.982579894
 20
241.156540486
 10
165.752998741
 20
249.234228479
 10
186.523564062
 20
257.311541742
  0
LWPOLYLINE
  5
84
330
1F
100
AcDbEntity
  8
main_beam1_width
100
AcDbPolyline
 90
20
 70
0
43
0.0
 10
499.942318421
 20
111.76573256
 10
504.85941335
 20
112.410861282
 10
509.776507407
 20
113.055997024
 10
514.693600625
 20
113.70113951
 10
519.610693038
 20
114.346288475
 10
524.527784676
 20
114.991443673
 10
529.444875568
 20
115.636604865
 10
534.361965744
 20
116.281771828
 10
539.279055228
 20
116.926944347
 10
544.196144047
 20
117.57212222
 10
549.113232224
 20
118.217305253
 10
554.030319782
 20
118.862493262
 10
558.947406744
 20
119.507686071
 10
563.86449313
 20
120.152883512
 10
568.78157896
 20
120.798085425
 10
573.698664253
 20
121.443291659
 10
578.615749026
 20
122.088502067
 10
583.532833298
 20
122.733716511
 10
588.449917085
 20
123.378934856
 10
593.367000403
 20
124.024156975
  0
LWPOLYLINE
  5
85
330
1F
100
AcDbEntity
  8
main_beam1_width
100
AcDbPolyline
 90
20
 70
0
43
0.0
 10
499.980554558
 20
106.831448145
 10
504.897052889
 20
107.408959638
 10
509.813552095
 20
107.986464104
 10
514.730052139
 20
108.563961819
 10
519.64655299
 20
109.141453046
 10
524.563054617
 20
109.718938034
 10
529.479556991
 20
110.29641702
 10
534.396060082
 20
110.873890229
 10
539.312563865
 20
111.451357875
 10
544.229068315
 20
112.028820161
 10
549.145573406
 20
112.60627728
 10
554.062079117
 20
113.183729418
 10
558.978585426
 20
113.761176751
 10
563.895092311
 20
114.338619445
 10
568.811599753
 20
114.91605766
 10
573.728107733
 20
115.493491551
 10
578.644616232
 20
116.070921262
 10
583.561125234
 20
116.648346932
 10
588.477634721
 20
117.225768696
 10
593.394144679
 20
117.803186681
  0
LWPOLYLINE
  5
86
330
1F
100
AcDbEntity
  8
main_beam1_width
100
AcDbPolyline
 90
10
 70
0
43
0.0
 10
593.485250024
 20
96.9235119882
 10
583.095857133
 20
98.0244850444
 10
572.70645954
 20
99.1254148232
 10
562.317057415
 20
100.226302883
 10
551.927650921
 20
101.32715071
 10
541.53824021
 20
102.427959722
 10
531.148825431
 20
103.528731276
 10
520.759406723
 20
104.629466665
 10
510.369984222
 20
105.730167126
 10
499.980558055
 20
106.83083384
  0
LWPOLYLINE
  5
87
330
1F
100
AcDbEntity
  8
main_beam1_width
100
AcDbPolyline
 90
10
 70
0
43
0.0
 10
593.465904922
 20
101.357054809
 10
583.074378606
 20
102.513352063
 10
572.68285699
 20
103.669692584
 10
562.291339904
 20
104.826074815
 10
551.899827188
 20
105.982497267
 10
541.508318686
 20
107.138958524
 10
531.116814252
 20
108.295457229
 10
520.725313745
 20
109.45199209
 10
510.333817032
 20
110.608561868
 10
499.942323982
 20
111.765165382
  0
LWPOLYLINE
  5
88
330
1F
100
AcDbEntity
  8
main_beam1_width
100
AcDbPolyline
 90
10
 70
0
43
0.0
 10
499.959389598
 20
90.127648952
 10
510.349028767
 20
91.375136336
 10
520.738660727
 20
92.6226850978
 10
531.128285763
 20
93.8702927999
 10
541.517904149
 20
95.1179571272
 10
551.907516141
 20
96.3656758798
 10
562.297121987
 20
97.6134469663
 10
572.686721919
 20
98.8612683971
 10
583.07631616
 20
100.109138279
 10
593.465904922
 20
101.357054809
  0
LWPOLYLINE
  5
89
330
1F
100
AcDbEntity
  8
main_beam1_width
100
AcDbPolyline
 90
10
 70
0
43
0.0
 10
499.92041283
 20
86.1796210563
 10
510.316479445
 20
87.3736115254
 10
520.712553285
 20
88.5675404956
 10
531.10863406
 20
89.7614104105
 10
541.5047215
 20
90.9552235909
 10
551.900815345
 20
92.1489822422
 10
562.296915348
 20
93.3426884609
 10
572.693021276
 20
94.5363442414
 10
583.089132906
 20
95.7299514815
 10
593.485250024
 20
96.9235119882
  0
LWPOLYLINE
  5
8a
330
1F
100
AcDbEntity
  8
main_beam1_width
100
AcDbPolyline
 90
30
 70
0
43
0.0
 10
593.366987827
 20
124.027039149
 10
596.537932649
 20
124.629524577
 10
599.708876898
 20
125.232013199
 10
602.879820589
 20
125.834504919
 10
606.050763741
 20
126.436999643
 10
609.221706368
 20
127.039497282
 10
612.392648487
 20
127.64199775
 10
615.563590113
 20
128.244500965
 10
618.734531259
 20
128.847006847
 10
621.905471939
 20
129.44951532
 10
625.076412166
 20
130.05202631
 10
628.247351954
 20
130.654539748
 10
631.418291314
 20
131.257055564
 10
634.589230259
 20
131.859573693
 10
637.760168799
 20
132.462094072
 10
640.931106945
 20
133.064616641
 10
644.102044709
 20
133.667141339
 10
647.2729821
 20
134.269668111
 10
650.443919128
 20
134.872196903
 10
653.614855803
 20
135.47472766
 10
656.785792133
 20
136.077260332
 10
659.956728128
 20
136.679794871
 10
663.127663796
 20
137.282331228
 10
666.298599145
 20
137.884869357
 10
669.469534184
 20
138.487409214
 10
672.64046892
 20
139.089950757
 10
675.811403361
 20
139.692493943
 10
678.982337513
 20
140.295038733
 10
682.153271384
 20
140.897585087
 10
685.324204981
 20
141.500132968
  0
LWPOLYLINE
  5
8b
330
1F
100
AcDbEntity
  8
main_beam1_width
100
AcDbPolyline
 90
30
 70
0
43
0.0
 10
593.394132167
 20
117.806054114
 10
596.612910408
 20
118.351734661
 10
599.831689242
 20
118.897411907
 10
603.050468651
 20
119.443085954
 10
606.269248617
 20
119.988756899
 10
609.488029125
 20
120.534424836
 10
612.706810157
 20
121.080089855
 10
615.925591697
 20
121.625752042
 10
619.144373732
 20
122.17141148
 10
622.363156247
 20
122.717068248
 10
625.581939228
 20
123.262722424
 10
628.800722662
 20
123.808374081
 10
632.019506535
 20
124.35402329
 10
635.238290837
 20
124.89967012
 10
638.457075554
 20
125.445314636
 10
641.675860675
 20
125.990956902
 10
644.89464619
 20
126.536596979
 10
648.113432088
 20
127.082234926
 10
651.332218359
 20
127.6278708
 10
654.551004992
 20
128.173504656
 10
657.769791979
 20
128.719136546
 10
660.988579309
 20
129.264766522
 10
664.207366975
 20
129.810394634
 10
667.426154967
 20
130.356020928
 10
670.644943278
 20
130.901645452
 10
673.863731899
 20
131.447268248
 10
677.082520823
 20
131.992889362
 10
680.301310042
 20
132.538508833
 10
683.520099549
 20
133.084126703
 10
686.738889336
 20
133.629743011
  0
LWPOLYLINE
  5
8c
330
1F
100
AcDbEntity
  8
main_beam1_width
100
AcDbPolyline
 90
10
 70
0
43
0.0
 10
593.465901677
 20
101.357798528
 10
603.736521647
 20
103.139732265
 10
614.007126362
 20
104.92175597
 10
624.277716615
 20
106.703864967
 10
634.548293147
 20
108.486054891
 10
644.818856649
 20
110.268321659
 10
655.089407769
 20
112.050661452
 10
665.359947114
 20
113.833070695
 10
675.630475251
 20
115.615546034
 10
685.900992714
 20
117.398084326
  0
LWPOLYLINE
  5
8d
330
1F
100
AcDbEntity
  8
main_beam1_width
100
AcDbPolyline
 90
10
 70
0
43
0.0
 10
593.485246786
 20
96.9242542378
 10
603.848361668
 20
98.640619456
 10
614.211492092
 20
100.356893012
 10
624.574637244
 20
102.073079709
 10
634.937796363
 20
103.789184031
 10
645.300968739
 20
105.505210167
 10
655.664153708
 20
107.221162033
 10
666.027350649
 20
108.937043295
 10
676.390558978
 20
110.652857387
 10
686.753778151
 20
112.368607531
  0
LWPOLYLINE
  5
8e
330
1F
100
AcDbEntity
  8
main_beam1_width
100
AcDbPolyline
 90
19
 70
0
43
0.0
 10
-0.1562833599
 20
0.886326977711
 10
27.6370915548
 20
5.79218867073
 10
55.4287375612
 20
10.7078554903
 10
83.2187371035
 20
15.6328598713
 10
111.007213892
 20
20.5665002194
 10
138.794317007
 20
25.5079310575
 10
166.580205395
 20
30.45625095
 10
194.365035537
 20
35.4105724572
 10
222.148953266
 20
40.3700685145
 10
249.932089409
 20
45.3339971722
 10
277.71455828
 20
50.30171011
 10
305.496458021
 20
55.2726507459
 10
333.277871934
 20
60.2463466526
 10
361.058870249
 20
65.2223995315
 10
388.839511975
 20
70.2004747222
 10
416.619846646
 20
75.1802913135
 10
444.399915868
 20
80.16161334
 10
472.179754659
 20
85.1442422077
 10
499.959392571
 20
90.1280103126
  0
LWPOLYLINE
  5
8f
330
1F
100
AcDbEntity
  8
main_beam1_width
100
AcDbPolyline
 90
19
 70
0
43
0.0
 10
0.1562833599
 20
-0.886326977711
 10
27.9118052146
 20
4.00259517614
 10
55.6690511478
 20
8.88173959563
 10
83.4279391653
 20
13.7515712914
 10
111.188346199
 20
18.6127882197
 10
138.950123885
 20
23.4662317923
 10
166.713113969
 20
28.3127995105
 10
194.477160582
 20
33.1533753615
 10
222.242118386
 20
37.9887835871
 10
250.007856942
 20
42.8197639465
 10
277.774262223
 20
47.646963125
 10
305.541236296
 20
52.4709365207
 10
333.308696008
 20
57.2921557237
 10
361.076571229
 20
62.1110184532
 10
388.84480302
 20
66.9278589774
 10
416.613341894
 20
71.7429579482
 10
444.382146272
 20
76.5565511652
 10
472.151181157
 20
81.3688371214
 10
499.920417003
 20
86.1799833645
  0
LINE
  5
cc
330
1F
100
AcDbEntity
  8
Mirrors
100
AcDbLine
 10
493.471826228
 20
225.0
 30
0.0
  11
592.926407375
 21
225.0
 31
0.0
  0
LINE
  5
cd
330
1F
100
AcDbEntity
  8
Mirrors
100
AcDbLine
 10
594.017245081
 20
-25.0
 30
0.0
  11
493.471826228
 21
-25.0
 31
0.0
  0
LINE
  5
ce
330
1F
100
AcDbEntity
  8
Mirrors
100
AcDbLine
 10
503.471826228
 20
-25.0
 30
0.0
  11
503.471826228
 21
225.0
 31
0.0
  0
LWPOLYLINE
  5
cf
330
1F
100
AcDbEntity
  8
Mirrors
100
AcDbPolyline
 90
60
 70
0
43
0.0
 10
493.471826228
 20
-25.0
 10
493.915410376
 20
-20.6896551724
 10
494.343273989
 20
-16.3793103448
 10
494.755433956
 20
-12.0689655172
 10
495.151906524
 20
-7.75862068966
 10
495.532707299
 20
-3.44827586207
 10
495.897851252
 20
0.862068965517
 10
496.247352722
 20
5.1724137931
 10
496.581225414
 20
9.48275862069
 10
496.899482407
 20
13.7931034483
 10
497.202136156
 20
18.1034482759
 10
497.48919849
 20
22.4137931034
 10
497.760680619
 20
26.724137931
 10
498.016593137
 20
31.0344827586
 10
498.256946018
 20
35.3448275862
 10
498.481748623
 20
39.6551724138
 10
498.691009703
 20
43.9655172414
 10
498.884737394
 20
48.275862069
 10
499.062939225
 20
52.5862068966
 10
499.225622119
 20
56.8965517241
 10
499.37279239
 20
61.2068965517
 10
499.504455747
 20
65.5172413793
 10
499.620617298
 20
69.8275862069
 10
499.721281544
 20
74.1379310345
 10
499.806452386
 20
78.4482758621
 10
499.876133124
 20
82.7586206897
 10
499.930326455
 20
87.0689655172
 10
499.96903448
 20
91.3793103448
 10
499.992258695
 20
95.6896551724
 10
500.0
 20
100.0
 10
500.0
 20
100.0
 10
499.992258695
 20
104.310344828
 10
499.96903448
 20
108.620689655
 10
499.930326455
 20
112.931034483
 10
499.876133124
 20
117.24137931
 10
499.806452386
 20
121.551724138
 10
499.721281544
 20
125.862068966
 10
499.620617298
 20
130.172413793
 10
499.504455747
 20
134.482758621
 10
499.37279239
 20
138.793103448
 10
499.225622119
 20
143.103448276
 10
499.062939225
 20
147.413793103
 10
498.884737394
 20
151.724137931
 10
498.691009703
 20
156.034482759
 10
498.481748623
 20
160.344827586
 10
498.256946018
 20
164.655172414
 10
498.016593137
 20
168.965517241
 10
497.760680619
 20
173.275862069
 10
497.48919849
 20
177.586206897
 10
497.202136156
 20
181.896551724
 10
496.899482407
 20
186.206896552
 10
496.581225414
 20
190.517241379
 10
496.247352722
 20
194.827586207
 10
495.897851252
 20
199.137931034
 10
495.532707299
 20
203.448275862
 10
495.151906524
 20
207.75862069
 10
494.755433956
 20
212.068965517
 10
494.343273989
 20
216.379310345
 10
493.915410376
 20
220.689655172
 10
493.471826228
 20
225.0
  0
LINE
  5
d0
330
1F
100
AcDbEntity
  8
Mirrors
100
AcDbLine
 10
592.926407375
 20
225.0
 30
0.0
  11
594.017245081
 21
-25.0
 31
0.0
  0
LINE
  5
d1
330
1F
100
AcDbEntity
  8
Mirrors
100
AcDbLine
 10
5.7360751926
 20
105.215353737
 30
0.0
  11
-43.7476536905
 21
100.88608843
 31
0.0
  0
LINE
  5
d2
330
1F
100
AcDbEntity
  8
Mirrors
100
AcDbLine
 10
-57.4730271457
 20
250.258249482
 30
0.0
  11
-7.33728621955
 21
254.64455845
 31
0.0
  0
LINE
  5
d3
330
1F
100
AcDbEntity
  8
Mirrors
100
AcDbLine
 10
-12.31825971
 20
254.208779737
 30
0.0
  11
0.755101702137
 21
104.779575023
 31
0.0
  0
LWPOLYLINE
  5
d4
330
1F
100
AcDbEntity
  8
Mirrors
100
AcDbPolyline
 90
60
 70
0
43
0.0
 10
-7.33728621955
 20
254.64455845
 10
-7.05761542294
 20
252.072940688
 10
-6.77984956803
 20
249.501156265
 10
-6.50398856899
 20
246.929205188
 10
-6.23003234308
 20
244.357087465
 10
-5.95798081074
 20
241.784803104
 10
-5.6878338955
 20
239.212352109
 10
-5.41959152402
 20
236.639734489
 10
-5.1532536261
 20
234.066950249
 10
-4.88882013464
 20
231.493999395
 10
-4.6262909857
 20
228.920881933
 10
-4.36566611842
 20
226.347597867
 10
-4.1069454751
 20
223.774147204
 10
-3.85012900114
 20
221.200529947
 10
-3.59521664507
 20
218.626746102
 10
-3.34220835855
 20
216.052795672
 10
-3.09110409634
 20
213.478678662
 10
-2.84190381634
 20
210.904395074
 10
-2.59460747955
 20
208.329944913
 10
-2.34921505012
 20
205.755328182
 10
-2.1057264953
 20
203.180544884
 10
-1.86414178546
 20
200.605595021
 10
-1.62446089409
 20
198.030478595
 10
-1.3866837978
 20
195.455195608
 10
-1.15081047633
 20
192.879746063
 10
-0.916840912514
 20
190.304129961
 10
-0.68477509233
 20
187.728347303
 10
-0.45461300486
 20
185.152398089
 10
-0.226354642309
 20
182.576282322
 10
0.0
 20
180.0
 10
0.0
 20
180.0
 10
0.224450923627
 20
177.423551125
 10
0.446998127012
 20
174.846935695
 10
0.667641605479
 20
172.270153712
 10
0.88638135123
 20
169.693205173
 10
1.10321735335
 20
167.116090078
 10
1.31814959781
 20
164.538808426
 10
1.53117806746
 20
161.961360215
 10
1.74230274203
 20
159.383745444
 10
1.95152359812
 20
156.805964111
 10
2.15884060924
 20
154.228016212
 10
2.36425374574
 20
151.649901746
 10
2.5677629749
 20
149.07162071
 10
2.76936826083
 20
146.4931731
 10
2.96906956456
 20
143.914558914
 10
3.16686684397
 20
141.335778146
 10
3.36276005384
 20
138.756830795
 10
3.55674914582
 20
136.177716855
 10
3.74883406843
 20
133.598436321
 10
3.93901476709
 20
131.018989189
 10
4.12729118408
 20
128.439375455
 10
4.31366325856
 20
125.859595112
 10
4.49813092658
 20
123.279648155
 10
4.68069412103
 20
120.699534578
 10
4.86135277173
 20
118.119254375
 10
5.04010680532
 20
115.53880754
 10
5.21695614536
 20
112.958194065
 10
5.39190071224
 20
110.377413945
 10
5.56494042327
 20
107.796467171
 10
5.7360751926
 20
105.215353737
  0
LINE
  5
d5
330
1F
100
AcDbEntity
  8
Mirrors
100
AcDbLine
 10
-43.7476536905
 20
100.88608843
 30
0.0
  11
-57.4730271457
 21
250.258249482
 31
0.0
  0
LINE
  5
d6
330
1F
100
AcDbEntity
  8
Mirrors
100
AcDbLine
 10
327.992608701
 20
230.415089758
 30
0.0
  11
282.627752137
 21
212.72807127
 31
0.0
  0
LINE
  5
d7
330
1F
100
AcDbEntity
  8
Mirrors
100
AcDbLine
 10
225.700657936
 20
351.530669336
 30
0.0
  11
273.50492413
 21
370.168773896
 31
0.0
  0
LINE
  5
d8
330
1F
100
AcDbEntity
  8
Mirrors
100
AcDbLine
 10
268.846467993
 20
368.352517743
 30
0.0
  11
323.334152563
 21
228.598833605
 31
0.0
  0
LWPOLYLINE
  5
d9
330
1F
100
AcDbEntity
  8
Mirrors
100
AcDbPolyline
 90
60
 70
0
43
0.0
 10
273.50492413
 20
370.168773896
 10
274.393612801
 20
367.739439394
 10
275.284083068
 20
365.310799509
 10
276.176334852
 20
362.882854208
 10
277.070368075
 20
360.455603461
 10
277.966182663
 20
358.029047239
 10
278.863778545
 20
355.603185514
 10
279.763155651
 20
353.17801826
 10
280.664313917
 20
350.753545451
 10
281.567253279
 20
348.329767063
 10
282.471973678
 20
345.906683071
 10
283.378475056
 20
343.484293455
 10
284.28675736
 20
341.062598192
 10
285.196820538
 20
338.641597264
 10
286.108664544
 20
336.22129065
 10
287.02228933
 20
333.801678335
 10
287.937694855
 20
331.3827603
 10
288.854881081
 20
328.964536531
 10
289.773847969
 20
326.547007014
 10
290.694595487
 20
324.130171735
 10
291.617123603
 20
321.714030683
 10
292.541432292
 20
319.298583847
 10
293.467521526
 20
316.883831216
 10
294.395391285
 20
314.469772783
 10
295.32504155
 20
312.056408541
 10
296.256472305
 20
309.643738482
 10
297.189683536
 20
307.231762602
 10
298.124675233
 20
304.820480896
 10
299.061447389
 20
302.409893363
 10
300.0
 20
300.0
 10
300.0
 20
300.0
 10
300.940333064
 20
297.590800807
 10
301.882446583
 20
295.182295783
 10
302.82634056
 20
292.774484932
 10
303.772015004
 20
290.367368256
 10
304.719469925
 20
287.960945758
 10
305.668705335
 20
285.555217444
 10
306.61972125
 20
283.150183321
 10
307.57251769
 20
280.745843395
 10
308.527094677
 20
278.342197675
 10
309.483452235
 20
275.939246171
 10
310.441590392
 20
273.536988893
 10
311.401509179
 20
271.135425854
 10
312.363208629
 20
268.734557066
 10
313.326688778
 20
266.334382544
 10
314.291949666
 20
263.934902303
 10
315.258991336
 20
261.53611636
 10
316.227813832
 20
259.138024732
 10
317.198417203
 20
256.740627438
 10
318.1708015
 20
254.343924498
 10
319.144966776
 20
251.947915933
 10
320.120913089
 20
249.552601765
 10
321.098640498
 20
247.157982018
 10
322.078149067
 20
244.764056715
 10
323.05943886
 20
242.370825884
 10
324.042509947
 20
239.978289549
 10
325.027362398
 20
237.586447739
 10
326.013996289
 20
235.195300484
 10
327.002411697
 20
232.804847813
 10
327.992608701
 20
230.415089758
  0
LINE
  5
da
330
1F
100
AcDbEntity
  8
Mirrors
100
AcDbLine
 10
282.627752137
 20
212.72807127
 30
0.0
  11
225.700657936
 21
351.530669336
 31
0.0
  0
TEXT
  5
ac
330
1F
100
AcDbEntity
  8
text
100
AcDbText
 10
492.910826018
 20
118.497055111
 30
0.0
  40
10.0
  1

 50
0.0
 7
Standard
100
AcDbText
  0
TEXT
  5
ad
330
1F
100
AcDbEntity
  8
text
100
AcDbText
 10
598.299367922
 20
88.5568423737
 30
0.0
  40
10.0
  1

 50
0.0
 7
Standard
100
AcDbText
  0
TEXT
  5
ae
330
1F
100
AcDbEntity
  8
text
100
AcDbText
 10
492.991784627
 20
97.4056146566
 30
0.0
  40
10.0
  1

 50
0.0
 7
Standard
100
AcDbText
  0
TEXT
  5
af
330
1F
100
AcDbEntity
  8
text
100
AcDbText
 10
585.839763419
 20
129.715959007
 30
0.0
  40
10.0
  1

 50
0.0
 7
Standard
100
AcDbText
  0
TEXT
  5
b0
330
1F
100
AcDbEntity
  8
text
100
AcDbText
 10
586.062886868
 20
108.025479814
 30
0.0
  40
10.0
  1

 50
0.0
 7
Standard
100
AcDbText
  0
TEXT
  5
b1
330
1F
100
AcDbEntity
  8
text
100
AcDbText
 10
399.724263509
 20
80.6364386193
 30
0.0
  40
10.0
  1

 50
0.0
 7
Standard
100
AcDbText
  0
TEXT
  5
b2
330
1F
100
AcDbEntity
  8
text
100
AcDbText
 10
44.5908848959
 20
192.104487829
 30
0.0
  40
10.0
  1

 50
0.0
 7
Standard
100
AcDbText
  0
TEXT
  5
b3
330
1F
100
AcDbEntity
  8
text
100
AcDbText
 10
-101.166006235
 20
187.957442672
 30
0.0
  40
10.0
  1

 50
0.0
 7
Standard
100
AcDbText
  0
TEXT
  5
b4
330
1F
100
AcDbEntity
  8
text
100
AcDbText
 10
46.27704213
 20
171.646603042
 30
0.0
  40
10.0
  1

 50
0.0
 7
Standard
100
AcDbText
  0
TEXT
  5
b5
330
1F
100
AcDbEntity
  8
text
100
AcDbText
 10
-8.36731204651
 20
193.134478184
 30
0.0
  40
10.0
  1

 50
0.0
 7
Standard
100
AcDbText
  0
TEXT
  5
b6
330
1F
100
AcDbEntity
  8
text
100
AcDbText
 10
-6.8090977898
 20
172.897952663
 30
0.0
  40
10.0
  1

 50
0.0
 7
Standard
100
AcDbText
  0
TEXT
  5
b7
330
1F
100
AcDbEntity
  8
text
100
AcDbText
 10
95.6011205574
 20
157.519338213
 30
0.0
  40
10.0
  1

 50
0.0
 7
Standard
100
AcDbText
  0
TEXT
  5
b8
330
1F
100
AcDbEntity
  8
text
100
AcDbText
 10
298.760209403
 20
300.217959509
 30
0.0
  40
10.0
  1

 50
0.0
 7
Standard
100
AcDbText
  0
TEXT
  5
b9
330
1F
100
AcDbEntity
  8
text
100
AcDbText
 10
98.6633264059
 20
208.575625417
 30
0.0
  40
10.0
  1

 50
0.0
 7
Standard
100
AcDbText
  0
TEXT
  5
ba
330
1F
100
AcDbEntity
  8
text
100
AcDbText
 10
303.512212976
 20
294.393840976
 30
0.0
  40
10.0
  1

 50
0.0
 7
Standard
100
AcDbText
  0
TEXT
  5
bb
330
1F
100
AcDbEntity
  8
text
100
AcDbText
 10
302.065242522
 20
295.59943298
 30
0.0
  40
10.0
  1

 50
0.0
 7
Standard
100
AcDbText
  0
TEXT
  5
bc
330
1F
100
AcDbEntity
  8
text
100
AcDbText
 10
202.048953556
 20
275.02423205
 30
0.0
  40
10.0
  1

 50
0.0
 7
Standard
100
AcDbText
  0
TEXT
  5
bd
330
1F
100
AcDbEntity
  8
text
100
AcDbText
 10
349.475754651
 20
312.503027126
 30
0.0
  40
10.0
  1

 50
0.0
 7
Standard
100
AcDbText
  0
TEXT
  5
be
330
1F
100
AcDbEntity
  8
text
100
AcDbText
 10
201.875304153
 20
276.231345157
 30
0.0
  40
10.0
  1

 50
0.0
 7
Standard
100
AcDbText
  0
TEXT
  5
bf
330
1F
100
AcDbEntity
  8
text
100
AcDbText
 10
247.429004033
 20
293.890235144
 30
0.0
  40
10.0
  1

 50
0.0
 7
Standard
100
AcDbText
  0
TEXT
  5
c0
330
1F
100
AcDbEntity
  8
text
100
AcDbText
 10
346.362156976
 20
316.548451472
 30
0.0
  40
10.0
  1

 50
0.0
 7
Standard
100
AcDbText
  0
TEXT
  5
c1
330
1F
100
AcDbEntity
  8
text
100
AcDbText
 10
201.025447853
 20
277.302082603
 30
0.0
  40
10.0
  1

 50
0.0
 7
Standard
100
AcDbText
  0
TEXT
  5
c2
330
1F
100
AcDbEntity
  8
text
100
AcDbText
 10
247.698321751
 20
294.238606059
 30
0.0
  40
10.0
  1

 50
0.0
 7
Standard
100
AcDbText
  0
TEXT
  5
c3
330
1F
100
AcDbEntity
  8
text
100
AcDbText
 10
155.942222012
 20
258.557710737
 30
0.0
  40
10.0
  1

 50
0.0
 7
Standard
100
AcDbText
  0
TEXT
  5
c4
330
1F
100
AcDbEntity
  8
text
100
AcDbText
 10
348.725012473
 20
312.854202983
 30
0.0
  40
10.0
  1

 50
0.0
 7
Standard
100
AcDbText
  0
TEXT
  5
c5
330
1F
100
AcDbEntity
  8
text
100
AcDbText
 10
195.225068826
 20
44.5777130635
 30
0.0
  40
10.0
  1

 50
0.0
 7
Standard
100
AcDbText
  0
TEXT
  5
c6
330
1F
100
AcDbEntity
  8
text
100
AcDbText
 10
399.892207084
 20
97.647117316
 30
0.0
  40
10.0
  1

 50
0.0
 7
Standard
100
AcDbText
  0
TEXT
  5
c7
330
1F
100
AcDbEntity
  8
text
100
AcDbText
 10
88.9101513316
 20
232.356323496
 30
0.0
  40
10.0
  1

 50
0.0
 7
Standard
100
AcDbText
  0
TEXT
  5
c8
330
1F
100
AcDbEntity
  8
text
100
AcDbText
 10
518.471826228
 20
87.5
 30
0.0
  40
25.0
  1
M1
 50
0.0
 7
Standard
100
AcDbText
  0
TEXT
  5
c9
330
1F
100
AcDbEntity
  8
text
100
AcDbText
 10
-38.2054729658
 20
171.501062525
 30
0.0
  40
12.5
  1
M2
 50
0.0
 7
Standard
100
AcDbText
  0
TEXT
  5
ca
330
1F
100
AcDbEntity
  8
text
100
AcDbText
 10
264.956485726
 20
284.960651065
 30
0.0
  40
12.5
  1
M3
 50
0.0
 7
Standard
100
AcDbText
  0
LWPOLYLINE
  5
91
330
1F
100
AcDbEntity
  8
main_beam3_width
100
AcDbPolyline
 90
13
 70
0
43
0.0
 10
248.859386673
 20
295.063853987
 10
244.793491835
 20
294.05661193
 10
240.72759789
 20
293.049366124
 10
236.661704811
 20
292.042116685
 10
232.595812571
 20
291.034863726
 10
228.529921143
 20
290.027607358
 10
224.464030503
 20
289.020347683
 10
220.398140628
 20
288.013084801
 10
216.332251493
 20
287.005818809
 10
212.266363078
 20
285.998549798
 10
208.200475361
 20
284.991277857
 10
204.134588322
 20
283.984003072
 10
200.068701941
 20
282.976725523
  0
LWPOLYLINE
  5
92
330
1F
100
AcDbEntity
  8
main_beam3_width
100
AcDbPolyline
 90
13
 70
0
43
0.0
 10
246.208147112
 20
301.528244
 10
242.212728386
 20
300.613714941
 10
238.217308811
 20
299.699189446
 10
234.221888413
 20
298.784667405
 10
230.226467216
 20
297.870148712
 10
226.231045246
 20
296.955633268
 10
222.235622525
 20
296.041120975
 10
218.240199075
 20
295.12661174
 10
214.244774918
 20
294.212105474
 10
210.249350074
 20
293.29760209
 10
206.253924563
 20
292.383101507
 10
202.258498403
 20
291.468603643
 10
198.263071614
 20
290.554108424
  0
LWPOLYLINE
  5
93
330
1F
100
AcDbEntity
  8
main_beam3_width
100
AcDbPolyline
 90
10
 70
0
43
0.0
 10
253.639383135
 20
283.409018324
 10
225.900147885
 20
271.431732869
 10
198.161133402
 20
259.453933574
 10
170.422325603
 20
247.475653225
 10
142.683711456
 20
235.496922149
 10
114.945278902
 20
223.517768415
 10
87.207016776
 20
211.53821801
 10
59.4689147339
 20
199.55829501
 10
31.730963187
 20
187.578021731
 10
3.99315324097
 20
175.597418876
  0
LWPOLYLINE
  5
94
330
1F
100
AcDbEntity
  8
main_beam3_width
100
AcDbPolyline
 90
10
 70
0
43
0.0
 10
251.801690169
 20
287.88977677
 10
224.01126348
 20
276.009025636
 10
196.220615858
 20
264.128788725
 10
168.429761403
 20
252.249033218
 10
140.638713158
 20
240.369728755
 10
112.847483196
 20
228.490847241
 10
85.0560826926
 20
216.612362661
 10
57.2645220017
 20
204.734250919
 10
29.4728107212
 20
192.856489674
 10
1.68095775363
 20
180.979058206
  0
LWPOLYLINE
  5
95
330
1F
100
AcDbEntity
  8
main_beam3_width
100
AcDbPolyline
 90
10
 70
0
43
0.0
 10
253.444103204
 20
283.885159995
 10
248.301103436
 20
281.974679081
 10
243.158108937
 20
280.064183807
 10
238.015119584
 20
278.153674518
 10
232.872135252
 20
276.243151547
 10
227.729155824
 20
274.332615216
 10
222.586181185
 20
272.422065839
 10
217.443211222
 20
270.511503719
 10
212.300245829
 20
268.600929151
 10
207.157284901
 20
266.69034242
  0
LWPOLYLINE
  5
96
330
1F
100
AcDbEntity
  8
main_beam3_width
100
AcDbPolyline
 90
10
 70
0
43
0.0
 10
251.459297853
 20
288.7246155
 10
246.322025197
 20
286.861643984
 10
241.184747316
 20
284.998686703
 10
236.047464335
 20
283.135743318
 10
230.910176374
 20
281.272813499
 10
225.772883551
 20
279.409896927
 10
220.635585979
 20
277.546993294
 10
215.498283768
 20
275.684102299
 10
210.360977025
 20
273.821223651
 10
205.223665853
 20
271.958357069
  0
LWPOLYLINE
  5
97
330
1F
100
AcDbEntity
  8
main_beam3_width
100
AcDbPolyline
 90
10
 70
0
43
0.0
 10
251.884175158
 20
287.688657585
 10
246.61242177
 20
286.047468792
 10
241.340671487
 20
284.406269799
 10
236.068924206
 20
282.765060949
 10
230.797179827
 20
281.123842573
 10
225.525438252
 20
279.482614983
 10
220.253699392
 20
277.841378481
 10
214.981963158
 20
276.200133355
 10
209.710229466
 20
274.558879881
 10
204.438498235
 20
272.917618322
  0
LWPOLYLINE
  5
98
330
1F
100
AcDbEntity
  8
main_beam3_width
100
AcDbPolyline
 90
10
 70
0
43
0.0
 10
249.634579822
 20
293.173737786
 10
244.401855725
 20
291.615756952
 10
239.169128599
 20
290.057786062
 10
233.936398547
 20
288.499824784
 10
228.703665665
 20
286.941872801
 10
223.470930044
 20
285.38392981
 10
218.238191773
 20
283.82599552
 10
213.005450938
 20
282.268069654
 10
207.772707618
 20
280.710151945
 10
202.539961892
 20
279.152242139
  0
LWPOLYLINE
  5
99
330
1F
100
AcDbEntity
  8
main_beam3_width
100
AcDbPolyline
 90
10
 70
0
43
0.0
 10
251.459373741
 20
288.724430466
 10
256.474877086
 20
290.950394596
 10
261.490377479
 20
293.176365424
 10
266.50587497
 20
295.40234284
 10
271.521369606
 20
297.628326733
 10
276.536861435
 20
299.854316999
 10
281.552350503
 20
302.080313532
 10
286.567836854
 20
304.30631623
 10
291.583320533
 20
306.532324993
 10
296.598801582
 20
308.758339723
  0
LWPOLYLINE
  5
9a
330
1F
100
AcDbEntity
  8
main_beam3_width
100
AcDbPolyline
 90
10
 70
0
43
0.0
 10
253.444179058
 20
283.884975044
 10
258.460020984
 20
286.078946843
 10
263.475865849
 20
288.27291197
 10
268.491713604
 20
290.466870538
 10
273.507564202
 20
292.660822653
 10
278.523417597
 20
294.854768423
 10
283.539273741
 20
297.04870795
 10
288.555132591
 20
299.242641337
 10
293.570994104
 20
301.436568682
 10
298.586858235
 20
303.630490082
  0
LWPOLYLINE
  5
9b
330
1F
100
AcDbEntity
  8
main_beam3_width
100
AcDbPolyline
 90
10
 70
0
43
0.0
 10
299.412733832
 20
301.507288949
 10
294.305105034
 20
299.549284576
 10
289.197479255
 20
297.591272266
 10
284.089856441
 20
295.633252157
 10
278.982236542
 20
293.675224383
 10
273.874619508
 20
291.717189075
 10
268.76700529
 20
289.759146363
 10
263.65939384
 20
287.801096372
 10
258.551785112
 20
285.843039226
 10
253.444179058
 20
283.884975044
  0
LWPOLYLINE
  5
9c
330
1F
100
AcDbEntity
  8
main_beam3_width
100
AcDbPolyline
 90
10
 70
0
43
0.0
 10
297.614508244
 20
306.13551251
 10
292.486171611
 20
304.200917216
 10
287.357831948
 20
302.266329891
 10
282.229489308
 20
300.331750395
 10
277.101143741
 20
298.397178594
 10
271.972795299
 20
296.462614354
 10
266.84444403
 20
294.528057546
 10
261.716089983
 20
292.593508044
 10
256.587733205
 20
290.658965725
 10
251.459373741
 20
288.724430466
  0
LWPOLYLINE
  5
9d
330
1F
100
AcDbEntity
  8
main_beam3_width
100
AcDbPolyline
 90
10
 70
0
43
0.0
 10
251.801675841
 20
287.889811706
 10
256.892004333
 20
289.917077046
 10
261.982329407
 20
291.944350999
 10
267.072651092
 20
293.971633495
 10
272.162969414
 20
295.998924463
 10
277.253284403
 20
298.026223832
 10
282.343596085
 20
300.053531532
 10
287.433904489
 20
302.080847494
 10
292.524209642
 20
304.108171651
 10
297.61451157
 20
306.135503933
  0
LWPOLYLINE
  5
9e
330
1F
100
AcDbEntity
  8
main_beam3_width
100
AcDbPolyline
 90
10
 70
0
43
0.0
 10
253.639368805
 20
283.409053264
 10
258.72528554
 20
285.420000345
 10
263.811205681
 20
287.430938843
 10
268.897129198
 20
289.44186883
 10
273.983056065
 20
291.452790378
 10
279.068986254
 20
293.463703555
 10
284.154919736
 20
295.474608433
 10
289.240856485
 20
297.485505078
 10
294.326796473
 20
299.496393559
 10
299.412739674
 20
301.507273944
  0
LWPOLYLINE
  5
9f
330
1F
100
AcDbEntity
  8
main_beam3_width
100
AcDbPolyline
 90
10
 70
0
43
0.0
 10
296.598636125
 20
308.758767488
 10
301.54012988
 20
311.082894136
 10
306.481618124
 20
313.40703263
 10
311.423100997
 20
315.731182674
 10
316.364578629
 20
318.055343985
 10
321.306051148
 20
320.379516286
 10
326.24751868
 20
322.703699311
 10
331.188981345
 20
325.027892801
 10
336.130439257
 20
327.352096506
 10
341.071892532
 20
329.676310184
  0
LWPOLYLINE
  5
a0
330
1F
100
AcDbEntity
  8
main_beam3_width
100
AcDbPolyline
 90
10
 70
0
43
0.0
 10
298.586693498
 20
303.630914005
 10
303.584181289
 20
305.929506119
 10
308.581674679
 20
308.228086196
 10
313.579173528
 20
310.526654536
 10
318.5766777
 20
312.825211432
 10
323.574187063
 20
315.123757166
 10
328.571701492
 20
317.42229201
 10
333.569220863
 20
319.72081623
 10
338.566745056
 20
322.019330081
 10
343.564273958
 20
324.31783381
  0
LWPOLYLINE
  5
a1
330
1F
100
AcDbEntity
  8
main_beam3_width
100
AcDbPolyline
 90
10
 70
0
43
0.0
 10
296.436337972
 20
309.178445794
 10
291.150114552
 20
307.609907304
 10
285.863892272
 20
306.041364883
 10
280.577671096
 20
304.472818652
 10
275.291450993
 20
302.904268729
 10
270.005231928
 20
301.335715224
 10
264.719013871
 20
299.767158245
 10
259.432796792
 20
298.198597895
 10
254.146580662
 20
296.630034273
 10
248.860365453
 20
295.061467474
  0
LWPOLYLINE
  5
a2
330
1F
100
AcDbEntity
  8
main_beam3_width
100
AcDbPolyline
 90
10
 70
0
43
0.0
 10
294.146901478
 20
315.115751982
 10
288.820486689
 20
313.605747885
 10
283.494070754
 20
312.095747739
 10
278.167653709
 20
310.58575142
 10
272.841235587
 20
309.075758811
 10
267.514816422
 20
307.5657698
 10
262.188396245
 20
306.055784278
 10
256.861975085
 20
304.545802143
 10
251.535552972
 20
303.035823293
 10
246.209129933
 20
301.525847634
  0
LWPOLYLINE
  5
a3
330
1F
100
AcDbEntity
  8
main_beam3_width
100
AcDbPolyline
 90
10
 70
0
43
0.0
 10
249.634925592
 20
293.17289471
 10
254.580718422
 20
295.610948482
 10
259.526509031
 20
298.049006807
 10
264.472297473
 20
300.487069579
 10
269.418083796
 20
302.925136693
 10
274.36386805
 20
305.36320805
 10
279.309650282
 20
307.801283554
 10
284.255430538
 20
310.239363111
 10
289.201208862
 20
312.677446629
 10
294.146985298
 20
315.115534019
  0
LWPOLYLINE
  5
a4
330
1F
100
AcDbEntity
  8
main_beam3_width
100
AcDbPolyline
 90
10
 70
0
43
0.0
 10
251.884520327
 20
287.687815977
 10
256.834724461
 20
290.075653625
 10
261.784930804
 20
292.463486742
 10
266.735139305
 20
294.851315435
 10
271.685349915
 20
297.239139805
 10
276.635562583
 20
299.626959951
 10
281.585777265
 20
302.01477597
 10
286.535993914
 20
304.402587955
 10
291.486212486
 20
306.790395996
 10
296.436432938
 20
309.178200181
  0
LWPOLYLINE
  5
a5
330
1F
100
AcDbEntity
  8
main_beam3_width
100
AcDbPolyline
 90
10
 70
0
43
0.0
 10
297.614498384
 20
306.135537941
 10
302.68887829
 20
308.180775329
 10
307.763251531
 20
310.226029353
 10
312.837618201
 20
312.271299783
 10
317.911978391
 20
314.316586391
 10
322.98633219
 20
316.361888952
 10
328.060679687
 20
318.407207246
 10
333.135020968
 20
320.452541057
 10
338.209356119
 20
322.497890172
 10
343.283685224
 20
324.543254382
  0
LWPOLYLINE
  5
a6
330
1F
100
AcDbEntity
  8
main_beam3_width
100
AcDbPolyline
 90
10
 70
0
43
0.0
 10
299.412727005
 20
301.507306484
 10
304.501130571
 20
303.532988879
 10
309.589540816
 20
305.5586546
 10
314.677957647
 20
307.58430388
 10
319.766380973
 20
309.609936946
 10
324.854810703
 20
311.635554025
 10
329.943246749
 20
313.661155336
 10
335.031689023
 20
315.686741097
 10
340.120137442
 20
317.712311522
 10
345.208591919
 20
319.73786682
  0
LWPOLYLINE
  5
a7
330
1F
100
AcDbEntity
  8
main_beam3_width
100
AcDbPolyline
 90
10
 70
0
43
0.0
 10
-0.769841447393
 20
188.675004811
 10
27.2949560899
 20
199.695557807
 10
55.3593758397
 20
210.717077312
 10
83.4234436981
 20
221.739497075
 10
111.4871837
 20
232.762755608
 10
139.550618122
 20
243.786795916
 10
167.613767596
 20
254.811565221
 10
195.676651211
 20
265.837014682
 10
223.739286625
 20
276.863099123
 10
251.801690169
 20
287.88977677
  0
LWPOLYLINE
  5
a8
330
1F
100
AcDbEntity
  8
main_beam3_width
100
AcDbPolyline
 90
10
 70
0
43
0.0
 10
-0.405543340452
 20
184.600422253
 10
27.8203627543
 20
195.582501352
 10
56.0466509623
 20
206.563602875
 10
84.2732949746
 20
217.54379413
 10
112.500270381
 20
228.523137565
 10
140.727554562
 20
239.50169105
 10
168.955126579
 20
250.479508153
 10
197.182967062
 20
261.456638429
 10
225.411058099
 20
272.433127701
 10
253.639383135
 20
283.409018324
  0
LWPOLYLINE
  5
a9
330
1F
100
AcDbEntity
  8
main_beam3_width
100
AcDbPolyline
 90
10
 70
0
43
0.0
 10
298.586820154
 20
303.630588078
 10
293.397668193
 20
301.859191343
 10
288.208518226
 20
300.087788684
 10
283.019370204
 20
298.316380246
 10
277.830224079
 20
296.544966174
 10
272.641079804
 20
294.773546606
 10
267.451937334
 20
293.002121674
 10
262.262796626
 20
291.230691509
 10
257.073657637
 20
289.459256236
 10
251.884520327
 20
287.687815977
  0
LWPOLYLINE
  5
aa
330
1F
100
AcDbEntity
  8
main_beam3_width
100
AcDbPolyline
 90
10
 70
0
43
0.0
 10
296.598769068
 20
308.758423784
 10
291.380571804
 20
307.026675852
 10
286.162372537
 20
305.29493387
 10
280.944171318
 20
303.56319769
 10
275.725968194
 20
301.831467167
 10
270.507763212
 20
300.099742164
 10
265.289556418
 20
298.368022544
 10
260.071347855
 20
296.636308179
 10
254.853137566
 20
294.904598941
 10
249.634925592
 20
293.17289471
  0
LINE
  5
fe
330
1F
100
AcDbEntity
  8
main_beam1
100
AcDbLine
 10
499.9639855
 20
109.296962041
 30
0.0
  11
593.380583579
 21
120.911142003
 31
0.0
  0
LINE
  5
ff
330
1F
100
AcDbEntity
  8
main_beam1
100
AcDbLine
 10
593.475580336
 20
99.1396273666
 30
0.0
  11
499.9639855
 21
109.296962041
 31
0.0
  0
LINE
  5
100
330
1F
100
AcDbEntity
  8
main_beam1
100
AcDbLine
 10
499.941520587
 20
88.1531788559
 30
0.0
  11
593.475580336
 21
99.1396273666
 31
0.0
  0
LINE
  5
101
330
1F
100
AcDbEntity
  8
main_beam1
100
AcDbLine
 10
593.380583579
 20
120.911142003
 30
0.0
  11
686.031547159
 21
137.564937989
 31
0.0
  0
LINE
  5
102
330
1F
100
AcDbEntity
  8
main_beam1
100
AcDbLine
 10
593.475580336
 20
99.1396273666
 30
0.0
  11
686.327385433
 21
114.883345928
 31
0.0
  0
LINE
  5
103
330
1F
100
AcDbEntity
  8
main_beam1
100
AcDbLine
 10
0.0
 20
0.0
 30
0.0
  11
499.941520587
 21
88.1531788559
 31
0.0
  0
LINE
  5
e9
330
1F
100
AcDbEntity
  8
main_beam3
100
AcDbLine
 10
247.535616028
 20
298.291540335
 30
0.0
  11
199.165886777
 21
286.765416974
 31
0.0
  0
LINE
  5
ea
330
1F
100
AcDbEntity
  8
main_beam3
100
AcDbLine
 10
252.720509329
 20
285.649464167
 30
0.0
  11
2.8370554973
 21
178.288238541
 31
0.0
  0
LINE
  5
eb
330
1F
100
AcDbEntity
  8
main_beam3
100
AcDbLine
 10
252.451845121
 20
286.304535196
 30
0.0
  11
206.190475377
 21
269.324349744
 31
0.0
  0
LINE
  5
ec
330
1F
100
AcDbEntity
  8
main_beam3
100
AcDbLine
 10
250.760033573
 20
290.429597991
 30
0.0
  11
203.489230064
 21
276.03493023
 31
0.0
  0
LINE
  5
ed
330
1F
100
AcDbEntity
  8
main_beam3
100
AcDbLine
 10
252.451845121
 20
286.304535196
 30
0.0
  11
297.591961357
 21
306.193666765
 31
0.0
  0
LINE
  5
ee
330
1F
100
AcDbEntity
  8
main_beam3
100
AcDbLine
 10
298.512815258
 20
303.821043368
 30
0.0
  11
252.451845121
 21
286.304535196
 31
0.0
  0
LINE
  5
ef
330
1F
100
AcDbEntity
  8
main_beam3
100
AcDbLine
 10
252.720509329
 20
285.649464167
 30
0.0
  11
298.512815258
 21
303.821043368
 31
0.0
  0
LINE
  5
f0
330
1F
100
AcDbEntity
  8
main_beam3
100
AcDbLine
 10
297.591961357
 20
306.193666765
 30
0.0
  11
342.318083245
 21
326.997071997
 31
0.0
  0
LINE
  5
f1
330
1F
100
AcDbEntity
  8
main_beam3
100
AcDbLine
 10
295.290825531
 20
312.145138889
 30
0.0
  11
247.535616028
 21
298.291540335
 31
0.0
  0
LINE
  5
f2
330
1F
100
AcDbEntity
  8
main_beam3
100
AcDbLine
 10
250.760033573
 20
290.429597991
 30
0.0
  11
295.290825531
 21
312.145138889
 31
0.0
  0
LINE
  5
f3
330
1F
100
AcDbEntity
  8
main_beam3
100
AcDbLine
 10
298.512815258
 20
303.821043368
 30
0.0
  11
344.246138571
 21
322.140560601
 31
0.0
  0
LINE
  5
f4
330
1F
100
AcDbEntity
  8
main_beam3
100
AcDbLine
 10
-0.587030607417
 20
186.63702314
 30
0.0
  11
252.720509329
 21
285.649464167
 31
0.0
  0
LINE
  5
f5
330
1F
100
AcDbEntity
  8
main_beam3
100
AcDbLine
 10
297.591961357
 20
306.193666765
 30
0.0
  11
250.760033573
 21
290.429597991
 31
0.0
  0
LINE
  5
f7
330
1F
100
AcDbEntity
  8
main_beam2
100
AcDbLine
 10
-2.44765819199
 20
206.79059853
 30
0.0
  11
-53.9454469159
 21
211.867870967
 31
0.0
  0
LINE
  5
f8
330
1F
100
AcDbEntity
  8
main_beam2
100
AcDbLine
 10
-52.1257657455
 20
192.064423744
 30
0.0
  11
-2.44765819199
 21
206.79059853
 31
0.0
  0
LINE
  5
f9
330
1F
100
AcDbEntity
  8
main_beam2
100
AcDbLine
 10
-0.587030607417
 20
186.63702314
 30
0.0
  11
-52.1257657455
 21
192.064423744
 31
0.0
  0
LINE
  5
fa
330
1F
100
AcDbEntity
  8
main_beam2
100
AcDbLine
 10
-53.9454469159
 20
211.867870967
 30
0.0
  11
-104.80402686
 21
221.418042952
 31
0.0
  0
LINE
  5
fb
330
1F
100
AcDbEntity
  8
main_beam2
100
AcDbLine
 10
-52.1257657455
 20
192.064423744
 30
0.0
  11
-102.962636904
 21
202.129731874
 31
0.0
  0
LINE
  5
fc
330
1F
100
AcDbEntity
  8
main_beam2
100
AcDbLine
 10
499.941520587
 20
88.1531788559
 30
0.0
  11
-0.587030607417
 21
186.63702314
 31
0.0
  0
LWPOLYLINE
  5
dc
330
1F
100
AcDbEntity
  8
main_beam2_width
100
AcDbPolyline
 90
10
 70
0
43
0.0
 10
-2.25341315065
 20
204.744685796
 10
-7.97664073312
 20
205.315033774
 10
-13.6998700794
 20
205.885363862
 10
-19.4231012056
 20
206.455675898
 10
-25.1463341277
 20
207.025969718
 10
-30.869568862
 20
207.596245156
 10
-36.5928054249
 20
208.166502048
 10
-42.316043833
 20
208.736740224
 10
-48.039284103
 20
209.306959515
 10
-53.7625262518
 20
209.87715975
  0
LWPOLYLINE
  5
dd
330
1F
100
AcDbEntity
  8
main_beam2_width
100
AcDbPolyline
 90
10
 70
0
43
0.0
 10
-2.64304618249
 20
208.835788222
 10
-8.36363664834
 20
209.393716223
 10
-14.0842253505
 20
209.951662112
 10
-19.8048122731
 20
210.509626052
 10
-25.5253973999
 20
211.067608206
 10
-31.2459807148
 20
211.625608739
 10
-36.9665622012
 20
212.183627816
 10
-42.6871418427
 20
212.741665607
 10
-48.4077196226
 20
213.299722279
 10
-54.128295524
 20
213.857798005
  0
LWPOLYLINE
  5
de
330
1F
100
AcDbEntity
  8
main_beam2_width
100
AcDbPolyline
 90
10
 70
0
43
0.0
 10
-52.3133970899
 20
194.106400925
 10
-46.7944513107
 20
195.742956834
 10
-41.2755106439
 20
197.37952999
 10
-35.7565750854
 20
199.016120379
 10
-30.2376446307
 20
200.652727985
 10
-24.7187192752
 20
202.289352793
 10
-19.1997990145
 20
203.925994788
 10
-13.6808838436
 20
205.562653954
 10
-8.16197375761
 20
207.199330273
 10
-2.64306875156
 20
208.836023729
  0
LWPOLYLINE
  5
df
330
1F
100
AcDbEntity
  8
main_beam2_width
100
AcDbPolyline
 90
10
 70
0
43
0.0
 10
-51.9381412926
 20
190.022521562
 10
-46.4176388291
 20
191.658412524
 10
-40.8971312503
 20
193.294286231
 10
-35.3766185603
 20
194.930142695
 10
-29.8561007636
 20
196.565981931
 10
-24.3355778647
 20
198.201803956
 10
-18.8150498681
 20
199.837608784
 10
-13.2945167787
 20
201.473396431
 10
-7.77397860135
 20
203.109166915
 10
-2.25343534111
 20
204.744920251
  0
LWPOLYLINE
  5
e0
330
1F
100
AcDbEntity
  8
main_beam2_width
100
AcDbPolyline
 90
10
 70
0
43
0.0
 10
-0.405489906218
 20
184.59982064
 10
-6.13133248492
 20
185.202414901
 10
-11.8571769602
 20
185.80499115
 10
-17.5830233311
 20
186.4075494
 10
-23.3088715962
 20
187.010089662
 10
-29.0347217545
 20
187.612611946
 10
-34.7605738046
 20
188.215116266
 10
-40.4864277452
 20
188.817602633
 10
-46.212283575
 20
189.42007106
 10
-51.9381412926
 20
190.022521562
  0
LWPOLYLINE
  5
e1
330
1F
100
AcDbEntity
  8
main_beam2_width
100
AcDbPolyline
 90
10
 70
0
43
0.0
 10
-0.76978741855
 20
188.674404467
 10
-6.49686273795
 20
189.277887667
 10
-12.22393616
 20
189.881388884
 10
-17.9510076859
 20
190.484908107
 10
-23.6780773167
 20
191.088445326
 10
-29.4051450537
 20
191.692000528
 10
-35.1322108982
 20
192.295573702
 10
-40.8592748515
 20
192.899164835
 10
-46.5863369149
 20
193.502773913
 10
-52.3133970899
 20
194.106400925
  0
LWPOLYLINE
  5
e2
330
1F
100
AcDbEntity
  8
main_beam2_width
100
AcDbPolyline
 90
10
 70
0
43
0.0
 10
-53.7624832724
 20
209.876692009
 10
-59.4715793604
 20
210.957692125
 10
-65.1806836997
 20
212.0386483
 10
-70.8897964046
 20
213.119559925
 10
-76.5989175908
 20
214.200426384
 10
-82.3080473754
 20
215.281247052
 10
-88.0171858774
 20
216.362021296
 10
-93.726333217
 20
217.442748477
 10
-99.4354895161
 20
218.523427945
 10
-105.144654898
 20
219.604059043
  0
LWPOLYLINE
  5
e3
330
1F
100
AcDbEntity
  8
main_beam2_width
100
AcDbPolyline
 90
10
 70
0
43
0.0
 10
-54.1282526281
 20
213.857331172
 10
-59.7210793833
 20
214.898789706
 10
-65.3138982107
 20
215.940290459
 10
-70.9067090027
 20
216.981834004
 10
-76.4995116506
 20
218.023420919
 10
-82.0923060442
 20
219.065051792
 10
-87.6850920718
 20
220.106727217
 10
-93.2778696205
 20
221.148447796
 10
-98.8706385758
 20
222.190214138
 10
-104.463398822
 20
223.232026861
  0
LWPOLYLINE
  5
e4
330
1F
100
AcDbEntity
  8
main_beam2_width
100
AcDbPolyline
 90
10
 70
0
43
0.0
 10
-51.9381454068
 20
190.022566337
 10
-57.6501295049
 20
191.152666475
 10
-63.3621216378
 20
192.282726032
 10
-69.0741217949
 20
193.412745061
 10
-74.7861299653
 20
194.542723618
 10
-80.4981461376
 20
195.672661759
 10
-86.2101702999
 20
196.802559545
 10
-91.9222024398
 20
197.932417038
 10
-97.6342425445
 20
199.062234304
 10
-103.346290601
 20
200.19201141
  0
LWPOLYLINE
  5
e5
330
1F
100
AcDbEntity
  8
main_beam2_width
100
AcDbPolyline
 90
10
 70
0
43
0.0
 10
-52.3134012358
 20
194.106446044
 10
-57.8984965245
 20
195.213069843
 10
-63.4835841323
 20
196.319732435
 10
-69.0686640692
 20
197.426433771
 10
-74.6537363454
 20
198.533173798
 10
-80.2388009717
 20
199.639952464
 10
-85.8238579592
 20
200.74676971
 10
-91.4089073195
 20
201.853625479
 10
-96.9939490647
 20
202.960519709
 10
-102.578983207
 20
204.067452338
  0
LWPOLYLINE
  5
e6
330
1F
100
AcDbEntity
  8
main_beam2_width
100
AcDbPolyline
 90
10
 70
0
43
0.0
 10
499.920409977
 20
86.1793734039
 10
444.331906471
 20
97.1316040025
 10
388.742597903
 20
108.079743
 10
333.152471366
 20
119.023724801
 10
277.561519182
 20
129.963510383
 10
221.969739155
 20
140.899088587
 10
166.377134645
 20
151.830476481
 10
110.783714452
 20
162.757718797
 10
55.1894925329
 20
173.680886468
 10
-0.4055124427
 20
184.600074377
  0
LWPOLYLINE
  5
e7
330
1F
100
AcDbEntity
  8
main_beam2_width
100
AcDbPolyline
 90
10
 70
0
43
0.0
 10
499.959387623
 20
90.1274088298
 10
444.319538921
 20
101.060478192
 10
388.680496817
 20
111.99764696
 10
333.042274179
 20
122.938980532
 10
277.404878622
 20
133.884517617
 10
221.768312262
 20
144.834268962
 10
166.132571641
 20
155.788216991
 10
110.497647842
 20
166.746316391
 10
54.8635267844
 20
177.708495599
 10
-0.76981033149
 20
188.674659065
  0
ENDSEC
  0
SECTION
  2
OBJECTS
  0
DICTIONARY
  5
C
330
0
100
AcDbDictionary
281
     1
  3
ACAD_GROUP
350
D
  3
ACAD_LAYOUT
350
1A
  3
ACAD_MATERIAL
350
3B
  3
ACAD_MLEADERSTYLE
350
6E
  3
ACAD_MLINESTYLE
350
17
  3
ACAD_PLOTSETTINGS
350
19
  3
ACAD_PLOTSTYLENAME
350
E
  3
ACAD_TABLESTYLE
350
6D
  3
ACAD_VISUALSTYLE
350
2A
  0
SUN
  5
3F
330
29
100
AcDbSun
 90
        1
290
     0
 63
     7
421
 16777215
 40
1.0
291
     1
 91
  2455826
 92
 54000000
292
     0
 70
     2
 71
   256
280
     1
  0
DICTIONARY
  5
D
102
{ACAD_REACTORS
330
C
102
}
330
C
100
AcDbDictionary
281
     1
  0
DICTIONARY
  5
1A
102
{ACAD_REACTORS
330
C
102
}
330
C
100
AcDbDictionary
281
     1
  3
Layout1
350
1E
  3
Layout2
350
26
  3
Model
350
22
  0
DICTIONARY
  5
3B
102
{ACAD_REACTORS
330
C
102
}
330
C
100
AcDbDictionary
281
     1
  3
ByBlock
350
3D
  3
ByLayer
350
3C
  3
Global
350
3E
  0
DICTIONARY
  5
6E
102
{ACAD_REACTORS
330
C
102
}
330
C
100
AcDbDictionary
281
     1
  0
DICTIONARY
  5
17
102
{ACAD_REACTORS
330
C
102
}
330
C
100
AcDbDictionary
281
     1
  3
Standard
350
18
  0
DICTIONARY
  5
19
102
{ACAD_REACTORS
330
C
102
}
330
C
100
AcDbDictionary
281
     1
  0
ACDBDICTIONARYWDFLT
  5
E
102
{ACAD_REACTORS
330
C
102
}
330
C
100
AcDbDictionary
281
     1
  3
Normal
350
F
100
AcDbDictionaryWithDefault
340
F
  0
DICTIONARY
  5
6D
102
{ACAD_REACTORS
330
C
102
}
330
C
100
AcDbDictionary
281
     1
  0
DICTIONARY
  5
2A
102
{ACAD_REACTORS
330
C
102
}
330
C
100
AcDbDictionary
281
     1
  3
2dWireframe
350
2F
  3
3D Hidden
350
31
  3
3dWireframe
350
30
  3
Basic
350
32
  3
Brighten
350
36
  3
ColorChange
350
3A
  3
Conceptual
350
34
  3
Dim
350
35
  3
Facepattern
350
39
  3
Flat
350
2B
  3
FlatWithEdges
350
2C
  3
Gouraud
350
2D
  3
GouraudWithEdges
350
2E
  3
Linepattern
350
38
  3
Realistic
350
33
  3
Thicken
350
37
  0
LAYOUT
  5
1E
102
{ACAD_REACTORS
330
1A
102
}
330
1A
100
AcDbPlotSettings
  1

  2
none_device
  4

  6

 40
0.0
 41
0.0
 42
0.0
 43
0.0
 44
0.0
 45
0.0
 46
0.0
 47
0.0
 48
0.0
 49
0.0
140
0.0
141
0.0
142
1.0
143
1.0
 70
   688
 72
     0
 73
     0
 74
     5
  7

 75
    16
 76
     0
 77
     2
 78
   300
147
1.0
148
0.0
149
0.0
100
AcDbLayout
  1
Layout1
 70
     1
 71
     1
 10
0.0
 20
0.0
 11
420.0
 21
297.0
 12
0.0
 22
0.0
 32
0.0
 14
1.000000000000000E+20
 24
1.000000000000000E+20
 34
1.000000000000000E+20
 15
-1.000000000000000E+20
 25
-1.000000000000000E+20
 35
-1.000000000000000E+20
146
0.0
 13
0.0
 23
0.0
 33
0.0
 16
1.0
 26
0.0
 36
0.0
 17
0.0
 27
1.0
 37
0.0
 76
     0
330
1B
  0
LAYOUT
  5
26
102
{ACAD_REACTORS
330
1A
102
}
330
1A
100
AcDbPlotSettings
  1

  2
none_device
  4

  6

 40
0.0
 41
0.0
 42
0.0
 43
0.0
 44
0.0
 45
0.0
 46
0.0
 47
0.0
 48
0.0
 49
0.0
140
0.0
141
0.0
142
1.0
143
1.0
 70
   688
 72
     0
 73
     0
 74
     5
  7

 75
    16
 76
     0
 77
     2
 78
   300
147
1.0
148
0.0
149
0.0
100
AcDbLayout
  1
Layout2
 70
     1
 71
     2
 10
0.0
 20
0.0
 11
0.0
 21
0.0
 12
0.0
 22
0.0
 32
0.0
 14
0.0
 24
0.0
 34
0.0
 15
0.0
 25
0.0
 35
0.0
146
0.0
 13
0.0
 23
0.0
 33
0.0
 16
1.0
 26
0.0
 36
0.0
 17
0.0
 27
1.0
 37
0.0
 76
     0
330
23
  0
LAYOUT
  5
22
102
{ACAD_REACTORS
330
1A
102
}
330
1A
100
AcDbPlotSettings
  1

  2
none_device
  4

  6

 40
0.0
 41
0.0
 42
0.0
 43
0.0
 44
0.0
 45
0.0
 46
0.0
 47
0.0
 48
0.0
 49
0.0
140
0.0
141
0.0
142
1.0
143
1.0
 70
  1712
 72
     0
 73
     0
 74
     0
  7

 75
     0
 76
     0
 77
     2
 78
   300
147
1.0
148
0.0
149
0.0
100
AcDbLayout
  1
Model
 70
     1
 71
     0
 10
0.0
 20
0.0
 11
420.0
 21
297.0
 12
0.0
 22
0.0
 32
0.0
 14
1.0
 24
0.0
 34
0.0
 15
73.0
 25
41.0
 35
0.0
146
0.0
 13
0.0
 23
0.0
 33
0.0
 16
1.0
 26
0.0
 36
0.0
 17
0.0
 27
1.0
 37
0.0
 76
     0
330
1F
331
29
  0
MATERIAL
  5
3D
102
{ACAD_REACTORS
330
3B
102
}
330
3B
100
AcDbMaterial
  1
ByBlock
 72
     1
 94
      127
  0
MATERIAL
  5
3C
102
{ACAD_REACTORS
330
3B
102
}
330
3B
100
AcDbMaterial
  1
ByLayer
 72
     1
 94
      127
  0
MATERIAL
  5
3E
102
{ACAD_REACTORS
330
3B
102
}
330
3B
100
AcDbMaterial
  1
Global
 72
     1
 94
      127
  0
MLINESTYLE
  5
18
102
{ACAD_REACTORS
330
17
102
}
330
17
100
AcDbMlineStyle
  2
Standard
 70
     0
  3

 62
   256
 51
90.0
 52
90.0
 71
     2
 49
0.5
 62
   256
  6
BYLAYER
 49
-0.5
 62
   256
  6
BYLAYER
  0
ACDBPLACEHOLDER
  5
F
102
{ACAD_REACTORS
330
E
102
}
330
E
  0
VISUALSTYLE
  5
2F
102
{ACAD_REACTORS
330
2A
102
}
330
2A
100
AcDbVisualStyle
  2
2dWireframe
 70
     4
177
     2
291
     0
 71
     0
176
     1
 72
     2
176
     1
 73
     0
176
     1
 90
        0
176
     1
 40
-0.6
176
     1
 41
-30.0
176
     1
 62
     5
 63
     7
421
 16777215
176
     1
 74
     1
176
     1
 91
        4
176
     1
 64
     7
176
     1
 65
   257
176
     1
 75
     1
176
     1
175
     1
176
     1
 42
1.0
176
     1
 92
        0
176
     1
 66
   257
176
     1
 43
1.0
176
     1
 76
     1
176
     1
 77
     6
176
     1
 78
     2
176
     1
 67
     7
176
     1
 79
     5
176
     1
170
     0
176
     1
171
     0
176
     1
290
     0
176
     1
 93
        1
176
     1
 44
0.0
176
     1
173
     0
176
     1
  0
VISUALSTYLE
  5
31
102
{ACAD_REACTORS
330
2A
102
}
330
2A
100
AcDbVisualStyle
  2
3D Hidden
 70
     6
177
     2
291
     0
 71
     1
176
     1
 72
     2
176
     1
 73
     2
176
     1
 90
        0
176
     1
 40
-0.6
176
     1
 41
-30.0
176
     1
 62
     5
 63
     7
421
 16777215
176
     1
 74
     2
176
     1
 91
        2
176
     1
 64
     7
176
     1
 65
   257
176
     1
 75
     2
176
     1
175
     1
176
     1
 42
40.0
176
     1
 92
        0
176
     1
 66
   257
176
     1
 43
1.0
176
     1
 76
     1
176
     1
 77
     6
176
     1
 78
     2
176
     1
 67
     7
176
     1
 79
     3
176
     1
170
     0
176
     1
171
     0
176
     1
290
     0
176
     1
 93
        1
176
     1
 44
0.0
176
     1
173
     0
176
     1
  0
VISUALSTYLE
  5
30
102
{ACAD_REACTORS
330
2A
102
}
330
2A
100
AcDbVisualStyle
  2
3dWireframe
 70
     5
177
     2
291
     0
 71
     0
176
     1
 72
     2
176
     1
 73
     0
176
     1
 90
        0
176
     1
 40
-0.6
176
     1
 41
-30.0
176
     1
 62
     5
 63
     7
421
 16777215
176
     1
 74
     1
176
     1
 91
        4
176
     1
 64
     7
176
     1
 65
   257
176
     1
 75
     1
176
     1
175
     1
176
     1
 42
1.0
176
     1
 92
        0
176
     1
 66
   257
176
     1
 43
1.0
176
     1
 76
     1
176
     1
 77
     6
176
     1
 78
     2
176
     1
 67
     7
176
     1
 79
     5
176
     1
170
     0
176
     1
171
     0
176
     1
290
     0
176
     1
 93
        1
176
     1
 44
0.0
176
     1
173
     0
176
     1
  0
VISUALSTYLE
  5
32
102
{ACAD_REACTORS
330
2A
102
}
330
2A
100
AcDbVisualStyle
  2
Basic
 70
     7
177
     2
291
     1
 71
     1
176
     1
 72
     0
176
     1
 73
     1
176
     1
 90
        0
176
     1
 40
-0.6
176
     1
 41
-30.0
176
     1
 62
     5
 63
     7
421
 16777215
176
     1
 74
     0
176
     1
 91
        4
176
     1
 64
     7
176
     1
 65
   257
176
     1
 75
     1
176
     1
175
     1
176
     1
 42
1.0
176
     1
 92
        8
176
     1
 66
     7
176
     1
 43
1.0
176
     1
 76
     1
176
     1
 77
     6
176
     1
 78
     2
176
     1
 67
     7
176
     1
 79
     5
176
     1
170
     0
176
     1
171
     0
176
     1
290
     0
176
     1
 93
        1
176
     1
 44
0.0
176
     1
173
     0
176
     1
  0
VISUALSTYLE
  5
36
102
{ACAD_REACTORS
330
2A
102
}
330
2A
100
AcDbVisualStyle
  2
Brighten
 70
    12
177
     2
291
     1
 71
     2
176
     1
 72
     2
176
     1
 73
     0
176
     1
 90
        0
176
     1
 40
-0.6
176
     1
 41
-30.0
176
     1
 62
     5
 63
     7
421
 16777215
176
     1
 74
     1
176
     1
 91
        4
176
     1
 64
     7
176
     1
 65
   257
176
     1
 75
     1
176
     1
175
     1
176
     1
 42
1.0
176
     1
 92
        8
176
     1
 66
     7
176
     1
 43
1.0
176
     1
 76
     1
176
     1
 77
     6
176
     1
 78
     2
176
     1
 67
     7
176
     1
 79
     5
176
     1
170
     0
176
     1
171
     0
176
     1
290
     0
176
     1
 93
        1
176
     1
 44
50.0
176
     1
173
     0
176
     1
  0
VISUALSTYLE
  5
3A
102
{ACAD_REACTORS
330
2A
102
}
330
2A
100
AcDbVisualStyle
  2
ColorChange
 70
    16
177
     2
291
     1
 71
     2
176
     1
 72
     2
176
     1
 73
     3
176
     1
 90
        0
176
     1
 40
-0.6
176
     1
 41
-30.0
176
     1
 62
     5
 63
     8
421
  8421504
176
     1
 74
     1
176
     1
 91
        4
176
     1
 64
     7
176
     1
 65
   257
176
     1
 75
     1
176
     1
175
     1
176
     1
 42
1.0
176
     1
 92
        8
176
     1
 66
     8
424
  8421504
176
     1
 43
1.0
176
     1
 76
     1
176
     1
 77
     6
176
     1
 78
     2
176
     1
 67
     7
176
     1
 79
     5
176
     1
170
     0
176
     1
171
     0
176
     1
290
     0
176
     1
 93
        1
176
     1
 44
0.0
176
     1
173
     0
176
     1
  0
VISUALSTYLE
  5
34
102
{ACAD_REACTORS
330
2A
102
}
330
2A
100
AcDbVisualStyle
  2
Conceptual
 70
     9
177
     2
291
     0
 71
     3
176
     1
 72
     2
176
     1
 73
     0
176
     1
 90
        0
176
     1
 40
-0.6
176
     1
 41
-30.0
176
     1
 62
     5
 63
     7
421
 16777215
176
     1
 74
     2
176
     1
 91
        2
176
     1
 64
     7
176
     1
 65
   257
176
     1
 75
     1
176
     1
175
     1
176
     1
 42
40.0
176
     1
 92
        8
176
     1
 66
     7
176
     1
 43
1.0
176
     1
 76
     1
176
     1
 77
     6
176
     1
 78
     2
176
     1
 67
     7
176
     1
 79
     3
176
     1
170
     0
176
     1
171
     0
176
     1
290
     0
176
     1
 93
        1
176
     1
 44
0.0
176
     1
173
     0
176
     1
  0
VISUALSTYLE
  5
35
102
{ACAD_REACTORS
330
2A
102
}
330
2A
100
AcDbVisualStyle
  2
Dim
 70
    11
177
     2
291
     1
 71
     2
176
     1
 72
     2
176
     1
 73
     0
176
     1
 90
        0
176
     1
 40
-0.6
176
     1
 41
-30.0
176
     1
 62
     5
 63
     7
421
 16777215
176
     1
 74
     1
176
     1
 91
        4
176
     1
 64
     7
176
     1
 65
   257
176
     1
 75
     1
176
     1
175
     1
176
     1
 42
1.0
176
     1
 92
        8
176
     1
 66
     7
176
     1
 43
1.0
176
     1
 76
     1
176
     1
 77
     6
176
     1
 78
     2
176
     1
 67
     7
176
     1
 79
     5
176
     1
170
     0
176
     1
171
     0
176
     1
290
     0
176
     1
 93
        1
176
     1
 44
-50.0
176
     1
173
     0
176
     1
  0
VISUALSTYLE
  5
39
102
{ACAD_REACTORS
330
2A
102
}
330
2A
100
AcDbVisualStyle
  2
Facepattern
 70
    15
177
     2
291
     1
 71
     2
176
     1
 72
     2
176
     1
 73
     0
176
     1
 90
        0
176
     1
 40
-0.6
176
     1
 41
-30.0
176
     1
 62
     5
 63
     7
421
 16777215
176
     1
 74
     1
176
     1
 91
        4
176
     1
 64
     7
176
     1
 65
   257
176
     1
 75
     1
176
     1
175
     1
176
     1
 42
1.0
176
     1
 92
        8
176
     1
 66
     7
176
     1
 43
1.0
176
     1
 76
     1
176
     1
 77
     6
176
     1
 78
     2
176
     1
 67
     7
176
     1
 79
     5
176
     1
170
     0
176
     1
171
     0
176
     1
290
     0
176
     1
 93
        1
176
     1
 44
0.0
176
     1
173
     0
176
     1
  0
VISUALSTYLE
  5
2B
102
{ACAD_REACTORS
330
2A
102
}
330
2A
100
AcDbVisualStyle
  2
Flat
 70
     0
177
     2
291
     1
 71
     2
176
     1
 72
     1
176
     1
 73
     1
176
     1
 90
        2
176
     1
 40
-0.6
176
     1
 41
30.0
176
     1
 62
     5
 63
     7
421
 16777215
176
     1
 74
     0
176
     1
 91
        4
176
     1
 64
     7
176
     1
 65
   257
176
     1
 75
     1
176
     1
175
     1
176
     1
 42
1.0
176
     1
 92
        8
176
     1
 66
     7
176
     1
 43
1.0
176
     1
 76
     1
176
     1
 77
     6
176
     1
 78
     2
176
     1
 67
     7
176
     1
 79
     5
176
     1
170
     0
176
     1
171
     0
176
     1
290
     0
176
     1
 93
       13
176
     1
 44
0.0
176
     1
173
     0
176
     1
  0
VISUALSTYLE
  5
2C
102
{ACAD_REACTORS
330
2A
102
}
330
2A
100
AcDbVisualStyle
  2
FlatWithEdges
 70
     1
177
     2
291
     1
 71
     2
176
     1
 72
     1
176
     1
 73
     1
176
     1
 90
        2
176
     1
 40
-0.6
176
     1
 41
30.0
176
     1
 62
     5
 63
     7
421
 16777215
176
     1
 74
     1
176
     1
 91
        4
176
     1
 64
     7
176
     1
 65
   257
176
     1
 75
     1
176
     1
175
     1
176
     1
 42
1.0
176
     1
 92
        0
176
     1
 66
   257
176
     1
 43
1.0
176
     1
 76
     1
176
     1
 77
     6
176
     1
 78
     2
176
     1
 67
     7
176
     1
 79
     5
176
     1
170
     0
176
     1
171
     0
176
     1
290
     0
176
     1
 93
       13
176
     1
 44
0.0
176
     1
173
     0
176
     1
  0
VISUALSTYLE
  5
2D
102
{ACAD_REACTORS
330
2A
102
}
330
2A
100
AcDbVisualStyle
  2
Gouraud
 70
     2
177
     2
291
     1
 71
     2
176
     1
 72
     2
176
     1
 73
     1
176
     1
 90
        2
176
     1
 40
-0.6
176
     1
 41
30.0
176
     1
 62
     5
 63
     7
421
 16777215
176
     1
 74
     0
176
     1
 91
        4
176
     1
 64
     7
176
     1
 65
   257
176
     1
 75
     1
176
     1
175
     1
176
     1
 42
1.0
176
     1
 92
        0
176
     1
 66
     7
176
     1
 43
1.0
176
     1
 76
     1
176
     1
 77
     6
176
     1
 78
     2
176
     1
 67
     7
176
     1
 79
     5
176
     1
170
     0
176
     1
171
     0
176
     1
290
     0
176
     1
 93
       13
176
     1
 44
0.0
176
     1
173
     0
176
     1
  0
VISUALSTYLE
  5
2E
102
{ACAD_REACTORS
330
2A
102
}
330
2A
100
AcDbVisualStyle
  2
GouraudWithEdges
 70
     3
177
     2
291
     1
 71
     2
176
     1
 72
     2
176
     1
 73
     1
176
     1
 90
        2
176
     1
 40
-0.6
176
     1
 41
30.0
176
     1
 62
     5
 63
     7
421
 16777215
176
     1
 74
     1
176
     1
 91
        4
176
     1
 64
     7
176
     1
 65
   257
176
     1
 75
     1
176
     1
175
     1
176
     1
 42
1.0
176
     1
 92
        0
176
     1
 66
   257
176
     1
 43
1.0
176
     1
 76
     1
176
     1
 77
     6
176
     1
 78
     2
176
     1
 67
     7
176
     1
 79
     5
176
     1
170
     0
176
     1
171
     0
176
     1
290
     0
176
     1
 93
       13
176
     1
 44
0.0
176
     1
173
     0
176
     1
  0
VISUALSTYLE
  5
38
102
{ACAD_REACTORS
330
2A
102
}
330
2A
100
AcDbVisualStyle
  2
Linepattern
 70
    14
177
     2
291
     1
 71
     2
176
     1
 72
     2
176
     1
 73
     0
176
     1
 90
        0
176
     1
 40
-0.6
176
     1
 41
-30.0
176
     1
 62
     5
 63
     7
421
 16777215
176
     1
 74
     1
176
     1
 91
        4
176
     1
 64
     7
176
     1
 65
   257
176
     1
 75
     7
176
     1
175
     7
176
     1
 42
1.0
176
     1
 92
        8
176
     1
 66
     7
176
     1
 43
1.0
176
     1
 76
     1
176
     1
 77
     6
176
     1
 78
     2
176
     1
 67
     7
176
     1
 79
     5
176
     1
170
     0
176
     1
171
     0
176
     1
290
     0
176
     1
 93
        1
176
     1
 44
0.0
176
     1
173
     0
176
     1
  0
VISUALSTYLE
  5
33
102
{ACAD_REACTORS
330
2A
102
}
330
2A
100
AcDbVisualStyle
  2
Realistic
 70
     8
177
     2
291
     0
 71
     2
176
     1
 72
     2
176
     1
 73
     0
176
     1
 90
        0
176
     1
 40
-0.6
176
     1
 41
-30.0
176
     1
 62
     5
 63
     7
421
 16777215
176
     1
 74
     1
176
     1
 91
        0
176
     1
 64
     7
176
     1
 65
   257
176
     1
 75
     1
176
     1
175
     1
176
     1
 42
1.0
176
     1
 92
        8
176
     1
 66
     8
424
  7895160
176
     1
 43
1.0
176
     1
 76
     1
176
     1
 77
     6
176
     1
 78
     2
176
     1
 67
     7
176
     1
 79
     5
176
     1
170
     0
176
     1
171
     0
176
     1
290
     0
176
     1
 93
       13
176
     1
 44
0.0
176
     1
173
     0
176
     1
  0
VISUALSTYLE
  5
37
102
{ACAD_REACTORS
330
2A
102
}
330
2A
100
AcDbVisualStyle
  2
Thicken
 70
    13
177
     2
291
     1
 71
     2
176
     1
 72
     2
176
     1
 73
     0
176
     1
 90
        0
176
     1
 40
-0.6
176
     1
 41
-30.0
176
     1
 62
     5
 63
     7
421
 16777215
176
     1
 74
     1
176
     1
 91
        4
176
     1
 64
     7
176
     1
 65
   257
176
     1
 75
     1
176
     1
175
     1
176
     1
 42
1.0
176
     1
 92
       12
176
     1
 66
     7
176
     1
 43
1.0
176
     1
 76
     1
176
     1
 77
     6
176
     1
 78
     2
176
     1
 67
     7
176
     1
 79
     5
176
     1
170
     0
176
     1
171
     0
176
     1
290
     0
176
     1
 93
        1
176
     1
 44
0.0
176
     1
173
     0
176
     1
  0
ENDSEC
0
EOF
