  0
SECTION
  2
HEADER
  9
$ACADVER
  1
AC1024
  9
$ACADMAINTVER
 70
     6
  9
$DWGCODEPAGE
  3
ANSI_1252
  9
$INSBASE
 10
0.0
 20
0.0
 30
0.0
  9
$EXTMIN
 10
-304.95000726872485
 20
-69.10269095378821
 30
0.0
  9
$EXTMAX
 10
315.98247439908783
 20
26458.750859404943
 30
0.0
  9
$LIMMIN
 10
-304.95000726872485
 20
-69.10269095378821
  9
$LIMMAX
 10
315.98247439908783
 20
26458.750859404943
  9
$ORTHOMODE
 70
     0
  9
$REGENMODE
 70
     1
  9
$FILLMODE
 70
     1
  9
$QTEXTMODE
 70
     0
  9
$MIRRTEXT
 70
     1
  9
$LTSCALE
 40
1.0
  9
$ATTMODE
 70
     1
  9
$TEXTSIZE
 40
2.5
  9
$TRACEWID
 40
1.0
  9
$TEXTSTYLE
  7
Standard
  9
$CLAYER
  8
Outline
  9
$CELTYPE
  6
ByLayer
  9
$CECOLOR
 62
   256
  9
$CELTSCALE
 40
1.0
  9
$DISPSILH
 70
     0
  9
$DIMSCALE
 40
1.0
  9
$DIMASZ
 40
2.5
  9
$DIMEXO
 40
0.625
  9
$DIMDLI
 40
3.75
  9
$DIMRND
 40
0.0
  9
$DIMDLE
 40
0.0
  9
$DIMEXE
 40
1.25
  9
$DIMTP
 40
0.0
  9
$DIMTM
 40
0.0
  9
$DIMTXT
 40
2.5
  9
$DIMCEN
 40
2.5
  9
$DIMTSZ
 40
0.0
  9
$DIMTOL
 70
     0
  9
$DIMLIM
 70
     0
  9
$DIMTIH
 70
     0
  9
$DIMTOH
 70
     0
  9
$DIMSE1
 70
     0
  9
$DIMSE2
 70
     0
  9
$DIMTAD
 70
     1
  9
$DIMZIN
 70
     8
  9
$DIMBLK
  1

  9
$DIMASO
 70
     1
  9
$DIMSHO
 70
     1
  9
$DIMPOST
  1

  9
$DIMAPOST
  1

  9
$DIMALT
 70
     0
  9
$DIMALTD
 70
     3
  9
$DIMALTF
 40
0.03937007874016
  9
$DIMLFAC
 40
1.0
  9
$DIMTOFL
 70
     1
  9
$DIMTVP
 40
0.0
  9
$DIMTIX
 70
     0
  9
$DIMSOXD
 70
     0
  9
$DIMSAH
 70
     0
  9
$DIMBLK1
  1

  9
$DIMBLK2
  1

  9
$DIMSTYLE
  2
ISO-25
  9
$DIMCLRD
 70
     0
  9
$DIMCLRE
 70
     0
  9
$DIMCLRT
 70
     0
  9
$DIMTFAC
 40
1.0
  9
$DIMGAP
 40
0.625
  9
$DIMJUST
 70
     0
  9
$DIMSD1
 70
     0
  9
$DIMSD2
 70
     0
  9
$DIMTOLJ
 70
     0
  9
$DIMTZIN
 70
     8
  9
$DIMALTZ
 70
     0
  9
$DIMALTTZ
 70
     0
  9
$DIMUPT
 70
     0
  9
$DIMDEC
 70
     2
  9
$DIMTDEC
 70
     2
  9
$DIMALTU
 70
     2
  9
$DIMALTTD
 70
     3
  9
$DIMTXSTY
  7
Standard
  9
$DIMAUNIT
 70
     0
  9
$DIMADEC
 70
     0
  9
$DIMALTRND
 40
0.0
  9
$DIMAZIN
 70
     0
  9
$DIMDSEP
 70
    44
  9
$DIMATFIT
 70
     3
  9
$DIMFRAC
 70
     0
  9
$DIMLDRBLK
  1

  9
$DIMLUNIT
 70
     2
  9
$DIMLWD
 70
    -2
  9
$DIMLWE
 70
    -2
  9
$DIMTMOVE
 70
     0
  9
$DIMFXL
 40
1.0
  9
$DIMFXLON
 70
     0
  9
$DIMJOGANG
 40
0.7853981633974483
  9
$DIMTFILL
 70
     0
  9
$DIMTFILLCLR
 70
     0
  9
$DIMARCSYM
 70
     0
  9
$DIMLTYPE
  6

  9
$DIMLTEX1
  6

  9
$DIMLTEX2
  6

  9
$DIMTXTDIRECTION
 70
     0
  9
$LUNITS
 70
     2
  9
$LUPREC
 70
     4
  9
$SKETCHINC
 40
1.0
  9
$FILLETRAD
 40
10.0
  9
$AUNITS
 70
     0
  9
$AUPREC
 70
     0
  9
$MENU
  1
.
  9
$ELEVATION
 40
0.0
  9
$PELEVATION
 40
0.0
  9
$THICKNESS
 40
0.0
  9
$LIMCHECK
 70
     0
  9
$CHAMFERA
 40
10.0
  9
$CHAMFERB
 40
10.0
  9
$CHAMFERC
 40
20.0
  9
$CHAMFERD
 40
0.0
  9
$SKPOLY
 70
     0
  9
$TDCREATE
 40
2456231.748506945
  9
$TDUCREATE
 40
2456231.373506945
  9
$TDUPDATE
 40
2456231.748506945
  9
$TDUUPDATE
 40
2456231.373506945
  9
$TDINDWG
 40
0.0000000116
  9
$TDUSRTIMER
 40
0.0000000116
  9
$USRTIMER
 70
     1
  9
$ANGBASE
 50
0.0
  9
$ANGDIR
 70
     0
  9
$PDMODE
 70
     0
  9
$PDSIZE
 40
0.0
  9
$PLINEWID
 40
0.0
  9
$SPLFRAME
 70
     0
  9
$SPLINETYPE
 70
     6
  9
$SPLINESEGS
 70
     8
  9
$HANDSEED
  5
6F
  9
$SURFTAB1
 70
     6
  9
$SURFTAB2
 70
     6
  9
$SURFTYPE
 70
     6
  9
$SURFU
 70
     6
  9
$SURFV
 70
     6
  9
$UCSBASE
  2

  9
$UCSNAME
  2

  9
$UCSORG
 10
0.0
 20
0.0
 30
0.0
  9
$UCSXDIR
 10
1.0
 20
0.0
 30
0.0
  9
$UCSYDIR
 10
0.0
 20
1.0
 30
0.0
  9
$UCSORTHOREF
  2

  9
$UCSORTHOVIEW
 70
     0
  9
$UCSORGTOP
 10
0.0
 20
0.0
 30
0.0
  9
$UCSORGBOTTOM
 10
0.0
 20
0.0
 30
0.0
  9
$UCSORGLEFT
 10
0.0
 20
0.0
 30
0.0
  9
$UCSORGRIGHT
 10
0.0
 20
0.0
 30
0.0
  9
$UCSORGFRONT
 10
0.0
 20
0.0
 30
0.0
  9
$UCSORGBACK
 10
0.0
 20
0.0
 30
0.0
  9
$PUCSBASE
  2

  9
$PUCSNAME
  2

  9
$PUCSORG
 10
0.0
 20
0.0
 30
0.0
  9
$PUCSXDIR
 10
1.0
 20
0.0
 30
0.0
  9
$PUCSYDIR
 10
0.0
 20
1.0
 30
0.0
  9
$PUCSORTHOREF
  2

  9
$PUCSORTHOVIEW
 70
     0
  9
$PUCSORGTOP
 10
0.0
 20
0.0
 30
0.0
  9
$PUCSORGBOTTOM
 10
0.0
 20
0.0
 30
0.0
  9
$PUCSORGLEFT
 10
0.0
 20
0.0
 30
0.0
  9
$PUCSORGRIGHT
 10
0.0
 20
0.0
 30
0.0
  9
$PUCSORGFRONT
 10
0.0
 20
0.0
 30
0.0
  9
$PUCSORGBACK
 10
0.0
 20
0.0
 30
0.0
  9
$USERI1
 70
     0
  9
$USERI2
 70
     0
  9
$USERI3
 70
     0
  9
$USERI4
 70
     0
  9
$USERI5
 70
     0
  9
$USERR1
 40
0.0
  9
$USERR2
 40
0.0
  9
$USERR3
 40
0.0
  9
$USERR4
 40
0.0
  9
$USERR5
 40
0.0
  9
$WORLDVIEW
 70
     1
  9
$SHADEDGE
 70
     3
  9
$SHADEDIF
 70
    70
  9
$TILEMODE
 70
     1
  9
$MAXACTVP
 70
    64
  9
$PINSBASE
 10
0.0
 20
0.0
 30
0.0
  9
$PLIMCHECK
 70
     0
  9
$PEXTMIN
 10
1.000000000000000E+20
 20
1.000000000000000E+20
 30
1.000000000000000E+20
  9
$PEXTMAX
 10
-1.000000000000000E+20
 20
-1.000000000000000E+20
 30
-1.000000000000000E+20
  9
$PLIMMIN
 10
0.0
 20
0.0
  9
$PLIMMAX
 10
420.0
 20
297.0
  9
$UNITMODE
 70
     0
  9
$VISRETAIN
 70
     1
  9
$PLINEGEN
 70
     0
  9
$PSLTSCALE
 70
     1
  9
$TREEDEPTH
 70
  3020
  9
$CMLSTYLE
  2
Standard
  9
$CMLJUST
 70
     0
  9
$CMLSCALE
 40
20.0
  9
$PROXYGRAPHICS
 70
     1
  9
$MEASUREMENT
 70
     1
  9
$CELWEIGHT
370
    -1
  9
$ENDCAPS
280
     0
  9
$JOINSTYLE
280
     0
  9
$LWDISPLAY
290
     0
  9
$INSUNITS
 70
     4
  9
$HYPERLINKBASE
  1

  9
$STYLESHEET
  1

  9
$XEDIT
290
     1
  9
$CEPSNTYPE
380
     0
  9
$PSTYLEMODE
290
     1
  9
$FINGERPRINTGUID
  2
{92905EEA-4798-D3AF-0738-BBE039DCC74E}
  9
$VERSIONGUID
  2
{FAEB1C32-E019-11D5-929B-00C0DF256EC4}
  9
$EXTNAMES
290
     1
  9
$PSVPSCALE
 40
0.0
  9
$OLESTARTUP
290
     0
  9
$SORTENTS
280
   127
  9
$INDEXCTL
280
     0
  9
$HIDETEXT
280
     1
  9
$XCLIPFRAME
280
     2
  9
$HALOGAP
280
     0
  9
$OBSCOLOR
 70
   257
  9
$OBSLTYPE
280
     0
  9
$INTERSECTIONDISPLAY
280
     0
  9
$INTERSECTIONCOLOR
 70
   257
  9
$DIMASSOC
280
     2
  9
$PROJECTNAME
  1

  9
$CAMERADISPLAY
290
     0
  9
$LENSLENGTH
 40
50.0
  9
$CAMERAHEIGHT
 40
0.0
  9
$STEPSPERSEC
 40
2.0
  9
$STEPSIZE
 40
6.0
  9
$3DDWFPREC
 40
2.0
  9
$PSOLWIDTH
 40
5.0
  9
$PSOLHEIGHT
 40
80.0
  9
$LOFTANG1
 40
1.570796326794897
  9
$LOFTANG2
 40
1.570796326794897
  9
$LOFTMAG1
 40
0.0
  9
$LOFTMAG2
 40
0.0
  9
$LOFTPARAM
 70
     7
  9
$LOFTNORMALS
280
     1
  9
$LATITUDE
 40
37.795
  9
$LONGITUDE
 40
-122.394
  9
$NORTHDIRECTION
 40
0.0
  9
$TIMEZONE
 70
 -8000
  9
$LIGHTGLYPHDISPLAY
280
     1
  9
$TILEMODELIGHTSYNCH
280
     1
  9
$CMATERIAL
347
3C
  9
$SOLIDHIST
280
     1
  9
$SHOWHIST
280
     1
  9
$DWFFRAME
280
     2
  9
$DGNFRAME
280
     2
  9
$REALWORLDSCALE
290
     1
  9
$INTERFERECOLOR
 62
   256
  9
$CSHADOW
280
     0
  9
$SHADOWPLANELOCATION
 40
0.0
  0
ENDSEC
  0
SECTION
  2
CLASSES
  0
CLASS
  1
ACDBDICTIONARYWDFLT
  2
AcDbDictionaryWithDefault
  3
ObjectDBX Classes
 90
        0
 91
        4
280
     0
281
     0
  0
CLASS
  1
VISUALSTYLE
  2
AcDbVisualStyle
  3
ObjectDBX Classes
 90
     4095
 91
        4
280
     0
281
     0
  0
CLASS
  1
MATERIAL
  2
AcDbMaterial
  3
ObjectDBX Classes
 90
     1153
 91
        4
280
     0
281
     0
  0
CLASS
  1
SUN
  2
AcDbSun
  3
SCENEOE
 90
     1024
 91
        4
280
     0
281
     0
  0
ENDSEC
  0
SECTION
  2
TABLES
  0
TABLE
  2
VPORT
  5
8
330
0
100
AcDbSymbolTable
 70
     1
  0
VPORT
  5
29
330
8
100
AcDbSymbolTableRecord
100
AcDbViewportTableRecord
  2
*Active
 70
     0
 10
0.0
 20
0.0
 11
1.0
 21
1.0
 12
360.5069142256372
 22
77.37740091485402
 13
0.0
 23
0.0
 14
10.0
 24
10.0
 15
10.0
 25
10.0
 16
0.0
 26
0.0
 36
1.0
 17
0.0
 27
0.0
 37
0.0
 40
643.00113180099
 41
2.116173120728929
 42
50.0
 43
0.0
 44
0.0
 50
0.0
 51
0.0
 71
     0
 72
   100
 73
     1
 74
     3
 75
     0
 76
     0
 77
     0
 78
     0
281
     0
 65
     1
110
0.0
120
0.0
130
0.0
111
1.0
121
0.0
131
0.0
112
0.0
122
1.0
132
0.0
 79
     0
146
0.0
 60
     3
 61
     5
292
     1
282
     1
141
0.0
142
0.0
 63
   250
361
3F
  0
ENDTAB
  0
TABLE
  2
LTYPE
  5
5
330
0
100
AcDbSymbolTable
 70
     7
  0
LTYPE
  5
14
330
5
100
AcDbSymbolTableRecord
100
AcDbLinetypeTableRecord
  2
ByBlock
 70
     0
  3

 72
    65
 73
     0
 40
0.0
  0
LTYPE
  5
15
330
5
100
AcDbSymbolTableRecord
100
AcDbLinetypeTableRecord
  2
ByLayer
 70
     0
  3

 72
    65
 73
     0
 40
0.0
  0
LTYPE
  5
16
330
5
100
AcDbSymbolTableRecord
100
AcDbLinetypeTableRecord
  2
Continuous
 70
     0
  3
Solid line
 72
    65
 73
     0
 40
0.0
  0
LTYPE
  5
40
330
5
100
AcDbSymbolTableRecord
100
AcDbLinetypeTableRecord
  2
DOT
 70
     0
  3
Dot . . . . . . . . . . . . . . . . . . . . . . . .
 72
    65
 73
     2
 40
2.032
 49
1.016
 74
     0
 49
-1.016
 74
     0
  0
LTYPE
  5
41
330
5
100
AcDbSymbolTableRecord
100
AcDbLinetypeTableRecord
  2
CENTER
 70
     0
  3
Center ____ _ ____ _ ____ _ ____ _ ____ _ ____
 72
    65
 73
     4
 40
13.208
 49
8.128
 74
     0
 49
-1.524
 74
     0
 49
2.032
 74
     0
 49
-1.524
 74
     0
  0
LTYPE
  5
42
330
5
100
AcDbSymbolTableRecord
100
AcDbLinetypeTableRecord
  2
HIDDEN2
 70
     0
  3
Hidden (.5x) _ _ _ _ _ _ _ _ _ _ _ _ _ _ _ _ _
 72
    65
 73
     2
 40
4.762499999999999
 49
3.175
 74
     0
 49
-1.5875
 74
     0
  0
LTYPE
  5
43
330
5
100
AcDbSymbolTableRecord
100
AcDbLinetypeTableRecord
  2
DASHED
 70
     0
  3
Dashed __ __ __ __ __ __ __ __ __ __ __ __ __ _
 72
    65
 73
     2
 40
9.652
 49
8.128
 74
     0
 49
-1.524
 74
     0
  0
LTYPE
  5
44
330
5
100
AcDbSymbolTableRecord
100
AcDbLinetypeTableRecord
  2
PHANTOM2
 70
     0
  3
Phantom (.5x) ___ _ _ ___ _ _ ___ _ _ ___ _ _
 72
    65
 73
     6
 40
14.732
 49
8.128
 74
     0
 49
-1.524
 74
     0
 49
1.016
 74
     0
 49
-1.524
 74
     0
 49
1.016
 74
     0
 49
-1.524
 74
     0
  0
LTYPE
  5
45
330
5
100
AcDbSymbolTableRecord
100
AcDbLinetypeTableRecord
  2
DASHDOT
 70
     0
  3
Dash dot __ . __ . __ . __ . __ . __ . __ . __
 72
    65
 73
     4
 40
11.176
 49
8.128
 74
     0
 49
-1.524
 74
     0
 49
0.0
 74
     0
 49
-1.524
 74
     0
  0
ENDTAB
  0
TABLE
  2
LAYER
  5
2
330
0
100
AcDbSymbolTable
 70
     7
  0
LAYER
  5
10
330
2
100
AcDbSymbolTableRecord
100
AcDbLayerTableRecord
  2
0
 70
     0
 62
     5
  6
Continuous
370
    -3
390
F
347
3E
  0
LAYER
  5
46
330
2
100
AcDbSymbolTableRecord
100
AcDbLayerTableRecord
  2
Default
 70
     0
 62
     255
  6
Continuous
370
    -3
390
F
347
3E
  0
LAYER
  5
78
330
2
100
AcDbSymbolTableRecord
100
AcDbLayerTableRecord
  2
main_beam
 70
0
 62
255
  6
Continuous
370
    -3
390
F
347
3E
  0
LAYER
  5
82
330
2
100
AcDbSymbolTableRecord
100
AcDbLayerTableRecord
  2
main_beam_width
 70
0
 62
255
  6
Continuous
370
    -3
390
F
347
3E
  0
LAYER
  5
95
330
2
100
AcDbSymbolTableRecord
100
AcDbLayerTableRecord
  2
Mirrors
 70
0
 62
255
  6
Continuous
370
    -3
390
F
347
3E
  0
LAYER
  5
a5
330
2
100
AcDbSymbolTableRecord
100
AcDbLayerTableRecord
  2
text
 70
0
 62
255
  6
Continuous
370
    -3
390
F
347
3E
  0
ENDTAB
  0
TABLE
  2
STYLE
  5
3
330
0
100
AcDbSymbolTable
 70
    33
  0
STYLE
  5
11
330
3
100
AcDbSymbolTableRecord
100
AcDbTextStyleTableRecord
  2
Standard
 70
     0
 40
0.0
 41
1.0
 50
0.0
 71
     0
 42
2.5
  3
txt
  4

  0
ENDTAB
  0
TABLE
  2
VIEW
  5
6
330
0
100
AcDbSymbolTable
 70
     0
  0
ENDTAB
  0
TABLE
  2
UCS
  5
7
330
0
100
AcDbSymbolTable
 70
     0
  0
ENDTAB
  0
TABLE
  2
APPID
  5
9
330
0
100
AcDbSymbolTable
 70
     1
  0
APPID
  5
12
330
9
100
AcDbSymbolTableRecord
100
AcDbRegAppTableRecord
  2
ACAD
 70
     0
  0
ENDTAB
  0
TABLE
  2
DIMSTYLE
  5
A
330
0
100
AcDbSymbolTable
 70
     1
100
AcDbDimStyleTable
  0
DIMSTYLE
105
27
330
A
100
AcDbSymbolTableRecord
100
AcDbDimStyleTableRecord
  2
ISO-25
 70
     0
 41
2.5
 42
0.625
 43
3.75
 44
1.25
 73
     0
 74
     0
 77
     1
 78
     8
140
2.5
141
2.5
143
0.03937007874016
147
0.625
171
     3
172
     1
178
     0
271
     2
272
     2
274
     3
278
    44
283
     0
284
     8
340
11
  0
ENDTAB
  0
TABLE
  2
BLOCK_RECORD
  5
1
330
0
100
AcDbSymbolTable
 70
     1
  0
BLOCK_RECORD
  5
1F
330
1
100
AcDbSymbolTableRecord
100
AcDbBlockTableRecord
  2
*Model_Space
340
22
 70
     0
280
     1
281
     0
  0
BLOCK_RECORD
  5
1B
330
1
100
AcDbSymbolTableRecord
100
AcDbBlockTableRecord
  2
*Paper_Space
340
1E
 70
     0
280
     1
281
     0
  0
BLOCK_RECORD
  5
23
330
1
100
AcDbSymbolTableRecord
100
AcDbBlockTableRecord
  2
*Paper_Space0
340
26
 70
     0
280
     1
281
     0
  0
ENDTAB
    0
ENDSEC
  0
SECTION
  2
BLOCKS
  0
BLOCK
  5
20
330
1F
100
AcDbEntity
  8
0
100
AcDbBlockBegin
  2
*Model_Space
 70
     0
 10
0.0
 20
0.0
 30
0.0
  3
*Model_Space
  1

  0
ENDBLK
  5
21
330
1F
100
AcDbEntity
  8
0
100
AcDbBlockEnd
  0
BLOCK
  5
1C
330
1B
100
AcDbEntity
 67
     1
  8
0
100
AcDbBlockBegin
  2
*Paper_Space
 70
     0
 10
0.0
 20
0.0
 30
0.0
  3
*Paper_Space
  1

  0
ENDBLK
  5
1D
330
1B
100
AcDbEntity
 67
     1
  8
0
100
AcDbBlockEnd
  0
BLOCK
  5
24
330
23
100
AcDbEntity
  8
0
100
AcDbBlockBegin
  2
*Paper_Space0
 70
     0
 10
0.0
 20
0.0
 30
0.0
  3
*Paper_Space0
  1

  0
ENDBLK
  5
25
330
23
100
AcDbEntity
  8
0
100
AcDbBlockEnd
  0
ENDSEC
  0
SECTION
  2
ENTITIES
  0
LINE
  5
79
330
1F
100
AcDbEntity
  8
main_beam
100
AcDbLine
 10
-250.00000000001143
 20
1.4210854715202004e-11
 30
0.0
  11
250.0000000000141
 21
1.4266365866433265e-11
 31
0.0
  0
LINE
  5
7a
330
1F
100
AcDbEntity
  8
main_beam
100
AcDbLine
 10
250.0000000000141
 20
1.4266365866433265e-11
 30
0.0
  11
282.2546973364675
 21
-9.0581055042898
 31
0.0
  0
LINE
  5
7b
330
1F
100
AcDbEntity
  8
main_beam
100
AcDbLine
 10
282.2546973364675
 20
-9.0581055042898
 30
0.0
  11
315.7396390710615
 21
-10.141365687328275
 31
0.0
  0
LINE
  5
7c
330
1F
100
AcDbEntity
  8
main_beam
100
AcDbLine
 10
250.0000000000141
 20
1.4266365866433265e-11
 30
0.0
  11
1.1657341758564144e-11
 21
26398.699400000012
 31
0.0
  0
LINE
  5
7d
330
1F
100
AcDbEntity
  8
main_beam
100
AcDbLine
 10
1.1657341758564144e-11
 20
26398.699400000012
 30
0.0
  11
-0.1956996802006928
 21
26428.65734348804
 31
0.0
  0
LINE
  5
7e
330
1F
100
AcDbEntity
  8
main_beam
100
AcDbLine
 10
-0.1956996802006928
 20
26428.65734348804
 30
0.0
  11
0.10880481417317552
 21
26458.61437861186
 31
0.0
  0
LINE
  5
7f
330
1F
100
AcDbEntity
  8
main_beam
100
AcDbLine
 10
1.1657341758564144e-11
 20
26398.699400000012
 30
0.0
  11
-249.99999999999739
 21
0.0
 31
0.0
  0
LINE
  5
80
330
1F
100
AcDbEntity
  8
main_beam
100
AcDbLine
 10
-249.99999999999739
 20
0.0
 30
0.0
  11
-259.82842033937425
 21
-33.76595344808443
 31
0.0
  0
LINE
  5
81
330
1F
100
AcDbEntity
  8
main_beam
100
AcDbLine
 10
-259.82842033937425
 20
-33.76595344808443
 30
0.0
  11
-258.87786489718644
 21
-68.92038279883636
 31
0.0
  0
LWPOLYLINE
  5
83
330
1F
100
AcDbEntity
  8
main_beam_width
100
AcDbPolyline
 90
10
 70
0
43
0.0
 10
-257.0990510029954
 20
7.166598505321972
 10
-199.96592855788504
 20
7.16626883765666
 10
-142.83280611277462
 20
7.166021576954909
 10
-85.69968366766423
 20
7.165856731747171
 10
-28.566561222553826
 20
7.165774307721237
 10
28.566561222556576
 20
7.165774307721244
 10
85.699683667667
 20
7.165856731747191
 10
142.83280611277743
 20
7.1660215769549405
 10
199.9659285578878
 20
7.166268837656705
 10
257.0990510029981
 20
7.16659850532203
  0
LWPOLYLINE
  5
84
330
1F
100
AcDbEntity
  8
main_beam_width
100
AcDbPolyline
 90
10
 70
0
43
0.0
 10
-242.90103777149005
 20
-7.166508886141524
 10
-188.9230293778253
 20
-7.166214621213208
 10
-134.94502098416055
 20
-7.165993914587031
 10
-80.96701259049577
 20
-7.165846773059733
 10
-26.989004196831008
 20
-7.165773201163057
 10
26.989004196833697
 20
-7.165773201163052
 10
80.96701259049848
 20
-7.165846773059715
 10
134.94502098416328
 20
-7.165993914587001
 10
188.92302937782802
 20
-7.166214621213166
 10
242.90103777149275
 20
-7.166508886141471
  0
LWPOLYLINE
  5
85
330
1F
100
AcDbEntity
  8
main_beam_width
100
AcDbPolyline
 90
10
 70
0
43
0.0
 10
257.09901999529274
 20
7.166567202578157
 10
260.63027122820876
 20
6.1748975002874555
 10
264.1615224845698
 20
5.183227881481319
 10
267.6927737643757
 20
4.191558346159372
 10
271.2240250676265
 20
3.199888894321234
 10
274.755276394322
 20
2.208219525966531
 10
278.28652774446203
 20
1.21655024109487
 10
281.8177791180466
 20
0.22488103970587717
 10
285.34903051507547
 20
-0.7667880782008443
 10
288.8802819355487
 20
-1.7584571126256827
  0
LWPOLYLINE
  5
86
330
1F
100
AcDbEntity
  8
main_beam_width
100
AcDbPolyline
 90
10
 70
0
43
0.0
 10
242.90100790000653
 20
-7.166539041854921
 10
246.53746685354014
 20
-8.187781740682055
 10
250.1739257822105
 20
-9.209024528043814
 10
253.81038468601776
 20
-10.230267403939804
 10
257.446843564962
 20
-11.251510368369606
 10
261.0833024190433
 20
-12.27275342133282
 10
264.71976124826193
 20
-13.293996562829033
 10
268.35622005261786
 20
-14.315239792857826
 10
271.9926788321112
 20
-15.336483111418788
 10
275.62913758674216
 20
-16.3577265185115
  0
LWPOLYLINE
  5
87
330
1F
100
AcDbEntity
  8
main_beam_width
100
AcDbPolyline
 90
10
 70
0
43
0.0
 10
288.8803058659067
 20
-1.7584307476767191
 10
291.8916578993968
 20
-1.8558302052217426
 10
294.9030099393251
 20
-1.9532294637544705
 10
297.9143619856915
 20
-2.0506285232764974
 10
300.92571403849604
 20
-2.1480273837894215
 10
303.9370660977386
 20
-2.2454260452948667
 10
306.94841816341903
 20
-2.342824507794465
 10
309.9597702355375
 20
-2.44022277128987
 10
312.97112231409375
 20
-2.537620835782748
 10
315.98247439908783
 20
-2.6350187012747823
  0
LWPOLYLINE
  5
88
330
1F
100
AcDbEntity
  8
main_beam_width
100
AcDbPolyline
 90
10
 70
0
43
0.0
 10
275.6291608215177
 20
-16.357700919911235
 10
280.0588989796345
 20
-16.501033836625897
 10
284.48863712381944
 20
-16.644367183992163
 10
288.91837525407266
 20
-16.78770096200515
 10
293.3481133703943
 20
-16.931035170659907
 10
297.77785147278456
 20
-17.07436980995141
 10
302.20758956124365
 20
-17.217704879874557
 10
306.63732763577167
 20
-17.361040380424175
 10
311.0670656963688
 20
-17.504376311595024
 10
315.4968037430352
 20
-17.64771267338177
  0
LWPOLYLINE
  5
89
330
1F
100
AcDbEntity
  8
main_beam_width
100
AcDbPolyline
 90
15
 70
0
43
0.0
 10
242.90103777149267
 20
-7.166508886141414
 10
224.9827492014997
 20
1878.970289232288
 10
206.9769837471937
 20
3765.1062589303187
 10
188.88870800434125
 20
5651.241447242424
 10
170.72501308522686
 20
7537.3759213225985
 10
152.4941551597341
 20
9423.509759358121
 10
134.20468144284752
 20
11309.643042292511
 10
115.86478669132535
 20
13195.775847731466
 10
97.48192834874835
 20
15081.90824629818
 10
79.06265595960183
 20
16968.04030001792
 10
60.612586722392976
 20
18854.172062086476
 10
42.1364652223305
 20
20740.303577435843
 10
23.63826242709327
 20
22626.434883671733
 10
5.1212859193148494
 20
24512.56601211749
 10
-13.411713954930404
 20
26398.696988819356
  0
LWPOLYLINE
  5
8a
330
1F
100
AcDbEntity
  8
main_beam_width
100
AcDbPolyline
 90
15
 70
0
43
0.0
 10
257.0990510029981
 20
7.166598505321972
 10
239.3036719097853
 20
1892.2722269048763
 10
221.59564899159443
 20
3777.3786825816924
 10
203.97000648617015
 20
5662.485918414489
 10
186.419654661435
 20
7547.5938672623415
 10
168.93634688094343
 20
9432.702451028257
 10
151.51155025363812
 20
11317.81158890436
 10
134.13708606383528
 20
13202.921203436877
 10
116.8055124641047
 20
15088.031224150296
 10
99.51029386299385
 20
16973.1415891515
 10
82.24582490644607
 20
18858.25224535686
 10
65.00737073018162
 20
20743.363147926448
 10
47.790968175559556
 20
22628.474259328494
 10
30.593315851755758
 20
24513.5855482983
 10
13.411668286564371
 20
26398.696988835778
  0
LWPOLYLINE
  5
8b
330
1F
100
AcDbEntity
  8
main_beam_width
100
AcDbPolyline
 90
10
 70
0
43
0.0
 10
-13.411706871647187
 20
26398.696988821903
 10
-13.43420140917304
 20
26401.960821278586
 10
-13.456695966217893
 20
26405.22465373514
 10
-13.479190542776607
 20
26408.488486191567
 10
-13.501685138844069
 20
26411.752318647865
 10
-13.524179754415158
 20
26415.016151104035
 10
-13.546674389484755
 20
26418.279983560078
 10
-13.569169044047745
 20
26421.543816015994
 10
-13.591663718099017
 20
26424.807648471786
 10
-13.614158411633452
 20
26428.071480927447
  0
LWPOLYLINE
  5
8c
330
1F
100
AcDbEntity
  8
main_beam_width
100
AcDbPolyline
 90
10
 70
0
43
0.0
 10
13.41167536979955
 20
26398.69698883323
 10
13.390724386746628
 20
26402.091014705577
 10
13.369773424800849
 20
26405.48504057806
 10
13.348822483956447
 20
26408.879066450685
 10
13.327871564207673
 20
26412.273092323445
 10
13.306920665548763
 20
26415.667118196343
 10
13.285969787973961
 20
26419.06114406938
 10
13.265018931477522
 20
26422.45516994255
 10
13.24406809605369
 20
26425.849195815863
 10
13.223117281696718
 20
26429.243221689314
  0
LWPOLYLINE
  5
8d
330
1F
100
AcDbEntity
  8
main_beam_width
100
AcDbPolyline
 90
10
 70
0
43
0.0
 10
-13.613960545327355
 20
26428.07148956648
 10
-13.581089545384698
 20
26431.4803084356
 10
-13.548218590180234
 20
26434.88912730518
 10
-13.515347679696163
 20
26438.29794617521
 10
-13.482476813914714
 20
26441.7067650457
 10
-13.4496059928181
 20
26445.115583916642
 10
-13.416735216388565
 20
26448.524402788036
 10
-13.383864484608349
 20
26451.933221659885
 10
-13.350993797459706
 20
26455.34204053219
 10
-13.318123154924901
 20
26458.750859404943
  0
LWPOLYLINE
  5
8e
330
1F
100
AcDbEntity
  8
main_beam_width
100
AcDbPolyline
 90
10
 70
0
43
0.0
 10
13.223315165959947
 20
26429.243230329128
 10
13.258028072218861
 20
26432.491526718513
 10
13.292741019096471
 20
26435.73982310749
 10
13.327454006577389
 20
26438.98811949605
 10
13.362167034646225
 20
26442.236415884203
 10
13.396880103287607
 20
26445.48471227194
 10
13.431593212486156
 20
26448.733008659266
 10
13.466306362226517
 20
26451.98130504618
 10
13.501019552493334
 20
26455.229601432682
 10
13.535732783271252
 20
26458.47789781877
  0
LWPOLYLINE
  5
8f
330
1F
100
AcDbEntity
  8
main_beam_width
100
AcDbPolyline
 90
15
 70
0
43
0.0
 10
13.41171395495376
 20
26398.696988819356
 10
-5.121285919291944
 20
24512.56601211749
 10
-23.63826242707086
 20
22626.434883671733
 10
-42.136465222308566
 20
20740.30357743584
 10
-60.61258672237153
 20
18854.172062086473
 10
-79.06265595958081
 20
16968.040300017918
 10
-97.48192834872783
 20
15081.908246298175
 10
-115.86478669130533
 20
13195.775847731458
 10
-134.20468144282793
 20
11309.643042292504
 10
-152.494155159715
 20
9423.509759358109
 10
-170.72501308520825
 20
7537.375921322585
 10
-188.88870800432312
 20
5651.241447242416
 10
-206.97698374717606
 20
3765.106258930306
 10
-224.98274920148248
 20
1878.9702892322707
 10
-242.90103777147596
 20
-7.166508886157885
  0
LWPOLYLINE
  5
90
330
1F
100
AcDbEntity
  8
main_beam_width
100
AcDbPolyline
 90
15
 70
0
43
0.0
 10
-13.411668286541056
 20
26398.696988835778
 10
-30.593315851732903
 20
24513.585548298295
 10
-47.79096817553716
 20
22628.47425932849
 10
-65.00737073015969
 20
20743.363147926444
 10
-82.24582490642466
 20
18858.252245356856
 10
-99.51029386297283
 20
16973.141589151495
 10
-116.80551246408416
 20
15088.03122415029
 10
-134.13708606381525
 20
13202.921203436872
 10
-151.51155025361854
 20
11317.811588904355
 10
-168.93634688092433
 20
9432.702451028248
 10
-186.4196546614164
 20
7547.593867262329
 10
-203.970006486152
 20
5662.485918414479
 10
-221.59564899157675
 20
3777.3786825816806
 10
-239.3036719097681
 20
1892.2722269048613
 10
-257.0990510029814
 20
7.16659850530732
  0
LWPOLYLINE
  5
91
330
1F
100
AcDbEntity
  8
main_beam_width
100
AcDbPolyline
 90
10
 70
0
43
0.0
 10
-242.90100789998982
 20
-7.166539041869185
 10
-244.00909771582687
 20
-10.97337886712886
 10
-245.11718743437464
 20
-14.780218720707001
 10
-246.22527705563263
 20
-18.58705860260374
 10
-247.3333665796004
 20
-22.393898512819217
 10
-248.44145600627758
 20
-26.20073845135355
 10
-249.54954533566362
 20
-30.007578418206883
 10
-250.65763456775812
 20
-33.81441841337933
 10
-251.76572370256068
 20
-37.621258436871024
 10
-252.8738127400708
 20
-41.428098488682096
  0
LWPOLYLINE
  5
92
330
1F
100
AcDbEntity
  8
main_beam_width
100
AcDbPolyline
 90
10
 70
0
43
0.0
 10
-257.099019995276
 20
7.166567202563891
 10
-258.175023652437
 20
3.469862155765482
 10
-259.2510274013379
 20
-0.22684286432973244
 10
-260.3270312419793
 20
-3.9235478577216276
 10
-261.4030351743614
 20
-7.620252824410081
 10
-262.4790391984847
 20
-11.316957764394974
 10
-263.55504331434963
 20
-15.013662677676184
 10
-264.6310475219567
 20
-18.710367564253588
 10
-265.70705182130615
 20
-22.40707242412707
 10
-266.7830562123985
 20
-26.103777257296514
  0
LWPOLYLINE
  5
93
330
1F
100
AcDbEntity
  8
main_beam_width
100
AcDbPolyline
 90
10
 70
0
43
0.0
 10
-252.87384850378498
 20
-41.428059086492716
 10
-252.7918170327206
 20
-44.462505289702605
 10
-252.7097852827504
 20
-47.49695148537105
 10
-252.62775325387216
 20
-50.53139767349798
 10
-252.5457209460837
 20
-53.56584385408333
 10
-252.46368835938276
 20
-56.60029002712705
 10
-252.3816554937674
 20
-59.63473619262909
 10
-252.29962234923536
 20
-62.66918235058938
 10
-252.21758892578472
 20
-65.70362850100788
 10
-252.1355552234134
 20
-68.73807464388452
  0
LWPOLYLINE
  5
94
330
1F
100
AcDbEntity
  8
main_beam_width
100
AcDbPolyline
 90
10
 70
0
43
0.0
 10
-266.7830937503386
 20
-26.10373590037789
 10
-266.6538777426051
 20
-30.881397498199348
 10
-266.52466242624587
 20
-35.65905911471516
 10
-266.39544780127005
 20
-40.43672074992559
 10
-266.26623386768676
 20
-45.21438240383087
 10
-266.13702062550476
 20
-49.992044076431235
 10
-266.0078080747328
 20
-54.769705767726926
 10
-265.8785962153791
 20
-59.547367477718176
 10
-265.749385047452
 20
-64.3250292064052
 10
-265.6201745709594
 20
-69.10269095378821
  0
LINE
  5
96
330
1F
100
AcDbEntity
  8
Mirrors
100
AcDbLine
 10
-214.81246205839065
 20
-35.522347523887
 30
0.0
  11
-237.67680975993963
 21
-58.17119137401233
 31
0.0
  0
LINE
  5
97
330
1F
100
AcDbEntity
  8
Mirrors
100
AcDbLine
 10
-304.95000726872485
 20
15.946145844081085
 30
0.0
  11
-285.1875379416094
 21
35.522347523887
 31
0.0
  0
LINE
  5
98
330
1F
100
AcDbEntity
  8
Mirrors
100
AcDbLine
 10
-287.31887879304264
 20
33.411095247390435
 30
0.0
  11
-216.9438029098239
 21
-37.633599800383564
 31
0.0
  0
LINE
  5
99
330
1F
100
AcDbEntity
  8
Mirrors
100
AcDbLine
 10
-285.1875379416094
 20
35.522347523887
 30
0.0
  11
-214.81246205839065
 21
-35.522347523887
 31
0.0
  0
LINE
  5
9a
330
1F
100
AcDbEntity
  8
Mirrors
100
AcDbLine
 10
-237.67680975993963
 20
-58.17119137401233
 30
0.0
  11
-304.95000726872485
 21
15.946145844081085
 31
0.0
  0
LINE
  5
9b
330
1F
100
AcDbEntity
  8
Mirrors
100
AcDbLine
 10
285.1875379416094
 20
35.522347523887
 30
0.0
  11
304.95000726872485
 21
15.946145844081085
 31
0.0
  0
LINE
  5
9c
330
1F
100
AcDbEntity
  8
Mirrors
100
AcDbLine
 10
237.6768097599396
 20
-58.17119137401233
 30
0.0
  11
214.81246205839062
 21
-35.522347523887
 31
0.0
  0
LINE
  5
9d
330
1F
100
AcDbEntity
  8
Mirrors
100
AcDbLine
 10
216.94380290982386
 20
-37.633599800383564
 30
0.0
  11
287.31887879304264
 21
33.411095247390435
 31
0.0
  0
LINE
  5
9e
330
1F
100
AcDbEntity
  8
Mirrors
100
AcDbLine
 10
214.81246205839062
 20
-35.522347523887
 30
0.0
  11
285.1875379416094
 21
35.522347523887
 31
0.0
  0
LINE
  5
9f
330
1F
100
AcDbEntity
  8
Mirrors
100
AcDbLine
 10
304.95000726872485
 20
15.946145844081085
 30
0.0
  11
237.6768097599396
 21
-58.17119137401233
 31
0.0
  0
LINE
  5
a0
330
1F
100
AcDbEntity
  8
Mirrors
100
AcDbLine
 10
-50.0
 20
26398.665887920604
 30
0.0
  11
-50.0
 21
26426.482840775177
 31
0.0
  0
LINE
  5
a1
330
1F
100
AcDbEntity
  8
Mirrors
100
AcDbLine
 10
50.0
 20
26430.84893506603
 30
0.0
  11
50.0
 21
26398.665887920604
 31
0.0
  0
LINE
  5
a2
330
1F
100
AcDbEntity
  8
Mirrors
100
AcDbLine
 10
50.0
 20
26401.665887920604
 30
0.0
  11
-50.0
 21
26401.665887920604
 31
0.0
  0
LWPOLYLINE
  5
a3
330
1F
100
AcDbEntity
  8
Mirrors
100
AcDbPolyline
 90
60
 70
0
43
0.0
 10
50.0
 20
26398.665887920608
 10
48.27586206896552
 20
26398.66815925155
 10
46.55172413793104
 20
26398.670350886543
 10
44.827586206896555
 20
26398.672462825594
 10
43.10344827586207
 20
26398.674495068724
 10
41.379310344827594
 20
26398.676447615933
 10
39.6551724137931
 20
26398.678320467247
 10
37.931034482758626
 20
26398.68011362267
 10
36.20689655172414
 20
26398.68182708222
 10
34.48275862068966
 20
26398.683460845903
 10
32.758620689655174
 20
26398.685014913724
 10
31.034482758620694
 20
26398.6864892857
 10
29.31034482758621
 20
26398.687883961848
 10
27.586206896551726
 20
26398.68919894216
 10
25.862068965517246
 20
26398.690434226657
 10
24.13793103448276
 20
26398.691589815342
 10
22.413793103448278
 20
26398.692665708226
 10
20.689655172413797
 20
26398.69366190531
 10
18.965517241379313
 20
26398.694578406605
 10
17.24137931034483
 20
26398.695415212118
 10
15.517241379310347
 20
26398.696172321845
 10
13.793103448275863
 20
26398.696849735803
 10
12.06896551724138
 20
26398.697447453993
 10
10.344827586206899
 20
26398.69796547641
 10
8.620689655172415
 20
26398.698403803075
 10
6.8965517241379315
 20
26398.69876243397
 10
5.172413793103449
 20
26398.699041369113
 10
3.4482758620689657
 20
26398.699240608497
 10
1.7241379310344829
 20
26398.699360152128
 10
4.104046076923403e-18
 20
26398.6994
 10
4.104046076923403e-18
 20
26398.6994
 10
-1.7241379310344829
 20
26398.699360152128
 10
-3.4482758620689657
 20
26398.699240608497
 10
-5.172413793103449
 20
26398.699041369113
 10
-6.8965517241379315
 20
26398.69876243397
 10
-8.620689655172415
 20
26398.698403803075
 10
-10.344827586206899
 20
26398.69796547641
 10
-12.06896551724138
 20
26398.697447453993
 10
-13.793103448275863
 20
26398.696849735803
 10
-15.517241379310347
 20
26398.696172321845
 10
-17.24137931034483
 20
26398.695415212118
 10
-18.965517241379313
 20
26398.694578406605
 10
-20.689655172413797
 20
26398.69366190531
 10
-22.413793103448278
 20
26398.692665708226
 10
-24.13793103448276
 20
26398.691589815342
 10
-25.862068965517246
 20
26398.690434226657
 10
-27.586206896551726
 20
26398.68919894216
 10
-29.31034482758621
 20
26398.687883961848
 10
-31.034482758620694
 20
26398.6864892857
 10
-32.758620689655174
 20
26398.685014913724
 10
-34.48275862068966
 20
26398.683460845903
 10
-36.20689655172414
 20
26398.68182708222
 10
-37.931034482758626
 20
26398.68011362267
 10
-39.6551724137931
 20
26398.678320467247
 10
-41.379310344827594
 20
26398.676447615933
 10
-43.10344827586207
 20
26398.674495068724
 10
-44.827586206896555
 20
26398.672462825594
 10
-46.55172413793104
 20
26398.670350886543
 10
-48.27586206896552
 20
26398.66815925155
 10
-50.0
 20
26398.665887920608
  0
LINE
  5
a4
330
1F
100
AcDbEntity
  8
Mirrors
100
AcDbLine
 10
-50.0
 20
26426.482840775177
 30
0.0
  11
50.0
 21
26430.84893506603
 31
0.0
  0
TEXT
  5
a6
330
1F
100
AcDbEntity
  8
text
100
AcDbText
 10
-271.9067042571661
 20
-14.30626138248281
 30
0.0
  40
7.5
  1
MCi
 50
0.0
 7
Standard
100
AcDbText
  0
TEXT
  5
a7
330
1F
100
AcDbEntity
  8
text
100
AcDbText
 10
249.40670425716607
 20
-14.30626138248281
 30
0.0
  40
7.5
  1
MCo
 50
0.0
 7
Standard
100
AcDbText
  0
TEXT
  5
a8
330
1F
100
AcDbEntity
  8
text
100
AcDbText
 10
-11.25
 20
26409.9158879206
 30
0.0
  40
7.5
  1
MCe
 50
0.0
 7
Standard
100
AcDbText
  0
ENDSEC
  0
SECTION
  2
OBJECTS
  0
DICTIONARY
  5
C
330
0
100
AcDbDictionary
281
     1
  3
ACAD_GROUP
350
D
  3
ACAD_LAYOUT
350
1A
  3
ACAD_MATERIAL
350
3B
  3
ACAD_MLEADERSTYLE
350
6E
  3
ACAD_MLINESTYLE
350
17
  3
ACAD_PLOTSETTINGS
350
19
  3
ACAD_PLOTSTYLENAME
350
E
  3
ACAD_TABLESTYLE
350
6D
  3
ACAD_VISUALSTYLE
350
2A
  0
SUN
  5
3F
330
29
100
AcDbSun
 90
        1
290
     0
 63
     7
421
 16777215
 40
1.0
291
     1
 91
  2455826
 92
 54000000
292
     0
 70
     2
 71
   256
280
     1
  0
DICTIONARY
  5
D
102
{ACAD_REACTORS
330
C
102
}
330
C
100
AcDbDictionary
281
     1
  0
DICTIONARY
  5
1A
102
{ACAD_REACTORS
330
C
102
}
330
C
100
AcDbDictionary
281
     1
  3
Layout1
350
1E
  3
Layout2
350
26
  3
Model
350
22
  0
DICTIONARY
  5
3B
102
{ACAD_REACTORS
330
C
102
}
330
C
100
AcDbDictionary
281
     1
  3
ByBlock
350
3D
  3
ByLayer
350
3C
  3
Global
350
3E
  0
DICTIONARY
  5
6E
102
{ACAD_REACTORS
330
C
102
}
330
C
100
AcDbDictionary
281
     1
  0
DICTIONARY
  5
17
102
{ACAD_REACTORS
330
C
102
}
330
C
100
AcDbDictionary
281
     1
  3
Standard
350
18
  0
DICTIONARY
  5
19
102
{ACAD_REACTORS
330
C
102
}
330
C
100
AcDbDictionary
281
     1
  0
ACDBDICTIONARYWDFLT
  5
E
102
{ACAD_REACTORS
330
C
102
}
330
C
100
AcDbDictionary
281
     1
  3
Normal
350
F
100
AcDbDictionaryWithDefault
340
F
  0
DICTIONARY
  5
6D
102
{ACAD_REACTORS
330
C
102
}
330
C
100
AcDbDictionary
281
     1
  0
DICTIONARY
  5
2A
102
{ACAD_REACTORS
330
C
102
}
330
C
100
AcDbDictionary
281
     1
  3
2dWireframe
350
2F
  3
3D Hidden
350
31
  3
3dWireframe
350
30
  3
Basic
350
32
  3
Brighten
350
36
  3
ColorChange
350
3A
  3
Conceptual
350
34
  3
Dim
350
35
  3
Facepattern
350
39
  3
Flat
350
2B
  3
FlatWithEdges
350
2C
  3
Gouraud
350
2D
  3
GouraudWithEdges
350
2E
  3
Linepattern
350
38
  3
Realistic
350
33
  3
Thicken
350
37
  0
LAYOUT
  5
1E
102
{ACAD_REACTORS
330
1A
102
}
330
1A
100
AcDbPlotSettings
  1

  2
none_device
  4

  6

 40
0.0
 41
0.0
 42
0.0
 43
0.0
 44
0.0
 45
0.0
 46
0.0
 47
0.0
 48
0.0
 49
0.0
140
0.0
141
0.0
142
1.0
143
1.0
 70
   688
 72
     0
 73
     0
 74
     5
  7

 75
    16
 76
     0
 77
     2
 78
   300
147
1.0
148
0.0
149
0.0
100
AcDbLayout
  1
Layout1
 70
     1
 71
     1
 10
0.0
 20
0.0
 11
420.0
 21
297.0
 12
0.0
 22
0.0
 32
0.0
 14
1.000000000000000E+20
 24
1.000000000000000E+20
 34
1.000000000000000E+20
 15
-1.000000000000000E+20
 25
-1.000000000000000E+20
 35
-1.000000000000000E+20
146
0.0
 13
0.0
 23
0.0
 33
0.0
 16
1.0
 26
0.0
 36
0.0
 17
0.0
 27
1.0
 37
0.0
 76
     0
330
1B
  0
LAYOUT
  5
26
102
{ACAD_REACTORS
330
1A
102
}
330
1A
100
AcDbPlotSettings
  1

  2
none_device
  4

  6

 40
0.0
 41
0.0
 42
0.0
 43
0.0
 44
0.0
 45
0.0
 46
0.0
 47
0.0
 48
0.0
 49
0.0
140
0.0
141
0.0
142
1.0
143
1.0
 70
   688
 72
     0
 73
     0
 74
     5
  7

 75
    16
 76
     0
 77
     2
 78
   300
147
1.0
148
0.0
149
0.0
100
AcDbLayout
  1
Layout2
 70
     1
 71
     2
 10
0.0
 20
0.0
 11
0.0
 21
0.0
 12
0.0
 22
0.0
 32
0.0
 14
0.0
 24
0.0
 34
0.0
 15
0.0
 25
0.0
 35
0.0
146
0.0
 13
0.0
 23
0.0
 33
0.0
 16
1.0
 26
0.0
 36
0.0
 17
0.0
 27
1.0
 37
0.0
 76
     0
330
23
  0
LAYOUT
  5
22
102
{ACAD_REACTORS
330
1A
102
}
330
1A
100
AcDbPlotSettings
  1

  2
none_device
  4

  6

 40
0.0
 41
0.0
 42
0.0
 43
0.0
 44
0.0
 45
0.0
 46
0.0
 47
0.0
 48
0.0
 49
0.0
140
0.0
141
0.0
142
1.0
143
1.0
 70
  1712
 72
     0
 73
     0
 74
     0
  7

 75
     0
 76
     0
 77
     2
 78
   300
147
1.0
148
0.0
149
0.0
100
AcDbLayout
  1
Model
 70
     1
 71
     0
 10
0.0
 20
0.0
 11
420.0
 21
297.0
 12
0.0
 22
0.0
 32
0.0
 14
1.0
 24
0.0
 34
0.0
 15
73.0
 25
41.0
 35
0.0
146
0.0
 13
0.0
 23
0.0
 33
0.0
 16
1.0
 26
0.0
 36
0.0
 17
0.0
 27
1.0
 37
0.0
 76
     0
330
1F
331
29
  0
MATERIAL
  5
3D
102
{ACAD_REACTORS
330
3B
102
}
330
3B
100
AcDbMaterial
  1
ByBlock
 72
     1
 94
      127
  0
MATERIAL
  5
3C
102
{ACAD_REACTORS
330
3B
102
}
330
3B
100
AcDbMaterial
  1
ByLayer
 72
     1
 94
      127
  0
MATERIAL
  5
3E
102
{ACAD_REACTORS
330
3B
102
}
330
3B
100
AcDbMaterial
  1
Global
 72
     1
 94
      127
  0
MLINESTYLE
  5
18
102
{ACAD_REACTORS
330
17
102
}
330
17
100
AcDbMlineStyle
  2
Standard
 70
     0
  3

 62
   256
 51
90.0
 52
90.0
 71
     2
 49
0.5
 62
   256
  6
BYLAYER
 49
-0.5
 62
   256
  6
BYLAYER
  0
ACDBPLACEHOLDER
  5
F
102
{ACAD_REACTORS
330
E
102
}
330
E
  0
VISUALSTYLE
  5
2F
102
{ACAD_REACTORS
330
2A
102
}
330
2A
100
AcDbVisualStyle
  2
2dWireframe
 70
     4
177
     2
291
     0
 71
     0
176
     1
 72
     2
176
     1
 73
     0
176
     1
 90
        0
176
     1
 40
-0.6
176
     1
 41
-30.0
176
     1
 62
     5
 63
     7
421
 16777215
176
     1
 74
     1
176
     1
 91
        4
176
     1
 64
     7
176
     1
 65
   257
176
     1
 75
     1
176
     1
175
     1
176
     1
 42
1.0
176
     1
 92
        0
176
     1
 66
   257
176
     1
 43
1.0
176
     1
 76
     1
176
     1
 77
     6
176
     1
 78
     2
176
     1
 67
     7
176
     1
 79
     5
176
     1
170
     0
176
     1
171
     0
176
     1
290
     0
176
     1
 93
        1
176
     1
 44
0.0
176
     1
173
     0
176
     1
  0
VISUALSTYLE
  5
31
102
{ACAD_REACTORS
330
2A
102
}
330
2A
100
AcDbVisualStyle
  2
3D Hidden
 70
     6
177
     2
291
     0
 71
     1
176
     1
 72
     2
176
     1
 73
     2
176
     1
 90
        0
176
     1
 40
-0.6
176
     1
 41
-30.0
176
     1
 62
     5
 63
     7
421
 16777215
176
     1
 74
     2
176
     1
 91
        2
176
     1
 64
     7
176
     1
 65
   257
176
     1
 75
     2
176
     1
175
     1
176
     1
 42
40.0
176
     1
 92
        0
176
     1
 66
   257
176
     1
 43
1.0
176
     1
 76
     1
176
     1
 77
     6
176
     1
 78
     2
176
     1
 67
     7
176
     1
 79
     3
176
     1
170
     0
176
     1
171
     0
176
     1
290
     0
176
     1
 93
        1
176
     1
 44
0.0
176
     1
173
     0
176
     1
  0
VISUALSTYLE
  5
30
102
{ACAD_REACTORS
330
2A
102
}
330
2A
100
AcDbVisualStyle
  2
3dWireframe
 70
     5
177
     2
291
     0
 71
     0
176
     1
 72
     2
176
     1
 73
     0
176
     1
 90
        0
176
     1
 40
-0.6
176
     1
 41
-30.0
176
     1
 62
     5
 63
     7
421
 16777215
176
     1
 74
     1
176
     1
 91
        4
176
     1
 64
     7
176
     1
 65
   257
176
     1
 75
     1
176
     1
175
     1
176
     1
 42
1.0
176
     1
 92
        0
176
     1
 66
   257
176
     1
 43
1.0
176
     1
 76
     1
176
     1
 77
     6
176
     1
 78
     2
176
     1
 67
     7
176
     1
 79
     5
176
     1
170
     0
176
     1
171
     0
176
     1
290
     0
176
     1
 93
        1
176
     1
 44
0.0
176
     1
173
     0
176
     1
  0
VISUALSTYLE
  5
32
102
{ACAD_REACTORS
330
2A
102
}
330
2A
100
AcDbVisualStyle
  2
Basic
 70
     7
177
     2
291
     1
 71
     1
176
     1
 72
     0
176
     1
 73
     1
176
     1
 90
        0
176
     1
 40
-0.6
176
     1
 41
-30.0
176
     1
 62
     5
 63
     7
421
 16777215
176
     1
 74
     0
176
     1
 91
        4
176
     1
 64
     7
176
     1
 65
   257
176
     1
 75
     1
176
     1
175
     1
176
     1
 42
1.0
176
     1
 92
        8
176
     1
 66
     7
176
     1
 43
1.0
176
     1
 76
     1
176
     1
 77
     6
176
     1
 78
     2
176
     1
 67
     7
176
     1
 79
     5
176
     1
170
     0
176
     1
171
     0
176
     1
290
     0
176
     1
 93
        1
176
     1
 44
0.0
176
     1
173
     0
176
     1
  0
VISUALSTYLE
  5
36
102
{ACAD_REACTORS
330
2A
102
}
330
2A
100
AcDbVisualStyle
  2
Brighten
 70
    12
177
     2
291
     1
 71
     2
176
     1
 72
     2
176
     1
 73
     0
176
     1
 90
        0
176
     1
 40
-0.6
176
     1
 41
-30.0
176
     1
 62
     5
 63
     7
421
 16777215
176
     1
 74
     1
176
     1
 91
        4
176
     1
 64
     7
176
     1
 65
   257
176
     1
 75
     1
176
     1
175
     1
176
     1
 42
1.0
176
     1
 92
        8
176
     1
 66
     7
176
     1
 43
1.0
176
     1
 76
     1
176
     1
 77
     6
176
     1
 78
     2
176
     1
 67
     7
176
     1
 79
     5
176
     1
170
     0
176
     1
171
     0
176
     1
290
     0
176
     1
 93
        1
176
     1
 44
50.0
176
     1
173
     0
176
     1
  0
VISUALSTYLE
  5
3A
102
{ACAD_REACTORS
330
2A
102
}
330
2A
100
AcDbVisualStyle
  2
ColorChange
 70
    16
177
     2
291
     1
 71
     2
176
     1
 72
     2
176
     1
 73
     3
176
     1
 90
        0
176
     1
 40
-0.6
176
     1
 41
-30.0
176
     1
 62
     5
 63
     8
421
  8421504
176
     1
 74
     1
176
     1
 91
        4
176
     1
 64
     7
176
     1
 65
   257
176
     1
 75
     1
176
     1
175
     1
176
     1
 42
1.0
176
     1
 92
        8
176
     1
 66
     8
424
  8421504
176
     1
 43
1.0
176
     1
 76
     1
176
     1
 77
     6
176
     1
 78
     2
176
     1
 67
     7
176
     1
 79
     5
176
     1
170
     0
176
     1
171
     0
176
     1
290
     0
176
     1
 93
        1
176
     1
 44
0.0
176
     1
173
     0
176
     1
  0
VISUALSTYLE
  5
34
102
{ACAD_REACTORS
330
2A
102
}
330
2A
100
AcDbVisualStyle
  2
Conceptual
 70
     9
177
     2
291
     0
 71
     3
176
     1
 72
     2
176
     1
 73
     0
176
     1
 90
        0
176
     1
 40
-0.6
176
     1
 41
-30.0
176
     1
 62
     5
 63
     7
421
 16777215
176
     1
 74
     2
176
     1
 91
        2
176
     1
 64
     7
176
     1
 65
   257
176
     1
 75
     1
176
     1
175
     1
176
     1
 42
40.0
176
     1
 92
        8
176
     1
 66
     7
176
     1
 43
1.0
176
     1
 76
     1
176
     1
 77
     6
176
     1
 78
     2
176
     1
 67
     7
176
     1
 79
     3
176
     1
170
     0
176
     1
171
     0
176
     1
290
     0
176
     1
 93
        1
176
     1
 44
0.0
176
     1
173
     0
176
     1
  0
VISUALSTYLE
  5
35
102
{ACAD_REACTORS
330
2A
102
}
330
2A
100
AcDbVisualStyle
  2
Dim
 70
    11
177
     2
291
     1
 71
     2
176
     1
 72
     2
176
     1
 73
     0
176
     1
 90
        0
176
     1
 40
-0.6
176
     1
 41
-30.0
176
     1
 62
     5
 63
     7
421
 16777215
176
     1
 74
     1
176
     1
 91
        4
176
     1
 64
     7
176
     1
 65
   257
176
     1
 75
     1
176
     1
175
     1
176
     1
 42
1.0
176
     1
 92
        8
176
     1
 66
     7
176
     1
 43
1.0
176
     1
 76
     1
176
     1
 77
     6
176
     1
 78
     2
176
     1
 67
     7
176
     1
 79
     5
176
     1
170
     0
176
     1
171
     0
176
     1
290
     0
176
     1
 93
        1
176
     1
 44
-50.0
176
     1
173
     0
176
     1
  0
VISUALSTYLE
  5
39
102
{ACAD_REACTORS
330
2A
102
}
330
2A
100
AcDbVisualStyle
  2
Facepattern
 70
    15
177
     2
291
     1
 71
     2
176
     1
 72
     2
176
     1
 73
     0
176
     1
 90
        0
176
     1
 40
-0.6
176
     1
 41
-30.0
176
     1
 62
     5
 63
     7
421
 16777215
176
     1
 74
     1
176
     1
 91
        4
176
     1
 64
     7
176
     1
 65
   257
176
     1
 75
     1
176
     1
175
     1
176
     1
 42
1.0
176
     1
 92
        8
176
     1
 66
     7
176
     1
 43
1.0
176
     1
 76
     1
176
     1
 77
     6
176
     1
 78
     2
176
     1
 67
     7
176
     1
 79
     5
176
     1
170
     0
176
     1
171
     0
176
     1
290
     0
176
     1
 93
        1
176
     1
 44
0.0
176
     1
173
     0
176
     1
  0
VISUALSTYLE
  5
2B
102
{ACAD_REACTORS
330
2A
102
}
330
2A
100
AcDbVisualStyle
  2
Flat
 70
     0
177
     2
291
     1
 71
     2
176
     1
 72
     1
176
     1
 73
     1
176
     1
 90
        2
176
     1
 40
-0.6
176
     1
 41
30.0
176
     1
 62
     5
 63
     7
421
 16777215
176
     1
 74
     0
176
     1
 91
        4
176
     1
 64
     7
176
     1
 65
   257
176
     1
 75
     1
176
     1
175
     1
176
     1
 42
1.0
176
     1
 92
        8
176
     1
 66
     7
176
     1
 43
1.0
176
     1
 76
     1
176
     1
 77
     6
176
     1
 78
     2
176
     1
 67
     7
176
     1
 79
     5
176
     1
170
     0
176
     1
171
     0
176
     1
290
     0
176
     1
 93
       13
176
     1
 44
0.0
176
     1
173
     0
176
     1
  0
VISUALSTYLE
  5
2C
102
{ACAD_REACTORS
330
2A
102
}
330
2A
100
AcDbVisualStyle
  2
FlatWithEdges
 70
     1
177
     2
291
     1
 71
     2
176
     1
 72
     1
176
     1
 73
     1
176
     1
 90
        2
176
     1
 40
-0.6
176
     1
 41
30.0
176
     1
 62
     5
 63
     7
421
 16777215
176
     1
 74
     1
176
     1
 91
        4
176
     1
 64
     7
176
     1
 65
   257
176
     1
 75
     1
176
     1
175
     1
176
     1
 42
1.0
176
     1
 92
        0
176
     1
 66
   257
176
     1
 43
1.0
176
     1
 76
     1
176
     1
 77
     6
176
     1
 78
     2
176
     1
 67
     7
176
     1
 79
     5
176
     1
170
     0
176
     1
171
     0
176
     1
290
     0
176
     1
 93
       13
176
     1
 44
0.0
176
     1
173
     0
176
     1
  0
VISUALSTYLE
  5
2D
102
{ACAD_REACTORS
330
2A
102
}
330
2A
100
AcDbVisualStyle
  2
Gouraud
 70
     2
177
     2
291
     1
 71
     2
176
     1
 72
     2
176
     1
 73
     1
176
     1
 90
        2
176
     1
 40
-0.6
176
     1
 41
30.0
176
     1
 62
     5
 63
     7
421
 16777215
176
     1
 74
     0
176
     1
 91
        4
176
     1
 64
     7
176
     1
 65
   257
176
     1
 75
     1
176
     1
175
     1
176
     1
 42
1.0
176
     1
 92
        0
176
     1
 66
     7
176
     1
 43
1.0
176
     1
 76
     1
176
     1
 77
     6
176
     1
 78
     2
176
     1
 67
     7
176
     1
 79
     5
176
     1
170
     0
176
     1
171
     0
176
     1
290
     0
176
     1
 93
       13
176
     1
 44
0.0
176
     1
173
     0
176
     1
  0
VISUALSTYLE
  5
2E
102
{ACAD_REACTORS
330
2A
102
}
330
2A
100
AcDbVisualStyle
  2
GouraudWithEdges
 70
     3
177
     2
291
     1
 71
     2
176
     1
 72
     2
176
     1
 73
     1
176
     1
 90
        2
176
     1
 40
-0.6
176
     1
 41
30.0
176
     1
 62
     5
 63
     7
421
 16777215
176
     1
 74
     1
176
     1
 91
        4
176
     1
 64
     7
176
     1
 65
   257
176
     1
 75
     1
176
     1
175
     1
176
     1
 42
1.0
176
     1
 92
        0
176
     1
 66
   257
176
     1
 43
1.0
176
     1
 76
     1
176
     1
 77
     6
176
     1
 78
     2
176
     1
 67
     7
176
     1
 79
     5
176
     1
170
     0
176
     1
171
     0
176
     1
290
     0
176
     1
 93
       13
176
     1
 44
0.0
176
     1
173
     0
176
     1
  0
VISUALSTYLE
  5
38
102
{ACAD_REACTORS
330
2A
102
}
330
2A
100
AcDbVisualStyle
  2
Linepattern
 70
    14
177
     2
291
     1
 71
     2
176
     1
 72
     2
176
     1
 73
     0
176
     1
 90
        0
176
     1
 40
-0.6
176
     1
 41
-30.0
176
     1
 62
     5
 63
     7
421
 16777215
176
     1
 74
     1
176
     1
 91
        4
176
     1
 64
     7
176
     1
 65
   257
176
     1
 75
     7
176
     1
175
     7
176
     1
 42
1.0
176
     1
 92
        8
176
     1
 66
     7
176
     1
 43
1.0
176
     1
 76
     1
176
     1
 77
     6
176
     1
 78
     2
176
     1
 67
     7
176
     1
 79
     5
176
     1
170
     0
176
     1
171
     0
176
     1
290
     0
176
     1
 93
        1
176
     1
 44
0.0
176
     1
173
     0
176
     1
  0
VISUALSTYLE
  5
33
102
{ACAD_REACTORS
330
2A
102
}
330
2A
100
AcDbVisualStyle
  2
Realistic
 70
     8
177
     2
291
     0
 71
     2
176
     1
 72
     2
176
     1
 73
     0
176
     1
 90
        0
176
     1
 40
-0.6
176
     1
 41
-30.0
176
     1
 62
     5
 63
     7
421
 16777215
176
     1
 74
     1
176
     1
 91
        0
176
     1
 64
     7
176
     1
 65
   257
176
     1
 75
     1
176
     1
175
     1
176
     1
 42
1.0
176
     1
 92
        8
176
     1
 66
     8
424
  7895160
176
     1
 43
1.0
176
     1
 76
     1
176
     1
 77
     6
176
     1
 78
     2
176
     1
 67
     7
176
     1
 79
     5
176
     1
170
     0
176
     1
171
     0
176
     1
290
     0
176
     1
 93
       13
176
     1
 44
0.0
176
     1
173
     0
176
     1
  0
VISUALSTYLE
  5
37
102
{ACAD_REACTORS
330
2A
102
}
330
2A
100
AcDbVisualStyle
  2
Thicken
 70
    13
177
     2
291
     1
 71
     2
176
     1
 72
     2
176
     1
 73
     0
176
     1
 90
        0
176
     1
 40
-0.6
176
     1
 41
-30.0
176
     1
 62
     5
 63
     7
421
 16777215
176
     1
 74
     1
176
     1
 91
        4
176
     1
 64
     7
176
     1
 65
   257
176
     1
 75
     1
176
     1
175
     1
176
     1
 42
1.0
176
     1
 92
       12
176
     1
 66
     7
176
     1
 43
1.0
176
     1
 76
     1
176
     1
 77
     6
176
     1
 78
     2
176
     1
 67
     7
176
     1
 79
     5
176
     1
170
     0
176
     1
171
     0
176
     1
290
     0
176
     1
 93
        1
176
     1
 44
0.0
176
     1
173
     0
176
     1
  0
ENDSEC
0
EOF
