  0
SECTION
  2
HEADER
  9
$ACADVER
  1
AC1024
  9
$ACADMAINTVER
 70
     6
  9
$DWGCODEPAGE
  3
ANSI_1252
  9
$INSBASE
 10
0.0
 20
0.0
 30
0.0
  9
$EXTMIN
 10
-103.34629060057222
 20
-25.000000000000007
 30
0.0
  9
$EXTMAX
 10
686.7537781511232
 20
370.1687738955478
 30
0.0
  9
$LIMMIN
 10
-103.34629060057222
 20
-25.000000000000007
  9
$LIMMAX
 10
686.7537781511232
 20
370.1687738955478
  9
$ORTHOMODE
 70
     0
  9
$REGENMODE
 70
     1
  9
$FILLMODE
 70
     1
  9
$QTEXTMODE
 70
     0
  9
$MIRRTEXT
 70
     1
  9
$LTSCALE
 40
1.0
  9
$ATTMODE
 70
     1
  9
$TEXTSIZE
 40
2.5
  9
$TRACEWID
 40
1.0
  9
$TEXTSTYLE
  7
Standard
  9
$CLAYER
  8
Outline
  9
$CELTYPE
  6
ByLayer
  9
$CECOLOR
 62
   256
  9
$CELTSCALE
 40
1.0
  9
$DISPSILH
 70
     0
  9
$DIMSCALE
 40
1.0
  9
$DIMASZ
 40
2.5
  9
$DIMEXO
 40
0.625
  9
$DIMDLI
 40
3.75
  9
$DIMRND
 40
0.0
  9
$DIMDLE
 40
0.0
  9
$DIMEXE
 40
1.25
  9
$DIMTP
 40
0.0
  9
$DIMTM
 40
0.0
  9
$DIMTXT
 40
2.5
  9
$DIMCEN
 40
2.5
  9
$DIMTSZ
 40
0.0
  9
$DIMTOL
 70
     0
  9
$DIMLIM
 70
     0
  9
$DIMTIH
 70
     0
  9
$DIMTOH
 70
     0
  9
$DIMSE1
 70
     0
  9
$DIMSE2
 70
     0
  9
$DIMTAD
 70
     1
  9
$DIMZIN
 70
     8
  9
$DIMBLK
  1

  9
$DIMASO
 70
     1
  9
$DIMSHO
 70
     1
  9
$DIMPOST
  1

  9
$DIMAPOST
  1

  9
$DIMALT
 70
     0
  9
$DIMALTD
 70
     3
  9
$DIMALTF
 40
0.03937007874016
  9
$DIMLFAC
 40
1.0
  9
$DIMTOFL
 70
     1
  9
$DIMTVP
 40
0.0
  9
$DIMTIX
 70
     0
  9
$DIMSOXD
 70
     0
  9
$DIMSAH
 70
     0
  9
$DIMBLK1
  1

  9
$DIMBLK2
  1

  9
$DIMSTYLE
  2
ISO-25
  9
$DIMCLRD
 70
     0
  9
$DIMCLRE
 70
     0
  9
$DIMCLRT
 70
     0
  9
$DIMTFAC
 40
1.0
  9
$DIMGAP
 40
0.625
  9
$DIMJUST
 70
     0
  9
$DIMSD1
 70
     0
  9
$DIMSD2
 70
     0
  9
$DIMTOLJ
 70
     0
  9
$DIMTZIN
 70
     8
  9
$DIMALTZ
 70
     0
  9
$DIMALTTZ
 70
     0
  9
$DIMUPT
 70
     0
  9
$DIMDEC
 70
     2
  9
$DIMTDEC
 70
     2
  9
$DIMALTU
 70
     2
  9
$DIMALTTD
 70
     3
  9
$DIMTXSTY
  7
Standard
  9
$DIMAUNIT
 70
     0
  9
$DIMADEC
 70
     0
  9
$DIMALTRND
 40
0.0
  9
$DIMAZIN
 70
     0
  9
$DIMDSEP
 70
    44
  9
$DIMATFIT
 70
     3
  9
$DIMFRAC
 70
     0
  9
$DIMLDRBLK
  1

  9
$DIMLUNIT
 70
     2
  9
$DIMLWD
 70
    -2
  9
$DIMLWE
 70
    -2
  9
$DIMTMOVE
 70
     0
  9
$DIMFXL
 40
1.0
  9
$DIMFXLON
 70
     0
  9
$DIMJOGANG
 40
0.7853981633974483
  9
$DIMTFILL
 70
     0
  9
$DIMTFILLCLR
 70
     0
  9
$DIMARCSYM
 70
     0
  9
$DIMLTYPE
  6

  9
$DIMLTEX1
  6

  9
$DIMLTEX2
  6

  9
$DIMTXTDIRECTION
 70
     0
  9
$LUNITS
 70
     2
  9
$LUPREC
 70
     4
  9
$SKETCHINC
 40
1.0
  9
$FILLETRAD
 40
10.0
  9
$AUNITS
 70
     0
  9
$AUPREC
 70
     0
  9
$MENU
  1
.
  9
$ELEVATION
 40
0.0
  9
$PELEVATION
 40
0.0
  9
$THICKNESS
 40
0.0
  9
$LIMCHECK
 70
     0
  9
$CHAMFERA
 40
10.0
  9
$CHAMFERB
 40
10.0
  9
$CHAMFERC
 40
20.0
  9
$CHAMFERD
 40
0.0
  9
$SKPOLY
 70
     0
  9
$TDCREATE
 40
2456231.748506945
  9
$TDUCREATE
 40
2456231.373506945
  9
$TDUPDATE
 40
2456231.748506945
  9
$TDUUPDATE
 40
2456231.373506945
  9
$TDINDWG
 40
0.0000000116
  9
$TDUSRTIMER
 40
0.0000000116
  9
$USRTIMER
 70
     1
  9
$ANGBASE
 50
0.0
  9
$ANGDIR
 70
     0
  9
$PDMODE
 70
     0
  9
$PDSIZE
 40
0.0
  9
$PLINEWID
 40
0.0
  9
$SPLFRAME
 70
     0
  9
$SPLINETYPE
 70
     6
  9
$SPLINESEGS
 70
     8
  9
$HANDSEED
  5
6F
  9
$SURFTAB1
 70
     6
  9
$SURFTAB2
 70
     6
  9
$SURFTYPE
 70
     6
  9
$SURFU
 70
     6
  9
$SURFV
 70
     6
  9
$UCSBASE
  2

  9
$UCSNAME
  2

  9
$UCSORG
 10
0.0
 20
0.0
 30
0.0
  9
$UCSXDIR
 10
1.0
 20
0.0
 30
0.0
  9
$UCSYDIR
 10
0.0
 20
1.0
 30
0.0
  9
$UCSORTHOREF
  2

  9
$UCSORTHOVIEW
 70
     0
  9
$UCSORGTOP
 10
0.0
 20
0.0
 30
0.0
  9
$UCSORGBOTTOM
 10
0.0
 20
0.0
 30
0.0
  9
$UCSORGLEFT
 10
0.0
 20
0.0
 30
0.0
  9
$UCSORGRIGHT
 10
0.0
 20
0.0
 30
0.0
  9
$UCSORGFRONT
 10
0.0
 20
0.0
 30
0.0
  9
$UCSORGBACK
 10
0.0
 20
0.0
 30
0.0
  9
$PUCSBASE
  2

  9
$PUCSNAME
  2

  9
$PUCSORG
 10
0.0
 20
0.0
 30
0.0
  9
$PUCSXDIR
 10
1.0
 20
0.0
 30
0.0
  9
$PUCSYDIR
 10
0.0
 20
1.0
 30
0.0
  9
$PUCSORTHOREF
  2

  9
$PUCSORTHOVIEW
 70
     0
  9
$PUCSORGTOP
 10
0.0
 20
0.0
 30
0.0
  9
$PUCSORGBOTTOM
 10
0.0
 20
0.0
 30
0.0
  9
$PUCSORGLEFT
 10
0.0
 20
0.0
 30
0.0
  9
$PUCSORGRIGHT
 10
0.0
 20
0.0
 30
0.0
  9
$PUCSORGFRONT
 10
0.0
 20
0.0
 30
0.0
  9
$PUCSORGBACK
 10
0.0
 20
0.0
 30
0.0
  9
$USERI1
 70
     0
  9
$USERI2
 70
     0
  9
$USERI3
 70
     0
  9
$USERI4
 70
     0
  9
$USERI5
 70
     0
  9
$USERR1
 40
0.0
  9
$USERR2
 40
0.0
  9
$USERR3
 40
0.0
  9
$USERR4
 40
0.0
  9
$USERR5
 40
0.0
  9
$WORLDVIEW
 70
     1
  9
$SHADEDGE
 70
     3
  9
$SHADEDIF
 70
    70
  9
$TILEMODE
 70
     1
  9
$MAXACTVP
 70
    64
  9
$PINSBASE
 10
0.0
 20
0.0
 30
0.0
  9
$PLIMCHECK
 70
     0
  9
$PEXTMIN
 10
1.000000000000000E+20
 20
1.000000000000000E+20
 30
1.000000000000000E+20
  9
$PEXTMAX
 10
-1.000000000000000E+20
 20
-1.000000000000000E+20
 30
-1.000000000000000E+20
  9
$PLIMMIN
 10
0.0
 20
0.0
  9
$PLIMMAX
 10
420.0
 20
297.0
  9
$UNITMODE
 70
     0
  9
$VISRETAIN
 70
     1
  9
$PLINEGEN
 70
     0
  9
$PSLTSCALE
 70
     1
  9
$TREEDEPTH
 70
  3020
  9
$CMLSTYLE
  2
Standard
  9
$CMLJUST
 70
     0
  9
$CMLSCALE
 40
20.0
  9
$PROXYGRAPHICS
 70
     1
  9
$MEASUREMENT
 70
     1
  9
$CELWEIGHT
370
    -1
  9
$ENDCAPS
280
     0
  9
$JOINSTYLE
280
     0
  9
$LWDISPLAY
290
     0
  9
$INSUNITS
 70
     4
  9
$HYPERLINKBASE
  1

  9
$STYLESHEET
  1

  9
$XEDIT
290
     1
  9
$CEPSNTYPE
380
     0
  9
$PSTYLEMODE
290
     1
  9
$FINGERPRINTGUID
  2
{92905EEA-4798-D3AF-0738-BBE039DCC74E}
  9
$VERSIONGUID
  2
{FAEB1C32-E019-11D5-929B-00C0DF256EC4}
  9
$EXTNAMES
290
     1
  9
$PSVPSCALE
 40
0.0
  9
$OLESTARTUP
290
     0
  9
$SORTENTS
280
   127
  9
$INDEXCTL
280
     0
  9
$HIDETEXT
280
     1
  9
$XCLIPFRAME
280
     2
  9
$HALOGAP
280
     0
  9
$OBSCOLOR
 70
   257
  9
$OBSLTYPE
280
     0
  9
$INTERSECTIONDISPLAY
280
     0
  9
$INTERSECTIONCOLOR
 70
   257
  9
$DIMASSOC
280
     2
  9
$PROJECTNAME
  1

  9
$CAMERADISPLAY
290
     0
  9
$LENSLENGTH
 40
50.0
  9
$CAMERAHEIGHT
 40
0.0
  9
$STEPSPERSEC
 40
2.0
  9
$STEPSIZE
 40
6.0
  9
$3DDWFPREC
 40
2.0
  9
$PSOLWIDTH
 40
5.0
  9
$PSOLHEIGHT
 40
80.0
  9
$LOFTANG1
 40
1.570796326794897
  9
$LOFTANG2
 40
1.570796326794897
  9
$LOFTMAG1
 40
0.0
  9
$LOFTMAG2
 40
0.0
  9
$LOFTPARAM
 70
     7
  9
$LOFTNORMALS
280
     1
  9
$LATITUDE
 40
37.795
  9
$LONGITUDE
 40
-122.394
  9
$NORTHDIRECTION
 40
0.0
  9
$TIMEZONE
 70
 -8000
  9
$LIGHTGLYPHDISPLAY
280
     1
  9
$TILEMODELIGHTSYNCH
280
     1
  9
$CMATERIAL
347
3C
  9
$SOLIDHIST
280
     1
  9
$SHOWHIST
280
     1
  9
$DWFFRAME
280
     2
  9
$DGNFRAME
280
     2
  9
$REALWORLDSCALE
290
     1
  9
$INTERFERECOLOR
 62
   256
  9
$CSHADOW
280
     0
  9
$SHADOWPLANELOCATION
 40
0.0
  0
ENDSEC
  0
SECTION
  2
CLASSES
  0
CLASS
  1
ACDBDICTIONARYWDFLT
  2
AcDbDictionaryWithDefault
  3
ObjectDBX Classes
 90
        0
 91
        4
280
     0
281
     0
  0
CLASS
  1
VISUALSTYLE
  2
AcDbVisualStyle
  3
ObjectDBX Classes
 90
     4095
 91
        4
280
     0
281
     0
  0
CLASS
  1
MATERIAL
  2
AcDbMaterial
  3
ObjectDBX Classes
 90
     1153
 91
        4
280
     0
281
     0
  0
CLASS
  1
SUN
  2
AcDbSun
  3
SCENEOE
 90
     1024
 91
        4
280
     0
281
     0
  0
ENDSEC
  0
SECTION
  2
TABLES
  0
TABLE
  2
VPORT
  5
8
330
0
100
AcDbSymbolTable
 70
     1
  0
VPORT
  5
29
330
8
100
AcDbSymbolTableRecord
100
AcDbViewportTableRecord
  2
*Active
 70
     0
 10
0.0
 20
0.0
 11
1.0
 21
1.0
 12
360.5069142256372
 22
77.37740091485402
 13
0.0
 23
0.0
 14
10.0
 24
10.0
 15
10.0
 25
10.0
 16
0.0
 26
0.0
 36
1.0
 17
0.0
 27
0.0
 37
0.0
 40
643.00113180099
 41
2.116173120728929
 42
50.0
 43
0.0
 44
0.0
 50
0.0
 51
0.0
 71
     0
 72
   100
 73
     1
 74
     3
 75
     0
 76
     0
 77
     0
 78
     0
281
     0
 65
     1
110
0.0
120
0.0
130
0.0
111
1.0
121
0.0
131
0.0
112
0.0
122
1.0
132
0.0
 79
     0
146
0.0
 60
     3
 61
     5
292
     1
282
     1
141
0.0
142
0.0
 63
   250
361
3F
  0
ENDTAB
  0
TABLE
  2
LTYPE
  5
5
330
0
100
AcDbSymbolTable
 70
     7
  0
LTYPE
  5
14
330
5
100
AcDbSymbolTableRecord
100
AcDbLinetypeTableRecord
  2
ByBlock
 70
     0
  3

 72
    65
 73
     0
 40
0.0
  0
LTYPE
  5
15
330
5
100
AcDbSymbolTableRecord
100
AcDbLinetypeTableRecord
  2
ByLayer
 70
     0
  3

 72
    65
 73
     0
 40
0.0
  0
LTYPE
  5
16
330
5
100
AcDbSymbolTableRecord
100
AcDbLinetypeTableRecord
  2
Continuous
 70
     0
  3
Solid line
 72
    65
 73
     0
 40
0.0
  0
LTYPE
  5
40
330
5
100
AcDbSymbolTableRecord
100
AcDbLinetypeTableRecord
  2
DOT
 70
     0
  3
Dot . . . . . . . . . . . . . . . . . . . . . . . .
 72
    65
 73
     2
 40
2.032
 49
1.016
 74
     0
 49
-1.016
 74
     0
  0
LTYPE
  5
41
330
5
100
AcDbSymbolTableRecord
100
AcDbLinetypeTableRecord
  2
CENTER
 70
     0
  3
Center ____ _ ____ _ ____ _ ____ _ ____ _ ____
 72
    65
 73
     4
 40
13.208
 49
8.128
 74
     0
 49
-1.524
 74
     0
 49
2.032
 74
     0
 49
-1.524
 74
     0
  0
LTYPE
  5
42
330
5
100
AcDbSymbolTableRecord
100
AcDbLinetypeTableRecord
  2
HIDDEN2
 70
     0
  3
Hidden (.5x) _ _ _ _ _ _ _ _ _ _ _ _ _ _ _ _ _
 72
    65
 73
     2
 40
4.762499999999999
 49
3.175
 74
     0
 49
-1.5875
 74
     0
  0
LTYPE
  5
43
330
5
100
AcDbSymbolTableRecord
100
AcDbLinetypeTableRecord
  2
DASHED
 70
     0
  3
Dashed __ __ __ __ __ __ __ __ __ __ __ __ __ _
 72
    65
 73
     2
 40
9.652
 49
8.128
 74
     0
 49
-1.524
 74
     0
  0
LTYPE
  5
44
330
5
100
AcDbSymbolTableRecord
100
AcDbLinetypeTableRecord
  2
PHANTOM2
 70
     0
  3
Phantom (.5x) ___ _ _ ___ _ _ ___ _ _ ___ _ _
 72
    65
 73
     6
 40
14.732
 49
8.128
 74
     0
 49
-1.524
 74
     0
 49
1.016
 74
     0
 49
-1.524
 74
     0
 49
1.016
 74
     0
 49
-1.524
 74
     0
  0
LTYPE
  5
45
330
5
100
AcDbSymbolTableRecord
100
AcDbLinetypeTableRecord
  2
DASHDOT
 70
     0
  3
Dash dot __ . __ . __ . __ . __ . __ . __ . __
 72
    65
 73
     4
 40
11.176
 49
8.128
 74
     0
 49
-1.524
 74
     0
 49
0.0
 74
     0
 49
-1.524
 74
     0
  0
ENDTAB
  0
TABLE
  2
LAYER
  5
2
330
0
100
AcDbSymbolTable
 70
     7
  0
LAYER
  5
10
330
2
100
AcDbSymbolTableRecord
100
AcDbLayerTableRecord
  2
0
 70
     0
 62
     5
  6
Continuous
370
    -3
390
F
347
3E
  0
LAYER
  5
46
330
2
100
AcDbSymbolTableRecord
100
AcDbLayerTableRecord
  2
Default
 70
     0
 62
     255
  6
Continuous
370
    -3
390
F
347
3E
  0
LAYER
  5
78
330
2
100
AcDbSymbolTableRecord
100
AcDbLayerTableRecord
  2
main_beam
 70
0
 62
255
  6
Continuous
370
    -3
390
F
347
3E
  0
LAYER
  5
85
330
2
100
AcDbSymbolTableRecord
100
AcDbLayerTableRecord
  2
main_beam_width
 70
0
 62
255
  6
Continuous
370
    -3
390
F
347
3E
  0
LAYER
  5
9e
330
2
100
AcDbSymbolTableRecord
100
AcDbLayerTableRecord
  2
text
 70
0
 62
255
  6
Continuous
370
    -3
390
F
347
3E
  0
LAYER
  5
ae
330
2
100
AcDbSymbolTableRecord
100
AcDbLayerTableRecord
  2
Mirrors
 70
0
 62
255
  6
Continuous
370
    -3
390
F
347
3E
  0
ENDTAB
  0
TABLE
  2
STYLE
  5
3
330
0
100
AcDbSymbolTable
 70
    33
  0
STYLE
  5
11
330
3
100
AcDbSymbolTableRecord
100
AcDbTextStyleTableRecord
  2
Standard
 70
     0
 40
0.0
 41
1.0
 50
0.0
 71
     0
 42
2.5
  3
txt
  4

  0
ENDTAB
  0
TABLE
  2
VIEW
  5
6
330
0
100
AcDbSymbolTable
 70
     0
  0
ENDTAB
  0
TABLE
  2
UCS
  5
7
330
0
100
AcDbSymbolTable
 70
     0
  0
ENDTAB
  0
TABLE
  2
APPID
  5
9
330
0
100
AcDbSymbolTable
 70
     1
  0
APPID
  5
12
330
9
100
AcDbSymbolTableRecord
100
AcDbRegAppTableRecord
  2
ACAD
 70
     0
  0
ENDTAB
  0
TABLE
  2
DIMSTYLE
  5
A
330
0
100
AcDbSymbolTable
 70
     1
100
AcDbDimStyleTable
  0
DIMSTYLE
105
27
330
A
100
AcDbSymbolTableRecord
100
AcDbDimStyleTableRecord
  2
ISO-25
 70
     0
 41
2.5
 42
0.625
 43
3.75
 44
1.25
 73
     0
 74
     0
 77
     1
 78
     8
140
2.5
141
2.5
143
0.03937007874016
147
0.625
171
     3
172
     1
178
     0
271
     2
272
     2
274
     3
278
    44
283
     0
284
     8
340
11
  0
ENDTAB
  0
TABLE
  2
BLOCK_RECORD
  5
1
330
0
100
AcDbSymbolTable
 70
     1
  0
BLOCK_RECORD
  5
1F
330
1
100
AcDbSymbolTableRecord
100
AcDbBlockTableRecord
  2
*Model_Space
340
22
 70
     0
280
     1
281
     0
  0
BLOCK_RECORD
  5
1B
330
1
100
AcDbSymbolTableRecord
100
AcDbBlockTableRecord
  2
*Paper_Space
340
1E
 70
     0
280
     1
281
     0
  0
BLOCK_RECORD
  5
23
330
1
100
AcDbSymbolTableRecord
100
AcDbBlockTableRecord
  2
*Paper_Space0
340
26
 70
     0
280
     1
281
     0
  0
ENDTAB
    0
ENDSEC
  0
SECTION
  2
BLOCKS
  0
BLOCK
  5
20
330
1F
100
AcDbEntity
  8
0
100
AcDbBlockBegin
  2
*Model_Space
 70
     0
 10
0.0
 20
0.0
 30
0.0
  3
*Model_Space
  1

  0
ENDBLK
  5
21
330
1F
100
AcDbEntity
  8
0
100
AcDbBlockEnd
  0
BLOCK
  5
1C
330
1B
100
AcDbEntity
 67
     1
  8
0
100
AcDbBlockBegin
  2
*Paper_Space
 70
     0
 10
0.0
 20
0.0
 30
0.0
  3
*Paper_Space
  1

  0
ENDBLK
  5
1D
330
1B
100
AcDbEntity
 67
     1
  8
0
100
AcDbBlockEnd
  0
BLOCK
  5
24
330
23
100
AcDbEntity
  8
0
100
AcDbBlockBegin
  2
*Paper_Space0
 70
     0
 10
0.0
 20
0.0
 30
0.0
  3
*Paper_Space0
  1

  0
ENDBLK
  5
25
330
23
100
AcDbEntity
  8
0
100
AcDbBlockEnd
  0
ENDSEC
  0
SECTION
  2
ENTITIES
  0
LINE
  5
79
330
1F
100
AcDbEntity
  8
main_beam
100
AcDbLine
 10
0.0
 20
0.0
 30
0.0
  11
499.9415205870579
 21
88.1531788559148
 31
0.0
  0
LINE
  5
7a
330
1F
100
AcDbEntity
  8
main_beam
100
AcDbLine
 10
499.9415205870579
 20
88.1531788559148
 30
0.0
  11
593.4755803356371
 21
99.1396273666269
 31
0.0
  0
LINE
  5
7b
330
1F
100
AcDbEntity
  8
main_beam
100
AcDbLine
 10
593.4755803356371
 20
99.1396273666269
 30
0.0
  11
686.3273854326678
 21
114.8833459284003
 31
0.0
  0
LINE
  5
7c
330
1F
100
AcDbEntity
  8
main_beam
100
AcDbLine
 10
593.4755803356371
 20
99.1396273666269
 30
0.0
  11
499.9639854998986
 21
109.2969620414086
 31
0.0
  0
LINE
  5
7d
330
1F
100
AcDbEntity
  8
main_beam
100
AcDbLine
 10
499.9639854998986
 20
109.2969620414086
 30
0.0
  11
593.3805835793816
 21
120.91114200276888
 31
0.0
  0
LINE
  5
7e
330
1F
100
AcDbEntity
  8
main_beam
100
AcDbLine
 10
593.3805835793816
 20
120.91114200276888
 30
0.0
  11
686.0315471585878
 21
137.56493798936242
 31
0.0
  0
LINE
  5
7f
330
1F
100
AcDbEntity
  8
main_beam
100
AcDbLine
 10
499.9415205870579
 20
88.1531788559148
 30
0.0
  11
-0.5870306074173826
 21
186.63702314030846
 31
0.0
  0
LINE
  5
80
330
1F
100
AcDbEntity
  8
main_beam
100
AcDbLine
 10
-0.5870306074173826
 20
186.63702314030846
 30
0.0
  11
-52.125765745519914
 21
192.0644237435597
 31
0.0
  0
LINE
  5
81
330
1F
100
AcDbEntity
  8
main_beam
100
AcDbLine
 10
-52.125765745519914
 20
192.0644237435597
 30
0.0
  11
-102.96263690396115
 21
202.12973187414875
 31
0.0
  0
LINE
  5
82
330
1F
100
AcDbEntity
  8
main_beam
100
AcDbLine
 10
-0.5870306074173826
 20
186.63702314030846
 30
0.0
  11
252.72050932943796
 21
285.649464166713
 31
0.0
  0
LINE
  5
83
330
1F
100
AcDbEntity
  8
main_beam
100
AcDbLine
 10
252.72050932943796
 20
285.649464166713
 30
0.0
  11
298.5128152580625
 21
303.821043368039
 31
0.0
  0
LINE
  5
84
330
1F
100
AcDbEntity
  8
main_beam
100
AcDbLine
 10
298.5128152580625
 20
303.821043368039
 30
0.0
  11
344.2461385714545
 21
322.1405606008584
 31
0.0
  0
LWPOLYLINE
  5
86
330
1F
100
AcDbEntity
  8
main_beam_width
100
AcDbPolyline
 90
19
 70
0
43
0.0
 10
-0.1562833599002373
 20
0.8863269777109871
 10
27.637091554817903
 20
5.792188670728079
 10
55.42873756117398
 20
10.70785549030671
 10
83.21873710351598
 20
15.632859871315006
 10
111.00721389186653
 20
20.566500219350775
 10
138.79431700662263
 20
25.507931057468664
 10
166.58020539521345
 20
30.456250950003803
 10
194.3650355372117
 20
35.410572457200104
 10
222.1489532664138
 20
40.37006851449906
 10
249.93208940857866
 20
45.33399717215258
 10
277.7145582800441
 20
50.30171010999264
 10
305.4964580212596
 20
55.27265074587207
 10
333.27787193389275
 20
60.24634665255847
 10
361.058870248723
 20
65.22239953150842
 10
388.83951197542535
 20
70.20047472222518
 10
416.6198466462191
 20
75.1802913135342
 10
444.39991586816836
 20
80.16161334004886
 10
472.1797546587688
 20
85.14424220768267
 10
499.9593925711035
 20
90.12801031257271
  0
LWPOLYLINE
  5
87
330
1F
100
AcDbEntity
  8
main_beam_width
100
AcDbPolyline
 90
19
 70
0
43
0.0
 10
0.1562833599002373
 20
-0.8863269777109871
 10
27.91180521464686
 20
4.00259517613931
 10
55.66905114777208
 20
8.881739595625465
 10
83.42793916534393
 20
13.751571291443259
 10
111.18834619887332
 20
18.61278821967719
 10
138.95012388472188
 20
23.46623179233256
 10
166.71311396922897
 20
28.312799510517607
 10
194.4771605815946
 20
33.153375361466615
 10
222.24211838573717
 20
37.98878358705668
 10
250.00785694214983
 20
42.819763946491825
 10
277.77426222277177
 20
47.64696312504033
 10
305.541236295948
 20
52.470936520716684
 10
333.30869600761383
 20
57.29215572365597
 10
361.0765712291262
 20
62.11101845315659
 10
388.8448030199916
 20
66.92785897736793
 10
416.6133418937092
 20
71.7429579481823
 10
444.3821462724555
 20
76.5565511651549
 10
472.15118115653485
 20
81.36883712142222
 10
499.92041700280845
 20
86.17998336445125
  0
LWPOLYLINE
  5
88
330
1F
100
AcDbEntity
  8
main_beam_width
100
AcDbPolyline
 90
10
 70
0
43
0.0
 10
499.95938959815874
 20
90.12764895200053
 10
510.349028767177
 20
91.37513633597617
 10
520.738660726798
 20
92.62268509776743
 10
531.1282857633297
 20
93.87029279986437
 10
541.5179041486994
 20
95.11795712719262
 10
551.9075161413066
 20
96.36567587984608
 10
562.2971219868197
 20
97.61344696630586
 10
572.6867219189195
 20
98.86126839710997
 10
583.0763161599938
 20
100.10913827894156
 10
593.4659049217861
 20
101.35705480910515
  0
LWPOLYLINE
  5
89
330
1F
100
AcDbEntity
  8
main_beam_width
100
AcDbPolyline
 90
10
 70
0
43
0.0
 10
499.9204128298892
 20
86.17962105625469
 10
510.31647944547245
 20
87.37361152540787
 10
520.7125532846816
 20
88.56754049561023
 10
531.1086340604883
 20
89.76141041050128
 10
541.5047215002886
 20
90.95522359091902
 10
551.900815345046
 20
92.14898224219165
 10
562.2969153484927
 20
93.34268846094163
 10
572.6930212763833
 20
94.536344241437
 10
583.0891329057981
 20
95.72995148152297
 10
593.4852500244925
 20
96.92351198816364
  0
LWPOLYLINE
  5
8a
330
1F
100
AcDbEntity
  8
main_beam_width
100
AcDbPolyline
 90
10
 70
0
43
0.0
 10
593.4659016766806
 20
101.35779852778626
 10
603.7365216467523
 20
103.13973226450923
 10
614.0071263619892
 20
104.92175596974519
 10
624.2777166152455
 20
106.70386496747453
 10
634.5482931469122
 20
108.48605489108877
 10
644.8188566490569
 20
110.26832165897807
 10
655.0894077691897
 20
112.05066145231838
 10
665.3599471136941
 20
113.83307069483918
 10
675.6304752509549
 20
115.61554603437601
 10
685.9009927142123
 20
117.39808432603341
  0
LWPOLYLINE
  5
8b
330
1F
100
AcDbEntity
  8
main_beam_width
100
AcDbPolyline
 90
10
 70
0
43
0.0
 10
593.485246785797
 20
96.9242542377646
 10
603.8483616679555
 20
98.64061945600236
 10
614.2114920921738
 20
100.35689301175876
 10
624.574637243903
 20
102.07307970900284
 10
634.9377963629338
 20
103.78918403122393
 10
645.3009687390753
 20
105.5052101669199
 10
655.664153708225
 20
107.22116203277088
 10
666.0273506487928
 20
108.93704329473056
 10
676.3905589784432
 20
110.65285738724263
 10
686.7537781511232
 20
112.36860753076719
  0
LWPOLYLINE
  5
8c
330
1F
100
AcDbEntity
  8
main_beam_width
100
AcDbPolyline
 90
10
 70
0
43
0.0
 10
593.4852500244925
 20
96.92351198816364
 10
583.0958571325433
 20
98.02448504440761
 10
572.7064595397444
 20
99.1254148231601
 10
562.317057415355
 20
100.2263028826759
 10
551.9276509208461
 20
101.32715070950697
 10
541.5382402103288
 20
102.42795972244845
 10
531.1488254309561
 20
103.52873127623612
 10
520.7594067232992
 20
104.62946666501269
 10
510.36998422170075
 20
105.73016712557896
 10
499.9805580546064
 20
106.83083384044461
  0
LWPOLYLINE
  5
8d
330
1F
100
AcDbEntity
  8
main_beam_width
100
AcDbPolyline
 90
10
 70
0
43
0.0
 10
593.4659049217861
 20
101.35705480910516
 10
583.0743786059891
 20
102.51335206312697
 10
572.6828569899324
 20
103.66969258442495
 10
562.2913399043542
 20
104.82607481472355
 10
551.8998271877839
 20
105.98249726747173
 10
541.5083186861121
 20
107.13895852389436
 10
531.1168142521905
 20
108.2954572292926
 10
520.7253137454529
 20
109.45199208957546
 10
510.3338170315641
 20
110.60856186800693
 10
499.9423239820865
 20
111.7651653821535
  0
LWPOLYLINE
  5
8e
330
1F
100
AcDbEntity
  8
main_beam_width
100
AcDbPolyline
 90
20
 70
0
43
0.0
 10
499.94231842090454
 20
111.76573255963304
 10
504.85941335033266
 20
112.41086128213699
 10
509.7765074070205
 20
113.05599702437296
 10
514.6936006253733
 20
113.70113950960902
 10
519.6106930380174
 20
114.34628847541865
 10
524.5277846759143
 20
114.99144367277121
 10
529.4448755684641
 20
115.63660486519106
 10
534.3619657436029
 20
116.28177182797872
 10
539.2790552278925
 20
116.92694434748923
 10
544.1961440466036
 20
117.5721222204628
 10
549.1132322237929
 20
118.21730525340328
 10
554.0303197823752
 20
118.86249326200067
 10
558.9474067441895
 20
119.50768607059392
 10
563.8644931300623
 20
120.152883511671
 10
568.7815789598645
 20
120.79808542540314
 10
573.6986642525661
 20
121.44329165921039
 10
578.6157490262857
 20
122.08850206735649
 10
583.5328332983383
 20
122.7337165105704
 10
588.4499170852797
 20
123.37893485569263
 10
593.3670004029461
 20
124.0241569753445
  0
LWPOLYLINE
  5
8f
330
1F
100
AcDbEntity
  8
main_beam_width
100
AcDbPolyline
 90
20
 70
0
43
0.0
 10
499.98055455755144
 20
106.83144814453541
 10
504.89705288918896
 20
107.40895963794225
 10
509.81355209455336
 20
107.98646410368163
 10
514.730052139209
 20
108.56396181873116
 10
519.6465529904998
 20
109.14145304575398
 10
524.5630546174361
 20
109.71893803400853
 10
529.4795569905906
 20
110.29641702018989
 10
534.3960600820008
 20
110.87389022920885
 10
539.3125638650795
 20
111.45135787491384
 10
544.229068314532
 20
112.02882016076067
 10
549.1455734062778
 20
112.60627728043437
 10
554.0620791173798
 20
113.18372941842692
 10
558.9785854259767
 20
113.76117675057468
 10
563.8950923112213
 20
114.33861944455867
 10
568.8115997532225
 20
114.91605766037064
 10
573.7281077329908
 20
115.49349155074756
 10
578.6446162323884
 20
116.07092126157717
 10
583.5611252340823
 20
116.64834693227661
 10
588.4776347214996
 20
117.22576869614628
 10
593.3941446787867
 20
117.80318668070088
  0
LWPOLYLINE
  5
90
330
1F
100
AcDbEntity
  8
main_beam_width
100
AcDbPolyline
 90
30
 70
0
43
0.0
 10
593.366987827011
 20
124.02703914906884
 10
596.5379326494691
 20
124.62952457695555
 10
599.7088768977596
 20
125.23201319913923
 10
602.8798205893005
 20
125.834504918719
 10
606.0507637408134
 20
126.43699964266503
 10
609.2217063683588
 20
127.03949728162777
 10
612.392648487368
 20
127.64199774975812
 10
615.5635901126733
 20
128.244500964538
 10
618.7345312585369
 20
128.84700684662073
 10
621.9054719386786
 20
129.44951531968042
 10
625.0764121663001
 20
130.0520263102698
 10
628.2473519541101
 20
130.65453974768624
 10
631.4182913143468
 20
131.25705556384474
 10
634.5892302587991
 20
131.85957369315835
 10
637.7601687988276
 20
132.46209407242472
 10
640.9311069453836
 20
133.06461664071898
 10
644.1020447090268
 20
133.6671413392922
 10
647.2729820999433
 20
134.2696681114753
 10
650.4439191279621
 20
134.8721969025881
 10
653.6148558025694
 20
135.4747276598527
 10
656.785792132925
 20
136.077260332312
 10
659.9567281278751
 20
136.67979487075155
 10
663.1276637959656
 20
137.28233122762612
 10
666.2985991454555
 20
137.88486935698955
 10
669.4695341843276
 20
138.48740921442817
 10
672.6404689203016
 20
139.08995075699758
 10
675.811403360843
 20
139.69249394316242
 10
678.9823375131748
 20
140.29503873273913
 10
682.1532713842869
 20
140.89758508684164
 10
685.3242049809447
 20
141.50013296782933
  0
LWPOLYLINE
  5
91
330
1F
100
AcDbEntity
  8
main_beam_width
100
AcDbPolyline
 90
30
 70
0
43
0.0
 10
593.3941321671689
 20
117.80605411411423
 10
596.6129104078647
 20
118.35173466094716
 10
599.8316892418617
 20
118.8974119070362
 10
603.0504686509006
 20
119.44308595396353
 10
606.2692486174622
 20
119.98875689919485
 10
609.48802912473
 20
120.53442483628544
 10
612.7068101565559
 20
121.08008985507387
 10
615.925591697427
 20
121.62575204186425
 10
619.1443737324346
 20
122.17141147959816
 10
622.3631562472453
 20
122.71706824801633
 10
625.5819392280742
 20
123.26272242381134
 10
628.8007226616579
 20
123.80837408077156
 10
632.0195065352304
 20
124.35402328991707
 10
635.2382908365009
 20
124.89967011962803
 10
638.4570755536307
 20
125.44531463576597
 10
641.6758606752137
 20
125.99095690178846
 10
644.8946461902558
 20
126.53659697885769
 10
648.1134320881577
 20
127.08223492594293
 10
651.3322183586963
 20
127.62787079991803
 10
654.5510049920088
 20
128.1735046556533
 10
657.7697919785768
 20
128.71913654610287
 10
660.9885793092117
 20
129.26476652238762
 10
664.2073669750397
 20
129.81039463387344
 10
667.4261549674895
 20
130.356020928246
 10
670.6449432782792
 20
130.90164545158146
 10
673.8637318994041
 20
131.44726824841354
 10
677.0825208231247
 20
131.99288936179767
 10
680.3013100419569
 20
132.53850883337162
 10
683.5200995486608
 20
133.08412670341323
 10
686.7388893362311
 20
133.62974301089557
  0
LWPOLYLINE
  5
92
330
1F
100
AcDbEntity
  8
main_beam_width
100
AcDbPolyline
 90
10
 70
0
43
0.0
 10
499.92040997746693
 20
86.17937340392491
 10
444.3319064712055
 20
97.13160400247814
 10
388.7425979028627
 20
108.0797430004225
 10
333.15247136558105
 20
119.02372480069832
 10
277.5615191818129
 20
129.96351038338435
 10
221.96973915547957
 20
140.89908858725838
 10
166.37713464505498
 20
151.83047648123272
 10
110.78371445197122
 20
162.75771879719218
 10
55.18949253288136
 20
173.68088646761794
 10
-0.405512442699707
 20
184.60007437736445
  0
LWPOLYLINE
  5
93
330
1F
100
AcDbEntity
  8
main_beam_width
100
AcDbPolyline
 90
10
 70
0
43
0.0
 10
499.95938762259215
 20
90.12740882978308
 10
444.3195389208547
 20
101.06047819174783
 10
388.6804968169779
 20
111.99764695967572
 10
333.0422741787095
 20
122.93898053185859
 10
277.4048786224254
 20
133.88451761732168
 10
221.76831226249578
 20
144.83426896201695
 10
166.13257164080002
 20
155.78821699059316
 10
110.4976478418021
 20
166.74631639124982
 10
54.86352678437279
 20
177.70849559887603
 10
-0.7698103314898175
 20
188.67465906543856
  0
LWPOLYLINE
  5
94
330
1F
100
AcDbEntity
  8
main_beam_width
100
AcDbPolyline
 90
10
 70
0
43
0.0
 10
-0.4054899062177976
 20
184.59982064040003
 10
-6.131332484923217
 20
185.2024149005358
 10
-11.857176960244097
 20
185.8049911503626
 10
-17.583023331063256
 20
186.40754940048924
 10
-23.308871596213162
 20
187.01008966200249
 10
-29.034721754476106
 20
187.6126119464659
 10
-34.76057380458435
 20
188.21511626591794
 10
-40.4864277452203
 20
188.81760263287046
 10
-46.212283575016684
 20
189.420071060307
 10
-51.93814129255676
 20
190.0225215616812
  0
LWPOLYLINE
  5
95
330
1F
100
AcDbEntity
  8
main_beam_width
100
AcDbPolyline
 90
10
 70
0
43
0.0
 10
-0.7697874185497524
 20
188.67440446714116
 10
-6.4968627379490265
 20
189.27788766690793
 10
-12.223936160014135
 20
189.88138888380854
 10
-17.951007685869964
 20
190.48490810716103
 10
-23.678077316691763
 20
191.08844532580525
 10
-29.405145053704988
 20
191.69200052810413
 10
-35.132210898185164
 20
192.2955737019454
 10
-40.859274851457656
 20
192.89916483474326
 10
-46.58633691489754
 20
193.5027739134399
 10
-52.31339708992942
 20
194.10640092450734
  0
LWPOLYLINE
  5
96
330
1F
100
AcDbEntity
  8
main_beam_width
100
AcDbPolyline
 90
10
 70
0
43
0.0
 10
-51.93814540680586
 20
190.02256633673096
 10
-57.65012950493848
 20
191.1526664749408
 10
-63.36212163778672
 20
192.28272603219688
 10
-69.07412179489394
 20
193.41274506131268
 10
-74.78612996531722
 20
194.5427236175577
 10
-80.49814613763073
 20
195.6726617586403
 10
-86.21017029992933
 20
196.80255954468979
 10
-91.9222024398322
 20
197.93241703823796
 10
-97.63424254448671
 20
199.06223430419988
 10
-103.34629060057222
 20
200.19201140985382
  0
LWPOLYLINE
  5
97
330
1F
100
AcDbEntity
  8
main_beam_width
100
AcDbPolyline
 90
10
 70
0
43
0.0
 10
-52.31340123582766
 20
194.10644604399232
 10
-57.89849652449136
 20
195.21306984259294
 10
-63.48358413233199
 20
196.3197324347414
 10
-69.06866406920213
 20
197.42643377067523
 10
-74.65373634539849
 20
198.53317379838893
 10
-80.2388009716588
 20
199.63995246364934
 10
-85.82385795915867
 20
200.74676971001173
 10
-91.40890731950834
 20
201.85362547883648
 10
-96.99394906474913
 20
202.96051970930623
 10
-102.57898320735009
 20
204.06745233844364
  0
LWPOLYLINE
  5
98
330
1F
100
AcDbEntity
  8
main_beam_width
100
AcDbPolyline
 90
10
 70
0
43
0.0
 10
-0.7698414473930836
 20
188.67500481104662
 10
27.294956089949384
 20
199.69555780698582
 10
55.359375839737616
 20
210.7170773121332
 10
83.42344369814357
 20
221.73949707526288
 10
111.48718369960679
 20
232.76275560809407
 10
139.5506181220859
 20
243.78679591602264
 10
167.61376759551243
 20
254.8115652206588
 10
195.67665121052613
 20
265.8370146816452
 10
223.73928662532612
 20
276.8630991232956
 10
251.80169016908638
 20
287.88977677002276
  0
LWPOLYLINE
  5
99
330
1F
100
AcDbEntity
  8
main_beam_width
100
AcDbPolyline
 90
10
 70
0
43
0.0
 10
-0.40554334045239354
 20
184.60042225305975
 10
27.820362754274093
 20
195.58250135211142
 10
56.04665096226711
 20
206.56360287530978
 10
84.27329497463388
 20
217.54379412976127
 10
112.50027038104702
 20
228.5231375653957
 10
140.72755456224084
 20
239.50169104999685
 10
168.95512657913127
 20
250.479508152872
 10
197.18296706159316
 20
261.45663842939734
 10
225.41105809914274
 20
272.43312770068917
 10
253.63938313513452
 20
283.40901832428455
  0
LWPOLYLINE
  5
9a
330
1F
100
AcDbEntity
  8
main_beam_width
100
AcDbPolyline
 90
10
 70
0
43
0.0
 10
251.80167584064787
 20
287.8898117063658
 10
256.89200433321827
 20
289.9170770455288
 10
261.98232940735556
 20
291.9443509991296
 10
267.0726510915606
 20
293.97163349534577
 10
272.1629694140563
 20
295.9989244630557
 10
277.2532844027906
 20
298.02622383183115
 10
282.34359608543866
 20
300.0535315319303
 10
287.43390448940625
 20
302.08084749429105
 10
292.52420964183204
 20
304.10817165052396
 10
297.6145115695905
 20
306.13550393290546
  0
LWPOLYLINE
  5
9b
330
1F
100
AcDbEntity
  8
main_beam_width
100
AcDbPolyline
 90
10
 70
0
43
0.0
 10
253.63936880512838
 20
283.40905326445005
 10
258.7252855400865
 20
285.42000034459755
 10
263.81120568062624
 20
287.430938842693
 10
268.8971291984065
 20
289.4418688301563
 10
273.9830560653618
 20
291.4527903777121
 10
279.06898625369996
 20
293.4637035553965
 10
284.15491973589917
 20
295.4746084325643
 10
289.2408564847054
 20
297.48550507789577
 10
294.32679647312943
 20
299.49639355940343
 10
299.41273967444454
 20
301.5072739444387
  0
LWPOLYLINE
  5
9c
330
1F
100
AcDbEntity
  8
main_beam_width
100
AcDbPolyline
 90
10
 70
0
43
0.0
 10
297.6144983838627
 20
306.13553794140864
 10
302.68887828986726
 20
308.180775328655
 10
307.7632515314167
 20
310.22602935322175
 10
312.8376182013889
 20
312.27129978324626
 10
317.9119783910804
 20
314.31658639081354
 10
322.98633219023645
 20
316.3618889518813
 10
328.06067968708044
 20
318.407207246206
 10
333.1350209683433
 20
320.45254105727025
 10
338.20935611929184
 20
322.49789017221246
 10
343.28368522375587
 20
324.5432543817568
  0
LWPOLYLINE
  5
9d
330
1F
100
AcDbEntity
  8
main_beam_width
100
AcDbPolyline
 90
10
 70
0
43
0.0
 10
299.4127270052834
 20
301.5073064835856
 10
304.50113057104613
 20
303.5329888790672
 10
309.5895408160606
 20
305.5586546002896
 10
314.6779576471434
 20
307.58430387987823
 10
319.7663809726993
 20
309.6099369464938
 10
324.85481070269117
 20
311.63555402490755
 10
329.9432467486099
 20
313.6611553360758
 10
335.03168902344567
 20
315.68674109721235
 10
340.120137441659
 20
317.7123115218599
 10
345.20859191915304
 20
319.73786681996
  0
TEXT
  5
9f
330
1F
100
AcDbEntity
  8
text
100
AcDbText
 10
399.72426350916777
 20
80.63643861934385
 30
0.0
  40
10.0
  1

 50
0.0
 7
Standard
100
AcDbText
  0
TEXT
  5
a0
330
1F
100
AcDbEntity
  8
text
100
AcDbText
 10
492.99178462746505
 20
97.40561465664742
 30
0.0
  40
10.0
  1

 50
0.0
 7
Standard
100
AcDbText
  0
TEXT
  5
a1
330
1F
100
AcDbEntity
  8
text
100
AcDbText
 10
586.0628868683426
 20
108.02547981389756
 30
0.0
  40
10.0
  1

 50
0.0
 7
Standard
100
AcDbText
  0
TEXT
  5
a2
330
1F
100
AcDbEntity
  8
text
100
AcDbText
 10
598.2993679223414
 20
88.55684237367427
 30
0.0
  40
10.0
  1

 50
0.0
 7
Standard
100
AcDbText
  0
TEXT
  5
a3
330
1F
100
AcDbEntity
  8
text
100
AcDbText
 10
492.91082601782216
 20
118.49705511090059
 30
0.0
  40
10.0
  1

 50
0.0
 7
Standard
100
AcDbText
  0
TEXT
  5
a4
330
1F
100
AcDbEntity
  8
text
100
AcDbText
 10
585.8397634189437
 20
129.71595900682152
 30
0.0
  40
10.0
  1

 50
0.0
 7
Standard
100
AcDbText
  0
TEXT
  5
a5
330
1F
100
AcDbEntity
  8
text
100
AcDbText
 10
95.60112055735776
 20
157.5193382134059
 30
0.0
  40
10.0
  1

 50
0.0
 7
Standard
100
AcDbText
  0
TEXT
  5
a6
330
1F
100
AcDbEntity
  8
text
100
AcDbText
 10
46.27704212996819
 20
171.64660304154114
 30
0.0
  40
10.0
  1

 50
0.0
 7
Standard
100
AcDbText
  0
TEXT
  5
a7
330
1F
100
AcDbEntity
  8
text
100
AcDbText
 10
-6.809097789796036
 20
172.8979526634897
 30
0.0
  40
10.0
  1

 50
0.0
 7
Standard
100
AcDbText
  0
TEXT
  5
a8
330
1F
100
AcDbEntity
  8
text
100
AcDbText
 10
155.94222201192022
 20
258.5577107371546
 30
0.0
  40
10.0
  1

 50
0.0
 7
Standard
100
AcDbText
  0
TEXT
  5
a9
330
1F
100
AcDbEntity
  8
text
100
AcDbText
 10
201.8753041528938
 20
276.23134515659797
 30
0.0
  40
10.0
  1

 50
0.0
 7
Standard
100
AcDbText
  0
TEXT
  5
aa
330
1F
100
AcDbEntity
  8
text
100
AcDbText
 10
247.69832175127044
 20
294.23860605899534
 30
0.0
  40
10.0
  1

 50
0.0
 7
Standard
100
AcDbText
  0
TEXT
  5
ab
330
1F
100
AcDbEntity
  8
text
100
AcDbText
 10
518.4718262280012
 20
87.50000000000001
 30
0.0
  40
25.0
  1
M1
 50
0.0
 7
Standard
100
AcDbText
  0
TEXT
  5
ac
330
1F
100
AcDbEntity
  8
text
100
AcDbText
 10
-38.20547296577262
 20
171.5010625249228
 30
0.0
  40
12.5
  1
M2
 50
0.0
 7
Standard
100
AcDbText
  0
TEXT
  5
ad
330
1F
100
AcDbEntity
  8
text
100
AcDbText
 10
264.9564857262977
 20
284.9606510648072
 30
0.0
  40
12.5
  1
M3
 50
0.0
 7
Standard
100
AcDbText
  0
LINE
  5
af
330
1F
100
AcDbEntity
  8
Mirrors
100
AcDbLine
 10
493.4718262280012
 20
225.0
 30
0.0
  11
592.9264073754134
 21
225.0
 31
0.0
  0
LINE
  5
b0
330
1F
100
AcDbEntity
  8
Mirrors
100
AcDbLine
 10
594.0172450805889
 20
-25.000000000000007
 30
0.0
  11
493.47182622800113
 21
-24.999999999999993
 31
0.0
  0
LINE
  5
b1
330
1F
100
AcDbEntity
  8
Mirrors
100
AcDbLine
 10
503.47182622800113
 20
-24.999999999999993
 30
0.0
  11
503.47182622800113
 21
225.0
 31
0.0
  0
LWPOLYLINE
  5
b2
330
1F
100
AcDbEntity
  8
Mirrors
100
AcDbPolyline
 90
60
 70
0
43
0.0
 10
493.47182622800113
 20
-24.999999999999993
 10
493.9154103764487
 20
-20.68965517241378
 10
494.34327398937626
 20
-16.379310344827577
 10
494.7554339562115
 20
-12.068965517241375
 10
495.1519065236281
 20
-7.75862068965516
 10
495.5327072987863
 20
-3.4482758620689586
 10
495.8978512524397
 20
0.8620689655172431
 10
496.2473527219083
 20
5.172413793103459
 10
496.58122541392066
 20
9.48275862068966
 10
496.89948240732406
 20
13.793103448275861
 10
497.2021361556684
 20
18.10344827586208
 10
497.48919848965886
 20
22.413793103448278
 10
497.7606806194843
 20
26.724137931034495
 10
498.0165931370188
 20
31.034482758620697
 10
498.2569460178993
 20
35.3448275862069
 10
498.4817486234786
 20
39.65517241379311
 10
498.6910097026564
 20
43.96551724137932
 10
498.88473739358756
 20
48.27586206896552
 10
499.06293922527
 20
52.58620689655173
 10
499.2256221190116
 20
56.896551724137936
 10
499.37279238977715
 20
61.20689655172414
 10
499.5044557474171
 20
65.51724137931035
 10
499.6206172977763
 20
69.82758620689656
 10
499.7212815436854
 20
74.13793103448276
 10
499.80645238583486
 20
78.44827586206897
 10
499.87613312353074
 20
82.75862068965517
 10
499.93032645533464
 20
87.06896551724138
 10
499.96903447958584
 20
91.37931034482759
 10
499.99225869480813
 20
95.68965517241381
 10
500.0
 20
100.0
 10
500.0
 20
100.0
 10
499.99225869480813
 20
104.3103448275862
 10
499.96903447958584
 20
108.62068965517243
 10
499.93032645533464
 20
112.93103448275862
 10
499.87613312353074
 20
117.24137931034484
 10
499.80645238583486
 20
121.55172413793105
 10
499.7212815436854
 20
125.86206896551724
 10
499.6206172977763
 20
130.17241379310346
 10
499.5044557474171
 20
134.48275862068965
 10
499.37279238977715
 20
138.79310344827587
 10
499.2256221190116
 20
143.10344827586206
 10
499.06293922527
 20
147.41379310344826
 10
498.88473739358756
 20
151.72413793103448
 10
498.6910097026564
 20
156.0344827586207
 10
498.4817486234786
 20
160.3448275862069
 10
498.2569460178993
 20
164.65517241379314
 10
498.0165931370188
 20
168.9655172413793
 10
497.7606806194843
 20
173.2758620689655
 10
497.48919848965886
 20
177.58620689655174
 10
497.2021361556684
 20
181.89655172413794
 10
496.89948240732406
 20
186.20689655172416
 10
496.58122541392066
 20
190.51724137931038
 10
496.2473527219083
 20
194.82758620689654
 10
495.8978512524397
 20
199.13793103448276
 10
495.5327072987863
 20
203.44827586206898
 10
495.15190652362816
 20
207.75862068965517
 10
494.75543395621156
 20
212.0689655172414
 10
494.34327398937626
 20
216.37931034482762
 10
493.9154103764487
 20
220.68965517241378
 10
493.47182622800113
 20
225.0
  0
LINE
  5
b3
330
1F
100
AcDbEntity
  8
Mirrors
100
AcDbLine
 10
592.9264073754134
 20
225.0
 30
0.0
  11
594.0172450805889
 21
-25.000000000000007
 31
0.0
  0
LINE
  5
b4
330
1F
100
AcDbEntity
  8
Mirrors
100
AcDbLine
 10
5.736075192595381
 20
105.21535373673332
 30
0.0
  11
-43.747653690479616
 21
100.88608843047393
 31
0.0
  0
LINE
  5
b5
330
1F
100
AcDbEntity
  8
Mirrors
100
AcDbLine
 10
-57.4730271456529
 20
250.2582494819887
 30
0.0
  11
-7.337286219553336
 21
254.64455845049517
 31
0.0
  0
LINE
  5
b6
330
1F
100
AcDbEntity
  8
Mirrors
100
AcDbLine
 10
-12.318259710012065
 20
254.20877973675687
 30
0.0
  11
0.7551017021366528
 21
104.77957502299503
 31
0.0
  0
LWPOLYLINE
  5
b7
330
1F
100
AcDbEntity
  8
Mirrors
100
AcDbPolyline
 90
60
 70
0
43
0.0
 10
-7.337286219553337
 20
254.64455845049517
 10
-7.057615422943057
 20
252.07294068796782
 10
-6.779849568033677
 20
249.50115626463688
 10
-6.503988568985134
 20
246.92920518801253
 10
-6.230032343082801
 20
244.3570874653313
 10
-5.957980810740588
 20
241.78480310355607
 10
-5.687833895497461
 20
239.2123521093763
 10
-5.419591524018988
 20
236.63973448920794
 10
-5.153253626095398
 20
234.06695024919355
 10
-4.888820134641209
 20
231.4939993952023
 10
-4.626290985695208
 20
228.92088193283016
 10
-4.365666118419307
 20
226.3475978673997
 10
-4.1069454750985335
 20
223.77414720396038
 10
-3.850129001139871
 20
221.20052994728846
 10
-3.5952166450730347
 20
218.62674610188697
 10
-3.3422083585485356
 20
216.05279567198593
 10
-3.0911040963384537
 20
213.4786786615423
 10
-2.8419038163360506
 20
210.90439507423997
 10
-2.5946074795534506
 20
208.3299449134899
 10
-2.3492150501247315
 20
205.75532818242993
 10
-2.105726495303219
 20
203.1805448839251
 10
-1.8641417854611002
 20
200.60559502056745
 10
-1.6244608940905818
 20
198.03047859467614
 10
-1.3866837978027309
 20
195.45519560829737
 10
-1.1508104763278617
 20
192.87974606320464
 10
-0.9168409125143734
 20
190.30412996089836
 10
-0.6847750923299131
 20
187.72834730260632
 10
-0.45461300486021305
 20
185.15239808928334
 10
-0.2263546423094784
 20
182.5762823216115
 10
0.0
 20
180.0
 10
0.0
 20
180.0
 10
0.22445092362668442
 20
177.4235511245852
 10
0.4469981270121125
 20
174.8469356952308
 10
0.6676416054785751
 20
172.2701537115275
 10
0.8863813512302776
 20
169.69320517279328
 10
1.1032173533529523
 20
167.11609007807326
 10
1.3181495978142457
 20
164.53880842613978
 10
1.5311780674625577
 20
161.96136021549222
 10
1.742302742028202
 20
159.3837454443573
 10
1.9515235981222456
 20
156.80596411068868
 10
2.1588406092368966
 20
154.22801621216726
 10
2.3642537457443407
 20
151.6499017462009
 10
2.5677629748979025
 20
149.07162070992473
 10
2.769368260831662
 20
146.4931731002008
 10
2.969069564557744
 20
143.91455891361812
 10
3.1668668439694074
 20
141.33577814649288
 10
3.362760053838733
 20
138.7568307948681
 10
3.5567491458162337
 20
136.1777168545138
 10
3.7488340684316217
 20
133.59843632092688
 10
3.939014767091885
 20
131.01898918933105
 10
4.127291184082047
 20
128.43937545467693
 10
4.31366325856402
 20
125.85959511164188
 10
4.498130926576595
 20
123.27964815463
 10
4.680694121034283
 20
120.69953457777208
 10
4.861352771727319
 20
118.1192543749256
 10
5.04010680532127
 20
115.53880753967455
 10
5.216956145355097
 20
112.95819406532954
 10
5.391900712242719
 20
110.3774139449276
 10
5.564940423269502
 20
107.79646717123221
 10
5.736075192595383
 20
105.2153537367333
  0
LINE
  5
b8
330
1F
100
AcDbEntity
  8
Mirrors
100
AcDbLine
 10
-43.747653690479616
 20
100.88608843047393
 30
0.0
  11
-57.4730271456529
 21
250.2582494819887
 31
0.0
  0
LINE
  5
b9
330
1F
100
AcDbEntity
  8
Mirrors
100
AcDbLine
 10
327.9926087014098
 20
230.4150897577155
 30
0.0
  11
282.62775213742407
 21
212.72807127005365
 31
0.0
  0
LINE
  5
ba
330
1F
100
AcDbEntity
  8
Mirrors
100
AcDbLine
 10
225.70065793589384
 20
351.5306693359118
 30
0.0
  11
273.504924130463
 21
370.1687738955478
 31
0.0
  0
LINE
  5
bb
330
1F
100
AcDbEntity
  8
Mirrors
100
AcDbLine
 10
268.8464679925353
 20
368.3525177431829
 30
0.0
  11
323.334152563482
 21
228.5988336053506
 31
0.0
  0
LWPOLYLINE
  5
bc
330
1F
100
AcDbEntity
  8
Mirrors
100
AcDbPolyline
 90
60
 70
0
43
0.0
 10
273.504924130463
 20
370.1687738955478
 10
274.393612800715
 20
367.7394393944162
 10
275.28408306795313
 20
365.31079950892354
 10
276.17633485189566
 20
362.88285420776936
 10
277.07036807518347
 20
360.4556034607926
 10
277.9661826633838
 20
358.0290472389732
 10
278.8637785449865
 20
355.6031855144304
 10
279.76315565140544
 20
353.1780182604236
 10
280.66431391697694
 20
350.7535454513517
 10
281.5672532789593
 20
348.3297670627527
 10
282.47197367753284
 20
345.90668307130386
 10
283.3784750557987
 20
343.48429345482117
 10
284.28675735977885
 20
341.0625981922596
 10
285.1968205384153
 20
338.64159726371247
 10
286.10866454357034
 20
336.22129065041156
 10
287.0222893300253
 20
333.80167833472683
 10
287.93769485548046
 20
331.3827603001665
 10
288.8548810805558
 20
328.9645365313768
 10
289.77384796878766
 20
326.5470070141411
 10
290.6945954866326
 20
324.1301717353815
 10
291.6171236034642
 20
321.7140306831572
 10
292.541432291573
 20
319.2985838466647
 10
293.46752152616773
 20
316.8838312162383
 10
294.39539128537376
 20
314.4697727833494
 10
295.32504155023395
 20
312.05640854060704
 10
296.25647230470713
 20
309.64373848175694
 10
297.1896835356697
 20
307.23176260168236
 10
298.124675232914
 20
304.8204808964037
 10
299.06144738914907
 20
302.4098933630781
 10
300.0
 20
300.0
 10
300.0
 20
300.0
 10
300.9403330640093
 20
297.5908008066011
 10
301.88244658263454
 20
295.1822957834497
 10
302.8263405602504
 20
292.7744849322514
 10
303.7720150041481
 20
290.36736825584904
 10
304.7194699245351
 20
287.9609457582221
 10
305.66870533453516
 20
285.5552174444876
 10
306.6197212501894
 20
283.1501833208995
 10
307.5725176904549
 20
280.74584339484886
 10
308.52709467720626
 20
278.3421976748644
 10
309.48345223523495
 20
275.9392461706118
 10
310.44159039225025
 20
273.5369888928944
 10
311.40150917887854
 20
271.1354258536531
 10
312.36320862866353
 20
268.7345570659658
 10
313.3266887780685
 20
266.33438254404916
 10
314.2919496664739
 20
263.9349023032569
 10
315.258991336179
 20
261.53611636008077
 10
316.2278138324028
 20
259.13802473215105
 10
317.1984172032829
 20
256.7406274382356
 10
318.17080149987726
 20
254.34392449824128
 10
319.144966776164
 20
251.9479159332132
 10
320.12091308904184
 20
249.55260176533523
 10
321.09864049833055
 20
247.15798201793012
 10
322.07814906677186
 20
244.7640567154599
 10
323.0594388600294
 20
242.3708258835257
 10
324.0425099466893
 20
239.97828954886816
 10
325.0273623982617
 20
237.58644773936794
 10
326.01399628917943
 20
235.19530048404513
 10
327.0024116968015
 20
232.80484781306077
 10
327.9926087014098
 20
230.41508975771552
  0
LINE
  5
bd
330
1F
100
AcDbEntity
  8
Mirrors
100
AcDbLine
 10
282.62775213742407
 20
212.72807127005365
 30
0.0
  11
225.70065793589384
 21
351.5306693359118
 31
0.0
  0
ENDSEC
  0
SECTION
  2
OBJECTS
  0
DICTIONARY
  5
C
330
0
100
AcDbDictionary
281
     1
  3
ACAD_GROUP
350
D
  3
ACAD_LAYOUT
350
1A
  3
ACAD_MATERIAL
350
3B
  3
ACAD_MLEADERSTYLE
350
6E
  3
ACAD_MLINESTYLE
350
17
  3
ACAD_PLOTSETTINGS
350
19
  3
ACAD_PLOTSTYLENAME
350
E
  3
ACAD_TABLESTYLE
350
6D
  3
ACAD_VISUALSTYLE
350
2A
  0
SUN
  5
3F
330
29
100
AcDbSun
 90
        1
290
     0
 63
     7
421
 16777215
 40
1.0
291
     1
 91
  2455826
 92
 54000000
292
     0
 70
     2
 71
   256
280
     1
  0
DICTIONARY
  5
D
102
{ACAD_REACTORS
330
C
102
}
330
C
100
AcDbDictionary
281
     1
  0
DICTIONARY
  5
1A
102
{ACAD_REACTORS
330
C
102
}
330
C
100
AcDbDictionary
281
     1
  3
Layout1
350
1E
  3
Layout2
350
26
  3
Model
350
22
  0
DICTIONARY
  5
3B
102
{ACAD_REACTORS
330
C
102
}
330
C
100
AcDbDictionary
281
     1
  3
ByBlock
350
3D
  3
ByLayer
350
3C
  3
Global
350
3E
  0
DICTIONARY
  5
6E
102
{ACAD_REACTORS
330
C
102
}
330
C
100
AcDbDictionary
281
     1
  0
DICTIONARY
  5
17
102
{ACAD_REACTORS
330
C
102
}
330
C
100
AcDbDictionary
281
     1
  3
Standard
350
18
  0
DICTIONARY
  5
19
102
{ACAD_REACTORS
330
C
102
}
330
C
100
AcDbDictionary
281
     1
  0
ACDBDICTIONARYWDFLT
  5
E
102
{ACAD_REACTORS
330
C
102
}
330
C
100
AcDbDictionary
281
     1
  3
Normal
350
F
100
AcDbDictionaryWithDefault
340
F
  0
DICTIONARY
  5
6D
102
{ACAD_REACTORS
330
C
102
}
330
C
100
AcDbDictionary
281
     1
  0
DICTIONARY
  5
2A
102
{ACAD_REACTORS
330
C
102
}
330
C
100
AcDbDictionary
281
     1
  3
2dWireframe
350
2F
  3
3D Hidden
350
31
  3
3dWireframe
350
30
  3
Basic
350
32
  3
Brighten
350
36
  3
ColorChange
350
3A
  3
Conceptual
350
34
  3
Dim
350
35
  3
Facepattern
350
39
  3
Flat
350
2B
  3
FlatWithEdges
350
2C
  3
Gouraud
350
2D
  3
GouraudWithEdges
350
2E
  3
Linepattern
350
38
  3
Realistic
350
33
  3
Thicken
350
37
  0
LAYOUT
  5
1E
102
{ACAD_REACTORS
330
1A
102
}
330
1A
100
AcDbPlotSettings
  1

  2
none_device
  4

  6

 40
0.0
 41
0.0
 42
0.0
 43
0.0
 44
0.0
 45
0.0
 46
0.0
 47
0.0
 48
0.0
 49
0.0
140
0.0
141
0.0
142
1.0
143
1.0
 70
   688
 72
     0
 73
     0
 74
     5
  7

 75
    16
 76
     0
 77
     2
 78
   300
147
1.0
148
0.0
149
0.0
100
AcDbLayout
  1
Layout1
 70
     1
 71
     1
 10
0.0
 20
0.0
 11
420.0
 21
297.0
 12
0.0
 22
0.0
 32
0.0
 14
1.000000000000000E+20
 24
1.000000000000000E+20
 34
1.000000000000000E+20
 15
-1.000000000000000E+20
 25
-1.000000000000000E+20
 35
-1.000000000000000E+20
146
0.0
 13
0.0
 23
0.0
 33
0.0
 16
1.0
 26
0.0
 36
0.0
 17
0.0
 27
1.0
 37
0.0
 76
     0
330
1B
  0
LAYOUT
  5
26
102
{ACAD_REACTORS
330
1A
102
}
330
1A
100
AcDbPlotSettings
  1

  2
none_device
  4

  6

 40
0.0
 41
0.0
 42
0.0
 43
0.0
 44
0.0
 45
0.0
 46
0.0
 47
0.0
 48
0.0
 49
0.0
140
0.0
141
0.0
142
1.0
143
1.0
 70
   688
 72
     0
 73
     0
 74
     5
  7

 75
    16
 76
     0
 77
     2
 78
   300
147
1.0
148
0.0
149
0.0
100
AcDbLayout
  1
Layout2
 70
     1
 71
     2
 10
0.0
 20
0.0
 11
0.0
 21
0.0
 12
0.0
 22
0.0
 32
0.0
 14
0.0
 24
0.0
 34
0.0
 15
0.0
 25
0.0
 35
0.0
146
0.0
 13
0.0
 23
0.0
 33
0.0
 16
1.0
 26
0.0
 36
0.0
 17
0.0
 27
1.0
 37
0.0
 76
     0
330
23
  0
LAYOUT
  5
22
102
{ACAD_REACTORS
330
1A
102
}
330
1A
100
AcDbPlotSettings
  1

  2
none_device
  4

  6

 40
0.0
 41
0.0
 42
0.0
 43
0.0
 44
0.0
 45
0.0
 46
0.0
 47
0.0
 48
0.0
 49
0.0
140
0.0
141
0.0
142
1.0
143
1.0
 70
  1712
 72
     0
 73
     0
 74
     0
  7

 75
     0
 76
     0
 77
     2
 78
   300
147
1.0
148
0.0
149
0.0
100
AcDbLayout
  1
Model
 70
     1
 71
     0
 10
0.0
 20
0.0
 11
420.0
 21
297.0
 12
0.0
 22
0.0
 32
0.0
 14
1.0
 24
0.0
 34
0.0
 15
73.0
 25
41.0
 35
0.0
146
0.0
 13
0.0
 23
0.0
 33
0.0
 16
1.0
 26
0.0
 36
0.0
 17
0.0
 27
1.0
 37
0.0
 76
     0
330
1F
331
29
  0
MATERIAL
  5
3D
102
{ACAD_REACTORS
330
3B
102
}
330
3B
100
AcDbMaterial
  1
ByBlock
 72
     1
 94
      127
  0
MATERIAL
  5
3C
102
{ACAD_REACTORS
330
3B
102
}
330
3B
100
AcDbMaterial
  1
ByLayer
 72
     1
 94
      127
  0
MATERIAL
  5
3E
102
{ACAD_REACTORS
330
3B
102
}
330
3B
100
AcDbMaterial
  1
Global
 72
     1
 94
      127
  0
MLINESTYLE
  5
18
102
{ACAD_REACTORS
330
17
102
}
330
17
100
AcDbMlineStyle
  2
Standard
 70
     0
  3

 62
   256
 51
90.0
 52
90.0
 71
     2
 49
0.5
 62
   256
  6
BYLAYER
 49
-0.5
 62
   256
  6
BYLAYER
  0
ACDBPLACEHOLDER
  5
F
102
{ACAD_REACTORS
330
E
102
}
330
E
  0
VISUALSTYLE
  5
2F
102
{ACAD_REACTORS
330
2A
102
}
330
2A
100
AcDbVisualStyle
  2
2dWireframe
 70
     4
177
     2
291
     0
 71
     0
176
     1
 72
     2
176
     1
 73
     0
176
     1
 90
        0
176
     1
 40
-0.6
176
     1
 41
-30.0
176
     1
 62
     5
 63
     7
421
 16777215
176
     1
 74
     1
176
     1
 91
        4
176
     1
 64
     7
176
     1
 65
   257
176
     1
 75
     1
176
     1
175
     1
176
     1
 42
1.0
176
     1
 92
        0
176
     1
 66
   257
176
     1
 43
1.0
176
     1
 76
     1
176
     1
 77
     6
176
     1
 78
     2
176
     1
 67
     7
176
     1
 79
     5
176
     1
170
     0
176
     1
171
     0
176
     1
290
     0
176
     1
 93
        1
176
     1
 44
0.0
176
     1
173
     0
176
     1
  0
VISUALSTYLE
  5
31
102
{ACAD_REACTORS
330
2A
102
}
330
2A
100
AcDbVisualStyle
  2
3D Hidden
 70
     6
177
     2
291
     0
 71
     1
176
     1
 72
     2
176
     1
 73
     2
176
     1
 90
        0
176
     1
 40
-0.6
176
     1
 41
-30.0
176
     1
 62
     5
 63
     7
421
 16777215
176
     1
 74
     2
176
     1
 91
        2
176
     1
 64
     7
176
     1
 65
   257
176
     1
 75
     2
176
     1
175
     1
176
     1
 42
40.0
176
     1
 92
        0
176
     1
 66
   257
176
     1
 43
1.0
176
     1
 76
     1
176
     1
 77
     6
176
     1
 78
     2
176
     1
 67
     7
176
     1
 79
     3
176
     1
170
     0
176
     1
171
     0
176
     1
290
     0
176
     1
 93
        1
176
     1
 44
0.0
176
     1
173
     0
176
     1
  0
VISUALSTYLE
  5
30
102
{ACAD_REACTORS
330
2A
102
}
330
2A
100
AcDbVisualStyle
  2
3dWireframe
 70
     5
177
     2
291
     0
 71
     0
176
     1
 72
     2
176
     1
 73
     0
176
     1
 90
        0
176
     1
 40
-0.6
176
     1
 41
-30.0
176
     1
 62
     5
 63
     7
421
 16777215
176
     1
 74
     1
176
     1
 91
        4
176
     1
 64
     7
176
     1
 65
   257
176
     1
 75
     1
176
     1
175
     1
176
     1
 42
1.0
176
     1
 92
        0
176
     1
 66
   257
176
     1
 43
1.0
176
     1
 76
     1
176
     1
 77
     6
176
     1
 78
     2
176
     1
 67
     7
176
     1
 79
     5
176
     1
170
     0
176
     1
171
     0
176
     1
290
     0
176
     1
 93
        1
176
     1
 44
0.0
176
     1
173
     0
176
     1
  0
VISUALSTYLE
  5
32
102
{ACAD_REACTORS
330
2A
102
}
330
2A
100
AcDbVisualStyle
  2
Basic
 70
     7
177
     2
291
     1
 71
     1
176
     1
 72
     0
176
     1
 73
     1
176
     1
 90
        0
176
     1
 40
-0.6
176
     1
 41
-30.0
176
     1
 62
     5
 63
     7
421
 16777215
176
     1
 74
     0
176
     1
 91
        4
176
     1
 64
     7
176
     1
 65
   257
176
     1
 75
     1
176
     1
175
     1
176
     1
 42
1.0
176
     1
 92
        8
176
     1
 66
     7
176
     1
 43
1.0
176
     1
 76
     1
176
     1
 77
     6
176
     1
 78
     2
176
     1
 67
     7
176
     1
 79
     5
176
     1
170
     0
176
     1
171
     0
176
     1
290
     0
176
     1
 93
        1
176
     1
 44
0.0
176
     1
173
     0
176
     1
  0
VISUALSTYLE
  5
36
102
{ACAD_REACTORS
330
2A
102
}
330
2A
100
AcDbVisualStyle
  2
Brighten
 70
    12
177
     2
291
     1
 71
     2
176
     1
 72
     2
176
     1
 73
     0
176
     1
 90
        0
176
     1
 40
-0.6
176
     1
 41
-30.0
176
     1
 62
     5
 63
     7
421
 16777215
176
     1
 74
     1
176
     1
 91
        4
176
     1
 64
     7
176
     1
 65
   257
176
     1
 75
     1
176
     1
175
     1
176
     1
 42
1.0
176
     1
 92
        8
176
     1
 66
     7
176
     1
 43
1.0
176
     1
 76
     1
176
     1
 77
     6
176
     1
 78
     2
176
     1
 67
     7
176
     1
 79
     5
176
     1
170
     0
176
     1
171
     0
176
     1
290
     0
176
     1
 93
        1
176
     1
 44
50.0
176
     1
173
     0
176
     1
  0
VISUALSTYLE
  5
3A
102
{ACAD_REACTORS
330
2A
102
}
330
2A
100
AcDbVisualStyle
  2
ColorChange
 70
    16
177
     2
291
     1
 71
     2
176
     1
 72
     2
176
     1
 73
     3
176
     1
 90
        0
176
     1
 40
-0.6
176
     1
 41
-30.0
176
     1
 62
     5
 63
     8
421
  8421504
176
     1
 74
     1
176
     1
 91
        4
176
     1
 64
     7
176
     1
 65
   257
176
     1
 75
     1
176
     1
175
     1
176
     1
 42
1.0
176
     1
 92
        8
176
     1
 66
     8
424
  8421504
176
     1
 43
1.0
176
     1
 76
     1
176
     1
 77
     6
176
     1
 78
     2
176
     1
 67
     7
176
     1
 79
     5
176
     1
170
     0
176
     1
171
     0
176
     1
290
     0
176
     1
 93
        1
176
     1
 44
0.0
176
     1
173
     0
176
     1
  0
VISUALSTYLE
  5
34
102
{ACAD_REACTORS
330
2A
102
}
330
2A
100
AcDbVisualStyle
  2
Conceptual
 70
     9
177
     2
291
     0
 71
     3
176
     1
 72
     2
176
     1
 73
     0
176
     1
 90
        0
176
     1
 40
-0.6
176
     1
 41
-30.0
176
     1
 62
     5
 63
     7
421
 16777215
176
     1
 74
     2
176
     1
 91
        2
176
     1
 64
     7
176
     1
 65
   257
176
     1
 75
     1
176
     1
175
     1
176
     1
 42
40.0
176
     1
 92
        8
176
     1
 66
     7
176
     1
 43
1.0
176
     1
 76
     1
176
     1
 77
     6
176
     1
 78
     2
176
     1
 67
     7
176
     1
 79
     3
176
     1
170
     0
176
     1
171
     0
176
     1
290
     0
176
     1
 93
        1
176
     1
 44
0.0
176
     1
173
     0
176
     1
  0
VISUALSTYLE
  5
35
102
{ACAD_REACTORS
330
2A
102
}
330
2A
100
AcDbVisualStyle
  2
Dim
 70
    11
177
     2
291
     1
 71
     2
176
     1
 72
     2
176
     1
 73
     0
176
     1
 90
        0
176
     1
 40
-0.6
176
     1
 41
-30.0
176
     1
 62
     5
 63
     7
421
 16777215
176
     1
 74
     1
176
     1
 91
        4
176
     1
 64
     7
176
     1
 65
   257
176
     1
 75
     1
176
     1
175
     1
176
     1
 42
1.0
176
     1
 92
        8
176
     1
 66
     7
176
     1
 43
1.0
176
     1
 76
     1
176
     1
 77
     6
176
     1
 78
     2
176
     1
 67
     7
176
     1
 79
     5
176
     1
170
     0
176
     1
171
     0
176
     1
290
     0
176
     1
 93
        1
176
     1
 44
-50.0
176
     1
173
     0
176
     1
  0
VISUALSTYLE
  5
39
102
{ACAD_REACTORS
330
2A
102
}
330
2A
100
AcDbVisualStyle
  2
Facepattern
 70
    15
177
     2
291
     1
 71
     2
176
     1
 72
     2
176
     1
 73
     0
176
     1
 90
        0
176
     1
 40
-0.6
176
     1
 41
-30.0
176
     1
 62
     5
 63
     7
421
 16777215
176
     1
 74
     1
176
     1
 91
        4
176
     1
 64
     7
176
     1
 65
   257
176
     1
 75
     1
176
     1
175
     1
176
     1
 42
1.0
176
     1
 92
        8
176
     1
 66
     7
176
     1
 43
1.0
176
     1
 76
     1
176
     1
 77
     6
176
     1
 78
     2
176
     1
 67
     7
176
     1
 79
     5
176
     1
170
     0
176
     1
171
     0
176
     1
290
     0
176
     1
 93
        1
176
     1
 44
0.0
176
     1
173
     0
176
     1
  0
VISUALSTYLE
  5
2B
102
{ACAD_REACTORS
330
2A
102
}
330
2A
100
AcDbVisualStyle
  2
Flat
 70
     0
177
     2
291
     1
 71
     2
176
     1
 72
     1
176
     1
 73
     1
176
     1
 90
        2
176
     1
 40
-0.6
176
     1
 41
30.0
176
     1
 62
     5
 63
     7
421
 16777215
176
     1
 74
     0
176
     1
 91
        4
176
     1
 64
     7
176
     1
 65
   257
176
     1
 75
     1
176
     1
175
     1
176
     1
 42
1.0
176
     1
 92
        8
176
     1
 66
     7
176
     1
 43
1.0
176
     1
 76
     1
176
     1
 77
     6
176
     1
 78
     2
176
     1
 67
     7
176
     1
 79
     5
176
     1
170
     0
176
     1
171
     0
176
     1
290
     0
176
     1
 93
       13
176
     1
 44
0.0
176
     1
173
     0
176
     1
  0
VISUALSTYLE
  5
2C
102
{ACAD_REACTORS
330
2A
102
}
330
2A
100
AcDbVisualStyle
  2
FlatWithEdges
 70
     1
177
     2
291
     1
 71
     2
176
     1
 72
     1
176
     1
 73
     1
176
     1
 90
        2
176
     1
 40
-0.6
176
     1
 41
30.0
176
     1
 62
     5
 63
     7
421
 16777215
176
     1
 74
     1
176
     1
 91
        4
176
     1
 64
     7
176
     1
 65
   257
176
     1
 75
     1
176
     1
175
     1
176
     1
 42
1.0
176
     1
 92
        0
176
     1
 66
   257
176
     1
 43
1.0
176
     1
 76
     1
176
     1
 77
     6
176
     1
 78
     2
176
     1
 67
     7
176
     1
 79
     5
176
     1
170
     0
176
     1
171
     0
176
     1
290
     0
176
     1
 93
       13
176
     1
 44
0.0
176
     1
173
     0
176
     1
  0
VISUALSTYLE
  5
2D
102
{ACAD_REACTORS
330
2A
102
}
330
2A
100
AcDbVisualStyle
  2
Gouraud
 70
     2
177
     2
291
     1
 71
     2
176
     1
 72
     2
176
     1
 73
     1
176
     1
 90
        2
176
     1
 40
-0.6
176
     1
 41
30.0
176
     1
 62
     5
 63
     7
421
 16777215
176
     1
 74
     0
176
     1
 91
        4
176
     1
 64
     7
176
     1
 65
   257
176
     1
 75
     1
176
     1
175
     1
176
     1
 42
1.0
176
     1
 92
        0
176
     1
 66
     7
176
     1
 43
1.0
176
     1
 76
     1
176
     1
 77
     6
176
     1
 78
     2
176
     1
 67
     7
176
     1
 79
     5
176
     1
170
     0
176
     1
171
     0
176
     1
290
     0
176
     1
 93
       13
176
     1
 44
0.0
176
     1
173
     0
176
     1
  0
VISUALSTYLE
  5
2E
102
{ACAD_REACTORS
330
2A
102
}
330
2A
100
AcDbVisualStyle
  2
GouraudWithEdges
 70
     3
177
     2
291
     1
 71
     2
176
     1
 72
     2
176
     1
 73
     1
176
     1
 90
        2
176
     1
 40
-0.6
176
     1
 41
30.0
176
     1
 62
     5
 63
     7
421
 16777215
176
     1
 74
     1
176
     1
 91
        4
176
     1
 64
     7
176
     1
 65
   257
176
     1
 75
     1
176
     1
175
     1
176
     1
 42
1.0
176
     1
 92
        0
176
     1
 66
   257
176
     1
 43
1.0
176
     1
 76
     1
176
     1
 77
     6
176
     1
 78
     2
176
     1
 67
     7
176
     1
 79
     5
176
     1
170
     0
176
     1
171
     0
176
     1
290
     0
176
     1
 93
       13
176
     1
 44
0.0
176
     1
173
     0
176
     1
  0
VISUALSTYLE
  5
38
102
{ACAD_REACTORS
330
2A
102
}
330
2A
100
AcDbVisualStyle
  2
Linepattern
 70
    14
177
     2
291
     1
 71
     2
176
     1
 72
     2
176
     1
 73
     0
176
     1
 90
        0
176
     1
 40
-0.6
176
     1
 41
-30.0
176
     1
 62
     5
 63
     7
421
 16777215
176
     1
 74
     1
176
     1
 91
        4
176
     1
 64
     7
176
     1
 65
   257
176
     1
 75
     7
176
     1
175
     7
176
     1
 42
1.0
176
     1
 92
        8
176
     1
 66
     7
176
     1
 43
1.0
176
     1
 76
     1
176
     1
 77
     6
176
     1
 78
     2
176
     1
 67
     7
176
     1
 79
     5
176
     1
170
     0
176
     1
171
     0
176
     1
290
     0
176
     1
 93
        1
176
     1
 44
0.0
176
     1
173
     0
176
     1
  0
VISUALSTYLE
  5
33
102
{ACAD_REACTORS
330
2A
102
}
330
2A
100
AcDbVisualStyle
  2
Realistic
 70
     8
177
     2
291
     0
 71
     2
176
     1
 72
     2
176
     1
 73
     0
176
     1
 90
        0
176
     1
 40
-0.6
176
     1
 41
-30.0
176
     1
 62
     5
 63
     7
421
 16777215
176
     1
 74
     1
176
     1
 91
        0
176
     1
 64
     7
176
     1
 65
   257
176
     1
 75
     1
176
     1
175
     1
176
     1
 42
1.0
176
     1
 92
        8
176
     1
 66
     8
424
  7895160
176
     1
 43
1.0
176
     1
 76
     1
176
     1
 77
     6
176
     1
 78
     2
176
     1
 67
     7
176
     1
 79
     5
176
     1
170
     0
176
     1
171
     0
176
     1
290
     0
176
     1
 93
       13
176
     1
 44
0.0
176
     1
173
     0
176
     1
  0
VISUALSTYLE
  5
37
102
{ACAD_REACTORS
330
2A
102
}
330
2A
100
AcDbVisualStyle
  2
Thicken
 70
    13
177
     2
291
     1
 71
     2
176
     1
 72
     2
176
     1
 73
     0
176
     1
 90
        0
176
     1
 40
-0.6
176
     1
 41
-30.0
176
     1
 62
     5
 63
     7
421
 16777215
176
     1
 74
     1
176
     1
 91
        4
176
     1
 64
     7
176
     1
 65
   257
176
     1
 75
     1
176
     1
175
     1
176
     1
 42
1.0
176
     1
 92
       12
176
     1
 66
     7
176
     1
 43
1.0
176
     1
 76
     1
176
     1
 77
     6
176
     1
 78
     2
176
     1
 67
     7
176
     1
 79
     5
176
     1
170
     0
176
     1
171
     0
176
     1
290
     0
176
     1
 93
        1
176
     1
 44
0.0
176
     1
173
     0
176
     1
  0
ENDSEC
0
EOF
